<?xml version="1.0" encoding="UTF-8"?>
<svg width="112px" height="112px" viewBox="0 0 112 112" version="1.1" xmlns="http://www.w3.org/2000/svg" xmlns:xlink="http://www.w3.org/1999/xlink">
    <title>icon-linkedin</title>
    <g id="Page-1" stroke="none" stroke-width="1" fill="none" fill-rule="evenodd">
        <g id="home" transform="translate(-1024.000000, -7786.000000)" fill="#067F8A" fill-rule="nonzero">
            <g id="Group-20" transform="translate(0.000000, 6148.000000)">
                <g id="Group-23" transform="translate(599.000000, 1638.000000)">
                    <g id="Group-21" transform="translate(425.000000, 0.000000)">
                        <path d="M56,9.33333333 C81.732,9.33333333 102.666667,30.268 102.666667,56 C102.666667,81.732 81.732,102.666667 56,102.666667 C30.268,102.666667 9.33333333,81.732 9.33333333,56 C9.33333333,30.268 30.268,9.33333333 56,9.33333333 Z M56,0 C25.074,0 0,25.074 0,56 C0,86.926 25.074,112 56,112 C86.926,112 112,86.926 112,56 C112,25.074 86.926,0 56,0 Z M46.6666667,37.3333333 C46.6666667,39.9326667 44.5806667,42.0373333 42,42.0373333 C39.4193333,42.0373333 37.3333333,39.9373333 37.3333333,37.3333333 C37.3333333,34.734 39.4193333,32.6293333 42,32.6293333 C44.5806667,32.6293333 46.6666667,34.7386667 46.6666667,37.3333333 L46.6666667,37.3333333 Z M46.6666667,46.6666667 L37.3333333,46.6666667 L37.3333333,74.6666667 L46.6666667,74.6666667 L46.6666667,46.6666667 Z M60.6666667,46.6666667 L51.3333333,46.6666667 L51.3333333,74.6666667 L60.6666667,74.6666667 L60.6666667,61.3153333 C60.6666667,53.2793333 70.0093333,52.5373333 70.0093333,61.3153333 L70.0093333,74.6666667 L79.3333333,74.6666667 L79.3333333,58.9913333 C79.3333333,43.666 64.736,44.226 60.6666667,51.7673333 L60.6666667,46.6666667 Z" id="icon-linkedin"></path>
                    </g>
                </g>
            </g>
        </g>
    </g>
</svg>