<?xml version="1.0" encoding="UTF-8"?>
<svg width="112px" height="112px" viewBox="0 0 112 112" version="1.1" xmlns="http://www.w3.org/2000/svg" xmlns:xlink="http://www.w3.org/1999/xlink">
    <title>icon-instagram</title>
    <g id="Page-1" stroke="none" stroke-width="1" fill="none" fill-rule="evenodd">
        <g id="home" transform="translate(-1280.000000, -7786.000000)" fill="#067F8A" fill-rule="nonzero">
            <g id="Group-20" transform="translate(0.000000, 6148.000000)">
                <g id="Group-23" transform="translate(599.000000, 1638.000000)">
                    <g id="Group-21" transform="translate(425.000000, 0.000000)">
                        <path d="M312,9.33333333 C337.732,9.33333333 358.666667,30.268 358.666667,56 C358.666667,81.732 337.732,102.666667 312,102.666667 C286.268,102.666667 265.333333,81.732 265.333333,56 C265.333333,30.268 286.268,9.33333333 312,9.33333333 Z M312,0 C281.074,0 256,25.074 256,56 C256,86.926 281.074,112 312,112 C342.926,112 368,86.926 368,56 C368,25.074 342.926,0 312,0 Z M312,33.0493333 C319.476,33.0493333 320.362667,33.0773333 323.316667,33.2126667 C330.909333,33.558 334.446667,37.156 334.796667,44.688 C334.927333,47.642 334.955333,48.524 334.955333,56 C334.955333,63.476 334.927333,64.3626667 334.796667,67.312 C334.446667,74.8393333 330.914,78.4466667 323.316667,78.792 C320.362667,78.9226667 319.480667,78.9553333 312,78.9553333 C304.524,78.9553333 303.637333,78.9273333 300.688,78.792 C293.081333,78.442 289.558,74.83 289.208,67.312 C289.077333,64.3626667 289.044667,63.476 289.044667,56 C289.044667,48.524 289.077333,47.6373333 289.208,44.688 C289.553333,37.1513333 293.090667,33.5533333 300.688,33.208 C303.637333,33.0726667 304.524,33.0493333 312,33.0493333 Z M312,28 C304.393333,28 303.446,28.0326667 300.454667,28.1726667 C290.281333,28.6393333 284.634667,34.2813333 284.168,44.4546667 C284.032667,47.446 284,48.398 284,56 C284,63.6066667 284.032667,64.5586667 284.168,67.5453333 C284.634667,77.714 290.281333,83.3653333 300.454667,83.832 C303.446,83.9673333 304.393333,84 312,84 C319.606667,84 320.558667,83.9673333 323.55,83.832 C333.704667,83.3653333 339.374667,77.7233333 339.832,67.5453333 C339.967333,64.5586667 340,63.6066667 340,56 C340,48.398 339.967333,47.446 339.832,44.4546667 C339.374667,34.2953333 333.723333,28.6346667 323.55,28.1726667 C320.558667,28.0326667 319.606667,28 312,28 L312,28 Z M312,41.622 C304.062,41.622 297.622,48.0573333 297.622,56 C297.622,63.9426667 304.062,70.378 312,70.378 C319.938,70.378 326.378,63.9426667 326.378,56 C326.378,48.062 319.938,41.622 312,41.622 Z M312,65.3333333 C306.843333,65.3333333 302.666667,61.1566667 302.666667,56 C302.666667,50.848 306.843333,46.6666667 312,46.6666667 C317.152,46.6666667 321.338,50.8433333 321.338,56 C321.338,61.1566667 317.152,65.3333333 312,65.3333333 Z M326.942667,37.6973333 C325.09,37.6973333 323.582667,39.2 323.582667,41.0573333 C323.582667,42.91 325.085333,44.4173333 326.942667,44.4173333 C328.8,44.4173333 330.307333,42.9146667 330.307333,41.0573333 C330.307333,39.2 328.804667,37.6973333 326.942667,37.6973333 Z" id="icon-instagram"></path>
                    </g>
                </g>
            </g>
        </g>
    </g>
</svg>