<?xml version="1.0" encoding="UTF-8"?>
<svg width="112px" height="112px" viewBox="0 0 112 112" version="1.1" xmlns="http://www.w3.org/2000/svg" xmlns:xlink="http://www.w3.org/1999/xlink">
    <title>icon-twitter</title>
    <g id="Page-1" stroke="none" stroke-width="1" fill="none" fill-rule="evenodd">
        <g id="home" transform="translate(-1152.000000, -7786.000000)" fill="#067F8A" fill-rule="nonzero">
            <g id="Group-20" transform="translate(0.000000, 6148.000000)">
                <g id="Group-23" transform="translate(599.000000, 1638.000000)">
                    <g id="Group-21" transform="translate(425.000000, 0.000000)">
                        <path d="M184,9.33333333 C209.732,9.33333333 230.666667,30.268 230.666667,56 C230.666667,81.732 209.732,102.666667 184,102.666667 C158.268,102.666667 137.333333,81.732 137.333333,56 C137.333333,30.268 158.268,9.33333333 184,9.33333333 Z M184,0 C153.074,0 128,25.074 128,56 C128,86.926 153.074,112 184,112 C214.926,112 240,86.926 240,56 C240,25.074 214.926,0 184,0 Z M214.333333,40.964 C212.275333,41.8786667 210.058667,42.4946667 207.734667,42.7746667 C210.11,41.3513333 211.925333,39.102 212.788667,36.4186667 C210.567333,37.7346667 208.108,38.6913333 205.49,39.2046667 C203.399333,36.9693333 200.408,35.574 197.108667,35.574 C189.688667,35.574 184.238,42.4946667 185.913333,49.6813333 C176.37,49.2006667 167.9,44.6273333 162.234667,37.6786667 C159.224667,42.84 160.676,49.5973333 165.790667,53.018 C163.91,52.9573333 162.141333,52.4393333 160.592,51.5806667 C160.466,56.9006667 164.283333,61.88 169.808667,62.9906667 C168.194,63.4293333 166.420667,63.532 164.619333,63.1866667 C166.08,67.7506667 170.331333,71.0686667 175.352667,71.162 C170.513333,74.9513333 164.432667,76.6453333 158.333333,75.9266667 C163.42,79.1886667 169.454,81.088 175.940667,81.088 C197.276667,81.088 209.326,63.07 208.598,46.9093333 C210.847333,45.2946667 212.793333,43.2693333 214.333333,40.964 L214.333333,40.964 Z" id="icon-twitter"></path>
                    </g>
                </g>
            </g>
        </g>
    </g>
</svg>