<?xml version="1.0" encoding="UTF-8"?>
<svg width="226px" height="106px" viewBox="0 0 226 106" version="1.1" xmlns="http://www.w3.org/2000/svg" xmlns:xlink="http://www.w3.org/1999/xlink">
    <title>logo</title>
    <g id="Logo" stroke="none" stroke-width="1" fill="none" fill-rule="evenodd">
        <g transform="translate(-141.000000, -93.000000)" fill="#1A1919" id="logo">
            <path d="M353.6708,171.8659 C356.2618,171.8659 358.5408,172.2639 360.4468,173.0499 C362.3318,173.8299 363.8618,174.9489 364.9928,176.3779 C365.3528,176.8329 365.3408,177.4799 364.9498,177.9089 L364.9498,177.9089 L362.6488,180.4349 C362.4308,180.6729 362.1038,180.8039 361.8008,180.8019 C361.4788,180.7959 361.1738,180.6529 360.9648,180.4079 C360.1718,179.4819 359.1618,178.7149 357.9628,178.1309 C356.7328,177.5309 355.2528,177.2269 353.5678,177.2269 C352.4138,177.2269 351.3688,177.3499 350.4638,177.5909 C349.6268,177.8159 348.9698,178.1339 348.5118,178.5369 C348.1518,178.8539 347.9838,179.1989 347.9838,179.6229 C347.9838,180.1719 348.1578,180.5689 348.5318,180.8729 C349.0258,181.2749 349.7688,181.5989 350.7398,181.8389 C351.8198,182.1069 353.0918,182.3329 354.5238,182.5119 C355.9148,182.6739 357.2898,182.8809 358.6028,183.1269 C359.9668,183.3829 361.2118,183.7549 362.3018,184.2339 C363.4828,184.7519 364.4318,185.4729 365.1218,186.3799 C365.8438,187.3279 366.2098,188.5409 366.2098,189.9839 C366.2098,191.7789 365.6648,193.3749 364.5898,194.7289 C363.5438,196.0449 362.0648,197.0709 360.1928,197.7799 C358.3748,198.4659 356.2278,198.8149 353.8098,198.8149 C351.1848,198.8149 348.7828,198.4209 346.6728,197.6439 C344.5578,196.8659 342.6578,195.5959 341.0278,193.8659 C340.6468,193.4619 340.6328,192.8319 340.9678,192.3889 L340.9678,192.3889 L343.1538,189.4959 C343.3558,189.2329 343.6558,189.0719 343.9808,189.0519 C344.3078,189.0329 344.6238,189.1539 344.8548,189.3879 C346.1068,190.6649 347.4478,191.6729 348.8428,192.3839 C350.2288,193.0939 351.9108,193.4529 353.8438,193.4529 C354.9568,193.4529 356.0378,193.3179 357.0578,193.0529 C358.0198,192.8019 358.8118,192.4239 359.4108,191.9309 C359.8958,191.5329 360.1208,191.0679 360.1208,190.4689 C360.1208,190.0219 359.9798,189.7489 359.6318,189.5279 C359.1078,189.1949 358.3058,188.9269 357.2498,188.7319 C356.0748,188.5149 354.6318,188.3029 352.9618,188.0999 C350.8058,187.8119 348.9168,187.3759 347.3358,186.7989 C345.6578,186.1899 344.3308,185.3379 343.3908,184.2669 C342.3988,183.1369 341.8958,181.7139 341.8958,180.0389 C341.8958,178.2649 342.4658,176.7339 343.5908,175.4869 C344.6568,174.3049 346.1028,173.3899 347.8858,172.7699 C349.6138,172.1699 351.5598,171.8659 353.6708,171.8659 Z M200.6398,172.2128 C201.2798,172.2128 201.8028,172.7358 201.8028,173.3758 L201.8028,173.3758 L201.8028,192.8288 C201.8028,192.8488 201.8188,192.8648 201.8388,192.8648 L201.8388,192.8648 L216.8838,192.8648 C217.5238,192.8648 218.0468,193.3878 218.0468,194.0278 L218.0468,194.0278 L218.0468,197.3038 C218.0468,197.9468 217.5258,198.4688 216.8828,198.4688 L216.8828,198.4688 L197.2248,198.4688 C196.5818,198.4688 196.0608,197.9468 196.0608,197.3038 L196.0608,197.3038 L196.0608,173.3768 C196.0608,172.7358 196.5838,172.2128 197.2248,172.2128 L197.2248,172.2128 Z M240.2695,172.2123 C240.7035,172.2123 241.0925,172.4543 241.2825,172.8443 L241.2825,172.8443 L252.9415,196.8483 C253.1125,197.2003 253.0905,197.6083 252.8835,197.9393 C252.6755,198.2703 252.3175,198.4683 251.9275,198.4683 L251.9275,198.4683 L248.1075,198.4683 C247.6645,198.4683 247.2595,198.2153 247.0645,197.8173 L247.0645,197.8173 L244.6205,192.8063 C244.6135,192.7933 244.6015,192.7853 244.5875,192.7853 L244.5875,192.7853 L231.5035,192.7853 C231.4895,192.7853 231.4775,192.7933 231.4715,192.8063 L231.4715,192.8063 L229.0275,197.8143 C228.8325,198.2143 228.4255,198.4683 227.9805,198.4683 L227.9805,198.4683 L224.3375,198.4683 C223.9465,198.4683 223.5895,198.2703 223.3815,197.9393 C223.1745,197.6083 223.1515,197.2003 223.3215,196.8493 L223.3215,196.8493 L235.0505,172.8443 C235.2425,172.4533 235.6305,172.2123 236.0625,172.2123 L236.0625,172.2123 Z M321.4762,172.2121 C324.7582,172.2121 327.1952,172.7781 328.9282,173.9411 C330.7622,175.1731 331.6922,176.9791 331.6922,179.3111 C331.6922,180.6091 331.3062,181.7931 330.5472,182.8301 C330.1872,183.3191 329.7492,183.7531 329.2332,184.1321 C329.4832,184.2701 329.7282,184.4181 329.9652,184.5761 L329.9652,184.5761 C330.8522,185.1691 331.5802,185.9441 332.1282,186.8791 C332.6892,187.8411 332.9742,189.0021 332.9742,190.3291 C332.9742,191.9191 332.6392,193.2721 331.9782,194.3511 C331.3252,195.4181 330.4462,196.2701 329.3682,196.8821 C328.3392,197.4661 327.1932,197.8821 325.9632,198.1201 C324.7772,198.3511 323.5702,198.4681 322.3772,198.4681 L322.3772,198.4681 L261.0792,198.4681 C260.4362,198.4681 259.9152,197.9471 259.9152,197.3041 L259.9152,197.3041 L259.9152,173.3751 C259.9152,172.7331 260.4352,172.2121 261.0782,172.2121 L261.0782,172.2121 Z M322.3432,187.6911 L265.6932,187.6911 C265.6742,187.6911 265.6572,187.7071 265.6572,187.7271 L265.6572,187.7271 L265.6572,192.8291 C265.6572,192.8491 265.6742,192.8651 265.6932,192.8651 L265.6932,192.8651 L322.5152,192.8641 C323.7962,192.8641 324.8812,192.6681 325.7382,192.2801 C326.6652,191.8601 327.2452,190.9101 327.1492,189.9691 C327.1002,189.4881 326.9312,189.1411 326.6172,188.8751 C326.1362,188.4701 325.5212,188.1721 324.7882,187.9901 C323.9802,187.7921 323.1572,187.6911 322.3432,187.6911 L322.3432,187.6911 Z M238.0405,179.3023 L238.0115,179.3643 L234.2455,187.1303 C234.2335,187.1543 234.2515,187.1823 234.2775,187.1823 L234.2775,187.1823 L241.8125,187.1823 C241.8395,187.1823 241.8575,187.1543 241.8455,187.1303 L241.8455,187.1303 L238.9655,181.2033 C238.6445,180.5393 238.3365,179.9073 238.0405,179.3023 L238.0405,179.3023 Z M321.7532,177.8161 L265.6932,177.8161 C265.6742,177.8161 265.6572,177.8321 265.6572,177.8521 L265.6572,177.8521 L265.6572,182.0171 C265.6572,182.0371 265.6742,182.0531 265.6932,182.0531 L265.6932,182.0531 L322.1692,182.0531 C322.8692,182.0331 323.5512,181.9171 324.1692,181.7071 C324.7192,181.5211 325.1542,181.2531 325.4642,180.9101 C325.7242,180.6201 325.8462,180.2881 325.8462,179.8641 C325.8462,179.1441 325.5782,178.7101 324.9482,178.4141 C324.1052,178.0171 323.0302,177.8161 321.7532,177.8161 L321.7532,177.8161 Z M291.0742,136.1368 C292.9082,136.1368 294.6322,136.3458 296.1972,136.7578 C297.7592,137.1698 299.1632,137.7128 300.3722,138.3718 C301.5532,139.0168 302.5152,139.7288 303.2282,140.4898 C303.6322,140.9208 303.6372,141.5768 303.2432,142.0168 L303.2432,142.0168 L300.9762,144.5738 C300.5942,145.0098 299.9272,145.0788 299.4592,144.7258 C298.3162,143.8708 297.0252,143.1568 295.6282,142.6058 C294.2272,142.0538 292.6952,141.7738 291.0742,141.7738 C289.1732,141.7738 287.4352,142.1288 285.9122,142.8268 C284.4122,143.5148 283.2132,144.4528 282.3462,145.6158 C281.5012,146.7548 281.0902,148.0158 281.0902,149.4718 C281.0902,150.8458 281.3472,152.0288 281.8562,152.9868 C282.3692,153.9518 283.0752,154.7548 283.9572,155.3758 C284.8722,156.0208 285.9262,156.5078 287.0912,156.8228 C288.2812,157.1448 289.5392,157.3078 290.8312,157.3078 C292.5522,157.3078 294.1232,157.0998 295.5032,156.6898 C296.8372,156.2938 297.9142,155.7498 298.7042,155.0708 C299.0472,154.7768 299.3112,154.4698 299.5002,154.1448 L299.5002,154.1448 L291.1682,154.1448 C290.5252,154.1448 290.0052,153.6238 290.0052,152.9808 L290.0052,152.9808 L290.0052,149.6698 C290.0052,149.0298 290.5282,148.5068 291.1682,148.5068 L291.1682,148.5068 L305.7012,148.5068 L305.8492,149.3288 C305.9002,149.6128 305.9392,149.9088 305.9652,150.2198 C305.9902,150.5268 306.0042,150.8198 306.0042,151.1008 C306.0042,152.4568 305.7792,153.7608 305.3372,154.9768 C304.8942,156.1868 304.3332,157.2158 303.6672,158.0358 C302.4052,159.6008 300.6052,160.8298 298.3212,161.6868 C296.0932,162.5218 293.4682,162.9448 290.5192,162.9448 C288.5102,162.9448 286.5692,162.6628 284.7512,162.1038 C282.9102,161.5398 281.2532,160.6908 279.8232,159.5828 C278.3692,158.4538 277.2072,157.0258 276.3702,155.3388 C275.5312,153.6468 275.1052,151.6728 275.1052,149.4718 C275.1052,147.5638 275.5272,145.7718 276.3592,144.1478 C277.1782,142.5428 278.3382,141.1178 279.8022,139.9148 C281.2512,138.7238 282.9592,137.7848 284.8762,137.1258 C286.7842,136.4698 288.8692,136.1368 291.0742,136.1368 Z M238.3339,135.8036 C240.9269,135.8036 243.2069,136.2026 245.1089,136.9886 C246.9969,137.7686 248.5269,138.8886 249.6579,140.3186 C250.0169,140.7716 250.0049,141.4166 249.6159,141.8446 L249.6159,141.8446 L247.3119,144.3736 C247.0929,144.6116 246.8029,144.7466 246.4629,144.7396 C246.1419,144.7336 245.8369,144.5906 245.6279,144.3456 C244.8349,143.4186 243.8249,142.6526 242.6259,142.0686 C241.3949,141.4686 239.9149,141.1646 238.2309,141.1646 C237.0789,141.1646 236.0339,141.2876 235.1269,141.5296 C234.2889,141.7536 233.6319,142.0716 233.1749,142.4746 C232.8149,142.7916 232.6469,143.1356 232.6469,143.5596 C232.6469,144.1176 232.8159,144.5026 233.1949,144.8106 C233.6889,145.2106 234.4319,145.5366 235.4039,145.7776 C236.4789,146.0436 237.7509,146.2696 239.1869,146.4486 C240.5809,146.6116 241.9559,146.8186 243.2669,147.0646 C244.6249,147.3196 245.8699,147.6916 246.9649,148.1706 C248.1469,148.6886 249.0949,149.4116 249.7849,150.3186 C250.5069,151.2656 250.8729,152.4776 250.8729,153.9206 C250.8729,155.7146 250.3279,157.3116 249.2529,158.6666 L249.2529,158.6666 L249.037939,158.926112 C248.007953,160.118982 246.6031,161.056733 244.8559,161.7166 C243.0399,162.4036 240.8929,162.7506 238.4729,162.7506 C235.8469,162.7506 233.4449,162.3576 231.3359,161.5816 C229.2189,160.8026 227.3189,159.5306 225.6909,157.8026 C225.3099,157.3976 225.2959,156.7686 225.6309,156.3246 L225.6309,156.3246 L227.8159,153.4336 C228.0109,153.1736 228.3119,153.0106 228.6389,152.9896 C228.9659,152.9666 229.2889,153.0906 229.5189,153.3266 C230.7699,154.6016 232.1109,155.6096 233.5059,156.3216 C234.8929,157.0316 236.5739,157.3906 238.5069,157.3906 C239.6189,157.3906 240.6999,157.2556 241.7209,156.9896 C242.6839,156.7386 243.4759,156.3616 244.0739,155.8686 C244.5589,155.4696 244.7839,155.0046 244.7839,154.4056 C244.7839,153.9586 244.6429,153.6866 244.2939,153.4646 C243.7709,153.1316 242.9689,152.8646 241.9129,152.6686 C240.7549,152.4556 239.3119,152.2426 237.6239,152.0376 C235.4759,151.7506 233.5859,151.3146 231.9979,150.7376 C230.3199,150.1266 228.9939,149.2746 228.0549,148.2056 C227.0619,147.0726 226.5579,145.6496 226.5579,143.9756 C226.5579,142.2036 227.1279,140.6726 228.2539,139.4246 C229.3199,138.2426 230.7659,137.3286 232.5489,136.7076 C234.2769,136.1076 236.2239,135.8036 238.3339,135.8036 Z M174.0177,136.1496 C176.3687,136.1496 178.4737,136.4926 180.2767,137.1656 C182.0977,137.8476 183.6497,138.8086 184.8877,140.0216 C186.1277,141.2366 187.0727,142.6596 187.6997,144.2506 C188.3207,145.8306 188.6367,147.5216 188.6367,149.2776 C188.6367,151.6566 188.0747,153.8676 186.9677,155.8466 L186.9677,155.8466 C185.8487,157.8416 184.1837,159.4536 182.0167,160.6366 C179.8687,161.8096 177.1777,162.4046 174.0177,162.4046 L174.0177,162.4046 L142.9537,162.4046 C142.3137,162.4046 141.7907,161.8816 141.7907,161.2416 L141.7907,161.2416 L141.7907,137.3136 C141.7907,136.6706 142.3117,136.1496 142.9537,136.1496 L142.9537,136.1496 Z M216.7783,136.1495 C217.4213,136.1495 217.9423,136.6705 217.9423,137.3135 L217.9423,137.3135 L217.9423,140.5895 C217.9423,141.2325 217.4213,141.7535 216.7783,141.7535 L216.7783,141.7535 L201.5883,141.7535 C201.5683,141.7535 201.5523,141.7695 201.5523,141.7895 L201.5523,141.7895 L201.5523,146.1285 C201.5523,146.1485 201.5683,146.1645 201.5883,146.1645 L201.5883,146.1645 L214.8723,146.1645 C215.5143,146.1645 216.0353,146.6855 216.0353,147.3275 L216.0353,147.3275 L216.0353,150.6035 C216.0353,151.2465 215.5143,151.7675 214.8713,151.7675 L214.8713,151.7675 L201.5883,151.7675 C201.5683,151.7675 201.5523,151.7835 201.5523,151.8035 L201.5523,151.8035 L201.5523,156.7655 C201.5523,156.7855 201.5683,156.8015 201.5883,156.8015 L201.5883,156.8015 L216.7783,156.8015 C217.4213,156.8015 217.9423,157.3225 217.9423,157.9645 L217.9423,157.9645 L217.9423,161.2415 C217.9423,161.8835 217.4213,162.4045 216.7783,162.4045 L216.7783,162.4045 L196.9733,162.4045 C196.3333,162.4045 195.8103,161.8815 195.8103,161.2415 L195.8103,161.2415 L195.8103,137.3135 C195.8103,136.6705 196.3303,136.1495 196.9733,136.1495 L196.9733,136.1495 Z M264.6201,136.6771 C265.1921,136.6771 265.6571,137.1421 265.6571,137.7151 L265.6571,137.7151 L265.6571,161.3671 C265.6571,161.9401 265.1921,162.4051 264.6201,162.4051 L264.6201,162.4051 L260.9531,162.4051 C260.3801,162.4051 259.9151,161.9401 259.9151,161.3671 L259.9151,161.3671 L259.9151,137.7151 C259.9151,137.1421 260.3801,136.6771 260.9531,136.6771 L260.9531,136.6771 Z M320.0383,136.15 L320.4233,136.491 L337.3863,153.606 C337.4103,153.629 337.4493,153.613 337.4493,153.58 L337.4493,153.58 L337.4493,137.313 C337.4493,136.671 337.9693,136.15 338.6123,136.15 L338.6123,136.15 L342.0273,136.15 C342.6703,136.15 343.1913,136.671 343.1913,137.314 L343.1913,137.314 L343.1913,161.241 C343.1913,161.884 342.6703,162.405 342.0273,162.405 L342.0273,162.405 L338.0643,162.405 L337.6843,162.09 L320.7723,145.45 C320.7493,145.428 320.7113,145.441 320.7113,145.473 C320.7103,146.406 320.709425,147.504938 320.708659,148.682344 L320.70793,149.882667 C320.707814,150.086 320.707701,150.290703 320.707591,150.496371 L320.706964,151.738717 C320.706865,151.946625 320.706769,152.154688 320.706675,152.3625 L320.7059,154.215129 C320.705821,154.417797 320.705744,154.619 320.70567,154.818333 L320.704724,157.61748 C320.704671,157.787992 320.70462,157.954609 320.704571,158.116927 L320.7043,159.036 L320.7033,161.245 C320.7023,161.886 320.1833,162.405 319.5433,162.405 L319.5433,162.405 L316.1243,162.405 C315.4813,162.405 314.9613,161.884 314.9613,161.241 L314.9613,161.241 L314.9613,137.314 C314.9613,136.671 315.4813,136.15 316.1243,136.15 L316.1243,136.15 L320.0383,136.15 Z M173.8447,141.7536 L147.5687,141.7536 C147.5487,141.7536 147.5327,141.7696 147.5327,141.7896 L147.5327,141.7896 L147.5327,156.7656 C147.5327,156.7856 147.5487,156.8016 147.5687,156.8016 L147.5687,156.8016 L173.8447,156.8016 C175.9787,156.8016 177.7097,156.4566 178.9887,155.7756 C180.2507,155.1026 181.1527,154.2296 181.7447,153.1076 C182.3457,151.9636 182.6507,150.6746 182.6507,149.2776 C182.6507,147.9266 182.3457,146.6606 181.7437,145.5146 C181.1497,144.3896 180.2447,143.5026 178.9767,142.8076 C177.7007,142.1086 175.9727,141.7536 173.8447,141.7536 L173.8447,141.7536 Z M253.0631,93.1855 C257.3511,93.1855 260.9351,93.4675 263.4431,93.7095 C263.5441,93.7175 263.6431,93.7265 263.7431,93.7375 C263.8191,93.7455 263.9041,93.7525 263.9781,93.7595 L263.9781,93.7595 L263.8911,93.7595 C270.1651,94.5405 275.0481,99.8425 275.1641,106.2975 L275.1641,106.2975 C275.1651,106.2985 275.1641,106.2995 275.1641,106.3015 L275.1646,106.303 L275.1651,106.3045 C275.0481,112.7595 270.1651,118.0615 263.8911,118.8425 L263.8911,118.8425 L263.9781,118.8425 C263.9041,118.8495 263.8191,118.8575 263.7431,118.8645 C263.6431,118.8765 263.5441,118.8845 263.4431,118.8935 C261.8771,119.0445 259.8891,119.2105 257.5721,119.3145 C258.3751,119.9245 259.1721,120.5115 259.9311,121.0415 L259.9311,121.0415 L260.0411,121.1105 C260.3721,121.2855 260.6931,121.4065 260.9961,121.4685 C262.1031,121.6955 263.1941,121.7265 264.2341,121.5605 C264.5531,121.5085 264.8791,121.5965 265.1281,121.8015 C265.3481,121.9945 265.5251,122.3075 265.5361,122.6305 L265.5361,122.6305 L265.5921,126.0975 C265.5921,126.0975 265.6041,126.4615 265.5601,126.5805 C265.4831,126.7825 265.3131,126.9975 265.1261,127.1055 C264.9561,127.2035 264.7491,127.2285 264.7491,127.2285 C263.2421,127.5085 261.7591,127.4955 260.1951,127.1375 C259.5051,126.9795 258.8291,126.7145 258.1821,126.3635 L258.1821,126.3635 L257.2401,125.8155 C255.3161,124.6505 252.4581,122.4835 248.7721,119.4115 C248.7661,119.4055 248.7581,119.4025 248.7501,119.4025 C245.3491,119.3745 240.9471,119.2595 237.2531,118.9025 C237.0621,118.8875 236.8721,118.8725 236.6841,118.8495 C236.6601,118.8465 236.6341,118.8445 236.6101,118.8425 L236.6101,118.8425 L236.6391,118.8425 C230.3641,118.0615 225.4801,112.7595 225.3651,106.3045 L225.3651,106.3045 L225.3641,106.3045 L225.3641,106.2975 C225.4801,99.8425 230.3641,94.5405 236.6391,93.7595 L236.6391,93.7595 L236.6101,93.7595 C236.6341,93.7575 236.6601,93.7555 236.6841,93.7525 C236.8721,93.7305 237.0621,93.7145 237.2531,93.7005 C241.8171,93.2585 247.4891,93.1845 250.9771,93.1915 L250.9771,93.1915 L251.1701,93.1915 L251.5641,93.1895 C252.0751,93.1865 252.5751,93.1855 253.0631,93.1855 Z M198.2505,93.1921 C204.9835,93.1361 210.1205,93.4481 213.5145,94.1241 C214.2765,94.2751 214.9995,94.5271 215.6615,94.8711 C217.0835,95.6111 218.2215,96.5631 219.1865,97.7541 C219.1865,97.7541 219.3285,97.9071 219.3945,98.0921 C219.4665,98.2961 219.4575,98.5691 219.3845,98.7731 C219.3415,98.8931 219.0955,99.1621 219.0955,99.1621 L219.0955,99.1621 L216.8055,101.7651 C216.5875,102.0041 216.2495,102.1271 215.9565,102.1311 C215.6345,102.1261 215.3295,101.9811 215.1205,101.7351 C214.4365,100.9351 213.5855,100.2511 212.5955,99.7061 C212.3245,99.5571 212.0015,99.4401 211.6355,99.3611 C209.1345,98.8171 204.5515,98.5421 198.0385,98.5561 L197.7175,98.5561 C197.362978,98.5511435 196.627973,98.5429885 195.646979,98.5421447 L195.136606,98.5423808 C192.311931,98.5474081 187.897413,98.6168826 184.4435,98.9501 C183.6075,99.0941 183.2985,99.2711 182.6335,99.8431 C182.2195,100.2501 182.1255,100.5851 182.1255,100.9521 C182.1255,101.5091 182.2945,101.8951 182.6735,102.2021 C183.1675,102.6031 183.9105,102.9281 184.8825,103.1691 C185.6655,103.3521 192.5025,103.6031 195.7895,103.7231 C197.1595,103.7731 198.2155,103.8121 198.6055,103.8341 C199.2255,103.8691 200.1005,103.9031 201.4115,103.9541 C203.3995,104.0311 206.3835,104.1461 210.9855,104.3621 C212.7325,104.4441 214.2435,104.7251 215.6045,105.2201 C215.8975,105.3271 216.1835,105.4411 216.4595,105.5621 C217.6405,106.0801 218.5885,106.8021 219.2795,107.7091 C220.0015,108.6581 220.3685,109.8701 220.3685,111.3121 L220.3685,111.3121 L220.3465,111.7491 C220.3485,113.4691 219.7775,115.0001 218.6525,116.2471 C217.6405,117.3701 216.2875,118.2511 214.6295,118.8671 L214.6295,118.8671 L214.0335,119.0531 C211.8205,119.5991 207.2555,119.8751 200.4575,119.8751 L199.965093,119.87473 C199.6345,119.874211 199.299167,119.8731 198.9585,119.8711 L198.9585,119.8711 L198.5645,119.8691 L198.3715,119.8691 C193.7855,119.8781 185.4055,119.7541 180.7655,118.8291 L180.7655,118.8291 L180.7665,118.8181 C180.0465,118.6651 179.3595,118.4281 178.7315,118.1011 C177.3095,117.3611 176.1715,116.4091 175.2065,115.2181 C175.2065,115.2181 175.0645,115.0651 174.9985,114.8791 C174.9255,114.6761 174.9355,114.4021 175.0085,114.1991 C175.0515,114.0791 175.2975,113.8111 175.2975,113.8111 L175.2975,113.8111 L177.5875,111.2081 C177.8055,110.9681 178.1435,110.8451 178.4365,110.8411 C178.7585,110.8461 179.0635,110.9911 179.2725,111.2371 C179.9575,112.0371 180.8075,112.7211 181.7975,113.2661 C182.0685,113.4161 182.3915,113.5321 182.7575,113.6111 L182.7575,113.6111 C186.687964,114.435493 196.355665,114.502892 198.396649,114.50775 L198.6675,114.5081 C198.962935,114.512013 199.522878,114.518195 200.269301,114.520562 L201.249525,114.521184 C204.075517,114.515884 208.491457,114.446622 211.9405,114.1141 C212.7775,113.9701 213.0865,113.7931 213.7515,113.2211 C214.1635,112.8981 214.2785,112.0671 214.2785,111.7981 C214.2785,111.3561 214.1325,111.0751 213.7885,110.8561 C213.2655,110.5241 212.4635,110.2561 211.4075,110.0611 C210.7455,109.9381 206.2555,109.7141 198.0605,109.3941 L198.0605,109.3941 L197.1895,109.3591 C196.8115,109.3441 196.2605,109.3341 195.5775,109.3231 C192.7235,109.2721 187.4145,109.1791 182.7565,108.4631 C182.4595,108.4171 182.1615,108.3561 181.8715,108.2721 C179.9775,107.7241 178.7205,106.9491 177.5325,105.5971 C176.5405,104.4651 176.0365,103.0431 176.0365,101.3681 C176.0365,99.5961 176.6065,98.0641 177.7315,96.8171 C178.5315,95.9311 179.5455,95.1921 180.7465,94.6221 C181.5745,94.2291 182.4805,93.9501 183.4395,93.7941 C186.1265,93.3591 190.8405,93.1561 197.4275,93.1931 L197.4275,93.1931 L197.8205,93.1951 Z M253.0631,99.0885 C252.5751,99.0885 252.0751,99.0895 251.5641,99.0925 L251.5641,99.0925 L251.1701,99.0945 L250.9771,99.0945 C247.5661,99.0865 242.0691,99.1585 237.5591,99.5745 C237.5381,99.5765 237.5161,99.5785 237.4941,99.5805 L237.4941,99.5805 L237.3831,99.5925 C236.1741,99.7265 234.9941,100.1155 234.0011,100.8175 C232.6721,101.7575 231.3201,103.4205 231.2501,106.3015 C231.3201,109.1865 232.6771,110.8515 234.0101,111.7905 C235.0001,112.4885 236.1761,112.8755 237.3801,113.0095 L237.3801,113.0095 L237.4941,113.0215 C237.5161,113.0235 237.5381,113.0255 237.5591,113.0275 C241.693267,113.408833 246.656788,113.501111 250.08267,113.507681 L251.1701,113.5075 L251.5641,113.5095 C252.0751,113.5125 252.5751,113.5135 253.0631,113.5135 C257.0221,113.5135 260.3961,113.2725 262.8641,113.0455 C264.1991,112.9235 265.5001,112.5035 266.5801,111.7095 C267.8871,110.7475 269.2021,109.0825 269.2731,106.3015 C269.2021,103.5195 267.8871,101.8555 266.5801,100.8925 C265.5001,100.0985 264.1991,99.6785 262.8641,99.5565 C260.3961,99.3295 257.0221,99.0885 253.0631,99.0885 Z"></path>
        </g>
    </g>
</svg>