<?xml version="1.0" encoding="UTF-8"?>
<svg width="225px" height="107px" viewBox="0 0 225 107" version="1.1" xmlns="http://www.w3.org/2000/svg" xmlns:xlink="http://www.w3.org/1999/xlink">
    <!-- Generator: Sketch 64 (93537) - https://sketch.com -->
    <title>logo-sqdl</title>
    <desc>Created with Sketch.</desc>
    <g id="Page-1" stroke="none" stroke-width="1" fill="none" fill-rule="evenodd">
        <g id="logo-sqdl" fill="#222222">
            <path d="M138.507,66.929 C139.936,68.037 141.594,68.886 143.435,69.45 C145.253,70.008 147.193,70.291 149.203,70.291 C152.151,70.291 154.776,69.867 157.005,69.032 C159.289,68.175 161.089,66.946 162.351,65.382 C163.017,64.561 163.578,63.532 164.02,62.322 C164.463,61.106 164.687,59.803 164.687,58.446 C164.687,58.166 164.674,57.873 164.648,57.565 C164.623,57.255 164.584,56.959 164.533,56.675 L164.385,55.852 L149.852,55.852 C149.212,55.852 148.688,56.376 148.688,57.015 L148.688,60.326 C148.688,60.969 149.209,61.49 149.852,61.49 L158.184,61.49 C157.995,61.815 157.73,62.123 157.388,62.417 C156.598,63.095 155.52,63.64 154.186,64.036 C152.807,64.446 151.235,64.653 149.515,64.653 C148.223,64.653 146.965,64.49 145.774,64.168 C144.609,63.853 143.556,63.367 142.641,62.722 C141.759,62.101 141.053,61.297 140.54,60.333 C140.031,59.375 139.773,58.192 139.773,56.818 C139.773,55.362 140.185,54.1 141.03,52.962 C141.896,51.799 143.096,50.86 144.596,50.173 C146.119,49.474 147.856,49.12 149.758,49.12 C151.379,49.12 152.911,49.4 154.311,49.952 C155.709,50.503 157,51.217 158.143,52.072 C158.61,52.425 159.278,52.355 159.66,51.92 L161.927,49.362 C162.321,48.923 162.315,48.266 161.912,47.836 C161.199,47.075 160.237,46.362 159.056,45.718 C157.847,45.058 156.442,44.515 154.881,44.103 C153.315,43.691 151.592,43.482 149.758,43.482 C147.553,43.482 145.468,43.815 143.56,44.471 C141.643,45.131 139.935,46.069 138.485,47.261 C137.021,48.464 135.862,49.888 135.043,51.493 C134.211,53.118 133.789,54.909 133.789,56.818 C133.789,59.019 134.215,60.993 135.054,62.684 C135.891,64.372 137.053,65.8 138.507,66.929" id="Fill-1"></path>
            <path d="M75.143,12.908 C74.866,12.786 74.581,12.673 74.287,12.566 C72.927,12.071 71.416,11.79 69.669,11.708 C65.067,11.492 62.083,11.376 60.095,11.299 C58.784,11.248 57.908,11.215 57.288,11.179 C56.899,11.158 55.843,11.118 54.473,11.068 C51.187,10.948 44.349,10.697 43.566,10.514 C42.594,10.274 41.851,9.949 41.357,9.548 C40.978,9.24 40.809,8.854 40.809,8.297 C40.809,7.931 40.903,7.595 41.316,7.188 C41.982,6.617 42.291,6.44 43.127,6.296 C48.092,5.816 55.042,5.882 56.4,5.901 L56.722,5.901 C63.235,5.888 67.817,6.162 70.319,6.706 C70.685,6.786 71.008,6.902 71.278,7.052 C72.27,7.597 73.119,8.281 73.804,9.081 C74.013,9.327 74.318,9.471 74.64,9.477 C74.933,9.472 75.27,9.349 75.489,9.11 L77.778,6.507 C77.778,6.507 78.024,6.238 78.067,6.119 C78.141,5.915 78.15,5.642 78.077,5.438 C78.012,5.253 77.87,5.099 77.87,5.099 C76.905,3.909 75.767,2.957 74.345,2.217 C73.683,1.872 72.96,1.62 72.197,1.469 C68.804,0.793 63.667,0.481 56.934,0.538 L56.504,0.541 L56.11,0.539 C49.524,0.502 44.81,0.704 42.123,1.14 C41.164,1.295 40.258,1.574 39.43,1.968 C38.229,2.538 37.215,3.276 36.415,4.162 C35.29,5.41 34.72,6.941 34.72,8.713 C34.72,10.388 35.224,11.811 36.216,12.942 C37.403,14.295 38.661,15.07 40.555,15.618 C40.845,15.701 41.143,15.763 41.44,15.809 C46.098,16.524 51.407,16.618 54.261,16.668 C54.943,16.68 55.494,16.69 55.873,16.705 L56.744,16.739 C64.938,17.06 69.429,17.284 70.091,17.406 C71.147,17.601 71.948,17.869 72.472,18.202 C72.815,18.421 72.962,18.702 72.962,19.143 C72.962,19.413 72.847,20.243 72.436,20.567 C71.77,21.138 71.461,21.315 70.624,21.46 C65.666,21.938 58.71,21.871 57.352,21.854 C56.151,21.854 45.594,21.827 41.44,20.958 L41.44,20.957 C41.075,20.877 40.752,20.761 40.481,20.612 C39.49,20.066 38.641,19.383 37.956,18.582 C37.747,18.336 37.441,18.192 37.12,18.186 C36.827,18.191 36.489,18.314 36.27,18.553 L33.98,21.156 C33.98,21.156 33.734,21.425 33.692,21.544 C33.618,21.748 33.609,22.021 33.682,22.225 C33.748,22.41 33.89,22.564 33.89,22.564 C34.854,23.754 35.993,24.706 37.415,25.447 C38.043,25.773 38.729,26.01 39.45,26.164 L39.448,26.174 C44.089,27.1 52.469,27.224 57.055,27.215 L57.248,27.214 L57.642,27.216 C58.152,27.219 58.652,27.221 59.141,27.221 C65.939,27.221 70.504,26.944 72.717,26.399 C72.917,26.336 73.112,26.275 73.313,26.213 C74.971,25.597 76.324,24.715 77.336,23.593 C78.461,22.346 79.031,20.814 79.03,19.094 L79.052,18.658 C79.052,17.216 78.686,16.004 77.963,15.055 C77.272,14.148 76.323,13.425 75.143,12.908" id="Fill-2"></path>
            <path d="M125.263,19.055 C124.184,19.849 122.882,20.269 121.548,20.391 C119.079,20.618 115.706,20.859 111.746,20.859 C111.258,20.859 110.759,20.858 110.247,20.855 L109.853,20.853 L109.661,20.853 C106.25,20.861 100.752,20.789 96.243,20.373 C96.221,20.371 96.199,20.369 96.178,20.367 L96.063,20.355 C94.859,20.221 93.684,19.835 92.693,19.137 C91.36,18.197 90.003,16.533 89.934,13.647 C90.003,10.767 91.355,9.103 92.685,8.163 C93.678,7.461 94.858,7.072 96.066,6.938 L96.178,6.926 C96.199,6.924 96.221,6.922 96.243,6.92 C100.752,6.504 106.25,6.432 109.661,6.44 L109.853,6.44 L110.247,6.438 C110.759,6.435 111.258,6.434 111.746,6.434 C115.706,6.434 119.079,6.675 121.548,6.902 C122.882,7.024 124.184,7.444 125.263,8.238 C126.57,9.2 127.885,10.865 127.956,13.647 C127.885,16.428 126.57,18.093 125.263,19.055 Z M133.848,13.643 L133.848,13.643 C133.731,7.188 128.849,1.886 122.574,1.105 L122.661,1.105 C122.588,1.098 122.503,1.091 122.427,1.083 C122.327,1.072 122.228,1.063 122.127,1.054 C119.619,0.813 116.033,0.531 111.746,0.531 C111.258,0.531 110.759,0.532 110.247,0.535 L109.853,0.537 L109.661,0.537 C106.172,0.53 100.5,0.604 95.936,1.046 C95.746,1.06 95.556,1.076 95.367,1.098 C95.343,1.101 95.317,1.103 95.293,1.105 L95.322,1.105 C89.047,1.886 84.164,7.188 84.048,13.643 C84.048,13.644 84.048,13.645 84.048,13.647 C84.048,13.648 84.048,13.649 84.048,13.65 C84.164,20.105 89.047,25.407 95.322,26.188 L95.293,26.188 C95.317,26.19 95.343,26.192 95.367,26.195 C95.556,26.218 95.746,26.233 95.936,26.248 C99.631,26.605 104.032,26.721 107.434,26.748 C107.441,26.748 107.449,26.752 107.456,26.757 C111.143,29.829 114,31.996 115.924,33.161 L116.864,33.709 C117.513,34.06 118.188,34.325 118.879,34.483 C120.441,34.841 121.926,34.854 123.432,34.574 C123.432,34.574 123.639,34.549 123.81,34.45 C123.997,34.343 124.167,34.128 124.243,33.926 C124.288,33.807 124.275,33.443 124.275,33.443 L124.22,29.976 C124.209,29.653 124.031,29.34 123.811,29.147 C123.562,28.942 123.236,28.854 122.917,28.906 C121.878,29.072 120.787,29.041 119.68,28.814 C119.376,28.752 119.055,28.631 118.726,28.454 L118.725,28.456 L118.614,28.387 C117.855,27.857 117.059,27.27 116.256,26.66 C118.572,26.556 120.56,26.39 122.127,26.239 C122.228,26.23 122.327,26.221 122.427,26.21 C122.503,26.203 122.588,26.195 122.661,26.188 L122.574,26.188 C128.849,25.407 133.731,20.105 133.848,13.65 C133.848,13.649 133.848,13.648 133.848,13.647 C133.848,13.645 133.848,13.644 133.848,13.643 L133.848,13.643 Z" id="Fill-3"></path>
            <path d="M6.216,49.135 C6.216,49.115 6.232,49.099 6.252,49.099 L32.528,49.099 C34.656,49.099 36.384,49.454 37.66,50.153 C38.928,50.848 39.833,51.735 40.427,52.86 C41.029,54.006 41.334,55.272 41.334,56.623 C41.334,58.02 41.029,59.309 40.428,60.453 C39.836,61.575 38.934,62.448 37.672,63.121 C36.393,63.802 34.662,64.147 32.528,64.147 L6.252,64.147 C6.232,64.147 6.216,64.131 6.216,64.111 L6.216,49.135 Z M40.7,67.982 C42.867,66.799 44.532,65.187 45.649,63.193 L45.65,63.192 C46.758,61.213 47.319,59.002 47.319,56.623 C47.319,54.867 47.004,53.176 46.383,51.596 C45.756,50.005 44.81,48.582 43.571,47.367 C42.333,46.154 40.781,45.193 38.96,44.512 C37.157,43.838 35.052,43.495 32.701,43.495 L1.638,43.495 C0.995,43.495 0.474,44.016 0.474,44.659 L0.474,68.587 C0.474,69.227 0.997,69.75 1.638,69.75 L32.701,69.75 C35.86,69.75 38.552,69.155 40.7,67.982 L40.7,67.982 Z" id="Fill-4"></path>
            <path d="M75.462,49.099 C76.104,49.099 76.625,48.578 76.625,47.935 L76.625,44.659 C76.625,44.016 76.104,43.495 75.462,43.495 L55.656,43.495 C55.015,43.495 54.493,44.016 54.493,44.658 L54.493,68.587 C54.493,69.227 55.017,69.75 55.656,69.75 L75.462,69.75 C76.104,69.75 76.625,69.229 76.625,68.587 L76.625,65.31 C76.625,64.668 76.104,64.147 75.462,64.147 L60.271,64.147 C60.252,64.147 60.235,64.131 60.235,64.111 L60.235,59.149 C60.235,59.129 60.252,59.113 60.271,59.113 L73.555,59.113 C74.198,59.113 74.719,58.592 74.719,57.949 L74.719,54.673 C74.719,54.031 74.198,53.51 73.556,53.51 L60.271,53.51 C60.252,53.51 60.235,53.493 60.235,53.473 L60.235,49.135 C60.235,49.115 60.252,49.099 60.271,49.099 L75.462,49.099" id="Fill-5"></path>
            <path d="M107.936,66.012 L107.936,66.012 C109.012,64.657 109.557,63.06 109.557,61.266 C109.557,59.823 109.19,58.611 108.469,57.664 C107.778,56.757 106.83,56.034 105.648,55.516 C104.554,55.037 103.309,54.665 101.95,54.41 C100.64,54.164 99.265,53.957 97.87,53.794 C96.435,53.615 95.162,53.389 94.088,53.123 C93.115,52.882 92.372,52.556 91.879,52.156 C91.499,51.848 91.33,51.463 91.33,50.905 C91.33,50.481 91.498,50.137 91.858,49.82 C92.315,49.417 92.973,49.099 93.811,48.875 C94.718,48.633 95.763,48.51 96.914,48.51 C98.599,48.51 100.078,48.814 101.31,49.414 C102.509,49.998 103.519,50.764 104.311,51.691 C104.52,51.936 104.825,52.079 105.146,52.085 C105.486,52.092 105.776,51.957 105.995,51.719 L108.299,49.19 C108.688,48.762 108.7,48.117 108.342,47.664 C107.21,46.234 105.68,45.114 103.793,44.334 C101.891,43.548 99.61,43.149 97.018,43.149 C94.907,43.149 92.961,43.453 91.232,44.053 C89.449,44.674 88.004,45.588 86.937,46.77 C85.811,48.018 85.241,49.549 85.241,51.321 C85.241,52.995 85.745,54.418 86.738,55.551 C87.678,56.62 89.004,57.472 90.682,58.083 C92.27,58.66 94.159,59.096 96.308,59.383 C97.995,59.588 99.438,59.801 100.597,60.014 C101.652,60.21 102.454,60.477 102.978,60.81 C103.326,61.032 103.468,61.304 103.468,61.751 C103.468,62.35 103.242,62.815 102.758,63.214 C102.159,63.707 101.367,64.084 100.404,64.335 C99.384,64.601 98.303,64.736 97.19,64.736 C95.258,64.736 93.576,64.377 92.189,63.667 C90.795,62.955 89.453,61.947 88.202,60.672 C87.973,60.436 87.649,60.312 87.322,60.335 C86.995,60.356 86.694,60.519 86.5,60.779 L84.314,63.671 C83.979,64.114 83.993,64.743 84.374,65.148 C86.003,66.876 87.902,68.148 90.02,68.927 C92.129,69.703 94.53,70.096 97.156,70.096 C99.576,70.096 101.724,69.749 103.539,69.062 C105.411,68.355 106.891,67.329 107.936,66.012" id="Fill-6"></path>
            <path d="M123.303,44.023 L119.637,44.023 C119.063,44.023 118.599,44.487 118.599,45.06 L118.599,68.713 C118.599,69.286 119.063,69.75 119.637,69.75 L123.303,69.75 C123.876,69.75 124.341,69.286 124.341,68.713 L124.341,45.06 C124.341,44.487 123.876,44.023 123.303,44.023" id="Fill-7"></path>
            <path d="M200.711,43.495 L197.296,43.495 C196.653,43.495 196.133,44.016 196.133,44.658 L196.133,60.926 C196.133,60.958 196.094,60.974 196.07,60.951 L179.106,43.837 L178.722,43.495 L174.808,43.495 C174.165,43.495 173.645,44.016 173.645,44.659 L173.645,68.587 C173.645,69.229 174.165,69.75 174.808,69.75 L178.227,69.75 C178.867,69.75 179.386,69.231 179.387,68.591 L179.388,66.382 C179.389,62.938 179.391,56.55 179.394,52.818 C179.395,52.786 179.433,52.773 179.455,52.796 L196.368,69.435 L196.748,69.75 L200.711,69.75 C201.353,69.75 201.875,69.229 201.875,68.586 L201.875,44.659 C201.875,44.016 201.353,43.495 200.711,43.495" id="Fill-8"></path>
            <path d="M75.567,100.211 L60.522,100.211 C60.502,100.211 60.486,100.194 60.486,100.175 L60.486,80.721 C60.486,80.081 59.963,79.558 59.323,79.558 L55.908,79.558 C55.268,79.558 54.744,80.082 54.744,80.722 L54.744,104.65 C54.744,105.293 55.265,105.814 55.908,105.814 L75.566,105.814 C76.209,105.814 76.73,105.293 76.73,104.65 L76.73,101.374 C76.73,100.734 76.207,100.211 75.567,100.211" id="Fill-9"></path>
            <path d="M96.725,86.648 C97.02,87.253 97.329,87.885 97.649,88.55 L100.529,94.475 C100.541,94.5 100.523,94.528 100.496,94.528 L92.962,94.528 C92.935,94.528 92.917,94.5 92.929,94.476 L96.695,86.709 C96.705,86.689 96.715,86.668 96.725,86.648 Z M99.967,80.19 C99.776,79.8 99.388,79.558 98.954,79.558 L94.747,79.558 C94.314,79.558 93.927,79.799 93.734,80.19 L82.006,104.195 C81.836,104.547 81.858,104.954 82.065,105.285 C82.273,105.616 82.631,105.814 83.021,105.814 L86.664,105.814 C87.109,105.814 87.516,105.56 87.711,105.16 L90.154,100.151 C90.161,100.14 90.173,100.132 90.187,100.132 L103.27,100.132 C103.285,100.132 103.297,100.14 103.304,100.151 L105.748,105.163 C105.942,105.561 106.348,105.814 106.791,105.814 L110.611,105.814 C111.002,105.814 111.359,105.616 111.567,105.285 C111.774,104.954 111.797,104.547 111.626,104.194 L99.967,80.19 L99.967,80.19 Z" id="Fill-10"></path>
            <path d="M124.341,95.073 C124.341,95.053 124.357,95.037 124.377,95.037 L181.026,95.036 C181.841,95.036 182.664,95.138 183.472,95.336 C184.205,95.517 184.82,95.815 185.301,96.221 C185.615,96.487 185.784,96.834 185.833,97.314 C185.929,98.256 185.349,99.206 184.422,99.626 C183.564,100.014 182.479,100.21 181.199,100.21 L124.377,100.211 C124.357,100.211 124.341,100.194 124.341,100.175 L124.341,95.073 Z M184.53,87.21 C184.53,87.634 184.408,87.966 184.147,88.256 C183.838,88.598 183.402,88.866 182.853,89.053 C182.234,89.263 181.553,89.379 180.853,89.398 L124.377,89.399 C124.357,89.399 124.341,89.383 124.341,89.363 L124.341,85.198 C124.341,85.178 124.357,85.162 124.377,85.162 L180.436,85.162 C181.714,85.162 182.789,85.363 183.632,85.76 C184.262,86.056 184.53,86.49 184.53,87.21 Z M188.65,91.923 L188.648,91.922 C188.412,91.764 188.167,91.615 187.917,91.477 C188.433,91.098 188.871,90.664 189.23,90.176 C189.99,89.139 190.376,87.954 190.376,86.657 C190.376,84.325 189.446,82.518 187.612,81.287 C185.879,80.123 183.441,79.558 180.16,79.558 L119.762,79.558 C119.119,79.558 118.599,80.079 118.599,80.721 L118.599,104.65 C118.599,105.293 119.12,105.814 119.763,105.814 L181.061,105.813 C182.254,105.813 183.461,105.696 184.646,105.466 C185.877,105.227 187.022,104.811 188.052,104.227 C189.13,103.615 190.009,102.764 190.662,101.696 C191.323,100.617 191.658,99.265 191.658,97.675 C191.658,96.348 191.373,95.186 190.811,94.224 C190.264,93.289 189.536,92.515 188.65,91.923 L188.65,91.923 Z" id="Fill-11"></path>
            <path d="M220.984,91.58 C219.895,91.101 218.649,90.729 217.285,90.473 C215.973,90.227 214.598,90.019 213.206,89.857 C211.774,89.679 210.502,89.453 209.423,89.185 C208.451,88.945 207.708,88.62 207.215,88.219 C206.841,87.915 206.666,87.518 206.666,86.968 C206.666,86.544 206.834,86.2 207.194,85.883 C207.652,85.479 208.31,85.161 209.146,84.937 C210.052,84.695 211.097,84.573 212.25,84.573 C213.936,84.573 215.415,84.877 216.645,85.476 C217.845,86.061 218.854,86.827 219.647,87.753 C219.856,87.998 220.161,88.142 220.483,88.148 C220.786,88.15 221.113,88.019 221.331,87.781 L223.634,85.254 C224.024,84.826 224.036,84.179 223.677,83.724 C222.545,82.295 221.016,81.176 219.129,80.396 C217.224,79.61 214.944,79.211 212.353,79.211 C210.242,79.211 208.296,79.515 206.568,80.116 C204.785,80.736 203.34,81.65 202.273,82.833 C201.148,84.079 200.578,85.611 200.578,87.384 C200.578,89.06 201.081,90.483 202.073,91.613 C203.014,92.683 204.341,93.536 206.019,94.145 C207.6,94.722 209.488,95.158 211.645,95.446 C213.314,95.649 214.758,95.861 215.933,96.078 C216.988,96.273 217.79,96.541 218.314,96.874 C218.662,97.095 218.804,97.367 218.804,97.814 C218.804,98.414 218.578,98.879 218.094,99.277 C217.494,99.77 216.702,100.148 215.74,100.398 C214.721,100.664 213.64,100.799 212.526,100.799 C210.594,100.799 208.911,100.439 207.525,99.73 C206.131,99.019 204.789,98.011 203.537,96.734 C203.307,96.5 202.99,96.379 202.663,96.398 C202.338,96.418 202.038,96.578 201.836,96.842 L199.651,99.734 C199.316,100.178 199.33,100.807 199.711,101.212 C201.342,102.941 203.241,104.212 205.355,104.99 C207.466,105.766 209.867,106.16 212.492,106.16 C214.91,106.16 217.058,105.812 218.875,105.126 C220.747,104.417 222.227,103.39 223.272,102.074 C224.348,100.721 224.893,99.125 224.893,97.33 C224.893,95.887 224.526,94.674 223.805,93.725 C223.114,92.819 222.165,92.098 220.984,91.58" id="Fill-12"></path>
        </g>
    </g>
</svg>