<?xml version="1.0" encoding="UTF-8"?>
<svg width="332px" height="258px" viewBox="0 0 332 258" version="1.1" xmlns="http://www.w3.org/2000/svg" xmlns:xlink="http://www.w3.org/1999/xlink">
    <title>feature-dataviz</title>
    <g id="Wireframes" stroke="none" stroke-width="1" fill="none" fill-rule="evenodd">
        <g id="home" transform="translate(-948.000000, -584.000000)" fill-rule="nonzero">
            <g id="feature-dataviz" transform="translate(948.000000, 584.000000)">
                <path d="M205.34353,135.686582 C203.439263,128.568249 206.295664,122.855446 207.837214,119.772346 C207.973233,119.500307 208.109252,119.228269 208.199932,119.001571 C209.696142,115.96381 213.187299,113.062069 214.048754,112.427313 C214.230113,111.973916 214.547491,110.523045 214.728849,109.480232 C215.454285,105.807716 215.907682,104.130147 216.859816,103.67675 C218.492045,102.860635 223.162035,105.898395 224.340867,107.167907 C224.476886,107.167907 224.658245,107.122567 224.794264,107.077228 C226.154455,106.805189 228.648139,106.261113 233.454148,107.077228 C241.025879,108.34674 245.51451,115.510413 245.695869,115.827791 L244.108979,116.779925 C244.063639,116.734585 239.847047,110.024309 233.13677,108.890816 C228.648139,108.165381 226.381154,108.618778 225.111642,108.890816 C224.295527,109.072175 223.434073,109.253534 222.935336,108.392079 C222.4366,107.711984 218.764083,105.444998 217.67593,105.354319 C217.267873,106.034414 216.769136,108.482759 216.497098,109.84295 C215.907682,112.790031 215.726323,113.515466 215.136907,113.878184 C214.411471,114.37692 211.056333,117.233322 209.786821,119.863025 C209.650802,120.089723 209.560123,120.361762 209.378764,120.6338 C207.837214,123.67156 205.298191,128.794947 207.021099,135.278525 L205.34353,135.686582 Z" id="Shape" fill="#000000"></path>
                <polygon id="Rectangle" fill="#000000" transform="translate(205.570181, 125.508773) rotate(-10.050134) translate(-205.570181, -125.508773) " points="204.640769 117.098731 206.499593 117.098731 206.499593 133.918815 204.640769 133.918815"></polygon>
                <polygon id="Rectangle" fill="#000000" transform="translate(239.061616, 109.612998) rotate(-34.076218) translate(-239.061616, -109.612998) " points="238.132144 100.681 239.991088 100.681 239.991088 118.544996 238.132144 118.544996"></polygon>
                <polygon id="Rectangle" fill="#000000" transform="translate(218.931967, 109.779105) rotate(-26.629112) translate(-218.931967, -109.779105) " points="212.629936 108.849668 225.233999 108.849668 225.233999 110.708541 212.629936 110.708541"></polygon>
                <path d="M210.693616,118.185456 C206.88508,120.497781 204.119358,117.187982 204.119358,117.187982 L213.323319,112.563332 C213.323319,112.608672 214.502151,115.873131 210.693616,118.185456 Z" id="Path" fill="#000000"></path>
                <path d="M231.187163,108.165381 C227.378628,110.477706 224.567566,106.941209 224.567566,106.941209 L234.043564,102.180539 C234.043564,102.225879 234.995698,105.853056 231.187163,108.165381 Z" id="Path" fill="#000000"></path>
                <path d="M74.7651758,167.832434 C74.7651758,167.832434 77.8029362,164.477296 82.608945,159.943325 C85.8280642,156.905565 94.8506658,152.824991 100.110072,153.822465 C105.369478,154.774599 106.50297,154.366541 106.50297,154.366541 L108.543257,160.215364 L75.5812905,168.195152 L74.7651758,167.832434 Z" id="Path" fill="#000000"></path>
                <path d="M120.558279,171.913008 C120.4676,171.776989 119.923523,171.232912 119.379447,170.643496 C116.296347,167.469717 102.694435,154.003824 96.2561967,143.303653 C89.2738819,131.787368 84.5132127,121.631273 83.1983612,118.774872 L65.1984978,125.349129 C65.1531581,128.568249 65.0624787,143.893069 69.0070331,155.409355 C74.5384773,171.50495 99.6566746,196.532468 99.7020143,196.623148 L98.1151246,197.575282 C98.0697849,197.484602 72.8609082,172.275726 67.2841243,156.044111 C62.7501536,142.804916 63.3395698,125.439809 63.3849095,124.714374 L63.4302492,124.079618 L84.1958348,116.462547 L84.5585524,117.233322 C84.6038921,117.369341 89.7272789,128.885626 97.8430864,142.30618 C104.190645,152.824991 117.701878,166.154865 120.739638,169.328645 C122.326528,171.006214 122.462547,171.142233 122.235848,171.731649 L122.00915,172.275726" id="Path" fill="#000000"></path>
                <g id="Group" transform="translate(9.067941, 158.583134)">
                    <g id="SVGID_1_-link" fill="#0DA8BB">
                        <path d="M53.9542506,24.9368385 C63.158211,4.62465005 79.7525435,0.0453397064 99.7926938,0.0453397064 C109.812769,0.0453397064 116.931103,1.81358826 125.182929,15.8688972 C131.575828,26.7050871 130.442335,36.906521 147.762103,33.6874018 C160.003824,31.4204165 165.26323,32.9619665 168.890406,49.3749403 C172.154865,64.2463639 194.734039,52.8660976 211.056333,65.6065551 C226.471833,77.6215773 225.837078,95.5761011 225.701058,97.5257084 C141.641243,97.5257084 20.7202458,97.5257084 16.9117105,97.4803687 C11.0628884,97.435029 -1.31485149,93.7625128 0.589416183,80.613998 C2.53902356,67.4654831 11.3802663,55.7678389 36.906521,61.5259816 C60.845886,66.9667463 47.2439741,39.7175828 53.9542506,24.9368385 Z" id="SVGID_1_"></path>
                    </g>
                    <g transform="translate(145.540457, 73.450324)" fill="#FFFFFF" id="Path">
                        <path d="M54.4983271,1.17883237 C55.4958006,1.26951178 56.3119153,1.72290884 56.2665756,2.8564015 C56.2665756,3.94455446 55.58648,4.57931034 54.4983271,4.53397064 C53.5915329,4.48863093 52.8660976,4.03523387 52.8207579,2.99242062 C52.8207579,1.90426767 53.4101741,1.31485149 54.4983271,1.17883237 Z"></path>
                        <path d="M56.1305565,12.196381 C56.0398771,13.2391943 55.4504609,13.9192899 54.362308,13.9192899 C53.4555138,13.9192899 52.7300785,13.4658928 52.6847388,12.4230795 C52.5940594,11.3349266 53.1381359,10.6094913 54.2716285,10.5641516 C55.3597815,10.5188119 55.9945374,11.1082281 56.1305565,12.196381 Z"></path>
                        <path d="M54.2262888,19.9041311 C55.3144418,20.0401502 55.9945374,20.5842267 55.9491977,21.6723797 C55.903858,22.7605326 55.1784227,23.3499488 54.0902697,23.2592694 C53.1834756,23.16859 52.50338,22.6698532 52.50338,21.6270399 C52.5487197,20.4935473 53.1381359,19.9494708 54.2262888,19.9041311 Z"></path>
                        <path d="M76.9414817,12.4684193 C76.8054626,13.6925913 76.3067258,14.3273472 75.2639126,14.2820075 C74.1757596,14.2366678 73.4503243,13.737931 73.5863435,12.5590987 C73.6770229,11.6523045 74.1757596,10.8815295 75.2185729,10.9268692 C76.3067258,10.9722089 76.9414817,11.5616251 76.9414817,12.4684193 Z"></path>
                        <path d="M12.8764766,0.49873677 C13.9192899,0.49873677 14.4180266,1.08815295 14.4180266,2.08562649 C14.4180266,3.17377945 13.8739502,3.85387504 12.7404575,3.76319563 C11.742984,3.71785592 11.1535678,3.12843974 11.1535678,2.17630591 C11.1082281,1.04281325 11.7883237,0.49873677 12.8764766,0.49873677 Z"></path>
                        <path d="M12.6044384,9.79337658 C13.8286104,9.88405599 14.2820075,10.5188119 14.2366678,11.5162854 C14.1913281,12.5590987 13.6472516,13.1031751 12.6044384,13.0578354 C11.4709457,13.0124957 10.8815295,12.3324001 10.9722089,11.2442472 C11.0628884,10.2014339 11.7883237,9.79337658 12.6044384,9.79337658 Z"></path>
                        <path d="M24.6648003,11.4709457 C24.6194606,12.7404575 24.0753841,13.284534 23.0779105,13.284534 C21.9897576,13.284534 21.309662,12.6497781 21.4003414,11.5616251 C21.4910208,10.4734722 22.2164561,9.9293957 23.3046091,10.0200751 C24.3474223,10.0654148 24.71014,10.7455104 24.6648003,11.4709457 Z"></path>
                        <path d="M66.558689,12.3777398 C66.4226699,13.4658928 65.8785934,14.1006487 64.7451007,14.1006487 C63.7022875,14.1006487 63.2035507,13.4658928 63.2035507,12.4684193 C63.2035507,11.3802663 63.7929669,10.7001707 64.9264595,10.7908501 C65.8332537,10.8361898 66.4680096,11.3802663 66.558689,12.3777398 Z"></path>
                        <path d="M35.047593,21.0376238 C35.047593,22.1711164 34.4581769,22.6698532 33.4607033,22.7605326 C32.3725504,22.851212 31.6017753,22.3524752 31.6017753,21.2189826 C31.6017753,20.3121885 32.1458518,19.5867532 33.1433254,19.5414135 C34.276818,19.450734 34.8662342,20.0854899 35.047593,21.0376238 Z"></path>
                        <path d="M23.16859,3.98989416 C22.0350973,3.85387504 21.4456811,3.21911915 21.5363605,2.1309662 C21.6270399,1.17883237 22.3071355,0.634755889 23.2592694,0.680095596 C24.392762,0.725435302 24.8914988,1.36019119 24.8008194,2.49368385 C24.7554797,3.5364971 24.1207238,3.94455446 23.16859,3.98989416 Z"></path>
                        <path d="M12.513759,22.397815 C11.2895869,22.3071355 10.7908501,21.6723797 10.7908501,20.7202458 C10.8361898,19.5414135 11.6069648,19.0880164 12.6951178,19.1786958 C13.7832707,19.2693752 14.1006487,19.9948105 14.055309,20.9922841 C14.0099693,22.080437 13.3298737,22.4431547 12.513759,22.397815 Z"></path>
                        <path d="M66.6947081,2.94708091 C66.558689,4.12591328 66.0146125,4.76066917 64.8811198,4.71532946 C63.8383066,4.71532946 63.3395698,4.12591328 63.3395698,3.12843974 C63.3395698,2.17630591 63.7022875,1.4508706 64.7904404,1.4508706 C65.9239331,1.4055309 66.558689,1.94960737 66.6947081,2.94708091 Z"></path>
                        <path d="M22.8965517,19.3147149 C23.939365,19.3600546 24.4834414,19.8587914 24.5287812,20.9016046 C24.5287812,22.0350973 24.0300444,22.6245135 22.851212,22.6245135 C21.8537385,22.5791738 21.2189826,22.0350973 21.2189826,21.0829635 C21.1736429,19.9494708 21.8537385,19.4053943 22.8965517,19.3147149 Z"></path>
                        <path d="M45.8384432,2.67504268 C45.6570843,3.76319563 45.1130079,4.35261181 44.1155343,4.30727211 C43.0727211,4.21659269 42.3019461,3.71785592 42.4379652,2.53902356 C42.5739843,1.49621031 43.2994196,0.906794128 44.3875726,1.04281325 C45.4757255,1.13349266 45.702424,1.94960737 45.8384432,2.67504268 Z"></path>
                        <path d="M33.7327416,0.770775009 C34.7755548,0.952133834 35.4103107,1.54155002 35.364971,2.62970297 C35.3196313,3.67251622 34.5488563,4.08057357 33.6420621,4.08057357 C32.6445886,4.12591328 32.0551724,3.49115739 32.0098327,2.53902356 C32.0098327,1.49621031 32.6445886,0.861454421 33.7327416,0.770775009 Z"></path>
                        <path d="M75.0825538,23.5766473 C74.1304199,23.5313076 73.4049846,23.1232503 73.4503243,22.080437 C73.4503243,21.0376238 73.9944008,20.221509 75.0825538,20.2668488 C76.125367,20.3121885 76.8054626,20.9016046 76.7147832,22.080437 C76.6694435,23.0779105 76.125367,23.5766473 75.0825538,23.5766473 Z"></path>
                        <path d="M33.4153636,13.4205531 C32.4178901,13.3752134 31.7831342,12.7857972 31.8738136,11.7883237 C31.9191533,10.8361898 32.4632298,10.1560942 33.506043,10.1560942 C34.6395357,10.1560942 35.2289519,10.8361898 35.1836122,11.9696825 C35.1382724,13.0578354 34.3674974,13.3752134 33.4153636,13.4205531 Z"></path>
                        <path d="M2.35766473,0.226698532 C3.49115739,0.272038238 3.94455446,0.99747354 3.98989416,1.90426767 C4.03523387,2.90174121 3.44581769,3.49115739 2.44834414,3.49115739 C1.31485149,3.49115739 0.725435302,2.90174121 0.770775009,1.76824855 C0.816114715,0.770775009 1.4508706,0.317377945 2.35766473,0.226698532 Z"></path>
                        <path d="M45.6570843,12.1510413 C45.4757255,13.1031751 44.9769887,13.6925913 43.9341755,13.6019119 C42.9820417,13.5112325 42.2566064,13.1031751 42.3019461,12.0150222 C42.3472858,10.9268692 43.0273814,10.3374531 44.160874,10.3827928 C45.2036873,10.4734722 45.5210652,11.1989075 45.6570843,12.1510413 Z"></path>
                        <path d="M64.6090816,20.0854899 C65.6518948,20.2668488 66.3773301,20.7202458 66.3319904,21.7630591 C66.2866507,22.851212 65.6518948,23.4406282 64.5184022,23.3952885 C63.4302492,23.3499488 63.0221919,22.7151929 63.0221919,21.7177194 C63.0675316,20.6295664 63.7022875,20.1761693 64.6090816,20.0854899 Z"></path>
                        <path d="M43.6621372,19.7227723 C44.8409696,19.7227723 45.3850461,20.3575282 45.4303858,21.309662 C45.4757255,22.3071355 44.9769887,22.9418914 43.8888358,22.9418914 C42.9367019,22.9418914 42.1205872,22.6245135 42.0752475,21.5363605 C42.0299078,20.4482076 42.6646637,19.8587914 43.6621372,19.7227723 Z"></path>
                        <path d="M77.0775009,3.08310003 C77.0775009,4.17125299 76.6694435,4.80600888 75.6266302,4.85134858 C74.583817,4.89668829 73.7677023,4.53397064 73.7677023,3.30979857 C73.7677023,2.35766473 74.2210994,1.63222943 75.2185729,1.58688972 C76.3067258,1.54155002 76.9868214,2.04028679 77.0775009,3.08310003 Z"></path>
                        <path d="M3.85387504,11.2895869 C3.76319563,12.2417207 3.30979857,12.8764766 2.26698532,12.8764766 C1.26951178,12.8764766 0.634755889,12.4230795 0.589416183,11.3802663 C0.544076477,10.2014339 1.17883237,9.65735746 2.26698532,9.61201775 C3.35513827,9.56667805 3.71785592,10.3374531 3.85387504,11.2895869 Z"></path>
                        <path d="M1.99494708,22.2164561 C0.952133834,22.2164561 0.408057357,21.6723797 0.362717651,20.6295664 C0.362717651,19.450734 1.04281325,18.9066576 2.1309662,18.9519973 C3.21911915,18.997337 3.62717651,19.768112 3.62717651,20.6749061 C3.67251622,21.6723797 3.03776033,22.2164561 1.99494708,22.2164561 Z"></path>
                    </g>
                </g>
                <polygon id="Rectangle" fill="#0DA8BB" transform="translate(264.020939, 233.171700) rotate(-89.513381) translate(-264.020939, -233.171700) " points="242.053059 222.879215 285.988819 222.879215 285.988819 243.464184 242.053059 243.464184"></polygon>
                <polygon id="Rectangle" fill="#000000" transform="translate(287.080594, 224.745022) rotate(0.486619) translate(-287.080594, -224.745022) " points="276.312025 194.139617 297.849162 194.139617 297.849162 255.350428 276.312025 255.350428"></polygon>
                <path d="M250.955275,256.970297 L226.653192,256.743598 L227.333288,179.212701 L251.63537,179.439399 L250.955275,256.970297 Z M228.51212,254.93001 L249.187026,255.111369 L249.821782,181.252987 L229.146876,181.071629 L228.51212,254.93001 Z" id="Shape" fill="#000000"></path>
                <path d="M224.975623,256.879618 L201.217617,256.698259 L201.671014,201.338477 L225.42902,201.519836 L224.975623,256.879618 Z M203.031205,254.884671 L223.116695,255.066029 L223.570092,203.378764 L203.484602,203.197405 L203.031205,254.884671 Z" id="Shape" fill="#000000"></path>
                <path d="M199.358689,256.879618 L173.379037,256.652919 L173.651075,224.733766 L199.630727,224.960464 L199.358689,256.879618 Z M175.237965,254.839331 L197.545101,255.02069 L197.771799,226.774053 L175.464664,226.592694 L175.237965,254.839331 Z" id="Shape" fill="#000000"></path>
                <circle id="Oval" fill="#000000" cx="249.821782" cy="59.8785934" r="11.425606"></circle>
                <path d="M21.5817002,181.797064 C21.5817002,180.84493 21.1736429,179.983476 20.538887,179.394059 C19.9041311,178.759304 19.0426767,178.396586 18.0905428,178.396586 L2.04028679,178.759304 C2.62970297,180.980949 3.03776033,183.066576 3.12843974,185.42424 L18.1812223,185.288221 C20.0854899,185.242882 21.5817002,183.701332 21.5817002,181.797064 Z" id="Path" fill="#0DA8BB"></path>
                <g id="XMLID_7_" transform="translate(235.313076, 170.824855)">
                    <path d="M16.3222943,8.61454421 L16.1862752,21.9444179 C15.596859,22.2164561 15.0074428,22.4431547 14.3273472,22.5791738 L14.4180266,10.4281325 L0.0906794128,10.2921133 C0.136019119,9.65735746 0.272038238,9.06794128 0.453397064,8.43318539 L16.3222943,8.61454421 Z" id="Path" fill="#F9F9F9"></path>
                    <path d="M0.136019119,10.3374531 L14.4633663,10.4734722 L14.3726869,22.6245135 C13.4205531,22.851212 12.4230795,22.9872311 11.425606,22.9872311 C5.12338682,22.9418914 0.0453397064,17.7731649 0.0906794128,11.4709457 C0.0906794128,11.0628884 0.0906794128,10.7001707 0.136019119,10.3374531 Z" id="Path" fill="#000000"></path>
                    <path d="M22.9418914,11.6523045 C22.8965517,16.2769546 20.1308296,20.221509 16.1862752,21.9897576 L16.3222943,8.61454421 L0.49873677,8.47852509 C1.85892796,3.62717651 6.34755889,0.0453397064 11.6069648,0.0906794128 C17.909184,0.136019119 22.9872311,5.30474565 22.9418914,11.6523045 Z" id="Path" fill="#000000"></path>
                </g>
                <path d="M229.328235,68.2664391 C227.650666,68.2664391 225.973097,67.4049846 224.975623,65.9087743 C223.388733,63.5057699 224.023489,60.241311 226.471833,58.6090816 C227.650666,57.8383066 229.056197,57.5662684 230.416388,57.8383066 C231.776579,58.1103448 232.955411,58.9264595 233.771526,60.1052919 C234.542301,61.2841243 234.814339,62.6896552 234.542301,64.0498464 C234.270263,65.4100376 233.454148,66.5888699 232.275316,67.4049846 C231.368522,67.9944008 230.325708,68.2664391 229.328235,68.2664391 Z M229.418914,59.6065551 C228.738819,59.6065551 228.104063,59.787914 227.514647,60.1959713 C226.743872,60.6947081 226.245135,61.4654831 226.063776,62.3722772 C225.882417,63.2790714 226.063776,64.1858655 226.562513,64.9566405 C227.06125,65.7274155 227.832025,66.2261523 228.738819,66.4075111 C229.645613,66.5888699 230.552407,66.4075111 231.323182,65.9087743 C232.093957,65.4100376 232.592694,64.6392625 232.774053,63.7324684 C232.955411,62.8256743 232.774053,61.9188802 232.275316,61.1481052 L232.275316,61.1481052 C231.776579,60.3773301 231.005804,59.8785934 230.09901,59.6972346 C229.826972,59.6065551 229.600273,59.6065551 229.418914,59.6065551 Z" id="Shape" fill="#000000"></path>
                <g id="Group-20" transform="translate(177.917258, 52.773561) rotate(-2.000000) translate(-177.917258, -52.773561) translate(69.917258, 4.273561)">
                    <polyline id="Path" fill="#0DA8BB" points="1.32861486 89.6263737 33.823421 67.2664391 61.3446227 91.3418231 97.5257084 14.4003414 117.248481 32.7629225 132.75466 1.62212359 215.003414 31.747235 215.003414 34.2213725 134.34155 5.47599863 118.291294 37.931649 98.523182 19.5237282 62.387436 96.3291909 34.0390304 70.4958985 2.05197421 92.9001798"></polyline>
                    <polygon id="Path" fill="#000000" points="30.0602253 96.4198703 11.0628884 79.326801 1.26951178 88.3040628 2.7000624e-13 86.9892113 11.0175487 76.8331171 29.7881871 93.6994879 74.6291567 33.5790372 118.654012 62.5964493 166.75944 -9.52707218e-14 215.776716 31.4204165 214.779242 32.9619665 167.258177 2.53902356 119.152748 65.1354729 75.0825538 36.0727211"></polygon>
                </g>
                <path d="M287.997815,47.5461932 L279.247252,14.8109252 C279.020553,13.9041311 279.292591,12.9519973 280.018027,12.3625811 C280.743462,11.7731649 281.695596,11.6824855 282.55705,12.0905428 L301.14633,21.4305224 C303.322636,22.5186753 304.637487,24.6949812 304.592147,27.0979857 L304.456128,45.2338682 L302.5972,45.2338682 L302.73322,27.0979857 C302.73322,25.3750768 301.826425,23.8335268 300.284875,23.0627518 L281.695596,13.7227723 C281.423558,13.5867532 281.242199,13.7227723 281.151519,13.768112 C281.06084,13.8134517 280.924821,13.9948105 280.97016,14.3121885 L289.720724,47.0474565 L287.997815,47.5461932 Z" id="Path" fill="#000000"></path>
                <path d="M66.6040287,124.124957 L54.815705,104.402185 C52.7300785,100.911028 53.3648344,96.3317173 56.3119153,93.5206555 L67.2387846,83.2285422 C67.7375213,82.7751451 68.4176169,82.5937863 69.0977125,82.7751451 C69.7778081,82.9565039 70.2312052,83.5005804 70.412564,84.1353363 L78.6643906,119.590987 L76.8508023,119.999044 L68.5989758,84.5433936 L68.5082963,84.4980539 L57.5814271,94.7901673 C55.2237624,97.0118129 54.7250256,100.59365 56.4025947,103.359372 L68.1909184,123.082144 L66.6040287,124.124957 Z" id="Path" fill="#000000"></path>
                <path d="M57.4000683,108.3014 C56.4932742,109.978969 55.7224991,112.200615 54.7703653,115.011676 C51.8686241,123.399522 29.9242062,121.404575 15.0981222,137.908228 C4.942028,149.243155 0.453397064,163.207784 2.44834414,177.308433 C4.12591328,189.051417 10.2014339,199.207511 18.679959,204.512257 C35.364971,214.940389 13.0124957,224.14435 11.1082281,235.841994 C10.9268692,236.975487 10.7455104,238.154319 10.5641516,239.378491 C9.9293957,243.549744 10.7908501,247.040901 13.1031751,249.715944 C16.7303517,253.977876 22.8965517,255.111369 25.9796518,255.156709 C31.7377945,255.202048 308.128645,255.156709 314.340184,255.156709 C315.382998,254.93001 326.355207,252.300307 329.256948,233.575009 C331.025196,222.149403 326.309867,215.121748 321.730557,208.366132 C318.420758,203.424104 314.97494,198.300717 314.249505,191.68112 C314.068146,190.13957 313.932127,188.688699 313.750768,187.192489 C312.345237,174.043974 311.166405,162.663708 303.912052,143.530352 C296.793718,124.759713 281.423558,122.628747 274.89464,121.721953 L272.491635,121.404575 L273.625128,120.135063 C273.761147,119.999044 286.637624,105.2183 286.637624,85.9035848 C286.637624,66.3168317 283.010447,48.4076477 282.965108,48.2262888 L282.783749,47.274155 L311.483783,43.2389211 L311.801161,43.8283373 C311.93718,44.1457153 326.808604,73.6618641 327.171321,98.6440423 C327.579379,130.155138 323.362786,153.641106 313.841448,172.502424 C314.612223,177.399112 315.110959,182.114442 315.655036,187.01113 C315.791055,188.462001 315.972414,189.958211 316.153773,191.454421 C316.833868,197.665961 320.007648,202.335951 323.362786,207.323319 C328.123455,214.396313 333.020143,221.696005 331.161215,233.847047 C327.987436,254.521953 315.201639,256.879618 314.657562,256.970297 L314.521543,256.970297 C311.710481,256.970297 31.8284739,257.015637 26.0249915,256.970297 C22.6245135,256.924957 15.8235575,255.610106 11.7883237,250.894776 C9.11328098,247.766337 8.11580744,243.821782 8.79590304,239.061113 C8.97726186,237.836941 9.15862069,236.658109 9.33997952,235.524616 C11.1989075,224.09901 33.4153636,215.847183 17.7278252,206.053807 C8.75056333,200.477023 2.35766473,189.776852 0.634755889,177.535131 C-1.4508706,162.890406 3.21911915,148.3817 13.737931,136.638716 C28.3373165,120.361762 50.191055,122.628747 53.0474565,114.331581 C54.04493,111.475179 55.3144418,108.25606 56.2665756,106.442472 M276.073472,120.044384 C283.373165,121.087197 298.471287,123.943598 305.6803,142.895596 C309.715534,153.595766 311.89184,161.847593 313.297371,169.373984 C321.866576,151.147422 325.720451,128.568249 325.312393,98.6440423 C324.995015,76.0195288 312.526596,49.4958006 310.44097,45.2338682 L284.960055,48.815705 C285.73083,52.8055992 288.496552,68.7198361 288.496552,85.9035848 C288.496552,102.769956 279.247252,115.96381 276.073472,120.044384 Z" id="Shape" fill="#000000"></path>
                <path d="M275.710755,120.225743 C275.710755,120.225743 289.358006,120.543121 298.561967,127.752134 C307.765927,134.961147 318.420758,158.991192 318.420758,158.991192 L314.385524,169.147286 L312.843974,170.779515 L310.214271,160.034005 L305.045545,143.983749 L301.327689,136.230659 L295.388187,129.157665 L289.221987,124.941072 L275.710755,120.225743 Z" id="Path" fill="#000000"></path>
                <polygon id="Path" fill="#000000" points="66.8760669 122.855446 76.9868214 116.643906 77.5762376 119.13759"></polygon>
                <polygon id="Path" fill="#000000" points="288.632571 46.50338 288.72325 46.4580403 303.549334 42.0600888 303.503995 44.4177535"></polygon>
                <circle id="Oval" fill="#000000" cx="233.454148" cy="142.30618" r="29.5161489"></circle>
                <path d="M236.446569,255.474087 L235.857153,255.428747 C235.857153,255.428747 235.857153,255.383407 235.857153,255.247388 L236.446569,255.292728 C236.446569,255.383407 236.446569,255.474087 236.446569,255.474087 Z" id="Path" fill="#000000"></path>
                <path d="M234.769,257.015637 L234.769,255.156709 C278.612496,255.156709 312.435917,255.156709 314.340184,255.156709 C315.382998,254.93001 326.355207,252.300307 329.256948,233.575009 C331.025196,222.149403 326.309867,215.121748 321.730557,208.366132 C318.420758,203.424104 314.97494,198.300717 314.249505,191.68112 C314.068146,190.13957 313.932127,188.64336 313.750768,187.192489 C312.345237,174.043974 311.166405,162.663708 303.912052,143.575691 C296.793718,124.805053 281.423558,122.674087 274.89464,121.767293 L272.491635,121.404575 L273.625128,120.135063 C273.761147,119.999044 286.637624,105.2183 286.637624,85.9035848 C286.637624,66.3168317 283.010447,48.4076477 282.965108,48.2262888 L282.783749,47.274155 L311.483783,43.2389211 L311.801161,43.8283373 C311.93718,44.1457153 326.808604,73.6618641 327.171321,98.6440423 C327.579379,130.155138 323.362786,153.641106 313.841448,172.502424 C314.612223,177.399112 315.110959,182.069102 315.655036,187.01113 C315.791055,188.462001 315.972414,189.958211 316.153773,191.499761 C316.833868,197.711301 320.007648,202.42663 323.362786,207.368658 C328.123455,214.441652 333.020143,221.741345 331.161215,233.892386 C327.987436,254.567293 315.201639,256.924957 314.657562,257.015637 L314.521543,257.015637 C314.430864,257.015637 279.927347,257.015637 234.769,257.015637 Z M276.073472,120.044384 C283.373165,121.087197 298.471287,123.943598 305.6803,142.895596 C309.715534,153.595766 311.89184,161.847593 313.297371,169.373984 C321.866576,151.147422 325.720451,128.568249 325.312393,98.6440423 C324.995015,76.0195288 312.526596,49.4958006 310.44097,45.2338682 L284.960055,48.815705 C285.73083,52.8055992 288.496552,68.7198361 288.496552,85.9035848 C288.496552,102.769956 279.247252,115.96381 276.073472,120.044384 Z" id="Shape" fill="#000000"></path>
                <path d="M253.31294,122.674087 L252.632844,120.951178 C257.076135,119.228269 271.448822,119.681666 274.305224,119.772346 L274.305224,120.67914 L275.166678,120.996518 L274.214544,121.585934 C268.048344,121.404575 256.713418,121.359235 253.31294,122.674087 Z" id="Path" fill="#000000"></path>
                <g id="Group" transform="translate(3.173779, 186.240355)" fill="#000000">
                    <path d="M65.6065551,4.71532946 C65.6065551,3.76319563 65.1984978,2.90174121 64.5637419,2.31232503 C63.928986,1.67756914 63.0675316,1.31485149 62.1153977,1.31485149 L1.17883237,1.81358826 C1.67756914,4.2619324 4.48863093,5.93950154 4.53397064,8.20648686 C4.53397064,8.5238648 4.80600888,8.75056333 5.07804712,8.75056333 L62.1607375,8.20648686 C64.0650051,8.16114715 65.6065551,6.61959713 65.6065551,4.71532946 Z" id="Path"></path>
                    <path d="M5.07804712,9.65735746 C4.2619324,9.65735746 3.62717651,9.02260157 3.62717651,8.25182656 C3.62717651,7.34503243 2.90174121,6.43823831 2.17630591,5.48610447 C1.4055309,4.48863093 0.544076477,3.40047798 0.272038238,2.04028679 L0.0453397064,0.952133834 L62.070058,0.408057357 C62.070058,0.408057357 62.1153977,0.408057357 62.1153977,0.408057357 C63.2488904,0.408057357 64.3370434,0.861454421 65.1531581,1.63222943 C65.9692728,2.44834414 66.4226699,3.5364971 66.4680096,4.71532946 L66.4680096,4.71532946 C66.4680096,5.89416183 66.0146125,6.98231478 65.2438375,7.7984295 C64.4277228,8.61454421 63.3395698,9.06794128 62.2060772,9.11328098 L5.07804712,9.65735746 C5.12338682,9.65735746 5.07804712,9.65735746 5.07804712,9.65735746 Z M2.49368385,2.72038238 C2.8110618,3.26445886 3.21911915,3.80853534 3.62717651,4.35261181 C4.44329123,5.39542506 5.25940594,6.48357801 5.44076477,7.8437692 L62.2060772,7.29969273 C62.8861728,7.29969273 63.5209286,7.02765449 63.9743257,6.52891772 C64.4277228,6.03018095 64.699761,5.39542506 64.699761,4.71532946 L64.699761,4.71532946 C64.699761,4.03523387 64.4277228,3.40047798 63.928986,2.94708091 C63.4302492,2.49368385 62.840833,2.22164561 62.1607375,2.22164561 C62.1607375,2.22164561 62.1607375,2.22164561 62.1607375,2.22164561 L2.49368385,2.72038238 Z" id="Shape"></path>
                </g>
                <path d="M33.1433254,197.121885 L10.3827928,197.529942 L10.3827928,199.38887 L33.1433254,198.980813 C33.823421,198.980813 34.4581769,199.252851 34.9569136,199.706248 C35.4103107,200.159645 35.6823489,200.794401 35.6823489,201.474496 C35.6823489,202.880027 34.594196,204.01352 33.1886651,204.01352 L17.7278252,204.330898 L17.7278252,206.189826 L33.1886651,205.872448 C35.5916695,205.872448 37.5412769,203.877501 37.4959372,201.474496 C37.4959372,200.341004 37.0425401,199.252851 36.1810857,198.391396 C35.364971,197.529942 34.276818,197.076545 33.1433254,197.121885 Z" id="Path" fill="#000000"></path>
                <path d="M289.267327,78.6492318 L301.871765,58.7451007 C298.289928,56.4781154 294.027996,55.1179242 289.448686,55.0725845 C276.43619,54.9819051 265.781359,65.4100376 265.690679,78.4225333 C265.6,91.435029 276.028132,102.08986 289.040628,102.180539 C302.053124,102.271219 312.707955,91.8430864 312.798634,78.8305906 C312.843974,75.3394333 312.118539,72.0296347 310.758348,69.0825538 L289.267327,78.6492318 Z" id="Path" fill="#0DA8BB"></path>
                <path d="M289.766064,79.5560259 C289.312666,79.5560259 288.904609,79.238648 288.76859,78.7852509 C288.677911,78.3318539 288.904609,77.8331171 289.358006,77.6064186 L313.297371,66.9969273 L313.705428,67.2236258 C313.841448,67.2689655 316.697849,68.8558552 317.604643,71.8482759 C318.511437,74.7953568 317.604643,77.7424377 317.559304,77.8784568 L317.377945,78.5132127 L289.856743,79.6013657 C289.811403,79.5560259 289.811403,79.5560259 289.766064,79.5560259 Z M313.161352,69.0372141 L294.027996,77.5610789 L315.927074,76.6996244 C316.108433,75.7928303 316.335131,74.0245818 315.836395,72.3470126 C315.292318,70.6241038 313.841448,69.4906111 313.161352,69.0372141 Z" id="Shape" fill="#000000"></path>
                <path d="M289.630044,79.5560259 L312.073199,84.6340731 C312.073199,84.6340731 312.435917,83.4552407 312.707955,81.2335951 C312.979993,78.8305906 312.843974,77.7877774 312.843974,77.7877774 L289.630044,79.5560259 Z" id="Path" fill="#000000"></path>
                <path d="M135.92844,185.46958 C126.905838,185.46958 119.560806,178.124548 119.560806,169.101946 C119.560806,160.079344 126.905838,152.734312 135.92844,152.734312 C144.951041,152.734312 152.296074,160.079344 152.296074,169.101946 C152.296074,178.124548 144.951041,185.46958 135.92844,185.46958 Z M135.92844,154.5479 C127.903312,154.5479 121.374394,161.076818 121.374394,169.101946 C121.374394,177.127074 127.903312,183.655992 135.92844,183.655992 C143.953568,183.655992 150.482485,177.127074 150.482485,169.101946 C150.482485,161.076818 143.953568,154.5479 135.92844,154.5479 Z" id="Shape" fill="#000000"></path>
                <path d="M111.036941,198.527416 C107.047047,198.527416 103.782588,195.262957 103.782588,191.273062 C103.782588,187.283168 107.047047,184.018709 111.036941,184.018709 C115.026835,184.018709 118.291294,187.283168 118.291294,191.273062 C118.291294,195.262957 115.026835,198.527416 111.036941,198.527416 Z M111.036941,185.832298 C108.04452,185.832298 105.596176,188.280642 105.596176,191.273062 C105.596176,194.265483 108.04452,196.713827 111.036941,196.713827 C114.029362,196.713827 116.477706,194.265483 116.477706,191.273062 C116.477706,188.280642 114.029362,185.832298 111.036941,185.832298 Z" id="Shape" fill="#000000"></path>
            </g>
        </g>
    </g>
</svg>