<?xml version="1.0" encoding="UTF-8"?>
<svg width="332px" height="250px" viewBox="0 0 332 250" version="1.1" xmlns="http://www.w3.org/2000/svg" xmlns:xlink="http://www.w3.org/1999/xlink">
    <title>feature-dataviz</title>
    <g id="Wireframes" stroke="none" stroke-width="1" fill="none" fill-rule="evenodd">
        <g id="home" transform="translate(-960.000000, -592.000000)" fill-rule="nonzero">
            <g id="feature-dataviz" transform="translate(960.000000, 592.000000)">
                <path d="M212.283954,133.524519 C210.451348,126.833376 213.09371,121.420796 214.500128,118.522721 C214.627985,118.267009 214.755841,118.011297 214.841078,117.798203 C216.204878,114.900128 219.486521,112.172529 220.296277,111.533248 C220.466752,111.10706 220.722465,109.743261 220.935558,108.76303 C221.617458,105.268293 222.001027,103.734018 222.896021,103.265212 C224.430295,102.498074 228.820026,105.310911 229.970732,106.504236 C230.098588,106.461617 230.269063,106.461617 230.396919,106.418999 C231.675481,106.163286 234.019512,105.651861 238.537099,106.333761 C245.654429,107.441849 249.958922,114.17561 250.129397,114.431322 L248.680359,115.368935 C248.637741,115.326316 244.631579,109.061361 238.281386,108.038511 C234.062131,107.356611 231.931194,107.825417 230.737869,108.08113 C229.970732,108.251605 229.160976,108.42208 228.692169,107.654942 C228.180745,107.015661 224.728626,104.927343 223.705777,104.842105 C223.322208,105.481386 222.896021,107.782798 222.640308,109.061361 C222.086264,111.831579 221.915789,112.513479 221.404365,112.854429 C220.722465,113.323235 217.611297,116.008216 216.417972,118.522721 C216.290116,118.735815 216.204878,118.991528 216.077022,119.24724 C214.670603,122.145315 212.283954,126.961232 213.988703,133.013094 L212.283954,133.524519 Z" id="Shape" fill="#000000"></path>
                <polygon id="Rectangle" fill="#000000" transform="translate(212.426624, 123.950274) rotate(-10.539053) translate(-212.426624, -123.950274) " points="211.552967 116.044742 213.300281 116.044742 213.300281 131.855805 211.552967 131.855805"></polygon>
                <polygon id="Rectangle" fill="#000000" transform="translate(243.749011, 108.721781) rotate(-34.562525) translate(-243.749011, -108.721781) " points="242.875335 100.325966 244.622687 100.325966 244.622687 117.117596 242.875335 117.117596"></polygon>
                <polygon id="Rectangle" fill="#000000" transform="translate(224.874327, 109.084552) rotate(-27.115955) translate(-224.874327, -109.084552) " points="218.950228 108.210854 230.798426 108.210854 230.798426 109.95825 218.950228 109.95825"></polygon>
                <path d="M217.185109,117.031065 C213.647754,119.24724 210.962773,116.178691 210.962773,116.178691 L219.571759,111.78896 C219.571759,111.746341 220.722465,114.814891 217.185109,117.031065 Z" id="Path" fill="#000000"></path>
                <path d="M236.363543,107.441849 C232.826187,109.658023 230.141207,106.333761 230.141207,106.333761 L239.005905,101.816175 C239.005905,101.816175 239.900899,105.225674 236.363543,107.441849 Z" id="Path" fill="#000000"></path>
                <path d="M59.1974326,167.278562 C59.1974326,167.278562 60.9021823,169.579974 69.2980745,163.315019 C77.6939666,157.050064 79.6544288,152.830809 84.5129653,151.637484 C89.4141207,150.486778 91.0336329,150.40154 91.0336329,150.40154 L94.9971759,154.663415 L62.7347882,169.153787 L59.1974326,167.278562 Z" id="Path" fill="#000000"></path>
                <path d="M59.4105263,169.025931 C59.3679076,168.940693 53.9127086,159.777664 48.5427471,144.562773 C44.1530167,132.160719 44.6218228,115.837741 44.6218228,115.113222 L44.6218228,114.51656 L64.0985879,107.186136 L64.4395379,107.910655 C64.4821566,108.038511 69.4259307,118.821053 77.139923,131.393582 C83.1917843,141.195892 90.8205392,148.995122 93.7186136,151.935815 C95.2528883,153.512709 95.3807445,153.597946 95.1250321,154.194608 L94.9119384,154.706033 L94.315276,154.706033 L94.315276,153.853659 L93.5481386,153.47009 C93.3776637,153.81104 93.4629012,154.15199 93.5907574,154.279846 C93.5055199,154.15199 92.994095,153.640565 92.4826701,153.12914 C89.5845956,150.145828 81.8279846,142.261361 75.6908858,132.288575 C69.042362,121.506033 64.4821566,112.002054 63.2035944,109.359692 L46.3265725,115.709884 C46.2839538,118.735815 46.3265725,133.14095 50.1622593,143.923492 C55.4896021,159.010526 60.8169448,168.003081 60.9021823,168.088318 L59.4105263,169.025931 Z" id="Path" fill="#000000"></path>
                <g id="Group" transform="translate(0.852375, 5.039795)">
                    <g id="color" transform="translate(0.053248, 0.127856)" fill="#09A8BB">
                        <path d="M239.975506,241.296534 C160.960359,241.978434 47.2961738,242.958665 43.7161995,242.958665 C38.2183818,242.958665 26.5408465,239.634403 28.2455962,227.232349 C29.9503459,214.872914 33.231989,205.752503 16.3975859,195.438768 C-0.436817166,185.125032 -8.19342821,154.737869 12.2635679,131.510655 C30.419152,110.925802 31.5698581,96.6911425 34.9793574,90 C34.9793574,90 36.7267258,102.146341 33.7434139,108.880103 C30.8027207,115.613864 23.9411032,130.700899 28.4586899,135.985623 C32.9762765,141.270347 38.2610005,142.421053 38.2610005,151.32837 C38.2610005,160.235687 59.7834652,167.012067 67.8810262,160.44878 C75.9785872,153.885494 86.1644665,147.492683 102.530063,147.109114 C118.89566,146.725546 124.99014,153.246213 135.644826,169.526573 C142.122875,179.414121 144.125956,181.630295 160.363696,178.476508 C171.870757,176.260334 182.61068,181.11887 186.148035,196.504236 C189.344441,210.440565 210.440718,199.572786 225.911321,211.420796 C240.572169,222.586906 240.103363,239.463928 239.975506,241.296534 Z" id="SVGID_1_"></path>
                        <path d="M158.701565,126.822593 L170.379101,108.027728 C166.969601,105.896791 162.96344,104.703466 158.701565,104.703466 C146.469986,104.703466 136.53982,114.633633 136.53982,126.865212 C136.53982,139.096791 146.469986,149.026958 158.701565,149.026958 C170.933144,149.026958 180.863311,139.096791 180.863311,126.865212 C180.863311,123.583569 180.138793,120.515019 178.86023,117.702182 L158.701565,126.822593 Z" id="Path"></path>
                        <rect id="Rectangle" x="257.619666" y="198.890886" width="19.3489089" height="41.297561"></rect>
                        <polygon id="Path" points="83.436867 100.271117 61.4029774 77.0439024 52.2399479 82.8826701 50.7056732 80.4534018 61.8291649 73.3360719 83.5647233 96.2223363 115.400924 66.048267 141.483594 88.4231065 174.854069 15.843389 193.563696 32.9761232 207.840975 0.713735558 285.449704 28.0323492 284.469473 30.7173299 209.37525 4.33632863 194.543927 37.7920411 175.8343 20.6166881 142.506443 93.1111682 115.52878 69.9265725"></polygon>
                    </g>
                    <path d="M95.5086008,217.72837 C95.5086008,218.623363 95.1250321,219.433119 94.5709884,220.029782 C93.9743261,220.626444 93.16457,220.967394 92.2695764,220.967394 L29.0233633,220.967394 C28.8528883,218.879076 30.0035944,216.70552 29.1938383,214.489345 L92.3121951,214.489345 C94.0595635,214.489345 95.5086008,215.938383 95.5086008,217.72837 Z" id="Path" fill="#FFFFFF"></path>
                    <path d="M82.424647,202.641335 L24.7614891,202.556098 L24.3353017,200.808729 L82.3820282,200.893967 C83.0213094,200.893967 83.6179718,200.638254 84.0441592,200.212067 C84.4703466,199.743261 84.7260591,199.189217 84.7260591,198.549936 C84.7260591,197.228755 83.6605905,196.205905 82.3820282,196.205905 L15.8967908,196.120668 L15.8967908,194.373299 L82.424647,194.458537 C84.6834403,194.458537 86.5160462,196.291142 86.5160462,198.549936 C86.5160462,199.615404 86.0898588,200.680873 85.3227214,201.44801 C84.5129653,202.257766 83.4901155,202.641335 82.424647,202.641335 Z" id="Path" fill="#000000"></path>
                    <path d="M62.4790757,212.656739 L29.9183569,212.656739 L29.9183569,210.909371 L62.4790757,210.909371 C63.1183569,210.909371 63.7150193,210.653659 64.1412067,210.227471 C64.5673941,209.801284 64.8231065,209.204621 64.8231065,208.56534 C64.8231065,207.244159 63.757638,206.221309 62.436457,206.221309 L27.3186136,206.221309 L27.3186136,204.473941 L62.436457,204.473941 C64.6952503,204.473941 66.5278562,206.306547 66.5278562,208.56534 C66.5278562,209.630809 66.1016688,210.696277 65.3345315,211.463415 C64.6100128,212.230552 63.587163,212.656739 62.4790757,212.656739 Z" id="Path" fill="#000000"></path>
                    <path d="M50.716303,226.039024 C50.716303,226.934018 50.3327343,227.743774 49.7786906,228.340436 C49.1820282,228.937099 48.3722721,229.278049 47.4772786,229.278049 L27.2759949,229.278049 C27.8300385,227.18973 28.1709884,225.016175 28.2136072,222.8 L47.5198973,222.8 C49.3098845,222.8 50.716303,224.249037 50.716303,226.039024 Z" id="Path" fill="#000000"></path>
                    <g transform="translate(164.934531, 219.560976)" fill="#FFFFFF" id="Path">
                        <path d="M50.8441592,0.554043646 C51.7817715,0.63928113 52.5489089,1.02284981 52.5489089,2.1309371 C52.5489089,3.15378691 51.9096277,3.75044929 50.8867779,3.75044929 C50.0344031,3.70783055 49.3525032,3.28164313 49.3098845,2.30141207 C49.224647,1.23594352 49.7786906,0.681899872 50.8441592,0.554043646 Z"></path>
                        <path d="M52.4636714,10.9103979 C52.3784339,11.890629 51.867009,12.5299101 50.8441592,12.5299101 C49.9917843,12.5299101 49.3098845,12.1037227 49.224647,11.1234917 C49.1394095,10.1006418 49.6082157,9.41874198 50.6736842,9.37612323 C51.696534,9.33350449 52.2931964,9.8449294 52.4636714,10.9103979 Z"></path>
                        <path d="M50.6736842,18.1555841 C51.696534,18.2408216 52.3358151,18.7522465 52.2931964,19.817715 C52.2505777,20.8405648 51.5686778,21.3946085 50.5884467,21.309371 C49.7360719,21.2667522 49.0967908,20.7979461 49.0967908,19.7750963 C49.0967908,18.7096277 49.6508344,18.1982028 50.6736842,18.1555841 Z"></path>
                        <path d="M71.9830552,10.9956354 C71.8978177,12.1463415 71.4290116,12.7430039 70.4487805,12.7003851 C69.4259307,12.6577664 68.7440308,12.2315789 68.8292683,11.0808729 C68.9145058,10.2284981 69.3406932,9.50397946 70.363543,9.5465982 C71.3863928,9.5465982 71.9830552,10.1432606 71.9830552,10.9956354 Z"></path>
                        <path d="M11.6775353,0.255712452 C12.6577664,0.255712452 13.1265725,0.767137356 13.1265725,1.70474968 C13.1265725,2.72759949 12.6577664,3.36688062 11.5496791,3.32426187 C10.6120668,3.28164313 10.0580231,2.72759949 10.0154044,1.83260591 C10.0154044,0.767137356 10.6546855,0.255712452 11.6775353,0.255712452 Z"></path>
                        <path d="M11.5070603,8.99255456 C12.6577664,9.0351733 13.0839538,9.63183569 13.041335,10.569448 C13.041335,11.5496791 12.4872914,12.061104 11.5070603,12.0184852 C10.4415918,11.9758665 9.88754814,11.3792041 9.97278562,10.3137356 C10.0580231,9.37612323 10.739923,8.99255456 11.5070603,8.99255456 Z"></path>
                        <path d="M22.8436457,10.4842105 C22.801027,11.6775353 22.2896021,12.1889602 21.3519897,12.1889602 C20.3291399,12.1889602 19.6898588,11.5922978 19.7324775,10.569448 C19.7750963,9.5465982 20.4569961,9.0351733 21.479846,9.07779204 C22.5453145,9.16302953 22.8862644,9.80231065 22.8436457,10.4842105 Z"></path>
                        <path d="M62.2233633,10.9956354 C62.0955071,12.0184852 61.6267009,12.6151476 60.5612323,12.6151476 C59.5810013,12.6151476 59.1121951,12.061104 59.1121951,11.1234917 C59.1121951,10.1006418 59.6662388,9.46136072 60.6890886,9.50397946 C61.5414634,9.5465982 62.1381258,10.0154044 62.2233633,10.9956354 Z"></path>
                        <path d="M32.6885751,19.3915276 C32.6885751,20.4569961 32.1345315,20.9258023 31.2395379,21.0110398 C30.2166881,21.0962773 29.4921694,20.6274711 29.4921694,19.5620026 C29.4921694,18.7096277 30.0035944,18.0277279 30.9412067,17.9424904 C31.9640565,17.8572529 32.4754814,18.496534 32.6885751,19.3915276 Z"></path>
                        <path d="M21.3946085,3.40949936 C20.3291399,3.28164313 19.7750963,2.68498074 19.8603338,1.70474968 C19.9455712,0.809756098 20.5422336,0.298331194 21.479846,0.340949936 C22.5453145,0.383568678 23.0141207,0.980231065 22.9715019,2.04569961 C22.8862644,2.98331194 22.2896021,3.36688062 21.3946085,3.40949936 Z"></path>
                        <path d="M11.5070603,20.8405648 C10.3563543,20.7553273 9.88754814,20.2012837 9.88754814,19.2636714 C9.93016688,18.1555841 10.6120668,17.7293967 11.6775353,17.8146341 C12.7003851,17.8998716 13.041335,18.5817715 12.9987163,19.4767651 C12.9134788,20.4996149 12.2741977,20.8405648 11.5070603,20.8405648 Z"></path>
                        <path d="M62.3086008,2.08831836 C62.1807445,3.19640565 61.6693196,3.79306804 60.6464698,3.79306804 C59.6662388,3.79306804 59.1974326,3.28164313 59.1974326,2.30141207 C59.1974326,1.40641849 59.5383825,0.724518614 60.5612323,0.724518614 C61.5414634,0.681899872 62.1381258,1.19332478 62.3086008,2.08831836 Z"></path>
                        <path d="M21.2241335,17.8572529 C22.2043646,17.8998716 22.7157895,18.3686778 22.7584082,19.3489089 C22.801027,20.4143774 22.2896021,20.9684211 21.2241335,20.9684211 C20.2865212,20.9684211 19.6898588,20.4569961 19.6898588,19.5193838 C19.6472401,18.4539153 20.2439024,17.9424904 21.2241335,17.8572529 Z"></path>
                        <path d="M42.7039795,2.04569961 C42.5335045,3.06854942 42.0220796,3.62259307 41.0844673,3.57997433 C40.1042362,3.49473684 39.3797176,3.02593068 39.5075738,1.91784339 C39.63543,0.937612323 40.2747112,0.383568678 41.297561,0.468806162 C42.3204108,0.596662388 42.5335045,1.321181 42.7039795,2.04569961 Z"></path>
                        <path d="M31.2821566,0.340949936 C32.2623877,0.511424904 32.8590501,1.06546855 32.8164313,2.08831836 C32.7738126,3.06854942 32.049294,3.4521181 31.1969191,3.49473684 C30.2593068,3.53735558 29.6626444,2.9406932 29.6626444,2.04569961 C29.7052632,1.02284981 30.2593068,0.42618742 31.2821566,0.340949936 Z"></path>
                        <path d="M70.3209243,21.4372272 C69.4259307,21.3946085 68.7440308,21.0110398 68.7866496,20.0308087 C68.7866496,19.0505777 69.2554557,18.2834403 70.3209243,18.3260591 C71.3011553,18.3686778 71.9404365,18.9227214 71.855199,19.98819 C71.8125802,20.9684211 71.3011553,21.4372272 70.3209243,21.4372272 Z"></path>
                        <path d="M31.1116816,12.2315789 C30.1740693,12.1889602 29.5774069,11.6349166 29.6200257,10.6973042 C29.6626444,9.80231065 30.1740693,9.16302953 31.1543004,9.16302953 C32.2197689,9.16302953 32.7738126,9.80231065 32.7738126,10.8251605 C32.7311938,11.8480103 32.0066752,12.1889602 31.1116816,12.2315789 Z"></path>
                        <path d="M1.78998716,0.085237484 C2.85545571,0.127856226 3.28164313,0.767137356 3.32426187,1.6195122 C3.36688062,2.55712452 2.85545571,3.11116816 1.87522465,3.11116816 C0.809756098,3.15378691 0.255712452,2.59974326 0.298331194,1.53427471 C0.340949936,0.596662388 0.937612323,0.170474968 1.78998716,0.085237484 Z"></path>
                        <path d="M42.5761232,10.9530167 C42.4056483,11.8480103 41.9368421,12.4020539 40.956611,12.3168164 C40.0616175,12.2315789 39.3797176,11.8480103 39.4223363,10.8251605 C39.4649551,9.80231065 40.1042362,9.24826701 41.1697047,9.29088575 C42.1499358,9.33350449 42.448267,10.0580231 42.5761232,10.9530167 Z"></path>
                        <path d="M60.4333761,18.2408216 C61.4136072,18.3686778 62.0955071,18.837484 62.0955071,19.7750963 C62.0955071,20.7979461 61.4988447,21.3946085 60.3907574,21.309371 C59.3679076,21.2667522 58.9843389,20.6700899 58.9843389,19.7324775 C59.0269576,18.7522465 59.62362,18.3260591 60.4333761,18.2408216 Z"></path>
                        <path d="M40.7435173,18.0703466 C41.8516046,18.0703466 42.3630295,18.667009 42.448267,19.5620026 C42.4908858,20.4996149 42.0646983,21.0962773 41.0418485,21.138896 C40.1468549,21.138896 39.3797176,20.8831836 39.3370988,19.8603338 C39.2518614,18.7522465 39.8485237,18.1982028 40.7435173,18.0703466 Z"></path>
                        <path d="M72.0682927,2.1309371 C72.0682927,3.15378691 71.684724,3.75044929 70.7044929,3.79306804 C69.7242619,3.83568678 68.9571245,3.49473684 68.9571245,2.38664955 C68.9571245,1.49165597 69.3406932,0.809756098 70.3209243,0.767137356 C71.3011553,0.724518614 71.9404365,1.19332478 72.0682927,2.1309371 Z"></path>
                        <path d="M3.28164313,10.4415918 C3.19640565,11.3365854 2.77021823,11.9332478 1.78998716,11.9332478 C0.85237484,11.9332478 0.255712452,11.5496791 0.170474968,10.5268293 C0.127856226,9.41874198 0.724518614,8.86469833 1.74736842,8.86469833 C2.81283697,8.82207959 3.11116816,9.58921694 3.28164313,10.4415918 Z"></path>
                        <path d="M1.66213094,20.7553273 C0.681899872,20.7553273 0.170474968,20.2439024 0.127856226,19.2636714 C0.085237484,18.1555841 0.724518614,17.6441592 1.78998716,17.6867779 C2.81283697,17.6867779 3.19640565,18.4112965 3.19640565,19.3062901 C3.19640565,20.2439024 2.642362,20.7553273 1.66213094,20.7553273 Z"></path>
                    </g>
                </g>
                <path d="M160.075995,132.842619 C159.649807,132.842619 159.266239,132.544288 159.138383,132.1181 C159.010526,131.691913 159.266239,131.223107 159.692426,131.010013 L182.067266,120.824134 L182.450834,121.037227 C182.578691,121.079846 185.263671,122.528883 186.158665,125.384339 C187.01104,128.154557 186.201284,130.924775 186.158665,131.052632 L185.98819,131.649294 L160.118614,132.885237 C160.118614,132.842619 160.118614,132.842619 160.075995,132.842619 Z M181.982028,122.784596 L164.039538,130.967394 L184.62439,129.987163 C184.794865,129.134788 184.96534,127.472657 184.496534,125.895764 C183.985109,124.276252 182.621309,123.210783 181.982028,122.784596 Z" id="Shape" fill="#000000"></path>
                <path d="M159.948139,132.842619 L181.087035,137.402824 C181.087035,137.402824 181.427985,136.294737 181.641078,134.206418 C181.896791,131.947625 181.726316,130.967394 181.726316,130.967394 L159.948139,132.842619 Z" id="Path" fill="#000000"></path>
                <rect id="Rectangle" fill="#000000" x="279.706804" y="187.820796" width="20.2439024" height="57.5353017"></rect>
                <path d="M256.43697,247.146085 L233.294994,247.146085 L233.294994,174.268036 L256.43697,174.268036 L256.43697,247.146085 Z M235.042362,245.441335 L254.732221,245.441335 L254.732221,176.015404 L235.042362,176.015404 L235.042362,245.441335 Z" id="Shape" fill="#000000"></path>
                <path d="M231.675481,247.273941 L209.343261,247.273941 L209.343261,195.279076 L231.675481,195.279076 L231.675481,247.273941 Z M211.090629,245.569191 L229.970732,245.569191 L229.970732,196.983825 L211.090629,196.983825 L211.090629,245.569191 Z" id="Shape" fill="#000000"></path>
                <path d="M207.638511,247.487035 L183.217972,247.487035 L183.217972,217.48344 L207.638511,217.48344 L207.638511,247.487035 Z M184.922721,245.739666 L205.891142,245.739666 L205.891142,219.18819 L184.922721,219.18819 L184.922721,245.739666 Z" id="Shape" fill="#000000"></path>
                <circle id="Oval" fill="#000000" cx="125.853145" cy="158.158151" r="10.739923"></circle>
                <g id="Group" transform="translate(233.124519, 140.641849)">
                    <circle id="SVGID_3_" fill="#000000" cx="18.5391528" cy="36.3964056" r="10.739923"></circle>
                    <path d="M30.2166881,73.0911425 L7.07471117,73.0911425 L7.07471117,0.21309371 L30.2166881,0.21309371 L30.2166881,73.0911425 Z M8.82207959,71.3437741 L28.5119384,71.3437741 L28.5119384,1.91784339 L8.82207959,1.91784339 L8.82207959,71.3437741 Z" id="Shape" fill="#000000"></path>
                    <path d="M23.1419769,106.504236 L0,106.504236 L0,33.6261874 L23.1419769,33.6261874 L23.1419769,106.504236 Z M1.70474968,104.799487 L21.3946085,104.799487 L21.3946085,35.3735558 L1.70474968,35.3735558 L1.70474968,104.799487 Z" id="Shape" fill="#F9F9F9"></path>
                </g>
                <path d="M127.089089,184.155584 C125.512195,184.155584 123.935302,183.388447 122.997689,181.982028 C121.463415,179.723235 122.060077,176.654685 124.31887,175.120411 C125.426958,174.395892 126.748139,174.097561 128.026701,174.353273 C129.305263,174.608986 130.455969,175.333504 131.180488,176.441592 C131.905006,177.549679 132.203338,178.87086 131.947625,180.149422 C131.691913,181.427985 130.967394,182.578691 129.859307,183.303209 C129.006932,183.857253 128.026701,184.155584 127.089089,184.155584 Z M127.04647,176.015404 C126.407189,176.015404 125.810526,176.185879 125.256483,176.569448 C124.531964,177.038254 124.063158,177.762773 123.892683,178.615148 C123.722208,179.467522 123.892683,180.319897 124.361489,181.044416 C124.830295,181.768935 125.554814,182.237741 126.407189,182.408216 C127.259564,182.578691 128.111938,182.408216 128.836457,181.939409 C129.560976,181.470603 130.029782,180.746085 130.200257,179.89371 C130.370732,179.041335 130.200257,178.18896 129.731451,177.464442 L129.731451,177.464442 C129.262644,176.739923 128.538126,176.271117 127.685751,176.100642 C127.472657,176.015404 127.259564,176.015404 127.04647,176.015404 Z" id="Shape" fill="#000000"></path>
                <path d="M289.253402,49.9917843 L280.729653,19.3062901 C280.473941,18.4539153 280.772272,17.5589217 281.454172,17.004878 C282.136072,16.4508344 283.031065,16.3229782 283.840822,16.7065469 L301.399743,25.3155327 C303.445443,26.3383825 304.724005,28.3414634 304.724005,30.6428755 L304.724005,47.6903723 L302.976637,47.6903723 L302.976637,30.6428755 C302.976637,29.0233633 302.081643,27.6169448 300.632606,26.8924262 L283.073684,18.2834403 C282.817972,18.1555841 282.647497,18.2834403 282.562259,18.3260591 C282.477022,18.3686778 282.349166,18.5391528 282.391784,18.837484 L290.915533,49.5229782 L289.253402,49.9917843 Z" id="Path" fill="#000000"></path>
                <polygon id="Path" fill="#000000" points="113.024904 98.6197689 71.1732991 61.8824134 51.2703466 81.103466 50.0770218 79.8675225 71.1306804 59.5383825 112.769191 96.1052632 154.407702 39.2092426 196.003594 66.1442875 240.668036 0.340949936 285.119384 29.4921694 284.181772 30.9412067 241.179461 2.72759949 196.472401 68.5309371 154.83389 41.5532734"></polygon>
                <path d="M47.6477535,114.51656 L36.3964056,96.1052632 C34.3933248,92.82362 34.9473684,88.5191271 37.7175866,85.8767651 L47.903466,76.1170732 C48.3722721,75.6908858 49.0115533,75.5204108 49.6508344,75.6908858 C50.2474968,75.8613607 50.716303,76.3727856 50.8867779,76.969448 L58.8991014,110.212067 L57.2369705,110.638254 L49.224647,77.3956354 L49.1394095,77.3530167 L38.9535302,87.1127086 C36.7799743,89.201027 36.3111682,92.6105263 37.8880616,95.2102696 L49.1394095,113.621566 L47.6477535,114.51656 Z" id="Path" fill="#000000"></path>
                <path d="M44.6218228,248.978691 C41.4254172,248.978691 35.0326059,247.785366 31.1969191,243.353017 C28.6824134,240.454942 27.7021823,236.704493 28.2988447,232.272144 C28.4693196,231.121438 28.6397946,230.01335 28.8102696,228.947882 C30.4724005,218.207959 31.6657253,210.408729 16.8770218,201.373556 C8.39589217,196.174069 2.30141207,186.201284 0.596662388,174.694223 C-1.49165597,160.92837 2.77021823,147.247754 12.5725289,136.166881 C26.1679076,120.781515 30.0888318,109.018742 32.7311938,101.219512 C33.6261874,98.4919127 34.350706,96.3609756 35.2883184,94.6562259 C35.5014121,94.2300385 36.012837,94.0169448 36.4816431,94.2300385 C36.9504493,94.4431322 37.2061617,95.0397946 37.0356868,95.5512195 L35.4161746,94.9971759 C35.2883184,95.3381258 35.4587933,95.6790757 35.7997433,95.8495507 C36.1833119,96.0200257 36.6521181,95.8495507 36.8225931,95.5086008 C35.9702182,97.128113 35.2883184,99.1738126 34.3933248,101.816175 C31.7509628,109.743261 27.7021823,121.676508 13.8937099,137.360205 C4.43234917,148.100128 0.340949936,161.26932 2.34403081,174.523748 C4.00616175,185.519384 9.80231065,195.065982 17.8146341,199.967137 C33.5835687,209.641592 32.2623877,218.293196 30.557638,229.288832 C30.387163,230.3543 30.2166881,231.462388 30.0462131,232.613094 C29.4921694,236.534018 30.3445443,239.815661 32.5181001,242.330167 C35.9702182,246.29371 41.7663671,247.359178 44.6644416,247.359178 C50.0770218,247.359178 309.880873,245.143004 315.719641,245.057766 C316.699872,244.844673 327.013607,242.287548 329.570732,224.643389 C331.105006,213.860847 326.630039,207.34018 322.325546,200.989987 C319.171759,196.387163 315.890116,191.613864 315.165597,185.348909 C314.995122,183.899872 314.824647,182.536072 314.696791,181.129653 C313.290372,168.770218 312.054429,158.072914 305.107574,140.173042 C298.288575,122.571502 283.798203,120.696277 277.618485,119.92914 L275.359692,119.630809 L276.42516,118.437484 C276.553017,118.309628 288.528883,104.288062 288.358408,86.1324775 C288.187933,67.721181 284.650578,50.9293967 284.607959,50.7589217 L284.394865,49.8639281 L311.32991,45.8577664 L311.628241,46.41181 C311.756098,46.6675225 325.990757,74.3697047 326.502182,97.8100128 C327.141463,127.430039 323.348395,149.549166 314.568935,167.3638 C315.336072,171.966624 315.847497,176.356354 316.40154,181.001797 C316.572015,182.365597 316.699872,183.772015 316.870347,185.178434 C317.552246,191.017202 320.578177,195.406932 323.731964,200.052375 C328.249551,206.65828 332.937612,213.477279 331.275481,224.94172 C328.462644,244.418485 316.486778,246.719897 315.975353,246.805135 L315.847497,246.805135 C313.119897,246.719897 50.0770218,248.978691 44.6218228,248.978691 Z M278.641335,118.22439 C285.502953,119.162003 299.737612,121.719127 306.641849,139.448524 C310.520154,149.463928 312.651091,157.220539 314.014891,164.29525 C321.941977,147.119897 325.351476,125.853145 324.754814,97.7247754 C324.286008,76.4580231 312.35276,51.6112965 310.349679,47.6477535 L286.440565,51.1851091 C287.165083,54.9355584 289.892683,69.8521181 290.063158,86.0046213 C290.148395,101.901412 281.624647,114.388703 278.641335,118.22439 Z" id="Shape" fill="#000000"></path>
                <path d="M278.300385,118.394865 C278.300385,118.394865 291.128626,118.56534 299.865469,125.256483 C308.602311,131.947625 318.78819,154.450321 318.78819,154.450321 L315.080359,164.039538 L313.673941,165.573813 L311.116816,155.473171 L306.130424,140.428755 L302.550449,133.183569 L296.839538,126.577664 L291.00077,122.656739 L278.300385,118.394865 Z" id="Path" fill="#000000"></path>
                <polygon id="Path" fill="#000000" points="47.903466 113.323235 57.322208 107.39923 57.9188703 109.743261"></polygon>
                <polygon id="Path" fill="#000000" points="289.850064 49.0115533 289.935302 48.9689345 303.829012 44.7070603 303.829012 46.9232349"></polygon>
                <circle id="Oval" fill="#000000" cx="238.750193" cy="139.533761" r="27.744801"></circle>
                <path d="M241.179461,246.63466 L240.625417,246.592041 C240.625417,246.592041 240.625417,246.549422 240.625417,246.421566 L241.179461,246.464185 C241.179461,246.592041 241.179461,246.63466 241.179461,246.63466 Z" id="Path" fill="#000000"></path>
                <path d="M36.6947368,96.3099505 C36.6947368,96.2673318 36.7373556,96.224713 36.7799743,96.1820943 L35.3326358,96.5512195 L35.2456996,95.3723382 C35.5014121,94.903532 36.012837,94.7330571 36.4390244,94.9461508 C36.9078306,95.1592445 37.163543,95.7559069 36.9504493,96.2673318 L36.7373556,96.1820943 L36.6947368,96.3099505 Z" id="Path" fill="#000000" transform="translate(36.136058, 95.703332) scale(1, -1) translate(-36.136058, -95.703332) "></path>
                <path d="M240.923748,247.31656 L240.923748,245.569191 C282.136072,245.228241 313.929653,244.92991 315.719641,244.92991 C316.699872,244.716816 327.013607,242.159692 329.570732,224.515533 C331.105006,213.732991 326.630039,207.212323 322.325546,200.862131 C319.171759,196.259307 315.890116,191.486008 315.165597,185.221053 C314.995122,183.772015 314.824647,182.365597 314.696791,181.001797 C313.290372,168.642362 312.054429,157.987677 305.107574,140.087805 C298.288575,122.486264 283.798203,120.61104 277.661104,119.843902 L275.402311,119.545571 L276.467779,118.352246 C276.595635,118.22439 288.571502,104.202824 288.443646,86.0472401 C288.273171,67.6359435 284.735815,50.8441592 284.693196,50.6736842 L284.480103,49.7786906 L311.415148,45.7725289 L311.713479,46.3265725 C311.841335,46.582285 326.075995,74.2844673 326.58742,97.7247754 C327.226701,127.344801 323.433633,149.463928 314.654172,167.278562 C315.421309,171.881386 315.932734,176.271117 316.444159,180.873941 C316.614634,182.237741 316.74249,183.644159 316.912965,185.093196 C317.594865,190.931964 320.620796,195.321694 323.817202,199.967137 C328.334788,206.573042 333.02285,213.392041 331.360719,224.813864 C328.547882,244.290629 316.572015,246.592041 316.060591,246.677279 L315.932734,246.677279 C315.804878,246.677279 283.329397,246.932991 240.923748,247.31656 Z M278.641335,118.22439 C285.502953,119.162003 299.737612,121.719127 306.641849,139.448524 C310.520154,149.463928 312.651091,157.220539 314.014891,164.29525 C321.941977,147.119897 325.351476,125.853145 324.754814,97.6821566 C324.286008,76.4154044 312.35276,51.5686778 310.349679,47.6051348 L286.440565,51.1424904 C287.165083,54.8929397 289.892683,69.8094994 290.063158,85.9620026 C290.148395,101.901412 281.624647,114.388703 278.641335,118.22439 Z" id="Shape" fill="#000000"></path>
                <path d="M257.246727,120.909371 L256.607445,119.289859 C260.741463,117.627728 274.294223,117.926059 276.979204,118.011297 L276.979204,118.863671 L277.78896,119.162003 L276.893967,119.758665 C271.097818,119.58819 260.443132,119.630809 257.246727,120.909371 Z" id="Path" fill="#000000"></path>
            </g>
        </g>
    </g>
</svg>