<?xml version="1.0" encoding="UTF-8"?>
<svg width="856px" height="578px" viewBox="0 0 856 578" version="1.1" xmlns="http://www.w3.org/2000/svg" xmlns:xlink="http://www.w3.org/1999/xlink">
    <title>feature-ui</title>
    <g id="Illustrations" stroke="none" stroke-width="1" fill="none" fill-rule="evenodd">
        <g id="ui" transform="translate(-1321.000000, -162.000000)" fill-rule="nonzero">
            <g id="feature-ui" transform="translate(1321.700000, 162.540391)">
                <g id="Group" transform="translate(44.300000, 29.459609)">
                    <g id="colors" transform="translate(15.500000, 0.000000)" fill="#B02288">
                        <path d="M13.6,191.4 C13.6,191.4 28.6,225.6 92.6,240 C156.6,254.4 153.4,331 175.1,344.3 C196.7,357.6 249,335.5 279.6,386 C310.2,436.5 351.1,469.4 392.2,448.2 C433.3,427 523.8,544.5 523.8,544.5 L26.4,542.2 C26.4,542.2 -9.5,508.5 13.2,475.6 C35.9,442.7 24.2,411.8 10.4,397.5 C-3.3,383.2 42.6,353 31.8,321.5 C21,290 -5,287.8 1.9,257.1 C8.8,226.5 14.7,224.9 13.6,191.4 Z" id="SVGID_1_"></path>
                        <ellipse id="Oval" cx="678.1" cy="122.6" rx="88" ry="86.3"></ellipse>
                        <path d="M467.5,70.6 C467.5,70.6 444.3,59.9 430.7,48.9 C411.4,33.3 402,18.5 402,18.5 C402,18.5 425.6,-16.3 458.9,11.3 C492.2,38.9 467.5,70.6 467.5,70.6 Z" id="Path"></path>
                    </g>
                    <g transform="translate(133.000000, 493.000000)" fill="#000000" id="Path">
                        <path d="M117.7,1.5 C119.9,1.7 121.6,2.6 121.6,5.1 C121.6,7.5 120.1,8.9 117.8,8.8 C115.9,8.7 114.3,7.8 114.2,5.5 C114,3.1 115.2,1.8 117.7,1.5 Z"></path>
                        <path d="M121.4,25.4 C121.2,27.7 120,29.2 117.6,29.1 C115.6,29.1 114.1,28.1 113.9,25.8 C113.7,23.4 114.8,21.9 117.3,21.8 C119.6,21.7 121,23 121.4,25.4 Z"></path>
                        <path d="M117.4,42 C119.7,42.2 121.2,43.4 121.1,45.8 C121,48.2 119.4,49.4 117.1,49.3 C115.1,49.2 113.7,48.1 113.7,45.8 C113.7,43.4 115,42.2 117.4,42 Z"></path>
                        <path d="M166.4,25.5 C166.2,28.2 165.1,29.5 162.8,29.4 C160.5,29.3 158.8,28.3 159.1,25.7 C159.3,23.7 160.3,22.1 162.6,22.2 C165,22.3 166.3,23.6 166.4,25.5 Z"></path>
                        <path d="M27.5,0.8 C29.8,0.8 30.8,2 30.9,4.2 C30.9,6.6 29.8,8 27.3,7.9 C25.1,7.8 23.9,6.5 23.8,4.5 C23.7,2 25.1,0.8 27.5,0.8 Z"></path>
                        <path d="M27.1,21 C29.8,21.1 30.7,22.5 30.7,24.7 C30.7,27 29.4,28.1 27.2,28 C24.7,27.9 23.4,26.5 23.6,24.1 C23.8,21.9 25.3,21 27.1,21 Z"></path>
                        <path d="M53.3,24.4 C53.2,27.1 52,28.4 49.9,28.4 C47.6,28.4 46.1,27.1 46.2,24.7 C46.3,22.4 47.9,21.2 50.3,21.3 C52.5,21.3 53.3,22.8 53.3,24.4 Z"></path>
                        <path d="M143.9,25.5 C143.6,27.8 142.5,29.2 140,29.2 C137.7,29.2 136.7,27.9 136.7,25.7 C136.7,23.3 137.9,21.9 140.4,22 C142.4,22.2 143.8,23.3 143.9,25.5 Z"></path>
                        <path d="M75.9,44.9 C75.9,47.4 74.6,48.5 72.5,48.6 C70.2,48.8 68.5,47.7 68.5,45.3 C68.5,43.3 69.7,41.8 71.8,41.6 C74.2,41.4 75.5,42.8 75.9,44.9 Z"></path>
                        <path d="M49.9,8.1 C47.5,7.8 46.1,6.5 46.3,4.1 C46.5,2 47.9,0.9 50,0.9 C52.5,1 53.5,2.4 53.4,4.8 C53.3,7.1 51.9,8 49.9,8.1 Z"></path>
                        <path d="M27.1,48.3 C24.5,48.1 23.3,46.8 23.4,44.7 C23.5,42.2 25.1,41.2 27.5,41.3 C29.8,41.5 30.6,43 30.5,45.2 C30.4,47.5 28.9,48.3 27.1,48.3 Z"></path>
                        <path d="M144.1,5.1 C143.8,7.7 142.6,9 140.2,9 C138,9 136.9,7.8 136.9,5.6 C136.9,3.5 137.7,2 140,1.9 C142.3,1.9 143.7,3 144.1,5.1 Z"></path>
                        <path d="M49.5,41.4 C51.8,41.5 53,42.6 53,44.8 C53.1,47.2 51.9,48.6 49.4,48.5 C47.3,48.5 45.9,47.3 45.8,45.2 C45.8,42.8 47.3,41.6 49.5,41.4 Z"></path>
                        <path d="M98.9,5 C98.5,7.4 97.4,8.7 95.2,8.5 C93,8.3 91.3,7.2 91.6,4.7 C91.9,2.4 93.4,1.2 95.8,1.4 C98.1,1.6 98.6,3.3 98.9,5 Z"></path>
                        <path d="M72.7,1 C75,1.4 76.3,2.6 76.3,5 C76.2,7.3 74.6,8.1 72.6,8.2 C70.4,8.3 69.1,6.9 69.1,4.9 C69,2.6 70.3,1.2 72.7,1 Z"></path>
                        <path d="M162.6,49.6 C160.5,49.5 159,48.7 159,46.4 C159,44.2 160.1,42.4 162.5,42.5 C164.7,42.6 166.2,43.9 166.1,46.4 C166,48.5 164.8,49.6 162.6,49.6 Z"></path>
                        <path d="M72.2,28.4 C70,28.3 68.7,27 68.8,24.9 C68.9,22.9 70,21.3 72.3,21.4 C74.7,21.4 76,22.9 76,25.3 C76,27.6 74.3,28.3 72.2,28.4 Z"></path>
                        <path d="M4.8,0.5 C7.3,0.6 8.3,2.1 8.4,4.1 C8.5,6.3 7.3,7.5 5.1,7.5 C2.6,7.6 1.4,6.3 1.5,3.8 C1.4,1.6 2.8,0.6 4.8,0.5 Z"></path>
                        <path d="M98.6,25.4 C98.2,27.5 97.2,28.8 94.9,28.6 C92.8,28.4 91.2,27.5 91.3,25.2 C91.4,22.8 92.9,21.6 95.3,21.7 C97.7,21.8 98.4,23.4 98.6,25.4 Z"></path>
                        <path d="M139.8,42.2 C142.1,42.5 143.6,43.5 143.6,45.8 C143.6,48.2 142.2,49.5 139.7,49.4 C137.4,49.3 136.4,47.9 136.5,45.8 C136.5,43.5 137.9,42.5 139.8,42.2 Z"></path>
                        <path d="M94.5,41.8 C97,41.8 98.3,43.1 98.4,45.2 C98.5,47.3 97.5,48.8 95.1,48.8 C93,48.8 91.3,48.2 91.2,45.8 C91,43.5 92.4,42.1 94.5,41.8 Z"></path>
                        <path d="M166.6,5.2 C166.6,7.5 165.7,9 163.5,9.1 C161.2,9.2 159.5,8.4 159.5,5.8 C159.5,3.8 160.4,2.2 162.6,2 C164.8,1.9 166.3,3 166.6,5.2 Z"></path>
                        <path d="M8.2,24.3 C8,26.4 7.1,27.7 4.7,27.7 C2.5,27.7 1.1,26.8 1,24.5 C0.9,22 2.2,20.7 4.6,20.6 C7.1,20.6 7.8,22.3 8.2,24.3 Z"></path>
                        <path d="M4.4,48 C2.1,48 0.9,46.8 0.9,44.6 C0.8,42.1 2.3,40.9 4.7,40.9 C7,40.9 8,42.6 8,44.6 C8,46.9 6.7,48 4.4,48 Z"></path>
                    </g>
                    <g transform="translate(366.000000, 489.000000)" fill="#000000" id="Path">
                        <path d="M117.4,1.1 C119.6,1.3 121.3,2.2 121.3,4.7 C121.3,7.1 119.8,8.5 117.5,8.4 C115.6,8.3 114,7.4 113.9,5.1 C113.8,2.7 115,1.4 117.4,1.1 Z"></path>
                        <path d="M121.2,24.9 C121,27.2 119.8,28.7 117.4,28.6 C115.4,28.6 113.9,27.6 113.7,25.3 C113.5,22.9 114.6,21.4 117.1,21.3 C119.4,21.3 120.8,22.5 121.2,24.9 Z"></path>
                        <path d="M117.1,41.6 C119.4,41.8 120.9,43 120.8,45.4 C120.7,47.8 119.1,49 116.8,48.9 C114.8,48.8 113.4,47.7 113.4,45.4 C113.5,42.9 114.8,41.7 117.1,41.6 Z"></path>
                        <path d="M166.2,25.1 C166,27.8 164.9,29.1 162.6,29 C160.3,28.9 158.6,27.9 158.9,25.3 C159.1,23.3 160.1,21.7 162.4,21.8 C164.8,21.9 166.1,23.2 166.2,25.1 Z"></path>
                        <path d="M27.3,0.4 C29.6,0.4 30.6,1.6 30.7,3.8 C30.7,6.2 29.6,7.6 27.1,7.5 C24.9,7.4 23.7,6.1 23.6,4.1 C23.5,1.6 24.9,0.4 27.3,0.4 Z"></path>
                        <path d="M26.9,20.6 C29.6,20.7 30.5,22.1 30.5,24.3 C30.5,26.6 29.2,27.7 27,27.6 C24.5,27.5 23.2,26.1 23.4,23.7 C23.6,21.5 25.1,20.6 26.9,20.6 Z"></path>
                        <path d="M53,23.9 C52.9,26.6 51.7,27.9 49.6,27.9 C47.3,27.9 45.8,26.6 45.9,24.2 C46,21.9 47.6,20.7 50,20.8 C52.3,20.9 53.1,22.4 53,23.9 Z"></path>
                        <path d="M143.7,25.1 C143.4,27.4 142.3,28.8 139.8,28.8 C137.5,28.8 136.5,27.5 136.5,25.3 C136.5,22.9 137.7,21.5 140.2,21.6 C142.1,21.8 143.5,22.9 143.7,25.1 Z"></path>
                        <path d="M75.7,44.5 C75.7,47 74.4,48.1 72.3,48.2 C70,48.4 68.3,47.3 68.3,44.9 C68.3,42.9 69.5,41.4 71.6,41.2 C74,41 75.2,42.4 75.7,44.5 Z"></path>
                        <path d="M49.7,7.7 C47.3,7.4 45.9,6.1 46.1,3.7 C46.3,1.6 47.7,0.5 49.8,0.5 C52.3,0.6 53.3,2 53.2,4.4 C53.1,6.7 51.7,7.6 49.7,7.7 Z"></path>
                        <path d="M26.9,47.8 C24.3,47.6 23.1,46.3 23.2,44.2 C23.3,41.7 24.9,40.7 27.3,40.8 C29.6,41 30.4,42.5 30.3,44.7 C30.1,47.1 28.7,47.9 26.9,47.8 Z"></path>
                        <path d="M143.9,4.7 C143.6,7.3 142.4,8.6 140,8.6 C137.8,8.6 136.7,7.4 136.7,5.2 C136.7,3.1 137.5,1.6 139.8,1.5 C142.1,1.4 143.5,2.5 143.9,4.7 Z"></path>
                        <path d="M49.3,40.9 C51.6,41 52.8,42.1 52.8,44.3 C52.9,46.7 51.7,48.1 49.2,48 C47.1,48 45.7,46.8 45.6,44.7 C45.6,42.4 47.1,41.1 49.3,40.9 Z"></path>
                        <path d="M98.7,4.5 C98.3,6.9 97.2,8.2 95,8 C92.8,7.8 91.1,6.7 91.4,4.2 C91.7,1.9 93.2,0.7 95.6,0.9 C97.8,1.2 98.4,2.9 98.7,4.5 Z"></path>
                        <path d="M72.4,0.6 C74.7,1 76,2.2 76,4.6 C75.9,6.9 74.3,7.7 72.3,7.8 C70.1,7.9 68.8,6.5 68.8,4.5 C68.8,2.2 70.1,0.8 72.4,0.6 Z"></path>
                        <path d="M162.4,49.2 C160.3,49.1 158.8,48.3 158.8,46 C158.8,43.8 159.9,42 162.3,42.1 C164.5,42.2 166,43.5 165.9,46 C165.8,48.1 164.6,49.2 162.4,49.2 Z"></path>
                        <path d="M72,28 C69.8,27.9 68.5,26.6 68.6,24.5 C68.7,22.5 69.8,20.9 72.1,21 C74.5,21 75.8,22.5 75.8,24.9 C75.8,27.1 74.1,27.9 72,28 Z"></path>
                        <path d="M4.5,0 C7,0.1 8,1.6 8.1,3.6 C8.2,5.8 7,7 4.8,7 C2.3,7.1 1.1,5.8 1.2,3.3 C1.2,1.2 2.6,0.2 4.5,0 Z"></path>
                        <path d="M98.4,25 C98,27.1 97,28.4 94.7,28.2 C92.6,28 91,27.1 91.1,24.8 C91.2,22.4 92.7,21.2 95.1,21.3 C97.5,21.3 98.2,23 98.4,25 Z"></path>
                        <path d="M139.6,41.8 C141.9,42.1 143.4,43.1 143.4,45.4 C143.4,47.8 142,49.1 139.5,49 C137.2,48.9 136.2,47.5 136.3,45.4 C136.3,43 137.7,42 139.6,41.8 Z"></path>
                        <path d="M94.3,41.4 C96.8,41.4 98.1,42.7 98.2,44.8 C98.3,46.9 97.3,48.4 94.9,48.4 C92.8,48.4 91.1,47.8 91,45.4 C90.8,43 92.2,41.7 94.3,41.4 Z"></path>
                        <path d="M166.3,4.8 C166.3,7.1 165.4,8.6 163.2,8.7 C160.9,8.8 159.2,8 159.2,5.4 C159.2,3.4 160.1,1.8 162.3,1.6 C164.6,1.5 166.1,2.6 166.3,4.8 Z"></path>
                        <path d="M8,23.9 C7.8,26 6.9,27.3 4.5,27.3 C2.3,27.3 0.9,26.4 0.8,24.1 C0.7,21.6 2,20.3 4.4,20.2 C6.8,20.2 7.6,21.9 8,23.9 Z"></path>
                        <path d="M4.2,47.6 C1.9,47.6 0.7,46.4 0.7,44.2 C0.6,41.7 2.1,40.5 4.5,40.5 C6.8,40.5 7.8,42.2 7.8,44.2 C7.8,46.4 6.5,47.6 4.2,47.6 Z"></path>
                    </g>
                    <path d="M29.3,507.8 L10.3,497.6 L21.3,477.2 L0.9,466.2 L11.1,447.2 L31.5,458.2 L42.5,437.8 L61.5,448 L50.5,468.4 L70.9,479.4 L60.7,498.4 L40.3,487.4 L29.3,507.8 Z M17.5,495.4 L27.2,500.6 L38.2,480.2 L58.6,491.2 L63.8,481.5 L43.4,470.5 L54.4,450.1 L44.7,444.9 L33.7,465.3 L13.3,454.3 L8,464 L28.4,475 L17.5,495.4 Z" id="Shape" fill="#FFFFFF"></path>
                    <path d="M25.4,243.6 L11.4,236.1 L18.5,222.8 L5.2,215.7 L12.7,201.7 L26,208.8 L33.1,195.5 L47.1,203 L40,216.3 L53.3,223.4 L45.8,237.4 L32.5,230.3 L25.4,243.6 Z M18.6,233.9 L23.3,236.4 L30.4,223.1 L43.7,230.2 L46.2,225.5 L32.9,218.4 L40,205.1 L35.3,202.6 L28.2,215.9 L14.9,208.8 L12.4,213.5 L25.7,220.6 L18.6,233.9 Z" id="Shape" fill="#FFFFFF"></path>
                </g>
                <path d="M388.6,206.859609 L384.6,206.759609 C386.3,146.659609 342,101.859609 341.5,101.459609 L341.2,101.059609 C341.2,101.059609 340.8,100.359609 340,99.2596088 C334,91.1596088 310.1,64.7596088 253.2,63.4596088 C187.1,61.9596088 96.8,129.759609 95.9,130.459609 L92.7,132.859609 L92.7,60.4596088 L93.3,59.8596088 C93.9,59.2596088 150.5,2.95960876 252.8,0.059608761 C306.4,-1.44039124 353.9,25.6596088 384.2,48.5596088 C417,73.3596088 437.5,98.9596088 437.7,99.2596088 L434.6,101.759609 C434.4,101.459609 414.2,76.2596088 381.8,51.7596088 C352,29.1596088 305.4,2.55960876 253,4.05960876 C157.8,6.75960876 102.9,56.3596088 96.8,62.1596088 L96.8,124.959609 C113.5,112.759609 190.2,59.5596088 251.1,59.5596088 C251.9,59.5596088 252.7,59.5596088 253.5,59.5596088 C312.2,60.9596088 337.1,88.5596088 343.4,96.9596088 C344.1,97.8596088 344.5,98.5596088 344.7,98.8596088 C347.6,101.959609 390.3,146.959609 388.6,206.859609 Z" id="Path" fill="#000000"></path>
                <path d="M60.7,172.759609 C60.5,172.759609 60.2,172.759609 60,172.759609 C59.3,172.659609 58.2,172.359609 57.2,171.059609 C55.3,168.559609 55,163.959609 55.2,162.059609 C55.5,159.959609 59,138.559609 59.4,135.559609 L58.8,134.659609 C60,133.859609 61.1,133.259609 62.2,133.759609 L63.4,135.159609 L63.5,135.559609 L63.4,135.959609 C63.4,136.159609 59.4,160.459609 59.1,162.659609 C58.8,164.659609 59.6,168.359609 60.4,168.859609 C62.2,169.059609 64.1,166.559609 65,164.959609 C67.4,161.059609 79.9,136.259609 80.2,130.559609 C80.5,124.259609 80.4,111.459609 80.3,111.259609 L80.3,110.259609 L93.3,99.8596088 L95.8,102.959609 L84.3,112.159609 C84.3,115.259609 84.4,125.159609 84.1,130.659609 C83.8,137.759609 70,164.159609 68.3,166.859609 C65.7,171.659609 62.8,172.759609 60.7,172.759609 Z M60.6,137.259609 L60.6,137.259609 C60.6,137.359609 60.6,137.359609 60.7,137.359609 L60.6,137.259609 Z M59.8,135.959609 L59.6,135.959609 L59.8,135.959609 Z" id="Shape" fill="#000000"></path>
                <rect id="Rectangle" fill="#000000" transform="translate(72.866685, 82.788274) rotate(-38.512169) translate(-72.866685, -82.788274) " x="45.0158281" y="80.7882122" width="55.7017139" height="4.00012308"></rect>
                <path d="M18.3,191.859609 C17.7,191.859609 17.2,191.659609 16.8,191.559609 C14.3,190.459609 13.5,186.859609 13.5,185.459609 C13.5,183.959609 22.2,154.059609 29.5,129.359609 L33.3,130.459609 C27.2,151.159609 18,182.759609 17.5,185.559609 C17.5,186.259609 18,187.559609 18.4,187.859609 C18.5,187.859609 18.6,187.759609 18.8,187.559609 C20.9,185.659609 26.5,174.459609 29.6,167.859609 L33.2,169.559609 C31.8,172.559609 24.7,187.659609 21.5,190.559609 C20.3,191.559609 19.2,191.859609 18.3,191.859609 Z" id="Path" fill="#000000"></path>
                <path d="M34.1,194.359609 C33.9,194.359609 33.7,194.359609 33.5,194.359609 C29.5,193.759609 29.4,187.659609 29.3,185.659609 C29.1,174.559609 30,139.259609 30,138.859609 L34,138.959609 C34,139.359609 33,174.559609 33.3,185.559609 C33.4,188.959609 33.9,190.059609 34.2,190.359609 C34.8,190.159609 36,188.859609 36.5,187.559609 C37.4,184.959609 40.1,170.959609 41.1,165.759609 L45,166.459609 C44.6,168.359609 41.4,185.559609 40.3,188.859609 C39.4,191.259609 36.9,194.359609 34.1,194.359609 Z" id="Path" fill="#000000"></path>
                <path d="M50.4,176.459609 C47.4,176.459609 44.9,172.659609 43,169.759609 L42.7,169.259609 C42.5,168.959609 26.2,143.159609 29.9,126.159609 C30.8,122.059609 32.8,117.259609 35.2,113.159609 L20.1,59.5596088 L42.4,53.8596088 L62.5,140.559609 L58.6,141.459609 L39.4,58.7596088 L25,62.4596088 L48.9,147.259609 C49.3,148.259609 52.8,157.059609 54.3,159.959609 C55.9,162.959609 55.6,169.659609 54.3,173.159609 C53.7,174.759609 52.9,175.859609 51.8,176.259609 C51.3,176.359609 50.9,176.459609 50.4,176.459609 Z M36.8,118.759609 C35.4,121.559609 34.4,124.459609 33.8,127.059609 C30.8,140.559609 43.4,163.259609 46,167.159609 L46.3,167.659609 C47.1,168.859609 49.2,172.059609 50.3,172.459609 C51.3,170.859609 52.1,164.159609 50.8,161.759609 C49.1,158.559609 45.4,149.059609 45.2,148.559609 L45.1,148.359609 L36.8,118.759609 Z" id="Shape" fill="#000000"></path>
                <polygon id="Path" fill="#000000" points="56.2 187.759609 51.2 169.959609 55 168.859609 59 182.959609 67.7 180.659609 64.6 167.259609 68.5 166.359609 72.5 183.559609"></polygon>
                <path d="M73.4,220.859609 C73.4,220.859609 80.5,205.159609 78.9,198.259609 C77.3,191.359609 67.8,182.759609 67.8,182.759609 L60.1,184.759609 C60.1,184.759609 55.9,198.259609 57.2,203.059609 C58.6,207.759609 73.4,220.859609 73.4,220.859609 Z" id="Path" fill="#000000"></path>
                <path d="M546,122.559609 C531,122.559609 503.3,107.059609 479.9,88.6596088 C450.2,65.3596088 423.5,34.3596088 432.6,22.8596088 C440.3,12.9596088 466.5,26.4596088 477.4,32.6596088 L475.4,36.1596088 C452.4,22.9596088 438.9,21.2596088 435.7,25.3596088 C430.3,32.2596088 448.1,58.6596088 482.4,85.5596088 C516.6,112.459609 546.5,123.559609 551.9,116.659609 C554.9,112.859609 550.6,100.959609 534.3,83.0596088 L537.2,80.3596088 C545,88.8596088 562.4,109.759609 555,119.059609 C553,121.459609 549.9,122.559609 546,122.559609 Z" id="Path" fill="#000000"></path>
                <g id="Group" transform="translate(459.300000, 27.459609)" fill="#000000">
                    <path d="M68.6,75 L67.2,74.3 C66.2,73.9 43.6,63.4 30,52.4 C10.7,36.8 1.3,22.2 0.9,21.6 L0.2,20.5 L0.9,19.4 C1.3,18.7 11.9,3.4 29.2,1 C39.7,-0.5 50.4,3.1 60.8,11.8 C95.2,40.4 69.9,73.5 69.6,73.8 L68.6,75 Z M4.9,20.6 C7.5,24.3 16.6,36.6 32.4,49.4 C43.7,58.5 62,67.6 67.3,70.1 C71.4,64 86.2,38.2 58.1,14.9 C48.6,7 39,3.6 29.6,5 C16.6,6.8 7.6,17.2 4.9,20.6 Z" id="Shape"></path>
                </g>
                <path d="M545.2,576.059609 C523,576.059609 502.8,566.159609 485.2,546.659609 C470.6,530.459609 457.7,507.759609 446.8,478.959609 C434.9,447.459609 428.1,415.559609 424.8,396.659609 L416.9,501.259609 L297.4,500.359609 L327.5,303.859609 C327.5,303.559609 332.2,275.559609 347.3,248.059609 C367.3,211.559609 396.5,192.259609 431.8,192.259609 C432,192.259609 432.1,192.259609 432.3,192.259609 C466.3,192.459609 493.2,207.659609 512.3,237.559609 C528.4,262.659609 536.2,293.359609 541.9,315.759609 C542.9,319.559609 543.8,323.159609 544.6,326.359609 C559.3,380.859609 614.1,535.259609 621,554.859609 L695.2,521.159609 C689.8,498.659609 629.1,247.559609 588.5,199.659609 C546.6,150.059609 510.2,150.959609 509.8,150.959609 L508.6,150.959609 L508,149.959609 C507,148.359609 498.4,134.459609 499.1,126.659609 C499.8,118.659609 510.9,108.559609 512.1,107.459609 L514.8,110.459609 C511.7,113.259609 503.6,121.559609 503.1,127.059609 C502.7,132.159609 508.1,142.459609 510.8,146.959609 C517.7,147.159609 552.1,150.459609 591.5,197.059609 C634.3,247.759609 696.7,510.659609 699.4,521.859609 L699.8,523.459609 L618.7,560.359609 L618,558.359609 C617.9,558.059609 616.5,554.159609 614.1,547.359609 C607.2,554.659609 585.1,574.659609 548.3,576.159609 C547.3,576.059609 546.2,576.059609 545.2,576.059609 Z M426,379.159609 C426.1,379.659609 432.3,429.259609 450.5,477.659609 C461.2,505.959609 473.8,528.359609 488.1,544.059609 C505.7,563.559609 525.9,572.959609 548.1,572.059609 C586.3,570.459609 608.4,547.559609 612.5,542.959609 C597.1,499.559609 553.5,375.259609 540.7,327.359609 C539.8,324.059609 538.9,320.459609 537.9,316.659609 C526.5,271.759609 507.3,196.559609 432.1,196.159609 C431.9,196.159609 431.7,196.159609 431.6,196.159609 C397.4,196.159609 370.1,214.259609 350.6,249.959609 C335.9,276.859609 331.3,304.159609 331.3,304.459609 L301.9,496.359609 L413.1,497.259609 L422,379.259609 L426,379.159609 Z" id="Shape" fill="#000000"></path>
                <rect id="Rectangle" fill="#000000" transform="translate(289.988600, 498.437211) rotate(-0.671425) translate(-289.988600, -498.437211) " x="280.288904" y="496.437274" width="19.399392" height="3.99987464"></rect>
                <rect id="Rectangle" fill="#000000" transform="translate(314.371060, 302.079999) rotate(-56.837535) translate(-314.371060, -302.079999) " x="252.47275" y="300.080053" width="123.796621" height="3.99989082"></rect>
                <path d="M415,499.259609 L410.3,574.159609 L244.1,574.159609 C244.1,574.159609 249.2,556.359609 269.3,549.059609 C289.4,541.759609 315.8,537.259609 322.4,530.259609 C331.3,520.859609 333.7,498.659609 333.7,498.659609 L415,499.259609 Z" id="Path" fill="#000000"></path>
                <rect id="Rectangle" fill="#000000" x="74" y="572.059609" width="737.4" height="4"></rect>
                <path d="M811.6,576.059609 C803.1,576.059609 784.2,556.859609 780.5,552.959609 C778.3,550.659609 765.7,538.559609 761.5,534.459609 L744.9,550.059609 L742.2,547.159609 L761.6,528.959609 L763,530.259609 C763.7,530.959609 780.7,547.359609 783.4,550.159609 C791.6,558.759609 806.7,572.259609 811.7,572.059609 C812.1,572.059609 812.2,571.959609 812.3,571.859609 C815.5,567.859609 811.1,559.859609 807.5,553.359609 C806.7,551.859609 805.9,550.359609 805.2,549.059609 C802.6,543.859609 792.1,532.259609 777.1,518.059609 C773.7,514.859609 768.9,512.859609 764.4,511.759609 L752.5,509.959609 C738.8,513.459609 733.6,514.759609 707.7,521.659609 L698.1,524.159609 L697.1,520.259609 L706.7,517.759609 C737.1,509.759609 738.9,509.259609 759.5,504.059609 C780.3,498.759609 824.8,489.859609 829.8,489.359609 C833.6,489.059609 838.2,489.059609 840,492.359609 C841.7,495.359609 840.4,499.659609 836,505.959609 C825.4,520.859609 800.6,517.359609 799.5,517.259609 L778.4,513.959609 C778.9,514.359609 779.4,514.759609 779.9,515.259609 C789,523.959609 804.9,539.559609 808.8,547.359609 C809.4,548.659609 810.2,550.059609 811,551.559609 C815.1,559.059609 820.2,568.359609 815.4,574.459609 C814.6,575.459609 813.4,576.059609 811.9,576.159609 C811.8,576.059609 811.7,576.059609 811.6,576.059609 Z M765.2,507.859609 L800,513.259609 C800.2,513.259609 823.5,516.459609 832.7,503.559609 C837.4,496.959609 836.8,494.759609 836.5,494.259609 C836.2,493.659609 834.9,492.859609 830.1,493.259609 C825.7,493.659609 784.1,502.059609 762.8,507.259609 C763.6,507.459609 764.4,507.659609 765.2,507.859609 Z" id="Shape" fill="#000000"></path>
                <path d="M687.2,576.159609 C666.3,576.159609 653.8,566.459609 636.3,550.959609 L638.9,547.959609 C656.8,563.759609 668.9,573.459609 691.4,572.059609 C695.9,571.759609 700.6,571.559609 705.5,571.359609 C724.6,570.559609 746.2,569.659609 753.3,563.859609 C755.3,562.259609 757.5,559.959609 757.1,557.959609 C756.7,555.659609 753.1,553.359609 747.3,551.559609 C738.2,548.759609 690,545.659609 689.5,545.659609 L689.7,541.659609 C691.7,541.759609 738.8,544.759609 748.4,547.759609 C756,550.059609 760.2,553.259609 760.9,557.159609 C761.5,560.359609 759.8,563.659609 755.7,566.959609 C747.6,573.559609 726.2,574.459609 705.6,575.359609 C700.7,575.559609 696,575.759609 691.5,576.059609 C690.1,576.159609 688.6,576.159609 687.2,576.159609 Z" id="Path" fill="#000000"></path>
                <path d="M835.1,536.959609 C834.8,536.959609 834.4,536.959609 834.1,536.959609 C827.9,536.859609 796.1,535.259609 794.7,535.159609 L794.9,531.159609 C795.2,531.159609 828,532.859609 834.1,532.959609 C841.1,533.059609 849.5,531.759609 850,527.459609 C850.4,523.359609 849.2,522.459609 834.3,520.659609 C820.5,518.959609 806.1,517.759609 806,517.659609 L806.4,513.659609 C806.5,513.659609 821,514.959609 834.8,516.659609 C847.8,518.259609 854.9,519.059609 854,527.859609 C853.2,535.859609 841.2,536.959609 835.1,536.959609 Z" id="Path" fill="#000000"></path>
                <path d="M254.8,436.659609 L242,423.859609 L229.2,436.659609 L216.5,423.959609 L229.3,411.159609 L216.5,398.359609 L229.2,385.659609 L242,398.459609 L254.8,385.659609 L267.5,398.359609 L254.7,411.159609 L267.5,423.959609 L254.8,436.659609 Z M242,416.359609 L254.8,429.159609 L260,423.959609 L247.2,411.159609 L260,398.359609 L254.8,393.159609 L242,405.959609 L229.2,393.159609 L224,398.359609 L236.8,411.159609 L224,423.959609 L229.2,429.159609 L242,416.359609 Z" id="Shape" fill="#FFFFFF"></path>
                <rect id="Rectangle" fill="#000000" x="47.2" y="79.1596088" width="27.3" height="4"></rect>
                <path d="M244.6,576.059609 L22.6,576.059609 C10.1,576.059609 -4.26325641e-14,565.959609 -4.26325641e-14,553.459609 L-4.26325641e-14,101.759609 C-4.26325641e-14,89.2596088 10.1,79.1596088 22.6,79.1596088 L27.3,79.1596088 L27.3,83.1596088 L22.6,83.1596088 C12.3,83.1596088 4,91.5596088 4,101.759609 L4,553.459609 C4,563.759609 12.4,572.059609 22.6,572.059609 L244.6,572.059609 L244.6,576.059609 Z" id="Path" fill="#000000"></path>
                <path d="M281,545.359609 L277,545.359609 L277,101.759609 C277,91.4596088 268.6,83.1596088 258.4,83.1596088 L175.6,83.1596088 L175.6,79.1596088 L258.4,79.1596088 C270.9,79.1596088 281,89.2596088 281,101.759609 L281,545.359609 Z" id="Path" fill="#000000"></path>
                <path d="M134.5,325.759609 C83.8,325.759609 42.5,284.559609 42.5,233.759609 C42.5,216.259609 47.4,199.359609 56.7,184.659609 L60.1,186.759609 C51.2,200.759609 46.5,217.059609 46.5,233.759609 C46.5,282.259609 86,321.759609 134.5,321.759609 C183,321.759609 222.5,282.259609 222.5,233.759609 C222.5,185.259609 183,145.759609 134.5,145.759609 C110.4,145.759609 86.7,156.159609 69.7,174.359609 L66.8,171.659609 C84.6,152.659609 109.3,141.859609 134.5,141.859609 C185.2,141.859609 226.4,183.059609 226.4,233.859609 C226.4,284.659609 185.2,325.759609 134.5,325.759609 Z" id="Path" fill="#000000"></path>
                <rect id="Rectangle" fill="#000000" x="86.1" y="349.459609" width="96.7" height="4"></rect>
                <rect id="Rectangle" fill="#000000" x="48.7" y="377.359609" width="171.5" height="4"></rect>
                <rect id="Rectangle" fill="#000000" x="48.7" y="437.959609" width="171.5" height="36.9"></rect>
                <polygon id="Path" fill="#000000" points="647 557.559609 696.1 522.859609 638 549.859609"></polygon>
                <path d="M478.5,159.359609 C458.2,159.359609 449.2,146.859609 449.1,146.659609 L448.5,145.759609 L457.2,125.659609 C452.7,123.959609 441.8,119.859609 436.5,116.559609 C429.7,112.259609 435.3,93.4596088 438.1,85.4596088 L428.9,81.4596088 L449.8,58.3596088 L452.8,61.0596088 L435.7,79.9596088 L443.2,83.2596088 L442.6,85.0596088 C438.2,97.0596088 435.6,111.259609 438.7,113.159609 C445,117.159609 460.5,122.559609 460.6,122.659609 L462.6,123.359609 L453.1,145.259609 C456.5,149.259609 473.1,165.059609 508.9,147.159609 L510.7,150.759609 C497.8,157.059609 487.2,159.359609 478.5,159.359609 Z" id="Path" fill="#000000"></path>
                <path d="M451.9,60.3596088 C451.9,60.3596088 466.7,83.5596088 486.1,100.059609 C505.5,116.559609 505.5,117.559609 505.5,117.559609 L512.8,109.459609 C512.8,109.459609 491.7,96.1596088 479.6,86.0596088 C467.7,75.8596088 451.9,60.3596088 451.9,60.3596088 Z" id="Path" fill="#000000"></path>
                <polygon id="Path" fill="#000000" points="604.6 553.159609 543.4 329.359609 614.9 543.759609"></polygon>
                <circle id="Oval" fill="#000000" cx="574.2" cy="56.2596088" r="6.4"></circle>
                <path d="M624.3,87.8596088 C613.3,87.8596088 604.3,78.8596088 604.3,67.8596088 C604.3,56.8596088 613.3,47.8596088 624.3,47.8596088 C635.3,47.8596088 644.3,56.8596088 644.3,67.8596088 C644.3,78.8596088 635.3,87.8596088 624.3,87.8596088 Z M624.3,51.8596088 C615.5,51.8596088 608.3,59.0596088 608.3,67.8596088 C608.3,76.6596088 615.5,83.8596088 624.3,83.8596088 C633.1,83.8596088 640.3,76.6596088 640.3,67.8596088 C640.3,59.0596088 633.1,51.8596088 624.3,51.8596088 Z" id="Shape" fill="#000000"></path>
                <polygon id="Path" fill="#000000" points="55.8 96.3596088 60.6 134.759609 51.7 99.6596088"></polygon>
                <rect id="Rectangle" fill="#000000" x="219.6" y="104.059609" width="31.8" height="4"></rect>
                <rect id="Rectangle" fill="#000000" x="219.6" y="111.259609" width="31.8" height="4"></rect>
                <rect id="Rectangle" fill="#000000" x="219.6" y="118.059609" width="31.8" height="4"></rect>
                <path d="M134.5,553.959609 C124.8,553.959609 116.9,546.059609 116.9,536.359609 C116.9,526.659609 124.8,518.759609 134.5,518.759609 C144.2,518.759609 152.1,526.659609 152.1,536.359609 C152.1,546.059609 144.2,553.959609 134.5,553.959609 Z M134.5,522.659609 C127,522.659609 120.9,528.759609 120.9,536.259609 C120.9,543.759609 127,549.859609 134.5,549.859609 C142,549.859609 148.1,543.759609 148.1,536.259609 C148.1,528.759609 142,522.659609 134.5,522.659609 Z" id="Shape" fill="#000000"></path>
                <g id="Group" transform="translate(649.300000, 87.459609)" fill="#000000">
                    <path d="M76.5,0 L0.1,76.4 C0.9,68.4 2.8,60.6 5.7,53.4 L53.4,5.7 C60.8,2.7 68.5,0.8 76.5,0 Z" id="Path"></path>
                    <path d="M109,2.9 L3,108.8 C1.7,104.1 0.7,99.3 0.2,94.3 L94.5,0 C99.4,0.6 104.3,1.5 109,2.9 Z" id="Path"></path>
                    <path d="M132.7,13.9 L14,132.5 C11.7,129 9.6,125.3 7.7,121.4 L121.5,7.6 C125.5,9.4 129.2,11.5 132.7,13.9 Z" id="Path"></path>
                    <path d="M151.2,30.5 L30.7,151 C27.5,148.4 24.6,145.6 21.8,142.5 L142.7,21.6 C145.7,24.4 148.5,27.4 151.2,30.5 Z" id="Path"></path>
                    <path d="M164.4,52.6 L52.7,164.3 C48.7,162.7 44.8,160.7 41.2,158.5 L158.6,41 C160.8,44.7 162.8,48.5 164.4,52.6 Z" id="Path"></path>
                    <path d="M170.8,81 L81.2,170.6 C76,170.4 70.9,169.6 66,168.5 L168.8,65.7 C169.8,70.6 170.5,75.7 170.8,81 Z" id="Path"></path>
                    <path d="M170,97.2 C168.8,106 166.2,114.3 162.5,122.1 L122.2,162.4 C114.5,166.1 106.1,168.7 97.3,169.9 L170,97.2 Z" id="Path"></path>
                </g>
                <g id="Group" transform="translate(113.300000, 215.459609)" fill="#000000">
                    <path d="M117.3,0.4 C119.5,0.6 121.2,1.5 121.2,4 C121.2,6.4 119.8,7.8 117.4,7.7 C115.4,7.7 113.9,6.7 113.7,4.4 C113.7,1.9 114.9,0.7 117.3,0.4 Z" id="Path"></path>
                    <path d="M121.3,24.1 C121.1,26.4 119.9,27.9 117.6,27.9 C115.6,27.9 114.1,26.9 113.9,24.7 C113.7,22.3 114.8,20.8 117.2,20.7 C119.5,20.5 120.8,21.8 121.3,24.1 Z" id="Path"></path>
                    <path d="M117.4,40.9 C119.7,41.1 121.2,42.3 121.2,44.7 C121.1,47.1 119.6,48.4 117.3,48.2 C115.3,48.1 113.9,47 113.8,44.7 C113.8,42.2 115,41 117.4,40.9 Z" id="Path"></path>
                    <path d="M121.2,64.6 C121.1,66.8 119.9,68.1 117.7,68.2 C115.4,68.3 113.7,67.4 113.7,64.8 C113.7,62.6 114.9,61.3 117.1,61.2 C119.6,61 120.9,62.3 121.2,64.6 Z" id="Path"></path>
                    <path d="M72.5,61.1 C74.6,61.5 76.1,62.8 75.9,65.2 C75.8,67.5 74.1,68.3 72.1,68.3 C69.9,68.3 68.5,67.1 68.6,64.9 C68.6,62.6 69.8,61.1 72.5,61.1 Z" id="Path"></path>
                    <path d="M166.3,23.9 C166.1,26.6 165,27.9 162.8,27.9 C160.5,27.9 158.8,26.8 159.1,24.2 C159.3,22.2 160.3,20.6 162.6,20.6 C164.9,20.6 166.2,21.9 166.3,23.9 Z" id="Path"></path>
                    <path d="M27.2,0.5 C29.5,0.4 30.6,1.7 30.6,3.8 C30.7,6.2 29.5,7.6 27,7.5 C24.8,7.4 23.6,6.2 23.5,4.1 C23.3,1.8 24.8,0.6 27.2,0.5 Z" id="Path"></path>
                    <path d="M27,20.7 C29.7,20.8 30.6,22.2 30.6,24.3 C30.6,26.6 29.4,27.7 27.1,27.7 C24.6,27.7 23.3,26.2 23.5,23.8 C23.6,21.7 25.2,20.7 27,20.7 Z" id="Path"></path>
                    <path d="M53.1,23.9 C53.1,26.6 51.9,27.9 49.7,27.9 C47.4,27.9 45.8,26.6 46,24.2 C46.1,21.9 47.7,20.6 50,20.7 C52.3,20.8 53.1,22.3 53.1,23.9 Z" id="Path"></path>
                    <path d="M143.8,24.1 C143.6,26.5 142.4,27.9 140,27.9 C137.7,27.9 136.6,26.6 136.6,24.5 C136.6,22.1 137.8,20.6 140.2,20.8 C142.2,20.8 143.6,21.9 143.8,24.1 Z" id="Path"></path>
                    <path d="M76,44.1 C76.1,46.6 74.8,47.7 72.7,47.9 C70.4,48.1 68.7,47.1 68.6,44.6 C68.6,42.6 69.8,41.1 71.9,40.9 C74.3,40.7 75.5,42.1 76,44.1 Z" id="Path"></path>
                    <path d="M49.6,7.7 C47.2,7.4 45.8,6.1 46,3.8 C46.1,1.7 47.6,0.6 49.7,0.6 C52.2,0.6 53.3,2 53.1,4.4 C53,6.6 51.6,7.5 49.6,7.7 Z" id="Path"></path>
                    <path d="M30.6,64.7 C30.6,66.9 29.6,68.1 27.3,68.2 C24.9,68.3 23.5,67.1 23.4,64.8 C23.4,62.4 24.9,61.2 27.2,61.2 C29.5,61.2 30.5,62.6 30.6,64.7 Z" id="Path"></path>
                    <path d="M27.2,48 C24.6,47.9 23.4,46.5 23.5,44.4 C23.5,41.9 25.2,40.8 27.5,41 C29.8,41.2 30.6,42.7 30.5,44.8 C30.5,47.2 29,48 27.2,48 Z" id="Path"></path>
                    <path d="M53.1,64 C53.1,66.8 52.1,68.1 49.8,68.2 C47.6,68.3 46.1,67.3 46,65.1 C45.8,62.7 47.2,61.3 49.7,61.2 C51.9,61.1 53,62.4 53.1,64 Z" id="Path"></path>
                    <path d="M143.8,3.7 C143.6,6.3 142.4,7.6 140,7.6 C137.8,7.6 136.6,6.4 136.6,4.2 C136.6,2.1 137.4,0.6 139.7,0.5 C142,0.4 143.4,1.5 143.8,3.7 Z" id="Path"></path>
                    <path d="M49.6,40.9 C51.9,41 53.1,42 53.2,44.3 C53.3,46.7 52.2,48.1 49.7,48.1 C47.6,48.1 46.2,46.9 46.1,44.8 C45.9,42.3 47.3,41.1 49.6,40.9 Z" id="Path"></path>
                    <path d="M98.6,4 C98.2,6.4 97.1,7.7 94.9,7.6 C92.7,7.5 91,6.4 91.2,3.8 C91.5,1.5 93,0.3 95.3,0.4 C97.7,0.6 98.2,2.4 98.6,4 Z" id="Path"></path>
                    <path d="M140.1,61.1 C142.4,61.5 143.8,62.6 143.7,64.8 C143.6,67.2 142.1,68.4 139.7,68.2 C137.3,68 136.5,66.6 136.6,64.5 C136.7,62.1 138.2,61.3 140.1,61.1 Z" id="Path"></path>
                    <path d="M72.3,0.3 C74.6,0.7 76,1.9 75.9,4.3 C75.9,6.6 74.2,7.5 72.2,7.6 C70,7.7 68.7,6.4 68.6,4.3 C68.6,2 69.9,0.5 72.3,0.3 Z" id="Path"></path>
                    <path d="M98.5,64.9 C98.2,67 97.1,68.3 94.9,68.2 C92.8,68.1 91.2,67.3 91.2,64.9 C91.3,62.5 92.6,61.1 95.1,61.2 C97.4,61.2 98.3,62.8 98.5,64.9 Z" id="Path"></path>
                    <path d="M8.1,64.6 C8,66.7 7.1,68.1 4.8,68.2 C2.6,68.3 1.2,67.4 1,65.1 C0.8,62.7 2.1,61.2 4.5,61.1 C6.7,61 7.8,62.4 8.1,64.6 Z" id="Path"></path>
                    <path d="M162.7,48 C160.6,47.9 159.1,47.1 159.1,44.8 C159.1,42.6 160.2,40.8 162.6,40.8 C164.8,40.8 166.3,42.1 166.2,44.6 C166.1,46.8 164.9,48 162.7,48 Z" id="Path"></path>
                    <path d="M72.1,27.7 C69.9,27.6 68.6,26.4 68.7,24.2 C68.8,22.2 69.9,20.6 72.1,20.6 C74.5,20.6 75.8,22 75.8,24.4 C75.9,26.8 74.2,27.6 72.1,27.7 Z" id="Path"></path>
                    <path d="M4.4,0.4 C6.9,0.4 7.9,2 8,3.9 C8.1,6.1 6.9,7.3 4.7,7.4 C2.2,7.5 1,6.2 1,3.8 C1.1,1.6 2.5,0.6 4.4,0.4 Z" id="Path"></path>
                    <path d="M98.5,24.5 C98.2,26.6 97.1,27.9 94.8,27.7 C92.7,27.5 91.1,26.7 91.2,24.3 C91.3,21.9 92.7,20.6 95.1,20.7 C97.5,20.8 98.2,22.4 98.5,24.5 Z" id="Path"></path>
                    <path d="M139.9,40.9 C142.2,41.2 143.7,42.2 143.7,44.4 C143.7,46.8 142.3,48.1 139.8,48 C137.5,47.9 136.5,46.6 136.5,44.4 C136.6,42.1 137.9,41.1 139.9,40.9 Z" id="Path"></path>
                    <path d="M94.5,40.9 C97,40.9 98.3,42.2 98.4,44.3 C98.6,46.4 97.5,47.9 95.2,47.9 C93.1,47.9 91.4,47.3 91.2,45 C91.1,42.6 92.4,41.2 94.5,40.9 Z" id="Path"></path>
                    <path d="M166.2,3.5 C166.2,5.8 165.4,7.3 163.1,7.4 C160.8,7.5 159.1,6.7 159,4.2 C159,2.2 159.9,0.6 162.1,0.4 C164.5,0.3 165.9,1.4 166.2,3.5 Z" id="Path"></path>
                    <path d="M8.1,24.3 C8,26.4 7,27.7 4.7,27.8 C2.5,27.8 1.1,26.9 1,24.6 C0.8,22.1 2.2,20.8 4.6,20.7 C6.9,20.6 7.7,22.2 8.1,24.3 Z" id="Path"></path>
                    <path d="M4.5,48 C2.2,48 1,46.9 0.9,44.6 C0.8,42.1 2.3,40.9 4.7,40.9 C7,40.9 8,42.6 8,44.6 C8.1,46.8 6.8,48 4.5,48 Z" id="Path"></path>
                    <path d="M162.5,68.2 C160.3,68.1 159,67.1 159.1,64.8 C159.2,62.5 160.3,60.9 162.8,61 C165.1,61.1 166.4,62.6 166.2,65 C166,67.3 164.7,68.3 162.5,68.2 Z" id="Path"></path>
                </g>
                <polygon id="Path" fill="#000000" points="796.1 533.659609 806.5 533.659609 774.7 511.359609"></polygon>
            </g>
        </g>
    </g>
</svg>