<?xml version="1.0" encoding="UTF-8"?>
<svg width="410px" height="309px" viewBox="0 0 410 309" version="1.1" xmlns="http://www.w3.org/2000/svg" xmlns:xlink="http://www.w3.org/1999/xlink">
    <title>feature-dataviz</title>
    <g id="Wireframes" stroke="none" stroke-width="1" fill="none" fill-rule="evenodd">
        <g id="linkedin_x2" transform="translate(-1769.000000, -40.000000)" fill-rule="nonzero">
            <g id="feature-dataviz" transform="translate(1974.000000, 194.500000) rotate(0.500000) translate(-1974.000000, -194.500000) translate(1771.000000, 42.000000)">
                <path d="M259.600257,163.286008 C257.359178,155.103466 260.590501,148.484467 262.310398,144.940436 C262.466752,144.627728 262.623107,144.315019 262.727343,144.054429 C264.395122,140.510398 268.408216,137.17484 269.39846,136.393068 C269.606932,135.871887 269.919641,134.204108 270.180231,133.005392 C271.014121,128.731707 271.483184,126.855456 272.577664,126.282157 C274.453915,125.344031 279.82208,128.783825 281.229268,130.243132 C281.385623,130.191014 281.594095,130.191014 281.750449,130.138896 C283.313992,129.826187 286.180488,129.20077 291.705006,130.03466 C300.408729,131.38973 305.672657,139.62439 305.88113,139.937099 L304.109114,141.083697 C304.056996,141.031579 299.157895,133.370218 291.392298,132.119384 C286.232606,131.285494 283.626701,131.858793 282.167394,132.171502 C281.229268,132.379974 280.239024,132.588447 279.665725,131.650321 C279.040308,130.868549 274.818742,128.314763 273.567908,128.210526 C273.098845,128.992298 272.577664,131.806675 272.264955,133.370218 C271.58742,136.757895 271.378947,137.591784 270.75353,138.008729 C269.919641,138.582028 266.115019,141.865469 264.655712,144.940436 C264.499358,145.201027 264.395122,145.513736 264.238768,145.826444 C262.51887,149.370475 259.600257,155.25982 261.684981,162.660591 L259.600257,163.286008 Z" id="Shape" fill="#000000"></path>
                <polygon id="Rectangle" fill="#000000" transform="translate(259.774727, 151.577744) rotate(-10.539053) translate(-259.774727, -151.577744) " points="258.706339 141.910136 260.843115 141.910136 260.843115 161.245352 258.706339 161.245352"></polygon>
                <polygon id="Rectangle" fill="#000000" transform="translate(298.078610, 132.954949) rotate(-34.562525) translate(-298.078610, -132.954949) " points="297.010198 122.687778 299.147021 122.687778 299.147021 143.22212 297.010198 143.22212"></polygon>
                <polygon id="Rectangle" fill="#000000" transform="translate(274.996918, 133.398578) rotate(-27.115955) translate(-274.996918, -133.398578) " points="267.752388 132.33014 282.241449 132.33014 282.241449 134.467016 267.752388 134.467016"></polygon>
                <path d="M265.593838,143.116303 C261.268036,145.826444 257.984596,142.073941 257.984596,142.073941 L268.512452,136.705777 C268.512452,136.653659 269.919641,140.406162 265.593838,143.116303 Z" id="Path" fill="#000000"></path>
                <path d="M289.046983,131.38973 C284.721181,134.099872 281.437741,130.03466 281.437741,130.03466 L292.278306,124.510141 C292.278306,124.510141 293.372786,128.679589 289.046983,131.38973 Z" id="Path" fill="#000000"></path>
                <path d="M72.3920411,204.563543 C72.3920411,204.563543 74.4767651,207.37792 84.7440308,199.71656 C95.0112965,192.055199 97.4087291,186.895507 103.350193,185.4362 C109.343774,184.029012 111.324262,183.924775 111.324262,183.924775 L116.171245,189.136585 L76.7178434,206.856739 L72.3920411,204.563543 Z" id="Path" fill="#000000"></path>
                <path d="M72.6526316,206.700385 C72.6005135,206.596149 65.9293967,195.390757 59.362516,176.784596 C53.9943517,161.618228 54.5676508,141.656996 54.5676508,140.770988 L54.5676508,140.041335 L78.3856226,131.077022 L78.8025674,131.96303 C78.8546855,132.119384 84.9003851,145.305263 94.3337612,160.680103 C101.734531,172.667266 111.063671,182.204878 114.607702,185.801027 C116.483954,187.729397 116.640308,187.833633 116.327599,188.563286 L116.067009,189.188703 L115.337356,189.188703 L115.337356,188.146341 L114.39923,187.677279 C114.190757,188.094223 114.294994,188.511168 114.451348,188.667522 C114.347112,188.511168 113.721694,187.885751 113.096277,187.260334 C109.552246,183.612067 100.066752,173.970218 92.5617458,161.774583 C84.4313222,148.588703 78.8546855,136.966367 77.2911425,133.735045 L56.6523748,141.500642 C56.6002567,145.201027 56.6523748,162.816945 61.3430039,176.002824 C67.8577664,194.452632 74.3725289,205.449551 74.4767651,205.553787 L72.6526316,206.700385 Z" id="Path" fill="#000000"></path>
                <g id="Group" transform="translate(1.042362, 6.163122)">
                    <g id="color" transform="translate(0.065117, 0.156354)" fill="#09A8BB">
                        <path d="M293.464023,295.079496 C196.837065,295.913386 57.8380921,297.112102 53.4601717,297.112102 C46.7369368,297.112102 32.4565774,293.046891 34.5413014,277.880523 C36.6260254,262.766274 40.6391191,251.613001 20.0524695,239.000421 C-0.534180028,226.38784 -10.0196743,189.227635 14.9970138,160.82327 C37.1993245,135.650228 38.6065132,118.242783 42.7759612,110.060241 C42.7759612,110.060241 44.9128033,124.9139 41.2645363,133.148559 C37.6683874,141.383219 29.2773732,159.833027 34.8018919,166.295671 C40.3264105,172.758315 46.7890549,174.165504 46.7890549,185.058187 C46.7890549,195.95087 73.1086955,204.237648 83.0111345,196.21146 C92.9135735,188.185273 105.369799,180.367558 125.38315,179.898495 C145.3965,179.429432 152.849389,187.403502 165.878914,207.312616 C173.800865,219.404015 176.250416,222.114156 196.107412,218.257417 C210.179299,215.547276 223.31306,221.488739 227.638862,240.303373 C231.54772,257.345992 257.346179,244.055876 276.26505,258.544708 C294.193676,272.19965 293.620377,292.838418 293.464023,295.079496 Z" id="SVGID_1_"></path>
                        <path d="M194.074806,155.090279 L208.355165,132.106197 C204.185717,129.500292 199.286616,128.040986 194.074806,128.040986 C179.116911,128.040986 166.973394,140.184503 166.973394,155.142398 C166.973394,170.100292 179.116911,182.24381 194.074806,182.24381 C209.032701,182.24381 221.176218,170.100292 221.176218,155.142398 C221.176218,151.129304 220.29021,147.376801 218.726667,143.937006 L194.074806,155.090279 Z" id="Path"></path>
                        <rect id="Rectangle" x="315.040916" y="243.221987" width="23.6616175" height="50.502439"></rect>
                        <polygon id="Path" points="102.034241 122.620703 75.0891833 94.2163385 63.8837917 101.356518 62.0075401 98.3857865 75.6103643 89.6820638 102.190595 117.669484 141.122816 80.7698687 173.019093 108.131871 213.827566 19.3747467 236.707412 40.326223 254.166975 0.872821195 349.074036 34.2805234 347.875319 37.5639637 256.043227 5.30285971 237.906128 46.2155683 215.026282 25.211974 174.269928 113.864862 141.27917 85.5126158"></polygon>
                    </g>
                    <path d="M116.796662,266.258187 C116.796662,267.352667 116.327599,268.342911 115.650064,269.072564 C114.920411,269.802218 113.930167,270.219163 112.835687,270.219163 L35.4924262,270.219163 C35.2839538,267.665376 36.6911425,265.007353 35.7008986,262.297211 L112.887805,262.297211 C115.024647,262.297211 116.796662,264.069227 116.796662,266.258187 Z" id="Path" fill="#FFFFFF"></path>
                    <path d="M100.796406,247.80838 L30.2806162,247.704143 L29.7594352,245.567301 L100.744288,245.671537 C101.526059,245.671537 102.255712,245.358829 102.776893,244.837648 C103.298074,244.264349 103.610783,243.586813 103.610783,242.805042 C103.610783,241.189381 102.307831,239.938546 100.744288,239.938546 L19.4400513,239.83431 L19.4400513,237.697468 L100.796406,237.801704 C103.558665,237.801704 105.799743,240.042783 105.799743,242.805042 C105.799743,244.107994 105.278562,245.410947 104.340436,246.349073 C103.350193,247.339317 102.099358,247.80838 100.796406,247.80838 Z" id="Path" fill="#000000"></path>
                    <path d="M76.4051348,260.056133 L36.5869063,260.056133 L36.5869063,257.919291 L76.4051348,257.919291 C77.1869063,257.919291 77.9165597,257.606582 78.4377407,257.085401 C78.9589217,256.56422 79.2716303,255.834567 79.2716303,255.052796 C79.2716303,253.437134 77.9686778,252.1863 76.3530167,252.1863 L33.4077022,252.1863 L33.4077022,250.049458 L76.3530167,250.049458 C79.115276,250.049458 81.3563543,252.290536 81.3563543,255.052796 C81.3563543,256.355748 80.8351733,257.658701 79.8970475,258.596826 C79.0110398,259.534952 77.7602054,260.056133 76.4051348,260.056133 Z" id="Path" fill="#000000"></path>
                    <path d="M62.0205392,276.421217 C62.0205392,277.515697 61.5514763,278.505941 60.8739409,279.235594 C60.1442875,279.965247 59.1540436,280.382192 58.0595635,280.382192 L33.3555841,280.382192 C34.0331194,277.828405 34.4500642,275.170382 34.5021823,272.460241 L58.1116816,272.460241 C60.3006418,272.460241 62.0205392,274.232256 62.0205392,276.421217 Z" id="Path" fill="#000000"></path>
                    <g transform="translate(201.697047, 268.499265)" fill="#FFFFFF" id="Path">
                        <path d="M62.1768935,0.677535302 C63.3234917,0.781771502 64.2616175,1.2508344 64.2616175,2.60590501 C64.2616175,3.85673941 63.479846,4.58639281 62.2290116,4.58639281 C61.1866496,4.53427471 60.3527599,4.01309371 60.3006418,2.81437741 C60.1964056,1.5114249 60.8739409,0.833889602 62.1768935,0.677535302 Z"></path>
                        <path d="M64.1573813,13.3422336 C64.0531451,14.5409499 63.4277279,15.3227214 62.1768935,15.3227214 C61.1345315,15.3227214 60.3006418,14.8015404 60.1964056,13.6028241 C60.0921694,12.3519897 60.6654685,11.5181001 61.9684211,11.465982 C63.2192555,11.4138639 63.9489089,12.0392811 64.1573813,13.3422336 Z"></path>
                        <path d="M61.9684211,22.2023107 C63.2192555,22.3065469 64.001027,22.9319641 63.9489089,24.2349166 C63.8967908,25.485751 63.0629012,26.1632863 61.8641849,26.0590501 C60.8218228,26.006932 60.0400513,25.4336329 60.0400513,24.1827985 C60.0400513,22.879846 60.7175866,22.2544288 61.9684211,22.2023107 Z"></path>
                        <path d="M88.0274711,13.4464698 C87.9232349,14.8536585 87.3499358,15.5833119 86.1512195,15.5311938 C84.9003851,15.4790757 84.0664955,14.9578947 84.1707317,13.550706 C84.2749679,12.508344 84.7961489,11.6223363 86.0469833,11.6744544 C87.2978177,11.6744544 88.0274711,12.4041078 88.0274711,13.4464698 Z"></path>
                        <path d="M14.2803594,0.312708601 C15.4790757,0.312708601 16.0523748,0.938125802 16.0523748,2.08472401 C16.0523748,3.33555841 15.4790757,4.11732991 14.1240051,4.06521181 C12.9774069,4.01309371 12.2998716,3.33555841 12.2477535,2.24107831 C12.2477535,0.938125802 13.029525,0.312708601 14.2803594,0.312708601 Z"></path>
                        <path d="M14.071887,10.9969191 C15.4790757,11.0490372 16.0002567,11.7786906 15.9481386,12.9252888 C15.9481386,14.1240051 15.2706033,14.7494223 14.071887,14.6973042 C12.7689345,14.6451861 12.0913992,13.9155327 12.1956354,12.6125802 C12.2998716,11.465982 13.1337612,10.9969191 14.071887,10.9969191 Z"></path>
                        <path d="M27.9353017,12.8210526 C27.8831836,14.2803594 27.2577664,14.9057766 26.1111682,14.9057766 C24.8603338,14.9057766 24.0785623,14.1761232 24.1306804,12.9252888 C24.1827985,11.6744544 25.0166881,11.0490372 26.2675225,11.1011553 C27.570475,11.2053915 27.9874198,11.987163 27.9353017,12.8210526 Z"></path>
                        <path d="M76.0924262,13.4464698 C75.9360719,14.6973042 75.3627728,15.4269576 74.0598203,15.4269576 C72.861104,15.4269576 72.2878049,14.7494223 72.2878049,13.6028241 C72.2878049,12.3519897 72.9653402,11.5702182 74.2161746,11.6223363 C75.2585366,11.6744544 75.98819,12.2477535 76.0924262,13.4464698 Z"></path>
                        <path d="M39.9745828,23.7137356 C39.9745828,25.0166881 39.2970475,25.5899872 38.2025674,25.6942234 C36.951733,25.7984596 36.0657253,25.2251605 36.0657253,23.922208 C36.0657253,22.879846 36.6911425,22.0459564 37.8377407,21.9417202 C39.0885751,21.837484 39.7139923,22.6192555 39.9745828,23.7137356 Z"></path>
                        <path d="M26.1632863,4.16944801 C24.8603338,4.01309371 24.1827985,3.28344031 24.2870347,2.08472401 C24.3912709,0.990243902 25.1209243,0.364826701 26.2675225,0.416944801 C27.570475,0.469062901 28.1437741,1.1987163 28.091656,2.50166881 C27.9874198,3.64826701 27.2577664,4.11732991 26.1632863,4.16944801 Z"></path>
                        <path d="M14.071887,25.485751 C12.6646983,25.3815148 12.0913992,24.7039795 12.0913992,23.5573813 C12.1435173,22.2023107 12.9774069,21.6811297 14.2803594,21.7853659 C15.5311938,21.8896021 15.9481386,22.7234917 15.8960205,23.8179718 C15.7917843,25.0688062 15.0100128,25.485751 14.071887,25.485751 Z"></path>
                        <path d="M76.1966624,2.55378691 C76.0403081,3.90885751 75.4148909,4.63851091 74.1640565,4.63851091 C72.9653402,4.63851091 72.3920411,4.01309371 72.3920411,2.81437741 C72.3920411,1.7198973 72.8089859,0.886007702 74.0598203,0.886007702 C75.2585366,0.833889602 75.98819,1.4593068 76.1966624,2.55378691 Z"></path>
                        <path d="M25.9548139,21.837484 C27.1535302,21.8896021 27.7789474,22.4629012 27.8310655,23.6616175 C27.8831836,24.96457 27.2577664,25.6421053 25.9548139,25.6421053 C24.8082157,25.6421053 24.0785623,25.0166881 24.0785623,23.8700899 C24.0264442,22.5671374 24.7560976,21.9417202 25.9548139,21.837484 Z"></path>
                        <path d="M52.2223363,2.50166881 C52.0138639,3.75250321 51.3884467,4.43003851 50.2418485,4.37792041 C49.0431322,4.27368421 48.1571245,3.70038511 48.3134788,2.34531451 C48.4698331,1.1465982 49.2516046,0.469062901 50.502439,0.573299101 C51.7532734,0.729653402 52.0138639,1.6156611 52.2223363,2.50166881 Z"></path>
                        <path d="M38.2546855,0.416944801 C39.4534018,0.625417202 40.1830552,1.3029525 40.1309371,2.55378691 C40.078819,3.75250321 39.1928113,4.22156611 38.1504493,4.27368421 C37.0038511,4.32580231 36.2741977,3.59614891 36.2741977,2.50166881 C36.3263158,1.2508344 37.0038511,0.521181001 38.2546855,0.416944801 Z"></path>
                        <path d="M85.9948652,26.2154044 C84.9003851,26.1632863 84.0664955,25.6942234 84.1186136,24.4955071 C84.1186136,23.2967908 84.6919127,22.358665 85.9948652,22.4107831 C87.1935815,22.4629012 87.975353,23.1404365 87.8711168,24.443389 C87.8189987,25.6421053 87.1935815,26.2154044 85.9948652,26.2154044 Z"></path>
                        <path d="M38.0462131,14.9578947 C36.8996149,14.9057766 36.1699615,14.2282413 36.2220796,13.0816431 C36.2741977,11.987163 36.8996149,11.2053915 38.0983312,11.2053915 C39.4012837,11.2053915 40.078819,11.987163 40.078819,13.2379974 C40.0267009,14.4888318 39.1406932,14.9057766 38.0462131,14.9578947 Z"></path>
                        <path d="M2.18896021,0.1042362 C3.49191271,0.1563543 4.01309371,0.938125802 4.06521181,1.9804878 C4.11732991,3.12708601 3.49191271,3.80462131 2.29319641,3.80462131 C0.990243902,3.85673941 0.312708601,3.17920411 0.364826701,1.8762516 C0.416944801,0.729653402 1.1465982,0.208472401 2.18896021,0.1042362 Z"></path>
                        <path d="M52.065982,13.3943517 C51.8575096,14.4888318 51.2842105,15.1663671 50.0854942,15.0621309 C48.9910141,14.9578947 48.1571245,14.4888318 48.2092426,13.2379974 C48.2613607,11.987163 49.0431322,11.3096277 50.3460847,11.3617458 C51.544801,11.4138639 51.9096277,12.2998716 52.065982,13.3943517 Z"></path>
                        <path d="M73.903466,22.3065469 C75.1021823,22.4629012 75.9360719,23.0362003 75.9360719,24.1827985 C75.9360719,25.4336329 75.2064185,26.1632863 73.8513479,26.0590501 C72.6005135,26.006932 72.1314506,25.2772786 72.1314506,24.1306804 C72.1835687,22.9319641 72.9132221,22.4107831 73.903466,22.3065469 Z"></path>
                        <path d="M49.8249037,22.0980745 C51.1799743,22.0980745 51.8053915,22.8277279 51.9096277,23.922208 C51.9617458,25.0688062 51.4405648,25.7984596 50.1897304,25.8505777 C49.0952503,25.8505777 48.1571245,25.5378691 48.1050064,24.2870347 C48.0007702,22.9319641 48.7304236,22.2544288 49.8249037,22.0980745 Z"></path>
                        <path d="M88.1317073,2.60590501 C88.1317073,3.85673941 87.6626444,4.58639281 86.4639281,4.63851091 C85.2652118,4.69062901 84.327086,4.27368421 84.327086,2.91861361 C84.327086,1.8241335 84.7961489,0.990243902 85.9948652,0.938125802 C87.1935815,0.886007702 87.975353,1.4593068 88.1317073,2.60590501 Z"></path>
                        <path d="M4.01309371,12.7689345 C3.90885751,13.8634146 3.38767651,14.593068 2.18896021,14.593068 C1.042362,14.593068 0.312708601,14.1240051 0.208472401,12.8731707 C0.1563543,11.5181001 0.886007702,10.8405648 2.13684211,10.8405648 C3.43979461,10.7884467 3.80462131,11.7265725 4.01309371,12.7689345 Z"></path>
                        <path d="M2.03260591,25.3815148 C0.833889602,25.3815148 0.208472401,24.7560976 0.1563543,23.5573813 C0.1042362,22.2023107 0.886007702,21.5768935 2.18896021,21.6290116 C3.43979461,21.6290116 3.90885751,22.5150193 3.90885751,23.6094994 C3.90885751,24.7560976 3.23132221,25.3815148 2.03260591,25.3815148 Z"></path>
                    </g>
                </g>
                <path d="M195.755584,162.452118 C195.234403,162.452118 194.76534,162.087291 194.608986,161.56611 C194.452632,161.044929 194.76534,160.47163 195.286521,160.21104 L222.648524,147.754814 L223.117587,148.015404 C223.273941,148.067522 226.557381,149.839538 227.651861,153.331451 C228.694223,156.719127 227.703979,160.106804 227.651861,160.263158 L227.443389,160.992811 L195.807702,162.504236 C195.807702,162.452118 195.807702,162.452118 195.755584,162.452118 Z M222.544288,150.152246 L200.602567,160.158922 L225.77561,158.960205 C225.984082,157.917843 226.192555,155.885237 225.619255,153.956868 C224.993838,151.97638 223.326059,150.673427 222.544288,150.152246 Z" id="Shape" fill="#000000"></path>
                <path d="M195.59923,162.452118 L221.449807,168.028755 C221.449807,168.028755 221.866752,166.673684 222.127343,164.119897 C222.440051,161.357638 222.231579,160.158922 222.231579,160.158922 L195.59923,162.452118 Z" id="Path" fill="#000000"></path>
                <rect id="Rectangle" fill="#000000" x="342.051091" y="229.684467" width="24.7560976" height="70.3594352"></rect>
                <path d="M283.313992,302.389217 L256.004108,302.389217 L256.004108,238.805135 L283.313992,238.805135 L283.313992,302.389217 Z M258.14095,300.304493 L281.229268,300.304493 L281.229268,240.889859 L258.14095,240.889859 L258.14095,300.304493 Z" id="Shape" fill="#000000"></path>
                <path d="M253.919384,302.649807 L224.055712,302.649807 L224.055712,265.958665 L253.919384,265.958665 L253.919384,302.649807 Z M226.140436,300.512965 L251.782542,300.512965 L251.782542,268.043389 L226.140436,268.043389 L226.140436,300.512965 Z" id="Shape" fill="#000000"></path>
                <circle id="Oval" fill="#000000" cx="153.90475" cy="193.41027" r="13.1337612"></circle>
                <g id="Group" transform="translate(286.086008, 171.989730)">
                    <circle id="SVGID_3_" fill="#000000" cx="22.6713736" cy="44.5088575" r="13.1337612"></circle>
                    <path d="M36.951733,89.3825417 L8.65160462,89.3825417 L8.65160462,0.260590501 L36.951733,0.260590501 L36.951733,89.3825417 Z M10.7884467,87.2456996 L34.867009,87.2456996 L34.867009,2.34531451 L10.7884467,2.34531451 L10.7884467,87.2456996 Z" id="Shape" fill="#000000"></path>
                    <path d="M28.3088549,131.243094 L0.0087265355,131.243094 L0.0087265355,42.1211429 L28.3088549,42.1211429 L28.3088549,131.243094 Z M2.09345054,129.15837 L26.1720128,129.15837 L26.1720128,44.257985 L2.09345054,44.257985 L2.09345054,129.15837 Z" id="Shape" fill="#F9F9F9"></path>
                </g>
                <path d="M155.416175,225.202311 C153.487805,225.202311 151.559435,224.264185 150.412837,222.544288 C148.536585,219.782028 149.266239,216.029525 152.028498,214.153273 C153.383569,213.267266 154.99923,212.902439 156.562773,213.215148 C158.126316,213.527856 159.533504,214.413864 160.419512,215.768935 C161.30552,217.124005 161.670347,218.739666 161.357638,220.303209 C161.044929,221.866752 160.158922,223.273941 158.803851,224.159949 C157.761489,224.837484 156.562773,225.202311 155.416175,225.202311 Z M155.364056,215.247754 C154.582285,215.247754 153.852632,215.456226 153.175096,215.925289 C152.289089,216.498588 151.715789,217.384596 151.507317,218.426958 C151.298845,219.46932 151.507317,220.511682 152.080616,221.397689 C152.653915,222.283697 153.539923,222.856996 154.582285,223.065469 C155.624647,223.273941 156.667009,223.065469 157.553017,222.492169 C158.439024,221.91887 159.012323,221.032863 159.220796,219.990501 C159.429268,218.948139 159.220796,217.905777 158.647497,217.019769 L158.647497,217.019769 C158.074198,216.133761 157.18819,215.560462 156.145828,215.35199 C155.885237,215.247754 155.624647,215.247754 155.364056,215.247754 Z" id="Shape" fill="#000000"></path>
                <path d="M353.725546,61.1345315 L343.301926,23.6094994 C342.989217,22.5671374 343.354044,21.4726573 344.187933,20.795122 C345.021823,20.1175866 346.116303,19.9612323 347.106547,20.4302953 L368.579204,30.9581515 C371.080873,32.2089859 372.644416,34.6585366 372.644416,37.472914 L372.644416,58.320154 L370.507574,58.320154 L370.507574,37.472914 C370.507574,35.4924262 369.413094,33.7725289 367.641078,32.8865212 L346.168421,22.358665 C345.855712,22.2023107 345.64724,22.358665 345.543004,22.4107831 C345.438768,22.4629012 345.282413,22.6713736 345.334531,23.0362003 L355.758151,60.5612323 L353.725546,61.1345315 Z" id="Path" fill="#000000"></path>
                <polygon id="Path" fill="#000000" points="138.217202 120.601284 87.0372272 75.6754814 62.6980745 99.1807445 61.2387677 97.6693196 86.9851091 72.8089859 137.904493 117.526316 188.823877 47.9486521 239.691142 80.8872914 294.310911 0.416944801 348.67009 36.0657253 347.523492 37.8377407 294.936329 3.33555841 240.264442 83.805905 189.345058 50.8151476"></polygon>
                <path d="M58.2680359,140.041335 L44.5088575,117.526316 C42.0593068,113.513222 42.7368421,108.249294 46.1245186,105.017972 L58.5807445,93.0829268 C59.1540436,92.5617458 59.9358151,92.3532734 60.7175866,92.5617458 C61.4472401,92.7702182 62.0205392,93.3956354 62.2290116,94.1252888 L72.0272144,134.777407 L69.9946085,135.298588 L60.1964056,94.6464698 L60.0921694,94.5943517 L47.6359435,106.529397 C44.9779204,109.083184 44.4046213,113.252632 46.332991,116.431836 L60.0921694,138.946855 L58.2680359,140.041335 Z" id="Path" fill="#000000"></path>
                <path d="M54.5676508,304.473941 C50.6587933,304.473941 42.8410783,303.014634 38.1504493,297.594352 C35.0754814,294.050321 33.8767651,289.463928 34.6064185,284.043646 C34.8148909,282.636457 35.0233633,281.281386 35.2318357,279.978434 C37.2644416,266.844673 38.7237484,257.30706 20.6387677,246.258023 C10.2672657,239.899615 2.81437741,227.703979 0.729653402,213.632092 C-1.8241335,196.797946 3.38767651,180.068036 15.3748395,166.51733 C32.0005135,147.702696 36.7953787,133.3181 40.0267009,123.780488 C41.121181,120.444929 42.0071887,117.839024 43.1537869,115.7543 C43.4143774,115.233119 44.0397946,114.972529 44.6130937,115.233119 C45.1863928,115.49371 45.4991014,116.223363 45.290629,116.84878 L43.3101412,116.171245 C43.1537869,116.58819 43.3622593,117.005135 43.7792041,117.213607 C44.248267,117.42208 44.8215661,117.213607 45.0300385,116.796662 C43.9876765,118.77715 43.1537869,121.278819 42.0593068,124.510141 C38.8279846,134.204108 33.8767651,148.797176 16.9905006,167.976637 C5.42028241,181.110398 0.416944801,197.214891 2.86649551,213.42362 C4.89910141,226.87009 11.987163,238.544544 21.7853659,244.538126 C41.0690629,256.368935 39.4534018,266.948909 37.3686778,280.395379 C37.1602054,281.698331 36.951733,283.053402 36.7432606,284.460591 C36.0657253,289.255456 37.1080873,293.268549 39.7661104,296.343517 C43.9876765,301.190501 51.0757381,302.493453 54.6197689,302.493453 C61.2387677,302.493453 378.950706,299.783312 386.090886,299.679076 C387.289602,299.418485 399.902182,296.291399 403.029268,274.714506 C404.90552,261.528626 399.433119,253.554557 394.169191,245.78896 C390.312452,240.160205 386.299358,234.322978 385.41335,226.661617 C385.204878,224.889602 384.996406,223.221823 384.840051,221.501926 C383.120154,206.387677 381.608729,193.306033 373.113479,171.416431 C364.774583,149.891656 347.054429,147.59846 339.497304,146.660334 L336.735045,146.295507 L338.037997,144.8362 C338.194352,144.679846 352.839538,127.532991 352.631065,105.33068 C352.422593,82.8156611 348.096791,62.2811297 348.044673,62.0726573 L347.784082,60.9781772 L380.722721,56.0790757 L381.087548,56.756611 C381.243902,57.0693196 398.651348,90.9460847 399.276765,119.61104 C400.058537,155.833119 395.420026,182.882413 384.683697,204.667779 C385.621823,210.296534 386.24724,215.664698 386.924775,221.345571 C387.133248,223.01335 387.289602,224.733248 387.498074,226.453145 C388.331964,233.593325 392.032349,238.961489 395.889089,244.642362 C401.413607,252.720668 407.146598,261.059564 405.113992,275.079332 C401.674198,298.897304 387.029012,301.711682 386.403594,301.815918 L386.24724,301.815918 C382.911682,301.711682 61.2387677,304.473941 54.5676508,304.473941 Z M340.748139,144.57561 C349.139153,145.722208 366.546598,148.849294 374.98973,170.530424 C379.732478,182.778177 382.338383,192.263671 384.006162,200.915276 C393.700128,179.911682 397.869576,153.90475 397.139923,119.506804 C396.566624,93.4998716 381.973556,63.1150193 379.524005,58.2680359 L350.285751,62.5938383 C351.171759,67.1802311 354.507317,85.4215661 354.715789,105.174326 C354.820026,124.614377 344.396406,139.884981 340.748139,144.57561 Z" id="Shape" fill="#000000"></path>
                <path d="M340.331194,144.784082 C340.331194,144.784082 356.018742,144.992555 366.702953,153.175096 C377.387163,161.357638 389.843389,188.875995 389.843389,188.875995 L385.309114,200.602567 L383.589217,202.478819 L380.462131,190.126829 L374.364313,171.72914 L369.986393,162.869063 L363.002567,154.790757 L355.862388,149.995892 L340.331194,144.784082 Z" id="Path" fill="#000000"></path>
                <polygon id="Path" fill="#000000" points="58.5807445 138.582028 70.0988447 131.337612 70.8284981 134.204108"></polygon>
                <polygon id="Path" fill="#000000" points="354.455199 59.9358151 354.559435 59.883697 371.549936 54.671887 371.549936 57.3820282"></polygon>
                <circle id="Oval" fill="#000000" cx="291.965597" cy="170.63466" r="33.9288832"></circle>
                <path d="M294.936329,301.607445 L294.258793,301.555327 C294.258793,301.555327 294.258793,301.503209 294.258793,301.346855 L294.936329,301.398973 C294.936329,301.555327 294.936329,301.607445 294.936329,301.607445 Z" id="Path" fill="#000000"></path>
                <path d="M44.8736842,117.776626 C44.8736842,117.724508 44.9258023,117.67239 44.9779204,117.620272 L43.2079823,118.071672 L43.1016688,116.630028 C43.4143774,116.056729 44.0397946,115.848257 44.5609756,116.108847 C45.1342747,116.369438 45.4469833,117.099091 45.1863928,117.724508 L44.9258023,117.620272 L44.8736842,117.776626 Z" id="Path" fill="#000000" transform="translate(44.190481, 117.034798) scale(1, -1) translate(-44.190481, -117.034798) "></path>
                <path d="M294.62362,302.441335 L294.62362,300.304493 C345.021823,299.887548 383.901926,299.522721 386.090886,299.522721 C387.289602,299.262131 399.902182,296.135045 403.029268,274.558151 C404.90552,261.372272 399.433119,253.398203 394.169191,245.632606 C390.312452,240.003851 386.299358,234.166624 385.41335,226.505263 C385.204878,224.733248 384.996406,223.01335 384.840051,221.345571 C383.120154,206.231322 381.608729,193.201797 373.113479,171.312195 C364.774583,149.78742 347.054429,147.494223 339.549422,146.556098 L336.787163,146.191271 L338.090116,144.731964 C338.24647,144.57561 352.891656,127.428755 352.735302,105.226444 C352.526829,82.7114249 348.201027,62.1768935 348.148909,61.9684211 L347.888318,60.8739409 L380.826958,55.9748395 L381.191784,56.6523748 C381.348139,56.9650834 398.755584,90.8418485 399.381001,119.506804 C400.162773,155.728883 395.524262,182.778177 384.787933,204.563543 C385.726059,210.192298 386.351476,215.560462 386.976893,221.189217 C387.185366,222.856996 387.34172,224.576893 387.550193,226.348909 C388.384082,233.489089 392.084467,238.857253 395.993325,244.538126 C401.517843,252.616431 407.250834,260.955327 405.218228,274.922978 C401.778434,298.74095 387.133248,301.555327 386.507831,301.659564 L386.351476,301.659564 C386.195122,301.659564 346.48113,301.972272 294.62362,302.441335 Z M340.748139,144.57561 C349.139153,145.722208 366.546598,148.849294 374.98973,170.530424 C379.732478,182.778177 382.338383,192.263671 384.006162,200.915276 C393.700128,179.911682 397.869576,153.90475 397.139923,119.454685 C396.566624,93.4477535 381.973556,63.0629012 379.524005,58.2159178 L350.285751,62.5417202 C351.171759,67.128113 354.507317,85.369448 354.715789,105.122208 C354.820026,124.614377 344.396406,139.884981 340.748139,144.57561 Z" id="Shape" fill="#000000"></path>
                <path d="M314.584852,147.85905 L313.803081,145.878562 C318.858537,143.845956 335.432092,144.210783 338.715533,144.315019 L338.715533,145.357381 L339.705777,145.722208 L338.611297,146.451861 C331.523235,146.243389 318.49371,146.295507 314.584852,147.85905 Z" id="Path" fill="#000000"></path>
            </g>
        </g>
    </g>
</svg>