<?xml version="1.0" encoding="UTF-8"?>
<svg width="814px" height="628px" viewBox="0 0 814 628" version="1.1" xmlns="http://www.w3.org/2000/svg" xmlns:xlink="http://www.w3.org/1999/xlink">
    <title>feature-ux</title>
    <g id="Illustrations" stroke="none" stroke-width="1" fill="none" fill-rule="evenodd">
        <g id="ux" transform="translate(-129.000000, -145.000000)" fill-rule="nonzero">
            <g id="feature-ux" transform="translate(129.200000, 145.300000)">
                <g id="colors" fill="#F6A221">
                    <path d="M202.8,210.6 L197,210.6 L197,193.6 C197,183.8 189,175.8 179.2,175.8 L130,175.8 C117.4,175.8 107.2,165.6 107.2,153 L107.2,146.8 L113,146.8 L113,153 C113,162.4 120.6,170 130,170 L179.2,170 C192.2,170 202.8,180.6 202.8,193.6 L202.8,210.6 Z" id="Path"></path>
                    <path d="M709.1,624.3 C671.3,482.1 541.6,377.2 387.5,377.2 C233.4,377.2 103.7,482.1 65.9,624.3 L709.1,624.3 Z" id="Path"></path>
                    <ellipse id="Oval" cx="83.8" cy="82.2" rx="83.8" ry="82.2"></ellipse>
                    <circle id="Oval" cx="712.8" cy="249.7" r="23.2"></circle>
                </g>
                <path d="M348,382.8 C347.7,370.5 339.2,358.3 326.4,351.7 C316.1,346.4 307.1,347.3 298.4,348.3 C289.6,349.2 280.6,350.2 271.2,344.4 C260.5,337.8 257.4,327.3 254.7,318.1 C252,308.9 249.6,300.9 241,296.7 C231.8,292.2 223.6,293.7 214.9,295.4 C208.4,296.7 201.6,297.9 193.8,296.9 C169.5,293.6 171.5,260 173.4,227.5 L173.7,222.1 L178,222.3 L177.7,227.7 C175.9,258.2 174,289.7 194.3,292.5 C201.3,293.4 207.8,292.2 214,291 C223,289.3 232.3,287.5 242.8,292.7 C253.2,297.8 256,307.5 258.8,316.8 C261.4,325.7 264.1,334.9 273.4,340.6 C281.5,345.6 289.1,344.8 297.8,343.9 C306.7,343 316.9,341.9 328.3,347.8 C342.5,355.1 351.9,368.8 352.2,382.7 L348,382.8 Z" id="Path" fill="#000000"></path>
                <polygon id="Path" fill="#000000" points="403.1 435.9 135 435.9 134.8 396.5 139.2 396.5 139.4 431.6 398.8 431.6 398.8 224.4 139.4 224.4 139.4 345.5 135 345.5 135 220 403.1 220"></polygon>
                <path d="M403.5,547.5 L135.4,547.5 L135.4,501 L403.5,501 L403.5,547.5 Z M139.7,543.2 L399.1,543.2 L399.1,505.4 L139.7,505.4 L139.7,543.2 Z" id="Shape" fill="#000000"></path>
                <g id="Group" transform="translate(186.800000, 365.700000)" fill="#000000">
                    <circle id="Oval" cx="62" cy="61.5" r="59.4"></circle>
                    <path d="M62,123.1 C28,123.1 0.4,95.5 0.4,61.5 C0.4,27.5 28,0 62,0 C96,0 123.6,27.6 123.6,61.6 C123.6,95.6 95.9,123.1 62,123.1 Z M62,4.3 C30.4,4.3 4.8,30 4.8,61.5 C4.8,93 30.5,118.7 62,118.7 C93.5,118.7 119.2,93 119.2,61.5 C119.2,30 93.5,4.3 62,4.3 Z" id="Shape"></path>
                </g>
                <g id="Group" transform="translate(330.800000, 258.700000)" fill="#000000">
                    <circle id="Oval" cx="22.7" cy="22.9" r="20.3"></circle>
                    <path d="M22.7,45.4 C10.3,45.4 0.2,35.3 0.2,22.9 C0.2,10.5 10.3,0.4 22.7,0.4 C35.1,0.4 45.2,10.5 45.2,22.9 C45.2,35.3 35.1,45.4 22.7,45.4 Z M22.7,4.8 C12.7,4.8 4.6,12.9 4.6,22.9 C4.6,32.9 12.7,41 22.7,41 C32.7,41 40.8,32.9 40.8,22.9 C40.8,12.9 32.7,4.8 22.7,4.8 Z" id="Shape"></path>
                </g>
                <path d="M202.8,138.2 L40.5,138.2 L40.5,60 L202.8,60 L202.8,138.2 Z M44.8,133.8 L198.4,133.8 L198.4,64.2 L44.8,64.2 L44.8,133.8 Z" id="Shape" fill="#000000"></path>
                <polygon id="Path" fill="#000000" points="215.2 149 52.9 149 52.9 137 57.3 137 57.3 144.7 210.9 144.7 210.9 75.1 201.9 75.1 201.9 70.8 215.2 70.8"></polygon>
                <rect id="Rectangle" fill="#000000" x="67.3" y="83.1" width="108.7" height="4.3"></rect>
                <rect id="Rectangle" fill="#000000" x="67.3" y="99.8" width="70.3" height="4.3"></rect>
                <rect id="Rectangle" fill="#000000" x="136.8" y="574.3" width="263.7" height="4.3"></rect>
                <rect id="Rectangle" fill="#000000" x="136.8" y="595.9" width="170.5" height="4.3"></rect>
                <path d="M83.8,439 C82.2,437.8 44.7,408.9 52.1,368.9 C59.6,328.5 98.8,303.7 136.2,284.8 L138.2,288.7 C101.8,307.1 63.5,331.2 56.4,369.7 C49.5,407.1 86,435.2 86.4,435.5 L83.8,439 Z" id="Path" fill="#000000"></path>
                <path d="M570.7,341.1 C570.3,340.7 561.6,330.2 547.8,300.6 C538.8,281.1 536.5,247.7 536.1,239.3 C530.2,238.7 511.1,237.4 498.2,240.9 C483.3,245 463.7,262.5 445.8,287.9 C428,313.1 403.2,314.8 402.1,314.9 L401.8,310.6 C402,310.6 425.6,308.9 442.2,285.4 C460.7,259.3 481.1,241.1 497,236.7 C513.2,232.3 537.4,235.1 538.4,235.2 L540.2,235.4 L540.3,237.3 C540.3,237.7 541.9,277.7 551.7,298.8 C565.1,327.8 573.8,338.2 573.9,338.3 L570.7,341.1 Z" id="Path" fill="#000000"></path>
                <path d="M496.2,344.7 C489.8,344.7 483.4,343.1 477.6,339.2 C446.1,318.2 469.2,256.2 470.2,253.6 L474.3,255.1 C474.1,255.7 451.4,316.5 480,335.6 C508.6,354.7 553.2,309.7 553.6,309.2 L556.7,312.2 C555.2,313.9 524.6,344.7 496.2,344.7 Z" id="Path" fill="#000000"></path>
                <path d="M707.8,625.4 C701.3,587.2 670.8,531.3 630,483 C588.2,433.5 502.7,398.5 501.9,398.1 L500.5,397.5 L500.5,396 C500.5,372.9 507,340.2 507.1,339.9 L511.4,340.8 C511.3,341.1 505.2,372 504.9,394.6 C516.2,399.4 593.8,433.3 633.3,480.1 C674.6,529 705.5,585.7 712,624.6 L707.8,625.4 Z" id="Path" fill="#000000"></path>
                <path d="M424.5,380.5 L400.8,378.9 L401.1,374.6 L423,376.1 C425.3,374 433,366.7 440.1,357.2 C448.6,345.8 464.1,319.2 464.2,319 L468,321.2 C467.4,322.3 452.3,348.3 443.6,359.8 C434.9,371.4 425.6,379.6 425.2,380 L424.5,380.5 Z" id="Path" fill="#000000"></path>
                <path d="M765,370 L660.7,370 L660.7,199 L765,199 L765,370 L765,370 Z M665,365.7 L760.6,365.7 L760.6,203.4 L665,203.4 L665,365.7 Z" id="Shape" fill="#000000"></path>
                <path d="M748.3,354.8 L677.3,354.8 L677.3,331.6 L748.3,331.6 L748.3,354.8 Z M681.7,350.4 L744,350.4 L744,335.9 L681.7,335.9 L681.7,350.4 Z" id="Shape" fill="#000000"></path>
                <rect id="Rectangle" fill="#000000" x="679.5" y="314.2" width="66.7" height="4.3"></rect>
                <rect id="Rectangle" fill="#000000" x="679.5" y="301.2" width="66.7" height="4.3"></rect>
                <path d="M538.3,238.8 C538.3,238.8 507,234.7 496.5,239.2 C486,243.7 471.9,255.3 471.9,255.3 L466.9,272.7 C466.9,272.7 479.5,257.9 500.3,249.9 C513.6,244.8 538.3,238.8 538.3,238.8 Z" id="Path" fill="#000000"></path>
                <path d="M464.6,322.5 C464.6,322.5 471.2,338.8 482,350.3 C492.8,361.9 505.2,365 505.2,365 L508.8,342.5 L492,343.2 L477.1,336.5 L464.6,322.5 Z" id="Path" fill="#000000"></path>
                <path d="M579.7,346.4 C579.7,346.4 564.5,340.3 557.2,333 C549.9,325.7 545.5,319.4 545.5,319.4 L554.5,311.4 L579.7,346.4 Z" id="Path" fill="#000000"></path>
                <path d="M150.9,348.1 C150.9,348.1 157.4,355.5 149.8,379.3 C142.2,403.1 137,420.4 137,420.4 L137,396.4 L149.6,367.3 L152.4,357.4 L150.9,348.1 Z" id="Path" fill="#000000"></path>
                <path d="M761.1,626.5 L28.9,626.5 L29.9,623.6 C50.4,562.9 80.9,470.6 81.1,464.9 C81.1,461.9 85.7,388.4 91.2,383 C91.5,382.7 92,382.2 92.6,381.5 C119.5,353.9 137,340.9 146.2,341.7 C148.5,341.9 150.4,343 151.7,344.9 C157.9,354.1 149.6,373 141.7,391.2 C137.6,400.6 133.7,409.5 133.2,414.5 C131.7,429.3 117.3,465.6 112.6,473.4 C109.3,478.9 109.4,497.7 109.8,504.5 L105.5,504.7 C105.4,502.1 104.4,478.8 108.9,471.2 C113.3,463.8 127.5,428.1 128.9,414.1 C129.5,408.4 133.3,399.7 137.7,389.5 C144.5,374 152.9,354.6 148.1,347.4 C147.6,346.6 146.9,346.2 145.8,346.1 C141.5,345.7 129.2,350.2 95.7,384.6 C95,385.3 94.5,385.8 94.2,386.1 C90.7,390.9 85.4,455.1 85.4,465 C85.4,472.1 43.3,597.3 34.9,622.2 L758.8,622.2 C763.7,615.2 795.1,568.8 805.6,526.8 C811.6,503 808.3,467.1 787.8,440.4 C772.2,420.3 749.6,409.5 722.2,409.2 C682.9,408.8 631,402.6 607.3,375.1 C597.1,363.3 593.1,348.6 595.5,331.4 L596.2,326.6 C600.5,295.1 605.9,255.9 598.3,221.1 C589.4,180.7 564.8,154.5 523.2,141 C470.9,124.1 446,143.1 424.1,160 C405.7,174.1 388.3,187.4 359.2,172.8 C330.8,158.6 307.6,154.8 290.4,161.4 C276.5,166.8 269.8,177.8 266.6,186.1 C257.2,210.4 240.8,223.4 240.1,224 L237.4,220.6 C237.6,220.5 253.6,207.7 262.5,184.6 C266,175.5 273.4,163.4 288.8,157.4 C307.2,150.3 331.5,154.2 361.1,168.9 C387.8,182.2 402.6,170.9 421.4,156.5 C443.1,139.9 470.1,119.3 524.5,136.9 C622.3,168.6 609.2,264 600.5,327.2 L599.8,332 C597.6,347.9 601.3,361.5 610.6,372.3 C634.5,399.9 690.8,404.6 722.3,404.9 C751,405.2 774.9,416.6 791.3,437.8 C809.9,461.9 817.4,498 809.9,527.9 C798.3,574.1 762.1,625.2 761.7,625.7 L761.1,626.5 Z" id="Path" fill="#000000"></path>
                <path d="M473.1,524.3 L419.8,524.3 L419.8,518.5 L473.1,518.5 C487,518.5 498.3,507.2 498.3,493.3 L498.3,475.6 C498.3,467.6 501.4,460.1 507.2,454.6 C512.9,449 520.5,446 528.4,446.2 L688.7,449.8 C694,449.9 698.9,448 702.7,444.3 C706.5,440.6 708.5,435.7 708.5,430.4 L708.5,418.6 L714.3,418.6 L714.3,430.4 C714.3,437.2 711.6,443.6 706.7,448.4 C701.8,453.2 695.3,455.8 688.5,455.6 L528.2,452 C521.8,451.9 515.7,454.2 511.1,458.7 C506.5,463.2 504,469.2 504,475.6 L504,493.3 C504.1,510.3 490.1,524.3 473.1,524.3 Z" id="Path" fill="#000000"></path>
                <rect id="Rectangle" fill="#000000" x="708.5" y="381.2" width="5.8" height="24.9"></rect>
                <path d="M701.4,522.8 C700.6,522.8 699.9,522.7 699.3,522.5 C684.3,518.6 663.4,473.7 663.4,456.3 C663.4,433.7 681.8,415.2 704.5,415.2 C736,415.2 773.4,431.5 775,477.4 L775,477.4 C775.3,486.2 773.6,492.4 769.8,496.4 C764.2,502.2 755.1,502.3 745.4,502.3 C731.5,502.3 717.2,502.4 708.7,517.9 C706.4,521.8 703.6,522.8 701.4,522.8 Z M704.4,419.6 C684.2,419.6 667.7,436.1 667.7,456.3 C667.7,473.4 688.2,515.2 700.4,518.3 C701.7,518.6 703.3,518.6 704.8,515.9 C714.6,498.1 731.6,498 745.4,498 C754.5,498 762.3,498 766.6,493.4 C769.6,490.3 770.9,485.2 770.6,477.6 L770.6,477.6 C769.1,434.8 734,419.6 704.4,419.6 Z" id="Shape" fill="#000000"></path>
                <path d="M746.2,572.2 C732.4,572.2 721.1,561 721.1,547.1 C721.1,533.3 732.3,522 746.2,522 C760,522 771.3,533.2 771.3,547.1 C771.2,561 760,572.2 746.2,572.2 Z M746.2,526.4 C734.8,526.4 725.5,535.7 725.5,547.1 C725.5,558.5 734.8,567.8 746.2,567.8 C757.6,567.8 766.9,558.5 766.9,547.1 C766.9,535.7 757.6,526.4 746.2,526.4 Z" id="Shape" fill="#000000"></path>
                <g id="Group" transform="translate(338.800000, 537.700000)">
                    <path d="M372.6,86.6 L121.3,8.5 C121.3,8.5 94.3,-3 63.4,6.9 C52.7,10.3 2.8,9.7 2.8,9.7 C2.8,9.7 5.9,24.6 39.9,25.4 C73.9,26.2 104.5,26.5 112.5,31.5 C120.5,36.5 218.6,85.4 218.6,85.4 L372.6,86.6 Z" id="Path" fill="#FFFFFF"></path>
                    <path d="M387.3,88.9 L218.1,87.5 L217.7,87.3 C213.7,85.3 119.4,38.3 111.4,33.3 C104.3,28.9 75.9,28.3 45.7,27.6 L39.9,27.5 C4.6,26.7 0.9,10.8 0.8,10.1 L0.3,7.5 L3,7.5 C3.5,7.5 52.6,8.1 62.9,4.8 C93.5,-4.9 120,5.6 122.2,6.5 L387.3,88.9 Z M219.2,83.1 L357.9,84.3 L120.6,10.6 L120.5,10.6 C120.2,10.5 93.9,-0.4 64.1,9 C54.8,12 18.2,12 6.4,11.9 C9.2,15.8 17.4,22.7 40,23.2 L45.8,23.3 C79.2,24 105.6,24.6 113.7,29.6 C121.2,34.3 211.9,79.5 219.2,83.1 Z" id="Shape" fill="#000000"></path>
                </g>
            </g>
        </g>
    </g>
</svg>