<?xml version="1.0" encoding="UTF-8"?>
<svg width="464px" height="16px" viewBox="0 0 464 16" version="1.1" xmlns="http://www.w3.org/2000/svg" xmlns:xlink="http://www.w3.org/1999/xlink">
    <title>divbar-01</title>
    <g id="Page-1" stroke="none" stroke-width="1" fill="none" fill-rule="evenodd">
        <g id="home" transform="translate(0.000000, -92.000000)" fill="#792877">
            <g id="divbar-01" transform="translate(0.000000, 92.000000)">
                <path d="M0,0 L362,0 C365.313708,-6.08718376e-16 368,2.6862915 368,6 L368,10 C368,13.3137085 365.313708,16 362,16 L0,16 L0,16 L0,0 Z" id="Rectangle"></path>
                <path d="M390,0 L394,0 C397.313708,-6.08718376e-16 400,2.6862915 400,6 L400,10 C400,13.3137085 397.313708,16 394,16 L390,16 C386.686292,16 384,13.3137085 384,10 L384,6 C384,2.6862915 386.686292,6.08718376e-16 390,0 Z" id="Rectangle-Copy"></path>
                <path d="M390,0 L394,0 C397.313708,-6.08718376e-16 400,2.6862915 400,6 L400,10 C400,13.3137085 397.313708,16 394,16 L390,16 C386.686292,16 384,13.3137085 384,10 L384,6 C384,2.6862915 386.686292,6.08718376e-16 390,0 Z" id="Rectangle-Copy-2"></path>
                <path d="M422,0 L426,0 C429.313708,-6.08718376e-16 432,2.6862915 432,6 L432,10 C432,13.3137085 429.313708,16 426,16 L422,16 C418.686292,16 416,13.3137085 416,10 L416,6 C416,2.6862915 418.686292,6.08718376e-16 422,0 Z" id="Rectangle-Copy-3"></path>
                <path d="M454,0 L458,0 C461.313708,-6.08718376e-16 464,2.6862915 464,6 L464,10 C464,13.3137085 461.313708,16 458,16 L454,16 C450.686292,16 448,13.3137085 448,10 L448,6 C448,2.6862915 450.686292,6.08718376e-16 454,0 Z" id="Rectangle-Copy-4"></path>
            </g>
        </g>
    </g>
</svg>