<?xml version="1.0" encoding="UTF-8"?>
<svg width="1232px" height="16px" viewBox="0 0 1232 16" version="1.1" xmlns="http://www.w3.org/2000/svg" xmlns:xlink="http://www.w3.org/1999/xlink">
    <title>divbar-03</title>
    <g id="Page-1" stroke="none" stroke-width="1" fill="none" fill-rule="evenodd">
        <g id="home" transform="translate(-208.000000, -5964.000000)" fill="#792877">
            <g id="divbar-03" transform="translate(824.000000, 5972.000000) scale(-1, 1) translate(-824.000000, -5972.000000) translate(208.000000, 5964.000000)">
                <path d="M0,0 L1130,0 C1133.31371,-6.08718376e-16 1136,2.6862915 1136,6 L1136,10 C1136,13.3137085 1133.31371,16 1130,16 L0,16 L0,16 L0,0 Z" id="Rectangle"></path>
                <path d="M1158,0 L1162,0 C1165.31371,-6.08718376e-16 1168,2.6862915 1168,6 L1168,10 C1168,13.3137085 1165.31371,16 1162,16 L1158,16 C1154.68629,16 1152,13.3137085 1152,10 L1152,6 C1152,2.6862915 1154.68629,6.08718376e-16 1158,0 Z" id="Rectangle-Copy"></path>
                <path d="M1158,0 L1162,0 C1165.31371,-6.08718376e-16 1168,2.6862915 1168,6 L1168,10 C1168,13.3137085 1165.31371,16 1162,16 L1158,16 C1154.68629,16 1152,13.3137085 1152,10 L1152,6 C1152,2.6862915 1154.68629,6.08718376e-16 1158,0 Z" id="Rectangle-Copy-2"></path>
                <path d="M1190,0 L1194,0 C1197.31371,-6.08718376e-16 1200,2.6862915 1200,6 L1200,10 C1200,13.3137085 1197.31371,16 1194,16 L1190,16 C1186.68629,16 1184,13.3137085 1184,10 L1184,6 C1184,2.6862915 1186.68629,6.08718376e-16 1190,0 Z" id="Rectangle-Copy-3"></path>
                <path d="M1222,0 L1226,0 C1229.31371,-6.08718376e-16 1232,2.6862915 1232,6 L1232,10 C1232,13.3137085 1229.31371,16 1226,16 L1222,16 C1218.68629,16 1216,13.3137085 1216,10 L1216,6 C1216,2.6862915 1218.68629,6.08718376e-16 1222,0 Z" id="Rectangle-Copy-4"></path>
            </g>
        </g>
    </g>
</svg>