<?xml version="1.0" encoding="UTF-8"?>
<svg width="220px" height="220px" viewBox="0 0 220 220" version="1.1" xmlns="http://www.w3.org/2000/svg" xmlns:xlink="http://www.w3.org/1999/xlink">
    <title>feature-03</title>
    <g id="Page-1" stroke="none" stroke-width="1" fill="none" fill-rule="evenodd">
        <g id="home" transform="translate(-992.000000, -652.000000)">
            <g id="feature-03" transform="translate(992.000000, 652.000000)">
                <polygon id="Rectangle-Copy-32" fill="#09A8BB" points="0 0 220 0 220 220 0 220"></polygon>
                <g id="Group-3" transform="translate(62.000000, 60.000000)" fill="#067F8A">
                    <path d="M71,5.99306484 C71,2.68318653 73.6845286,0 76.9975713,0 L91.0024287,0 C94.3147959,0 97,2.68768095 97,5.99306484 L97,94.0069352 C97,97.3168135 94.3154714,100 91.0024287,100 L76.9975713,100 C73.6852041,100 71,97.312319 71,94.0069352 L71,5.99306484 Z" id="Rectangle-Copy-29"></path>
                    <path d="M35,42.3647125 C35,39.0504097 37.6845286,36.3636364 40.9975713,36.3636364 L55.0024287,36.3636364 C58.3147959,36.3636364 61,39.0573654 61,42.3647125 L61,93.9989238 C61,97.3132267 58.3154714,100 55.0024287,100 L40.9975713,100 C37.6852041,100 35,97.3062709 35,93.9989238 L35,42.3647125 Z" id="Rectangle-Copy-35"></path>
                    <path d="M0,85.8045551 C0,82.4872152 2.68452859,79.7979798 5.99757128,79.7979798 L20.0024287,79.7979798 C23.3147959,79.7979798 26,82.4806521 26,85.8045551 L26,93.9934247 C26,97.3107646 23.3154714,100 20.0024287,100 L5.99757128,100 C2.68520413,100 0,97.3173277 0,93.9934247 L0,85.8045551 Z" id="Rectangle-Copy-36"></path>
                </g>
            </g>
        </g>
    </g>
</svg>