<?xml version="1.0" encoding="UTF-8"?>
<svg width="220px" height="220px" viewBox="0 0 220 220" version="1.1" xmlns="http://www.w3.org/2000/svg" xmlns:xlink="http://www.w3.org/1999/xlink">
    <title>feature-03</title>
    <g id="Page-1" stroke="none" stroke-width="1" fill="none" fill-rule="evenodd">
        <g id="home" transform="translate(-992.000000, -652.000000)">
            <g id="feature-03" transform="translate(992.000000, 652.000000)">
                <polygon id="Rectangle-Copy-32" fill="#09A8BB" points="-5.68434189e-14 0 220 0 220 220 -5.68434189e-14 220"></polygon>
                <g id="Group-3" transform="translate(107.000000, 73.000000)" fill="#067F8A">
                    <path d="M70.8108108,5.9907687 C70.8108108,2.68215851 73.4916186,0 76.8163909,0 L90.7691947,0 C94.085985,0 96.7747748,2.69107463 96.7747748,5.9907687 L96.7747748,125.009231 C96.7747748,128.317841 94.0939669,131 90.7691947,131 L76.8163909,131 C73.4996006,131 70.8108108,128.308925 70.8108108,125.009231 L70.8108108,5.9907687 Z" id="Rectangle-Copy-29"></path>
                    <path d="M35.4054054,53.0073625 C35.4054054,49.6895878 38.0862132,47 41.4109855,47 L55.3637893,47 C58.6805796,47 61.3693694,49.6879063 61.3693694,53.0073625 L61.3693694,124.992638 C61.3693694,128.310412 58.6885615,131 55.3637893,131 L41.4109855,131 C38.0941952,131 35.4054054,128.312094 35.4054054,124.992638 L35.4054054,53.0073625 Z" id="Rectangle-Copy-35"></path>
                    <path d="M-1.91846539e-13,110.997571 C-1.91846539e-13,107.685204 2.68080783,105 6.00558007,105 L19.9583839,105 C23.2751742,105 25.963964,107.684529 25.963964,110.997571 L25.963964,125.002429 C25.963964,128.314796 23.2831561,131 19.9583839,131 L6.00558007,131 C2.68878978,131 -1.91846539e-13,128.315471 -1.91846539e-13,125.002429 L-1.91846539e-13,110.997571 Z" id="Rectangle-Copy-36"></path>
                </g>
            </g>
        </g>
    </g>
</svg>