<?xml version="1.0" encoding="UTF-8"?>
<svg width="400px" height="100px" viewBox="0 0 400 100" version="1.1" xmlns="http://www.w3.org/2000/svg" xmlns:xlink="http://www.w3.org/1999/xlink">
    <title>logo-vanguard</title>
    <defs>
        <filter id="filter-1">
            <feColorMatrix in="SourceGraphic" type="matrix" values="0 0 0 0 0.000000 0 0 0 0 0.000000 0 0 0 0 0.000000 0 0 0 1.000000 0"></feColorMatrix>
        </filter>
    </defs>
    <g id="Page-1" stroke="none" stroke-width="1" fill="none" fill-rule="evenodd">
        <g id="Artboard" transform="translate(-1075.000000, -837.000000)">
            <g id="logo-vanguard" transform="translate(1075.000000, 837.000000)">
                <rect id="Rectangle-Copy-2" fill="#FFFFFF" x="0" y="0" width="400" height="100"></rect>
                <g filter="url(#filter-1)" id="vanguard-logo">
                    <g transform="translate(0.000000, 8.000000)">
                        <path d="M150,62.0947567 L150,62.6110168 L130.647372,62.6110168 L130.647372,55.1374571 L130.785951,55.1176657 L130.640022,55.1176657 C130.647372,55.1105072 130.640022,35.4896758 130.640022,35.4896758 C130.599621,34.345566 131.025468,29.232654 125.162213,29.2903438 C125.167736,29.3046609 119.144831,29.3893006 119.284302,36.5819913 L119.284302,36.5874655 L119.264122,56.0078565 C119.43758,61.9835881 123.034041,62.1082317 123.047805,62.1082317 L123.047805,62.6110168 L103.481361,62.6110168 L103.481361,62.6055426 L92.3385639,62.6055426 C91.9072367,62.6569159 78.3049866,63.0956949 77.7589558,50.5281724 L77.7589558,43.734678 C77.7589558,43.734678 72.3683213,44.9242659 70.6852404,46.2060732 C70.6852404,46.2060732 66.3701837,48.920018 69.2160175,53.5752018 C69.2160175,53.5752018 71.3313179,57.2568185 78.1719304,55.8966879 L74.8341893,62.625334 L68.2450744,62.625334 C68.2450744,62.625334 52.861523,62.9373639 51.060085,51.7249189 C51.060085,51.6465956 49.6771021,42.9303903 60.1811713,39.3986828 C60.1811713,39.3986828 63.7712599,38.1442465 70.6054153,36.9475 C70.6797601,36.9475 76.4438602,36.1297373 76.9816493,33.0304924 C77.1138131,32.4818081 77.0679317,31.8543794 76.7889475,31.1612602 C76.8816023,31.4029677 74.169802,24.3353417 57.5748977,31.4817121 C57.6483079,31.5600354 60.9924214,21.1510359 60.9924214,21.1510359 C60.9924214,21.1510359 76.6228399,16.5939668 87.5251847,23.2358677 C87.4527093,23.3078746 93.2232243,26.3477454 93.1433992,35.8888721 C93.1433992,35.8029691 93.3168564,49.0834021 93.3168564,49.0834021 C93.2957425,49.272894 93.3030919,55.8444724 99.8243194,56.2099811 C99.8243194,56.2756717 102.138779,56.2558803 103.468531,56.2495639 L103.468531,27.4472194 C103.468531,27.2838353 103.820925,21.2883123 99.7857452,21.020076 L99.7857452,20.4705495 L119.290717,19.7193195 L119.284302,24.6157897 C120.342419,23.5769531 124.649234,19.7774304 131.012596,19.6599454 C131.012596,19.6599454 146.189639,19.1302103 146.163979,33.8815214 C146.170394,33.8815214 146.189639,55.1105072 146.189639,55.1105072 C146.070347,61.9970631 150,62.0947567 150,62.0947567 Z" id="Clip-2" fill="#96151D" fill-rule="nonzero"></path>
                        <path d="M0,1.36681429 L0,0.725150637 L21.2741672,0.725150637 L36.5361554,45.2817676 L47.8300049,9.53291846 C47.8300049,9.53291846 50.1350701,3.51961554 43.9605461,1.13544906 L43.9605461,0.62620133 L61,0.62620133 L39.4693775,63.6262013 L30.5092018,60.1753443 C30.5092018,60.1753443 23.2527067,58.0308739 19.3897382,47.1502887 L5.38402201,8.49267122 C5.38402201,8.49267122 3.61723037,2.24580284 0,1.36681429 Z" id="Clip-5" fill="#96151D" fill-rule="nonzero"></path>
                        <path d="M379.129319,55.413865 C379.030124,62.8790209 382.994467,62.4818112 383,62.4818112 L383,63.0115662 L363.047595,62.9979281 L363.047595,62.9923876 L363.041211,62.9979281 L363.041211,36.1432275 L363.034824,35.587901 C363.034824,35.8389273 363.034824,28.7258049 356.811591,28.6525001 C356.737943,28.7258049 349.509573,27.9582355 349.509573,41.4906419 C349.435924,41.5639467 349.435924,57.3206421 361.655052,55.295384 C361.655052,55.3610174 357.371419,62.9710781 357.371419,62.9710781 C357.371419,62.9710781 347.46397,66.3921107 339.248775,57.5989446 C339.248775,57.5989446 333,52.1590469 333,41.4906419 C333.073649,41.5639467 332.793948,31.4449015 339.248775,25.0315842 C339.182789,25.2378605 349.21625,13.8815837 363.034824,22.6436378 L363.034824,8.44253832 C363.034824,8.28996206 363.386898,2.21546636 359.343373,1.94313052 L359.343373,1.39334455 L379.116547,0.62620133 L379.129319,55.413865 Z" id="Clip-9" fill="#96151D" fill-rule="nonzero"></path>
                        <path d="M319.405641,24.6623014 C323.718667,16.4540139 332,18.9990667 332,18.9990667 L332,29.7267254 C318.868844,27.5266629 319.419212,37.5164018 319.405641,37.456906 L319.399283,37.456906 L319.392922,54.968376 C319.306846,62.3929448 323.075022,62.1006019 323.260736,62.0941814 L323.260736,62.6052465 L303.612979,62.6052465 L303.612979,62.5996822 L292.246976,62.5996822 C291.835687,62.6519016 278.252538,63.0979064 277.715742,50.3234192 L277.715742,43.418048 C277.715742,43.418048 272.319795,44.6272263 270.641989,45.9301427 C270.641989,45.9301427 266.348044,48.6887813 269.18806,53.4206278 C269.18806,53.4206278 271.291996,57.1628741 278.119399,55.7794885 L274.78838,62.6253638 L268.200118,62.6253638 C268.200118,62.6253638 252.859025,62.936968 251.059952,51.5390179 C251.059952,51.4594048 249.679801,42.5932386 260.163439,39.0183511 C260.163439,39.0183511 263.746744,37.735552 270.562275,36.5190973 C270.641989,36.5190973 276.388592,35.6878674 276.925388,32.5384395 C277.058103,31.9798633 277.02503,31.3485224 276.739248,30.6375684 C276.818962,30.8888207 274.125229,23.6992391 257.556628,30.9624414 C257.648214,31.0420546 260.980506,20.4624935 260.980506,20.4624935 C260.980506,20.4624935 276.580668,15.8295214 287.462876,22.5816587 C287.383586,22.6625559 293.136549,25.75206 293.068707,35.4357591 C293.068707,35.3557179 293.235343,48.8557122 293.235343,48.8557122 C293.209902,49.053889 293.214991,55.7272691 299.732019,56.0923768 C299.732019,56.1591491 302.33883,56.1445962 303.606619,56.1390318 L303.606619,52.68228 L303.612979,26.8615079 C303.612979,26.6962892 303.958123,20.594326 299.937239,20.3221004 L299.937239,19.7780771 L319.405641,19.0063432 L319.405641,24.6623014 Z" id="Clip-12" fill="#96151D" fill-rule="nonzero"></path>
                        <path d="M174.378167,42.373684 C180.343733,42.373684 179.651615,34.0163532 179.651615,33.8910039 C179.524945,26.7165767 174.391978,26.9291998 174.391978,26.9291998 C168.732995,26.9291998 168.9588,34.0899371 168.892725,34.0163532 C168.274034,41.961272 173.9532,42.4729366 174.378167,42.373684 Z M218.939677,18.6262013 L218.939677,46.5585526 C218.939677,46.5585526 218.799027,52.6095425 224.278861,52.5564936 C224.252515,52.4576688 230.071014,53.4403557 230.283902,45.1108328 C230.2958,45.11725 230.2958,45.1300844 230.303448,45.1300844 L230.309822,40.0545086 L230.309822,26.5360395 C230.309822,26.3709036 230.661235,20.2796993 226.626147,20.0071823 L226.626147,19.4488861 L246.130207,18.6848117 L246.130207,54.6425108 C246.122559,54.7948123 245.771146,61.5572554 250,61.7510548 L250,62.2618638 L230.283902,62.2618638 L230.290275,57.1597636 C229.485467,57.9850153 225.090467,62.1891355 218.453988,62.3157682 C218.453988,62.3157682 202.999038,62.8603744 203.031757,47.8599604 C202.972268,47.7470177 203.005412,31.8845601 203.019859,26.4710119 L191.13479,26.4710119 C191.580919,26.8432094 192.166551,27.6325247 192.172967,27.6325247 C198.843483,36.2418374 192.359297,43.4034303 192.299637,43.4693136 C188.01754,49.5087524 174.199189,51.202037 174.199189,51.202037 L173.340925,51.3012897 C168.659568,51.4672812 170.148421,53.858757 170.162188,53.872447 C170.840539,55.4669068 174.212957,55.2140692 174.212957,55.2140692 L182.125401,55.2140692 C198.144949,55.1614482 199.85319,65.7369903 199.921093,65.7369903 C202.553717,80.5705572 187.73114,84.9941457 172.935207,84.6026966 C158.253111,84.7015215 152.813518,78.2590826 152.865826,78.3112758 C149.141867,73.9604156 151.1108,67.8824735 157.714306,66.042449 C162.594868,64.6871368 168.360294,66.042449 168.360294,66.042449 C163.978169,66.6602112 164.755654,71.1569557 164.763006,71.1903251 C166.231674,76.503765 173.732876,76.5580973 174.185422,76.5645145 C183.767567,76.0656843 184.040199,71.3700067 184.040199,69.0709386 C184.040199,66.0360318 181.53977,64.214831 181.53977,64.214831 C178.068217,61.6445293 171.498663,62.4552353 166.924684,62.2554466 C160.513032,61.8892385 158.850683,55.818997 158.545927,53.9648547 C158.24576,52.0863269 158.591819,51.335087 159.66212,50.6437408 C161.597101,49.493779 165.992993,48.9906706 165.493664,49.0022216 L165.587275,48.98297 C165.507432,48.9628628 165.454188,48.9628628 165.447772,48.9628628 C159.934752,47.1959943 156.663254,42.5195683 156.602702,42.5195683 C149.595305,32.422749 157.767549,24.4637124 157.767549,24.4637124 C162.455323,19.907074 168.412644,18.8837449 173.732876,18.6262013 L218.939677,18.6262013 Z" id="Clip-15" fill="#96151D" fill-rule="nonzero"></path>
                        <path d="M385.106883,8.62641854 C385.106883,12.424089 388.197274,15.5201765 392.00345,15.5201765 C395.802726,15.5201765 398.884922,12.424089 398.884922,8.62641854 C398.884922,4.82831368 395.802726,1.73222615 392.00345,1.73222615 C388.197274,1.73222615 385.106883,4.82831368 385.106883,8.62641854 Z M384,8.62641854 C384,4.22230244 387.582386,0.62620133 392.00345,0.62620133 C396.409852,0.62620133 400,4.22230244 400,8.62641854 C400,13.0379197 396.409852,16.6262013 392.00345,16.6262013 C387.582386,16.6262013 384,13.0379197 384,8.62641854 Z" id="Clip-18" fill="#96151D" fill-rule="nonzero"></path>
                        <path d="M390.347547,8.56124351 L390.347547,12.6262013 L389,12.6262013 L389,3.62620133 L392.4479,3.62620133 C394.072283,3.62620133 395.736406,4.10294284 395.736406,5.881699 C395.736406,6.96380679 395.045856,7.79447389 393.934086,8.05130852 L393.934086,8.07827823 C395.087801,8.33511286 395.24057,8.9151691 395.391131,9.92010203 C395.537276,10.8163263 395.64766,11.7760331 396,12.6262013 L394.56238,12.6262013 C394.444052,12.0917861 394.285985,11.5063359 394.217105,10.9648671 C394.113346,10.1590952 394.113346,9.42468918 393.670491,8.96744885 C393.284595,8.56124351 392.745488,8.60024586 392.213446,8.56124351 L390.347547,8.56124351 Z M390.313547,7.4919982 L392.523401,7.4919982 C394.009145,7.4272709 394.341175,6.80198852 394.341175,6.09413734 C394.341175,5.37923254 394.009145,4.75312033 392.523401,4.69586156 L390.313547,4.69586156 L390.313547,7.4919982 Z" id="Clip-21" fill="#96151D" fill-rule="nonzero"></path>
                    </g>
                </g>
            </g>
        </g>
    </g>
</svg>