<?xml version="1.0" encoding="UTF-8"?>
<svg width="400px" height="100px" viewBox="0 0 400 100" version="1.1" xmlns="http://www.w3.org/2000/svg" xmlns:xlink="http://www.w3.org/1999/xlink">
    <title>logo-ford</title>
    <g id="Page-1" stroke="none" stroke-width="1" fill="none" fill-rule="evenodd">
        <g id="Artboard" transform="translate(-1544.000000, -837.000000)">
            <g id="logo-ford" transform="translate(1544.000000, 837.000000)">
                <rect id="Rectangle-Copy-3" fill="#FFFFFF" x="0" y="0" width="400" height="100"></rect>
                <g id="Ford_Motor_Company-Logo.wine" transform="translate(67.000000, 0.000000)" fill-rule="nonzero">
                    <path d="M132.866182,0 C59.1174373,0 0,22.1290903 0,49.8737631 C0,77.4494961 59.604585,99.7494297 132.866182,99.7494297 C206.129562,99.7494297 265.734266,77.3746629 265.734266,49.8737631 C265.734266,22.3728633 206.129562,0 132.866182,0" id="Path" fill="#000000"></path>
                    <path d="M185.201225,60.4386866 C185.236879,60.6671123 185.53637,60.8860202 185.826353,60.9895256 C185.933314,61.0252171 185.985606,61.0966001 185.873891,61.3393023 C185.046726,63.1144788 184.285996,64.1378732 183.24895,65.6803411 C182.294621,67.105503 181.22002,68.2175313 179.919137,69.2870867 C177.956641,70.9127158 175.231157,72.6823007 172.978084,71.4927028 C171.977405,70.9727965 171.544332,69.5705963 171.563704,68.4354874 C171.611242,65.2434771 173.029782,61.9664021 175.649137,58.7457196 C178.842397,54.8102552 182.372465,52.769058 184.689239,53.8847745 C187.086234,55.0292821 186.321344,57.8073899 185.247813,59.9880219 C185.164621,60.1569617 185.164621,60.2997277 185.200275,60.4377349 M210.922601,35.5664662 C211.094927,35.2618987 210.91345,35.0394217 210.529222,35.0394217 C208.527151,35.0394217 205.900309,35.0439426 203.814214,35.0439426 C203.31744,35.0439426 203.060733,35.1034284 202.826608,35.567418 C202.056489,37.0442135 192.672923,51.122133 190.92637,53.8559833 C190.631633,54.2723842 190.27272,54.2140881 190.231124,53.7370116 C190.054044,52.1132861 188.653331,50.2466204 186.44637,49.3534999 C184.764468,48.6706024 183.120241,48.5468719 181.410648,48.7741078 C178.324349,49.189319 175.574859,50.8189931 173.157541,52.6571057 C169.514094,55.4297408 166.370631,59.0236374 162.31277,61.6789665 C160.097609,63.1244724 157.063958,64.3852154 155.034077,62.5034402 C153.197082,60.798457 153.404705,57.0115883 156.215401,54.0827434 C156.511327,53.7757964 156.866675,54.0351547 156.810817,54.3075998 C156.545792,55.6321116 156.87024,56.9492471 157.875673,57.8728243 C159.101802,58.9733124 160.856675,59.0975188 162.358763,58.3629877 C164.131106,57.4837869 165.172787,55.7861799 165.476318,53.8594335 C165.945758,50.8706268 163.647643,48.2345712 160.771819,48.0230396 C158.435673,47.8588586 156.195435,48.672625 154.012481,50.4762357 C152.917914,51.3851794 152.296352,52.0565366 151.349748,53.4041289 C151.119187,53.7360599 150.765028,53.7693719 150.775724,53.2792086 C150.882685,49.4526033 149.303228,47.2996917 146.143126,47.2294984 C143.689917,47.1700126 141.069493,48.5030903 139.026776,50.1333593 C136.787608,51.9335199 134.829747,54.3191401 132.730698,56.5608046 C132.469238,56.8368189 132.242243,56.823732 132.168559,56.2883594 C132.109136,53.7529538 131.468559,51.2971403 130.296505,49.5532534 C129.881734,48.9464978 129.008576,48.6466891 128.275061,49.0559517 C127.936352,49.2415476 126.758236,49.7840584 125.900172,50.4755219 C125.474705,50.8264883 125.308321,51.3344974 125.497286,51.9856295 C126.628695,55.77345 126.380308,60.080225 124.844824,63.7175463 C123.435078,67.0489914 120.69569,70.0535023 117.475689,71.0704723 C115.354535,71.743852 113.149476,71.4143005 111.784891,69.5316925 C109.910936,66.9335889 110.667744,62.4151632 113.461326,58.6633912 C115.926538,55.3596665 119.492617,53.2611249 123.049425,51.9098445 C123.467761,51.748043 123.554518,51.479167 123.435673,51.1234417 C123.243143,50.538101 122.934145,49.7407527 122.809357,49.3769373 C122.482532,48.5072543 121.569323,48.3668677 120.453839,48.4882188 C117.869425,48.7892172 115.537914,49.6755563 113.235044,50.9100065 C107.204586,54.1427051 104.181156,60.399307 102.856267,63.7464564 C102.218066,65.3544777 101.672565,66.357528 100.967574,67.2469603 C100.01681,68.4431016 98.8233632,69.5320494 96.6412409,71.4504679 C96.4439574,71.6265459 96.296589,71.9929787 96.4629727,72.3344275 C96.6852138,72.7960376 97.8201883,74.4006087 98.1403581,74.5437317 C98.4957062,74.71862 98.9081001,74.4723487 99.0732953,74.3557564 C100.600222,73.319513 102.427115,71.6772279 103.321071,70.563296 C103.634823,70.1813969 103.956895,70.3420087 104.123278,70.9214008 C104.957574,73.9010466 107.142192,76.3338986 110.163007,77.3517014 C115.692413,79.2183671 121.42754,76.5165201 125.756606,71.8127366 C128.50788,68.8229782 129.500596,66.8999199 130.555231,65.5930159 C132.34243,63.3763355 135.867863,58.4174767 140.066793,55.2336754 C141.606675,54.0594249 143.428814,53.1638061 144.345113,53.7586645 C145.080766,54.2357409 145.318457,55.344557 144.138322,57.4928288 C139.85715,65.3187862 133.558338,74.5133939 132.40316,76.7430422 C132.191615,77.1297002 132.379391,77.4342677 132.781089,77.4342677 C135.021326,77.4232034 137.242074,77.428676 139.275639,77.428676 C139.614349,77.4167789 139.765282,77.2573568 139.935231,77.0182237 C143.220715,71.869962 146.312481,66.9701132 149.626607,61.9040609 C149.812006,61.605442 149.983143,61.8326779 149.990274,61.9635467 C150.061581,63.138987 150.346811,64.7464134 151.044434,65.8021681 C152.297303,67.7537797 154.072498,68.5924111 156.041412,68.60526 C157.608033,68.6290543 158.400614,68.3851624 160.090003,67.7534227 C161.464689,67.2430342 162.568169,66.5732236 163.415181,65.9670629 C163.909578,65.622045 163.996335,66.1990577 163.984451,66.2870967 C163.22384,70.374131 164.162719,75.2167545 168.220342,77.2246396 C173.076251,79.6214432 178.410869,76.2526409 181.480529,73.2114867 C181.781208,72.9188164 182.10328,72.949749 182.134179,73.5814887 C182.205487,74.7426523 182.723653,76.1204634 183.683212,77.0847289 C186.255623,79.6690318 191.446438,78.6448046 196.655674,74.6085712 C200.000224,72.0242683 203.499749,68.3731463 206.660801,64.5069234 C206.779647,64.3570191 206.865216,64.1166963 206.637032,63.8728043 C206.155708,63.3683644 205.459273,62.7913517 204.981871,62.3469925 C204.764384,62.1613966 204.444689,62.2149339 204.261667,62.3534169 C201.021344,65.4383527 198.104757,68.9564644 193.889307,71.865798 C192.467439,72.8592116 190.201412,73.6604859 189.183738,72.2810092 C188.786794,71.7456366 188.831955,71.0055138 189.219392,70.033753 C190.448373,66.9654733 209.907898,37.307022 210.918085,35.5577813" id="Shape" fill="#FFFFFF"></path>
                    <path d="M119.36878,39.1452535 C119.451971,39.5854487 119.623109,39.6711083 119.822769,39.6342271 C120.813941,39.4355444 121.898644,38.6193986 122.540885,37.6733358 C123.125605,36.8155499 123.400138,35.5776496 122.818983,35.0816566 C122.300817,34.6355128 121.457133,34.7616228 120.831649,35.3148411 C119.586029,36.4165189 119.207744,37.9795689 119.368304,39.1460863 M69.7715801,77.323624 C62.5159433,77.3707368 56.1238379,72.8851474 55.3903235,65.1146308 C54.9826834,60.8086886 56.1984729,56.9711379 58.6325476,53.8095844 C60.7924458,50.9924538 64.4470639,48.6520429 67.5406123,48.0802649 C68.5472337,47.8958588 69.8998144,48.0088819 70.4589825,48.6798822 C71.3360623,49.701849 71.0841098,50.8244658 70.20703,51.2723942 C67.8468772,52.4786481 65.006945,54.5438776 63.6017158,57.3637445 C62.4619874,59.6653707 62.2316648,62.4390766 63.9725138,65.0815567 C66.886249,69.4854125 75.0082695,69.6064067 82.5600692,62.5831513 C84.4303409,60.8642484 86.1040421,59.2128024 87.8053155,57.256551 C91.1314446,53.4494571 92.2377774,52.0621283 96.6590678,45.9228324 C96.706606,45.8514494 96.7303751,45.7586515 96.706606,45.7134422 C96.6709523,45.6301621 96.6115296,45.6182649 96.4796111,45.6063677 C93.528083,45.6896479 90.9547213,46.5688487 88.4534989,48.4400353 C87.7332951,48.9658902 86.6967247,48.8921277 86.2428537,48.1997125 C85.7377603,47.4168788 86.1002391,46.3977674 86.9309691,45.8223013 C90.9546025,43.020994 95.3501034,42.5129849 99.8387792,41.7546594 C99.835095,41.7546594 100.150154,41.7665566 100.406861,41.428677 C102.249441,39.0613784 103.640766,36.9259557 105.605044,34.5318884 C107.584178,32.1028436 110.140783,29.8722434 112.094009,28.1967652 C114.820443,25.8499297 116.568898,25.0601957 118.345876,24.0922421 C118.814128,23.8471604 118.286454,23.5544901 118.143839,23.5544901 C108.222616,21.6878243 97.9102732,19.2724612 88.057268,22.9239401 C81.2333969,25.4731464 78.2431252,30.8901652 79.6815123,34.5098787 C80.7047721,37.0775256 84.077964,37.4949972 87.2361644,35.9478894 C89.8592035,34.6613296 92.2867417,32.5877721 94.0075058,29.9185234 C94.9701543,28.4361362 96.9986094,29.5056917 95.9026161,32.079763 C93.0193054,38.8637665 87.5111729,44.2448558 80.8016312,44.4720917 C75.0914613,44.6576875 71.4072507,40.4523954 71.4192541,35.2643971 C71.4430232,25.0316425 82.8222424,18.2910637 94.7815465,17.2833736 C109.183958,16.0918721 122.825282,19.9322781 137.125367,21.6686699 C148.081734,22.9968698 158.586013,23.0245902 169.598712,20.4920399 C170.900546,20.2088873 171.813993,21.0404994 171.729137,22.3568021 C171.622176,24.2595163 170.149561,26.0919181 166.522634,28.0722018 C162.397507,30.3369468 158.082227,31.0241273 153.57513,31.0610085 C142.676878,31.1561859 132.525096,26.89926 122.019866,24.6141709 C122.031751,25.0745913 122.152973,25.6230507 121.767914,25.9136986 C115.948881,30.210361 110.688898,34.5735285 107.166199,40.701879 C107.047353,40.8434553 107.106776,40.9778933 107.317132,40.9636167 C110.37574,40.8006255 113.126182,40.7221042 115.981683,40.4936785 C116.480834,40.4460899 116.499849,40.3271182 116.455876,39.9630648 C116.202735,37.8507226 116.819543,35.4419029 118.675673,33.7849842 C120.575418,32.079882 122.953992,31.8859582 124.530834,33.1139839 C126.323499,34.5123771 126.164841,37.0274385 125.184484,38.9134966 C124.186182,40.8271562 122.537438,41.8505506 120.955129,42.3474953 C120.955129,42.3474953 120.622362,42.4188783 120.672277,42.7210664 C120.7317,43.2040915 122.890409,44.4002328 123.074858,44.718839 C123.253126,45.0222168 123.15805,45.4921549 122.833601,45.8526391 C122.605418,46.1143768 122.247693,46.3594585 121.790138,46.3511305 C121.420528,46.3437542 121.19591,46.2155028 120.722905,45.9597136 C119.755503,45.4350485 118.546487,44.5725038 117.740002,43.5555338 C117.465469,43.2117057 117.325231,43.2045674 116.639493,43.2426383 C113.549509,43.4210958 108.731513,43.8874648 105.467183,44.2955377 C104.675672,44.3907151 104.559204,44.5418091 104.396385,44.8166337 C99.1917843,53.4081739 93.6346874,62.6730939 87.5332781,68.8761585 C80.9889317,75.5271516 75.5490165,77.2782958 69.7741947,77.323624" id="Shape" fill="#FFFFFF"></path>
                    <path d="M132.86333,8.15562797 C65.0166903,8.15562797 10.021647,26.9236492 10.021647,49.8895863 C10.021647,72.857308 65.0166903,91.6271138 132.86333,91.6271138 C200.709019,91.6271138 255.700378,72.857308 255.700378,49.8895863 C255.700378,26.9236492 200.709019,8.15562797 132.86333,8.15562797 M132.86333,95.4093427 C62.5468431,95.4093427 5.54497462,75.029612 5.54497462,49.8895863 C5.54497462,24.7457535 62.5468431,4.36971101 132.86333,4.36971101 C203.173399,4.36971101 260.171583,24.7457535 260.171583,49.8895863 C260.171583,75.029612 203.173399,95.4093427 132.86333,95.4093427" id="Shape" fill="#FFFFFF"></path>
                </g>
            </g>
        </g>
    </g>
</svg>