<?xml version="1.0" encoding="UTF-8"?>
<svg width="400px" height="100px" viewBox="0 0 400 100" version="1.1" xmlns="http://www.w3.org/2000/svg" xmlns:xlink="http://www.w3.org/1999/xlink">
    <title>logo-jpmc</title>
    <g id="Page-1" stroke="none" stroke-width="1" fill="none" fill-rule="evenodd">
        <g id="Artboard" transform="translate(-106.000000, -837.000000)">
            <g id="logo-jpmc" transform="translate(106.000000, 837.000000)">
                <rect id="Rectangle" fill="#FFFFFF" x="0" y="0" width="400" height="100"></rect>
                <g id="jpmorganchase" transform="translate(0.000000, 22.658228)">
                    <path d="M323.343488,14.3417722 C321.796082,14.3417722 320.520944,14.8535538 319.497334,15.8733813 C318.475053,16.8945167 317.974105,18.0452779 317.974105,19.3475193 C317.974105,21.000163 318.722754,22.8365997 320.220868,24.8762549 C317.733813,26.5053635 316.035802,27.8785831 315.156131,28.948094 C314.279141,30.0202204 313.861386,31.3310544 313.861386,32.9078641 C313.861386,34.287246 314.222586,35.480218 314.927647,36.5314273 C315.631379,37.5839408 316.510465,38.4151184 317.631379,38.9969446 C318.75228,39.5787684 319.942678,39.8934963 321.172887,39.8934963 C323.681267,39.8934963 326.078233,38.6506521 328.332064,36.1952204 C330.227339,38.6506509 332.423641,39.8934963 334.92003,39.8934963 C336.071592,39.8934963 337.089511,39.5550468 337.966489,38.9222319 C338.842163,38.2907236 339.40956,37.4470314 339.680122,36.4193584 L338.766184,36.4193584 C338.114437,37.5477058 337.188497,38.137748 335.986291,38.1377492 C335.102623,38.1377492 334.292058,37.8697173 333.511043,37.3532664 C332.731333,36.8381221 331.643004,35.6156356 330.274181,33.6923469 C330.848621,32.9431655 331.490474,31.7798885 332.178218,30.1808526 C332.996582,28.2444874 333.804271,26.9205805 334.577304,26.2210825 C335.351677,25.5202779 336.244107,25.0387555 337.281036,24.7641859 L337.281036,23.8676342 L329.055598,23.8676342 L329.055598,24.7641859 C331.06949,24.989071 332.063988,25.7927926 332.063976,27.2297032 C332.063976,27.8285244 331.83911,28.6656802 331.416603,29.7325767 C330.995436,30.8007799 330.430684,31.8329356 329.70297,32.8331515 C327.679744,30.0168578 325.543799,27.109417 323.267327,24.0917722 C326.941928,22.2783098 328.750964,20.4168437 328.750952,18.4883239 C328.750952,17.2488411 328.225072,16.226025 327.113481,15.4624618 C326.000573,14.6988986 324.724302,14.3417722 323.343488,14.3417722 Z M358.301599,14.4538411 C356.063781,14.4538411 354.005142,14.955163 352.132521,15.9854503 C350.259899,17.0157377 348.799488,18.6024465 347.753237,20.7297032 C346.708302,22.8556521 346.191927,25.1201911 346.191927,27.5285538 C346.191927,31.196011 347.312621,34.1527632 349.581112,36.382002 C351.84825,38.6112396 354.803132,39.7067147 358.377761,39.7067147 C361.760463,39.7067147 364.540954,38.4928219 366.717441,36.0831515 C367.293222,36.8271017 367.675357,37.6866713 367.897944,38.6607377 L368.73572,38.6607377 L368.73572,30.10614 L367.897944,30.10614 C367.751336,31.5195167 367.259906,33.000136 366.450876,34.5141859 C365.643174,36.0295448 364.560743,37.0927046 363.175933,37.7268296 C361.787126,38.3609523 360.428795,38.6607377 359.101295,38.6607377 C356.619577,38.6607377 354.524746,37.6963839 352.856055,35.7469446 C351.19136,33.7961974 350.380795,31.0000773 350.380807,27.3417722 C350.380807,23.4781937 351.139558,20.4885678 352.665651,18.4136112 C354.194413,16.3360391 356.24106,15.3130365 358.83473,15.3130365 C360.951263,15.3130365 362.859491,15.9637836 364.546839,17.2555653 C366.2342,18.5473469 367.350154,20.8178629 367.897944,24.0917722 L368.73572,24.0917722 L368.507235,14.8647607 L367.669459,14.8647607 C367.55618,15.9538845 367.25458,17.0241425 366.717441,18.040048 C365.976396,17.1339701 364.829027,16.3197888 363.328256,15.5745308 C361.824829,14.8292716 360.148887,14.4538411 358.301599,14.4538411 Z M212.071592,14.5285538 C209.833773,14.5285538 207.775147,15.0298756 205.902513,16.060163 C204.028564,17.0904503 202.569505,18.6771616 201.523229,20.8044158 C200.476966,22.9303647 199.961919,25.1935972 199.961919,27.6032664 C199.961919,31.2694158 201.082638,34.2261681 203.351104,36.4567147 C205.616914,38.6859535 208.532375,39.7814273 212.109673,39.7814273 C215.489718,39.7814273 218.274193,38.6061962 220.449353,36.1952204 C221.027802,36.9417862 221.448018,37.7974361 221.667936,38.7728066 L222.505712,38.7728066 L222.505712,30.1808526 L221.667936,30.1808526 C221.521328,31.5955371 221.031226,33.0748475 220.220868,34.5888986 C219.413167,36.1042575 218.333392,37.1674196 216.945925,37.8015423 C215.557118,38.4356661 214.197435,38.772809 212.871287,38.7728066 C210.389569,38.7728066 208.293411,37.7697888 206.626047,35.8216572 C204.958684,33.8709089 204.150812,31.0760966 204.1508,27.4164848 C204.1508,23.5529063 204.908235,20.6006368 206.435644,18.5256802 C207.963065,16.4494158 210.013697,15.3877492 212.604722,15.3877492 C214.723912,15.3877492 216.632152,16.0384963 218.316832,17.3302779 C220.002864,18.6220583 221.118818,20.8925779 221.667936,24.1664848 L222.505712,24.1664848 L222.277228,14.9768296 L221.439452,14.9768296 C221.3275,16.0659535 220.986492,17.0988552 220.449353,18.1147607 C219.708308,17.2086828 218.601676,16.3931949 217.098248,15.6492434 C215.598818,14.9039854 213.920219,14.5285538 212.071592,14.5285538 Z M30.9215537,14.6032664 C29.5207543,14.6032664 27.5601694,14.657246 25.0571211,14.7526917 L21.9345011,14.8647607 L21.9345011,15.6865997 L22.3914699,15.6865997 C23.6589867,15.6865997 24.4855312,15.8070748 24.8667174,16.0228066 C25.2492381,16.2398475 25.4796271,16.616025 25.5902513,17.1808526 C25.7008756,17.7456802 25.7806526,19.0109394 25.780655,20.9538411 L25.780655,32.9078641 C25.780655,34.948827 25.7008768,36.271988 25.5902513,36.8302779 C25.4796259,37.3885678 25.2404789,37.7989255 24.8286367,38.0630365 C24.4167933,38.3271451 23.6521334,38.4365997 22.5818736,38.4365997 L21.9345011,38.4365997 L21.9345011,39.2584388 L33.3968012,39.2584388 L33.3968012,38.4365997 L32.5590251,38.4365997 C31.4394529,38.4365997 30.6806946,38.3159382 30.2741813,38.0256802 C29.8676692,37.7367287 29.6045331,37.2770583 29.5125666,36.6808526 C29.4192695,36.0846457 29.3983269,34.8350785 29.3983244,32.9078641 L29.3983244,27.7526917 L32.1401371,27.7526917 C34.9950501,27.7526917 36.985912,27.4951184 38.1188119,26.9682089 C39.2530474,26.4399905 40.1005319,25.6719446 40.7083016,24.652117 C41.3147369,23.6309816 41.6222391,22.4355805 41.6222391,21.1032664 C41.6222391,19.5682957 41.1797423,18.3009816 40.2894136,17.2929216 C39.3990861,16.2848615 38.2549484,15.5971322 36.8621478,15.2009676 C35.4693447,14.8048041 33.4979071,14.6032664 30.9215537,14.6032664 Z M7.34958111,14.8647607 L7.34958111,15.6865997 L7.92079208,15.6865997 C9.18297761,15.6865997 9.98476771,15.8070736 10.3579589,16.0228066 C10.7324819,16.2385385 11.0036168,16.6186394 11.1195735,17.1808526 C11.235529,17.7443724 11.2718976,19.013555 11.2718964,20.9538411 L11.2718964,29.2469446 C11.2718964,31.965177 11.2012576,33.9325474 11.0053313,35.1118871 C10.8120713,36.2938411 10.2039226,37.3069446 9.25361767,38.1751055 C8.30331394,39.0432664 7.13899528,39.4825756 5.7501904,39.4825767 C5.0677837,39.4825767 4.50037959,39.3607939 4.0365575,39.1463699 C3.57540046,38.9319446 3.35110434,38.6315985 3.35110434,38.2498181 C3.35110434,38.1059957 3.40689353,37.9010966 3.541508,37.6147607 C3.68945255,37.2918156 3.76999238,36.9802626 3.76999238,36.6808526 C3.76999238,36.1787836 3.60072384,35.7572179 3.23686215,35.4107377 C2.87433359,35.0629497 2.40708241,34.8877504 1.86595583,34.8877492 C1.33682376,34.8877492 0.896991927,35.0984376 0.533130236,35.4854503 C0.170601676,35.8724618 0,36.3388564 0,36.9049905 C0,37.8437543 0.511614928,38.6519586 1.52322925,39.3331515 C2.53750861,40.0130365 3.9484003,40.3417722 5.82635187,40.3417722 C7.49771577,40.3417722 8.98153115,40.0716842 10.2437167,39.5199331 C11.5059022,38.966873 12.5344634,38.1902345 13.2901752,37.1664848 C14.045887,36.1414261 14.494478,35.0711669 14.6610815,33.9911974 C14.8250187,32.9125333 14.8895659,31.3487977 14.8895659,29.2843009 L14.8895659,20.9538411 C14.8895659,18.9272613 14.9573484,17.6461259 15.0799695,17.10614 C15.2012576,16.566154 15.4630593,16.1815704 15.8415842,15.9854503 C16.2187735,15.7854069 17.0198008,15.6865997 18.2406702,15.6865997 L18.8499619,15.6865997 L18.8499619,14.8647607 L7.34958111,14.8647607 Z M44.9733435,14.8647607 L44.9733435,15.6865997 L45.6587966,15.6865997 C46.9263135,15.6865997 47.7201048,15.8070736 48.0959634,16.0228066 C48.4718196,16.2398463 48.7416201,16.616025 48.8575781,17.1808526 C48.9748667,17.7456802 49.0098986,19.0096305 49.009901,20.9538411 L49.009901,31.5630365 C49.009901,33.5791578 48.9674431,34.9643302 48.8194973,35.7095882 C48.6728859,36.4535397 48.2345785,37.1074618 47.5628332,37.6147607 C46.8924222,38.1246739 46.0449353,38.3777644 44.9733435,38.4365997 L44.9733435,39.2584388 L53.9223153,39.2584388 L53.9223153,38.4365997 C52.7720871,38.3646891 51.8924198,38.0734951 51.2566641,37.540048 C50.618241,37.0065997 50.235529,36.3808807 50.1142422,35.6722319 C49.9916222,34.9635819 49.9238361,33.6310825 49.9238385,31.6751055 L49.9238385,17.4049905 L59.8248286,39.2584388 L60.7006855,39.2584388 L70.4874334,17.4049905 L70.4874334,32.9452204 C70.4874334,34.9861834 70.4510647,36.271988 70.3351104,36.8302779 C70.2191537,37.3885678 69.9472548,37.797619 69.5354151,38.0630365 C69.1222398,38.3271451 68.3863336,38.4365997 67.3267327,38.4365997 L66.4508759,38.4365997 L66.4508759,39.2584388 L78.4082254,39.2584388 L78.4082254,38.4365997 L77.3038842,38.4365997 C76.1763132,38.4365997 75.4162218,38.3146305 75.0190404,38.0256802 C74.6191927,37.7380365 74.3547187,37.3118015 74.2574257,36.7182089 C74.158796,36.1246164 74.105104,34.8285397 74.1051028,32.9078641 L74.1051028,20.9538411 C74.1051028,18.9259535 74.1648853,17.6474325 74.2955065,17.10614 C74.4221246,16.566154 74.6772667,16.1828782 75.0571211,15.9854503 C75.4369767,15.7880213 76.2694178,15.6865997 77.4942879,15.6865997 L78.4082254,15.6865997 L78.4082254,14.8647607 L70.7159177,14.8647607 L61.6907845,35.0745308 L52.551409,14.8647607 L44.9733435,14.8647607 Z M323.41965,15.2756802 C324.353962,15.2756802 325.093301,15.5859253 325.666413,16.2095882 C326.235528,16.8345601 326.54227,17.625767 326.54227,18.6377492 C326.54227,20.3348475 325.245794,21.9215575 322.696116,23.382002 C321.130041,21.2730506 320.373191,19.600048 320.373191,18.3762549 C320.373191,17.4897888 320.651187,16.7710532 321.210967,16.1722319 C321.76942,15.5747173 322.493343,15.2756802 323.41965,15.2756802 Z M31.302361,15.4624618 C33.5708296,15.4624618 35.2044929,15.9367006 36.2147753,16.882002 C37.2250565,17.8259957 37.7380046,19.3060556 37.7380046,21.3274043 C37.7380046,22.651873 37.4499266,23.7873187 36.8621478,24.6894733 C36.2730395,25.5916291 35.5344634,26.1601923 34.6534653,26.4452204 C33.7711342,26.7276342 32.620906,26.8934963 31.1881188,26.8934963 L29.3983244,26.8934963 L29.3983244,15.5371745 C29.8394894,15.4887989 30.4706766,15.4624618 31.302361,15.4624618 Z M277.532369,20.0946457 C276.076917,20.0946457 274.903092,20.5117287 273.95278,21.402117 C273.003808,22.2925052 272.505712,23.4266431 272.505712,24.7641859 C272.505712,25.6414989 272.753986,26.4556814 273.191165,27.2297032 C273.628332,28.0050339 274.202602,28.6524184 274.98096,29.1348756 C275.75933,29.6199471 276.951641,30.1713276 278.484387,30.8159101 C280.203735,31.5363265 281.379473,32.206873 282.025895,32.8331515 C282.673645,33.4685819 282.977925,34.2465294 282.977913,35.1865997 C282.977913,36.1175193 282.61062,36.9750327 281.873572,37.7268296 C281.135184,38.4786253 280.095781,38.8475181 278.750952,38.8475193 C275.761426,38.8475193 273.876618,36.8754796 273.076923,32.9452204 L272.353389,32.9452204 L272.353389,38.9969446 L273.076923,38.9969446 C273.227528,38.211154 273.449164,37.5992599 273.762376,37.1664848 C275.167171,38.7432957 276.916984,39.5199331 279.017517,39.5199331 C280.844819,39.5199331 282.30389,39.0298169 283.396801,38.0256802 C284.489724,37.0189267 285.034273,35.7088411 285.034273,34.1032664 C285.034273,33.0886687 284.799318,32.188942 284.348819,31.4136112 C283.894337,30.6395882 283.309404,30.0585104 282.559025,29.6205078 C281.809974,29.1825052 280.590062,28.5877914 278.941356,27.8647607 C277.218011,27.1025052 276.060929,26.4142165 275.399848,25.810163 C274.726763,25.2165716 274.37168,24.5025052 274.371668,23.6434963 C274.371668,22.9322319 274.636917,22.2637402 275.171363,21.6636112 C275.707162,21.0660966 276.538455,20.7670583 277.684692,20.7670595 C278.888238,20.7670595 279.971814,21.1878794 280.883473,21.9998181 C281.799117,22.8143736 282.427637,23.9072319 282.78751,25.3245308 L283.396801,25.3245308 L283.396801,20.4308526 L282.78751,20.4308526 C282.732868,21.020523 282.497145,21.5685409 282.063976,22.0745308 C281.309599,21.2638986 280.571016,20.7257799 279.855293,20.4682089 C279.136902,20.2093302 278.346724,20.0946457 277.532369,20.0946457 Z M90.1370906,20.132002 C87.1888804,20.132002 84.7587546,20.9936265 82.7875095,22.7469446 C80.8162608,24.4989561 79.8172125,26.836527 79.8172125,29.7325767 C79.8172125,32.7031515 80.8061721,35.0698603 82.7494288,36.8676342 C84.6926879,38.6680225 87.1797411,39.5946457 90.2132521,39.5946457 C93.3280658,39.5946457 95.8419668,38.6680213 97.7532369,36.8676342 C99.6631762,35.0698615 100.609292,32.7498487 100.609292,29.8446457 C100.609292,26.8466138 99.594821,24.481961 97.6009139,22.7469446 C95.6056737,21.0132383 93.1119525,20.132002 90.1370906,20.132002 Z M134.348819,20.132002 C131.371296,20.132002 129.037892,21.1378207 127.303884,23.1578641 C125.569889,25.1765997 124.676314,27.5352779 124.676314,30.2182089 C124.676314,32.9299049 125.605484,35.1759535 127.418126,36.9423469 C129.229429,38.7087402 131.500954,39.5946457 134.234577,39.5946457 C135.595394,39.5946457 137.053904,39.2851501 138.651942,38.698094 C139.824829,38.2666279 140.785609,38.0630365 141.507997,38.0630365 C141.686605,38.0630365 141.89469,38.0624771 142.117289,38.1003928 L142.117289,36.1205078 C142.117289,34.4992434 142.165642,33.4782945 142.269612,33.0572894 C142.372241,32.637592 142.591756,32.303813 142.916984,32.1233813 C143.240859,31.9429497 143.871281,31.8618859 144.78294,31.8618871 L144.78294,31.2268296 L136.519421,31.2268296 L136.519421,31.8618871 L136.97639,31.8618871 C137.734763,31.8618871 138.253819,31.9323059 138.5377,32.0486687 C138.821593,32.1624196 139.009694,32.3850609 139.146992,32.7210825 C139.284277,33.0584095 139.375476,33.7302638 139.375476,34.7383239 C139.375476,35.5973316 139.210395,36.3054222 138.918507,36.8676342 C138.629289,37.431154 138.114803,37.8949319 137.319117,38.2871745 C136.52209,38.6820302 135.626431,38.8848756 134.653465,38.8848756 C132.752865,38.8848756 131.137474,38.217504 129.855293,36.8302779 C128.571784,35.4456649 127.951257,33.0587836 127.951257,29.7325767 C127.951257,26.3972179 128.635382,24.0930799 129.969535,22.7843009 C131.303701,21.4768296 132.85681,20.8044158 134.653465,20.8044158 C136.39147,20.8044158 137.853965,21.3662549 139.07083,22.4854503 C140.289036,23.6059535 141.045715,25.1248603 141.317593,27.0429216 L141.964966,27.0429216 L141.964966,20.7670595 L141.317593,20.7670595 C141.232292,21.5240863 141.022855,22.2413265 140.708302,22.8963699 C139.028935,21.0567581 136.910513,20.132002 134.348819,20.132002 Z M383.739528,20.132002 C380.791324,20.132002 378.361188,20.9936265 376.389947,22.7469446 C374.418693,24.4989561 373.41965,26.836527 373.41965,29.7325767 C373.41965,32.7031515 374.370522,35.0698603 376.313785,36.8676342 C378.257048,38.6680225 380.74542,39.5946457 383.777609,39.5946457 C386.895086,39.5946457 389.406318,38.6680213 391.317593,36.8676342 C393.227528,35.0698615 394.211729,32.7498487 394.211729,29.8446457 C394.211729,26.8466138 393.197258,24.481961 391.203351,22.7469446 C389.208116,21.0132383 386.713066,20.132002 383.739528,20.132002 Z M259.824829,20.1693584 L254.265042,33.1693584 C253.865188,34.1042 253.600158,34.6383954 253.541508,34.7756802 C252.951068,36.2465845 252.472201,37.1958092 252.056359,37.652117 C251.640518,38.1097313 251.003991,38.4192282 250.152323,38.5486687 L250.152323,39.1837262 L255.902513,39.1837262 L255.902513,38.5486687 C255.282754,38.5486687 254.77112,38.3919598 254.379284,38.1003928 C253.991433,37.8101336 253.808073,37.3937989 253.808073,36.8302779 C253.808073,36.3033673 254.179363,35.19538 254.912414,33.4682089 L255.407464,32.2728066 L262.642803,32.2728066 L264.127951,35.7469446 C264.561121,36.753698 264.775324,37.3373903 264.775324,37.540048 C264.775324,37.9362115 264.602821,38.2285232 264.280274,38.3618871 C263.955059,38.4952486 263.332643,38.5486675 262.414318,38.5486687 L262.414318,39.1837262 L269.916222,39.1837262 L269.916222,38.5486687 C269.245819,38.4846035 268.764271,38.3179943 268.431074,38.0630365 C268.096536,37.8106943 267.828631,37.4589842 267.631379,37.0170595 L266.755522,35.0745308 L260.39604,20.1693584 L259.824829,20.1693584 Z M110.243717,20.244071 C109.173459,20.244071 107.72315,20.2776917 105.902513,20.35614 L103.198781,20.4682089 L103.198781,21.1032664 L103.503427,21.1032664 C104.488384,21.1032664 105.14832,21.1987109 105.445545,21.3647607 C105.740101,21.5308092 105.931455,21.8285397 106.016756,22.2613124 C106.103385,22.6940851 106.130998,23.6446164 106.130998,25.1377492 L106.130998,34.3647607 C106.130998,35.9324184 106.102056,36.9231093 106.016756,37.3532664 C105.932795,37.782117 105.723345,38.0858245 105.407464,38.2871745 C105.092923,38.4898322 104.513523,38.5860238 103.693831,38.586025 L103.084539,38.586025 L103.084539,39.2210825 L112.261995,39.2210825 L112.261995,38.586025 L111.348058,38.586025 C110.48039,38.586025 109.863482,38.4707799 109.558264,38.2498181 C109.250388,38.030163 109.056366,37.6961962 108.987053,37.2411974 C108.916411,36.7901196 108.910891,35.8304362 108.910891,34.3647607 L108.910891,30.2555653 L109.672506,30.2555653 C110.185651,30.2555653 110.532935,30.3483942 110.776847,30.5170595 C111.01809,30.6870314 111.464591,31.1226061 112.109673,31.8992434 C112.753438,32.6719598 113.375866,33.4840851 113.975628,34.3274043 C115.842925,36.9658807 117.258187,38.5921909 118.164509,39.2210825 L123.267327,39.2210825 L123.267327,38.586025 C122.149081,38.5494158 121.194212,38.2417862 120.373191,37.652117 C119.554839,37.0598322 118.426126,35.8149331 116.984006,33.9164848 C115.214014,31.5708807 113.896798,30.2198909 113.099772,29.8446457 C114.869764,29.6328348 116.224682,29.1064848 117.136329,28.2383239 C118.050657,27.370163 118.507235,26.2920595 118.507235,25.0630365 C118.507235,24.0105219 118.144707,23.1304069 117.440975,22.3733813 C116.737243,21.6137414 115.837392,21.0631081 114.699162,20.7297032 C113.558251,20.3976061 112.063025,20.244071 110.243717,20.244071 Z M155.826352,20.244071 L150.228484,33.2067147 C149.827302,34.1402498 149.605679,34.6757529 149.543031,34.8130365 C148.956588,36.283942 148.436984,37.270523 148.019802,37.7268296 C147.602632,38.184444 147.00421,38.4565857 146.153846,38.586025 L146.153846,39.2210825 L151.904037,39.2210825 L151.904037,38.586025 C151.281609,38.586025 150.769986,38.4666713 150.380807,38.1751055 C149.990288,37.8835397 149.809609,37.4311528 149.809596,36.8676342 C149.809596,36.3407224 150.179546,35.2327339 150.913938,33.5055653 L151.408987,32.310163 L158.644326,32.310163 L160.091394,35.7843009 C160.523235,36.7910544 160.776847,37.4121005 160.776847,37.6147607 C160.776847,38.0109242 160.606989,38.2658807 160.281797,38.3992434 C159.957922,38.5326049 159.335494,38.586025 158.415842,38.586025 L158.415842,39.2210825 L165.917746,39.2210825 L165.917746,38.586025 C165.249998,38.5206521 164.765807,38.3927058 164.432597,38.1377492 C164.099388,37.8854069 163.828826,37.533698 163.632902,37.0917722 L162.757045,35.1118871 L156.397563,20.244071 L155.826352,20.244071 Z M226.961158,20.4308526 L226.961158,21.0659101 L227.341965,21.0659101 C228.317587,21.0659101 228.91869,21.1626624 229.207921,21.3274043 C229.495811,21.4934529 229.69249,21.7898744 229.779132,22.2239561 C229.869758,22.6567287 229.931455,23.6085678 229.931455,25.1003928 L229.931455,34.290048 C229.931455,35.8590135 229.869758,36.8857529 229.779132,37.3159101 C229.69249,37.7447607 229.485721,38.0484693 229.16984,38.2498181 C228.852631,38.4524759 228.279872,38.5486687 227.456207,38.5486687 L226.961158,38.5486687 L226.961158,39.1837262 L235.643564,39.1837262 L235.643564,38.5486687 L235.148515,38.5486687 C234.282175,38.5486687 233.667936,38.4334259 233.35872,38.2124618 C233.049505,37.9901911 232.862148,37.6601501 232.78751,37.2038411 C232.711543,36.7462268 232.673267,35.7701067 232.673267,34.290048 L232.673267,29.7699331 L242.650419,29.7699331 L242.650419,34.290048 C242.650419,35.8616279 242.621478,36.8483954 242.536177,37.2785538 C242.452216,37.7087121 242.237441,38.0458538 241.926885,38.2498181 C241.613673,38.4524759 241.053697,38.5486687 240.251333,38.5486687 L239.60396,38.5486687 L239.60396,39.1837262 L248.248286,39.1837262 L248.248286,38.5486687 L247.829398,38.5486687 C246.97639,38.5486687 246.388241,38.4334259 246.077685,38.2124618 C245.768457,37.9914989 245.577103,37.6601489 245.506474,37.2038411 C245.434504,36.7475345 245.392232,35.7661834 245.392232,34.290048 L245.392232,25.1003928 C245.392232,23.5445026 245.447263,22.5637121 245.544554,22.1492434 C245.644515,21.7347747 245.826535,21.4404081 246.115765,21.290048 C246.407653,21.1370748 247.0434,21.0659101 247.981721,21.0659101 L248.248286,21.0659101 L248.248286,20.4308526 L239.60396,20.4308526 L239.60396,21.0659101 L240.09901,21.0659101 C241.059973,21.0659101 241.679756,21.1626624 241.964966,21.3274043 C242.2502,21.4934529 242.452216,21.7898744 242.536177,22.2239561 C242.621478,22.6567287 242.650419,23.6085678 242.650419,25.1003928 L242.650419,28.836025 L232.673267,28.836025 L232.673267,25.1003928 C232.673267,23.5445026 232.72563,22.5637121 232.82559,22.1492434 C232.925551,21.7347747 233.138986,21.4404081 233.434882,21.290048 C233.729438,21.1370748 234.320451,21.0659101 235.262757,21.0659101 L235.643564,21.0659101 L235.643564,20.4308526 L226.961158,20.4308526 Z M288.651942,20.4308526 L288.651942,21.0659101 C289.580929,21.0659101 290.189258,21.1469751 290.479817,21.3274043 C290.769048,21.5052204 290.971065,21.8102357 291.051028,22.2613124 C291.13366,22.7123903 291.16527,23.672633 291.16527,25.1003928 L291.16527,34.290048 C291.16527,35.857707 291.125679,36.8581081 291.051028,37.2411974 C290.975062,37.622979 290.79381,37.9253776 290.517898,38.1751055 C290.242011,38.4235256 289.669081,38.5486687 288.728104,38.5486687 L288.309216,38.5486687 L288.309216,39.1837262 L304.074638,39.1837262 L304.493526,33.35614 L303.846154,33.35614 C303.507619,34.7603647 303.022282,35.8564004 302.437167,36.6434963 C301.852052,37.4332089 301.253033,37.9462983 300.609292,38.1751055 C299.960213,38.4039127 299.137657,38.5113124 298.134044,38.5113124 L296.725057,38.5113124 C295.448213,38.5113124 294.655951,38.3045448 294.364052,37.9136112 C294.073493,37.5226776 293.945152,36.211283 293.945164,33.9911974 L293.945164,29.5457951 L296.001523,29.5457951 C296.81455,29.5457951 297.410693,29.6253647 297.753237,29.7325767 C298.09444,29.8384822 298.337596,30.0506661 298.514851,30.4049905 C298.692119,30.7619305 298.781404,31.4561974 298.781417,32.4969446 L299.428789,32.4969446 L299.428789,26.1090135 L298.781417,26.1090135 C298.781417,27.0281655 298.708289,27.660421 298.591013,27.9768296 C298.473724,28.2945448 298.233992,28.5297044 297.867479,28.6865997 C297.499625,28.8434963 296.848999,28.9107377 295.925362,28.9107377 L293.945164,28.9107377 L293.945164,21.0659101 L296.572734,21.0659101 C297.897566,21.0659101 298.830367,21.1475345 299.428789,21.290048 C300.025895,21.4338705 300.555589,21.7521463 300.990099,22.2986687 C301.421928,22.8465001 301.795887,23.7942282 302.09444,25.1003928 L302.741813,25.1003928 L302.284844,20.4308526 L288.651942,20.4308526 Z M168.392993,20.4682089 L168.392993,21.1032664 C169.424597,21.1032664 170.07465,21.1888106 170.373191,21.3274043 C170.671744,21.4659957 170.883278,21.7736253 171.020564,22.2613124 C171.157837,22.7489995 171.249048,23.698223 171.249048,25.1377492 L171.249048,35.1118871 C171.249048,36.2454644 171.184695,36.9365563 171.096725,37.2411974 C171.007427,37.5445308 170.736097,37.8362854 170.258949,38.1003928 C169.783141,38.3645026 169.107583,38.5206497 168.202589,38.586025 L168.202589,39.2210825 L175.285605,39.2210825 L175.285605,38.586025 C174.275327,38.586025 173.54397,38.4614426 173.038842,38.1751055 C172.533703,37.8900762 172.196119,37.5837531 172.086824,37.2411974 C171.97887,36.8999471 171.934501,36.19055 171.934501,35.1118871 L171.934501,22.0745308 L185.529322,39.6693584 L186.100533,39.6693584 L186.100533,24.1291285 C186.100533,23.3263405 186.165666,22.7854198 186.290937,22.448094 C186.416219,22.1120736 186.708302,21.7908092 187.166794,21.5515423 C187.627942,21.3122753 188.271135,21.1686418 189.07083,21.1032664 L189.07083,20.4682089 L182.178218,20.4682089 L182.178218,21.1032664 C182.929938,21.1032664 183.547796,21.2086112 184.082254,21.402117 C184.618053,21.5956227 184.975257,21.8558104 185.148515,22.1865997 C185.321785,22.5200046 185.41508,23.1134095 185.41508,23.9423469 L185.41508,35.1492434 L174.105103,20.4682089 L168.392993,20.4682089 Z M90.1751714,20.8044158 C92.5036174,20.8044158 94.2816097,21.6032805 95.5064737,23.1578641 C96.7313401,24.7124477 97.3343488,26.9276776 97.3343488,29.8446457 C97.3343488,32.8439842 96.7105877,35.0920876 95.468393,36.60614 C94.2235333,38.1201911 92.5455037,38.8848756 90.4036558,38.8848756 C87.9605861,38.8848756 86.1408963,38.1201911 84.9200305,36.60614 C83.6991634,35.0920876 83.0921554,32.8622906 83.0921554,29.8446457 C83.0921554,26.8727632 83.699161,24.6011235 84.9200305,23.0831515 C86.1408987,21.565177 87.8813807,20.8044158 90.1751714,20.8044158 Z M383.777609,20.8044158 C386.106053,20.8044158 387.884027,21.6032805 389.108911,23.1578641 C390.336439,24.7124477 390.936786,26.9276776 390.936786,29.8446457 C390.936786,32.8439842 390.313005,35.0920876 389.07083,36.60614 C387.825962,38.1201911 386.146632,38.8848756 384.006093,38.8848756 C381.563028,38.8848756 379.705261,38.1201911 378.484387,36.60614 C377.263525,35.0920876 376.656512,32.8622906 376.656512,29.8446457 C376.656512,26.8727632 377.263525,24.6011235 378.484387,23.0831515 C379.705261,21.565177 381.483832,20.8044158 383.777609,20.8044158 Z M110.091394,20.9164843 C112.315881,20.9164843 113.768847,21.3182523 114.432597,22.1118871 C115.095019,22.905523 115.422696,23.9679356 115.422696,25.2871745 C115.422696,26.0455078 115.312646,26.674587 115.11805,27.1923469 C114.922126,27.7087977 114.656902,28.1447478 114.318355,28.4624618 C113.97982,28.7814848 113.533319,29.0074911 112.985529,29.1722319 C112.439068,29.3382805 111.785797,29.4331655 111.043412,29.4710825 C110.301027,29.5076917 109.606629,29.5287977 108.910891,29.5457951 L108.910891,20.9538411 C109.356052,20.9159253 109.747522,20.9164843 110.091394,20.9164843 Z M259.025133,23.6434963 L262.376238,31.5630365 L255.71211,31.5630365 L259.025133,23.6434963 Z M155.026657,23.6808526 L158.377761,31.6377492 L151.675552,31.6377492 L155.026657,23.6808526 Z M320.792079,25.6607377 C322.73667,28.1527773 325.071196,31.3915692 327.760853,35.4107377 C326.245435,37.1405219 324.593694,38.0256802 322.810358,38.0256802 C321.204302,38.0256802 319.740685,37.3452357 318.469155,35.9710825 C317.197636,34.5982383 316.565118,33.1071592 316.565118,31.5630365 C316.565118,30.5615141 316.932399,29.535896 317.669459,28.4624618 C318.402522,27.3890288 319.45126,26.4635256 320.792079,25.6607377 Z M397.90556,35.6348756 C397.33112,35.6348756 396.829575,35.8298744 396.420411,36.2325767 C396.008567,36.6352779 395.81112,37.1272613 395.81112,37.6894733 C395.81112,38.2412268 396.016548,38.7305946 396.420411,39.1463699 C396.822922,39.5621451 397.320469,39.744071 397.90556,39.744071 C398.480012,39.744071 398.973526,39.5477632 399.390708,39.1463699 C399.807878,38.7423609 400,38.2647607 400,37.6894733 C400,37.1272613 399.799872,36.6352767 399.390708,36.2325767 C398.977523,35.8298756 398.493356,35.6348756 397.90556,35.6348756 Z" id="path29" fill="#000000" fill-rule="nonzero"></path>
                    <rect id="rect2666" x="0" y="0.341772152" width="399" height="55"></rect>
                </g>
            </g>
        </g>
    </g>
</svg>