<?xml version="1.0" encoding="UTF-8"?>
<svg width="400px" height="101px" viewBox="0 0 400 101" version="1.1" xmlns="http://www.w3.org/2000/svg" xmlns:xlink="http://www.w3.org/1999/xlink">
    <title>logo-westat</title>
    <g id="Page-1" stroke="none" stroke-width="1" fill="none" fill-rule="evenodd">
        <g id="Artboard" transform="translate(-2513.000000, -837.000000)">
            <g id="logo-westat" transform="translate(2513.000000, 837.000000)">
                <rect id="Rectangle-Copy-4" fill="#FFFFFF" x="0" y="0" width="400" height="100"></rect>
                <g id="Group" transform="translate(11.000000, 1.000000)" fill="#131415" fill-rule="nonzero">
                    <path d="M370.377358,39.6226415 C373.396226,39.6226415 375.849057,42.0754717 375.849057,45.0943396 C375.849057,48.1132075 373.396226,50.5660377 370.377358,50.5660377 C367.358491,50.5660377 364.90566,48.1132075 364.90566,45.0943396 C364.90566,42.0754717 367.358491,39.6226415 370.377358,39.6226415 Z" id="Path"></path>
                    <path d="M370.377358,49.6226415 C372.830189,49.6226415 374.90566,47.5471698 374.90566,45.0943396 C374.90566,42.6415094 372.830189,40.5660377 370.377358,40.5660377 C367.924528,40.5660377 365.849057,42.6415094 365.849057,45.0943396 C365.849057,47.7358491 367.924528,49.6226415 370.377358,49.6226415 Z" id="Path"></path>
                    <path d="M369.433962,48.1132075 L368.113208,48.1132075 L368.113208,42.2641509 L370.943396,42.2641509 C371.320755,42.2641509 373.207547,42.2641509 373.207547,43.9622642 C373.207547,45.0943396 372.45283,45.4716981 372.075472,45.4716981 L373.207547,48.1132075 L371.886792,48.1132075 L370.943396,45.8490566 L369.433962,45.8490566 L369.433962,48.1132075 Z" id="Path"></path>
                    <path d="M369.433962,44.7169811 L370.754717,44.7169811 C371.132075,44.7169811 371.886792,44.5283019 371.886792,43.9622642 C371.886792,43.5849057 371.698113,43.2075472 370.943396,43.2075472 L369.433962,43.2075472 L369.433962,44.7169811 L369.433962,44.7169811 Z" id="Path"></path>
                    <polygon id="Path" points="180.377358 80.1886792 168.490566 80.1886792 160 45.8490566 159.811321 45.8490566 151.698113 80.1886792 139.811321 80.1886792 126.226415 28.3018868 138.679245 28.3018868 146.603774 63.2075472 146.792453 63.2075472 155.283019 28.3018868 166.415094 28.3018868 175.09434 63.2075472 175.283019 63.2075472 175.660377 60.9433962 183.207547 28.3018868 193.207547 28.3018868"></polygon>
                    <path d="M204.339623,62.8301887 L204.339623,64.7169811 C204.339623,69.245283 206.981132,73.0188679 211.698113,73.0188679 C215.09434,73.0188679 218.490566,70.5660377 218.490566,66.9811321 L228.867925,67.7358491 C228.867925,69.6226415 224.339623,80.9433962 211.320755,80.9433962 C199.811321,80.9433962 192.264151,73.0188679 192.264151,61.509434 C192.264151,50.1886792 199.056604,40.9433962 210.943396,40.9433962 C216.415094,40.9433962 221.886792,43.3962264 225.09434,47.7358491 C228.301887,52.0754717 229.056604,57.5471698 229.056604,62.8301887 L204.339623,62.8301887 L204.339623,62.8301887 Z M217.924528,56.4150943 C217.735849,52.2641509 216.415094,48.490566 211.509434,48.490566 C206.603774,48.490566 204.716981,52.0754717 204.339623,56.4150943 L217.924528,56.4150943 Z" id="Shape"></path>
                    <path d="M257.358491,53.2075472 C256.415094,49.6226415 253.584906,48.1132075 249.811321,48.1132075 C247.54717,48.1132075 243.962264,48.6792453 243.962264,51.509434 C243.962264,58.6792453 267.169811,50.5660377 267.169811,67.9245283 C267.169811,71.8867925 265.283019,75.4716981 262.075472,77.9245283 C258.679245,80.3773585 254.339623,81.1320755 250.188679,81.1320755 C242.075472,81.1320755 234.716981,78.490566 232.641509,69.8113208 L242.264151,68.490566 C243.018868,72.4528302 247.169811,73.5849057 250.754717,73.5849057 C252.830189,73.5849057 257.54717,72.8301887 257.54717,70 C257.54717,67.3584906 255.283019,66.9811321 253.207547,66.7924528 C250.566038,66.4150943 244.150943,65.2830189 241.698113,64.5283019 C237.169811,63.0188679 234.150943,59.0566038 234.150943,54.1509434 C234.150943,44.7169811 242.45283,41.3207547 250.566038,41.3207547 C258.113208,41.3207547 263.018868,44.1509434 265.660377,51.3207547 L257.358491,53.2075472 Z" id="Path"></path>
                    <path d="M294.90566,50.5660377 L286.603774,50.5660377 L286.603774,65.8490566 C286.603774,70.9433962 286.981132,72.0754717 291.698113,72.0754717 C292.641509,72.0754717 294.150943,71.8867925 295.471698,71.6981132 L295.471698,80 C293.207547,80.5660377 290.566038,80.754717 288.490566,80.754717 C285.283019,80.754717 281.132075,80.3773585 278.490566,78.3018868 C275.471698,75.6603774 275.471698,71.1320755 275.471698,67.3584906 L275.471698,50.3773585 L269.245283,50.3773585 L269.245283,41.509434 L276.037736,41.509434 L276.981132,30.1886792 L286.603774,29.4339623 L286.603774,41.509434 L294.90566,41.509434 L294.90566,50.5660377 L294.90566,50.5660377 Z" id="Path"></path>
                    <path d="M324.528302,80.1886792 C324.150943,78.3018868 323.962264,76.2264151 323.962264,74.1509434 C320.754717,78.6792453 317.358491,80.9433962 311.698113,80.9433962 C304.90566,80.9433962 299.622642,77.3584906 299.622642,70 C299.622642,64.3396226 303.207547,60.3773585 308.301887,58.490566 C312.641509,56.7924528 318.867925,56.6037736 323.584906,56.0377358 L323.584906,55.0943396 C323.584906,53.3962264 323.773585,51.509434 322.641509,50 C321.698113,48.6792453 319.811321,48.1132075 318.113208,48.1132075 C314.528302,48.1132075 311.509434,50 311.509434,53.7735849 L300.943396,52.8301887 C302.075472,43.5849057 311.132075,40.754717 319.245283,40.754717 C323.207547,40.754717 328.301887,41.6981132 331.509434,44.1509434 C335.471698,47.3584906 335.09434,51.509434 335.09434,56.2264151 L335.09434,74.1509434 C335.09434,76.0377358 335.283019,77.9245283 335.849057,79.8113208 L324.528302,79.8113208 L324.528302,80.1886792 Z M323.396226,61.8867925 C319.245283,62.2641509 311.320755,63.3962264 311.320755,68.8679245 C311.320755,71.8867925 313.207547,73.9622642 316.226415,73.9622642 C318.490566,73.9622642 320.566038,72.8301887 321.886792,70.754717 C323.396226,68.3018868 323.396226,66.0377358 323.396226,63.3962264 L323.396226,61.8867925 Z" id="Shape"></path>
                    <path d="M364.716981,50.5660377 L356.415094,50.5660377 L356.415094,65.8490566 C356.415094,70.9433962 356.792453,72.0754717 361.509434,72.0754717 C362.45283,72.0754717 363.962264,71.8867925 365.283019,71.6981132 L365.283019,80 C363.018868,80.5660377 360.377358,80.754717 358.301887,80.754717 C355.09434,80.754717 350.943396,80.3773585 348.301887,78.3018868 C345.283019,75.6603774 345.283019,71.1320755 345.283019,67.3584906 L345.283019,50.3773585 L339.056604,50.3773585 L339.056604,41.509434 L345.849057,41.509434 L346.792453,30.1886792 L356.415094,29.4339623 L356.415094,41.509434 L364.716981,41.509434 L364.716981,50.5660377 L364.716981,50.5660377 Z" id="Path"></path>
                    <polygon id="Path" points="106.415094 -2.05789264e-12 46.9811321 81.6981132 56.9811321 98.8679245 113.773585 -2.05789264e-12"></polygon>
                    <polygon id="Path" points="92.6415094 -6.83729802e-13 88.1132075 -6.83729802e-13 37.3584906 64.7169811 73.3962264 -6.83729802e-13 -8.71420336e-14 -6.83729802e-13 46.9811321 81.6981132"></polygon>
                </g>
            </g>
        </g>
    </g>
</svg>