<?xml version="1.0" encoding="UTF-8"?>
<svg width="400px" height="100px" viewBox="0 0 400 100" version="1.1" xmlns="http://www.w3.org/2000/svg" xmlns:xlink="http://www.w3.org/1999/xlink">
    <title>logo-celgene</title>
    <defs>
        <filter id="filter-1">
            <feColorMatrix in="SourceGraphic" type="matrix" values="0 0 0 0 0.000000 0 0 0 0 0.000000 0 0 0 0 0.000000 0 0 0 1.000000 0"></feColorMatrix>
        </filter>
    </defs>
    <g id="Page-1" stroke="none" stroke-width="1" fill="none" fill-rule="evenodd">
        <g id="Artboard" transform="translate(-2044.000000, -837.000000)">
            <g id="logo-celgene" transform="translate(2044.000000, 837.000000)">
                <rect id="Rectangle-Copy-5" fill="#FFFFFF" x="0" y="0" width="400" height="100"></rect>
                <g filter="url(#filter-1)" id="Celgene-Logo.wine">
                    <g transform="translate(143.000000, 0.000000)">
                        <path d="M52.721041,13.9805644 C47.4629853,14.3674881 42.3338602,14.9510151 37.5946778,16.5034222 C32.4663405,17.9922146 27.8568764,20.7103668 23.1184817,23.1703953 C29.9995918,14.3674881 38.8934365,6.14784611 48.0475055,0 C49.7992279,4.46716258 51.3582109,9.25553991 52.721041,13.9805644" id="Path" fill="#26326F" fill-rule="nonzero"></path>
                        <path d="M53.3058237,16.1798513 C54.992687,21.2289702 56.8759658,26.1487655 58.3033924,31.2601901 C54.0836084,28.6716233 49.3454764,26.6011364 44.1525425,25.9537329 C32.7916866,24.8536967 22.08021,27.2485399 12.6667044,31.7128228 C23.5078992,24.2062933 34.543409,17.2160111 48.0477681,16.0505277 L53.3058237,16.1798513" id="Path" fill="#26326F" fill-rule="nonzero"></path>
                        <path d="M45.7094248,28.1532817 C35.7129745,27.2482781 26.1048914,32.6204443 21.5600239,41.4872279 C15.8463786,55.5303598 21.8194605,70.5452514 29.0253915,82.1953727 C23.1830783,77.0829009 18.0539532,70.9350548 14.029797,64.6568379 C9.6149104,57.9252029 8.25129259,46.5989143 13.4452769,39.4795703 C20.9755037,29.318765 33.116245,25.2403587 45.7094248,28.1532817" id="Path" fill="#26326F" fill-rule="nonzero"></path>
                        <path d="M22.3388589,29.7083066 C15.5218202,33.3312006 9.48571727,40.2557738 8.77147878,47.8934595 C7.40786097,59.0901627 13.57447,67.5037901 20.4574182,75.5283995 C12.1470434,70.6743132 -0.25208417,63.1685691 0.0070898673,51.5810153 C-0.316943327,40.9688863 10.3942706,34.1725895 18.7038577,30.6133102 C19.9367068,30.3557101 20.9760289,29.6425977 22.3388589,29.7083066 M58.8703192,57.5126239 C58.9378042,58.615278 61.287964,58.4584666 60.187459,59.5582409 L53.9541527,59.5509108 C53.9541527,58.5168454 55.5131357,58.3291429 55.6420663,57.2291068 L55.6420663,39.3654304 C55.5772071,38.7188123 55.2529114,38.0049145 54.5397232,37.6826526 L53.3055611,37.553329 C53.5649978,35.8061511 56.0958178,36.9716344 57.2010493,36.1302455 C57.7188722,35.9352129 58.29604,35.1364956 58.8805601,35.5226339 L58.8700566,57.5128857 M99.1339382,44.138624 C99.8665578,44.9881284 100.127833,46.267228 100.127833,46.267228 L100.117592,57.6589638 C100.441887,58.4985202 101.279279,58.3139592 102.055489,58.5726064 L102.341709,58.6527138 C102.40473,59.0396375 102.379784,59.4794425 101.928659,59.5430572 L95.8266464,59.5430572 C95.7053309,59.3029969 95.6998165,58.9990602 95.8164054,58.8448667 C96.2323443,58.6555935 96.7548938,58.3951137 96.8864502,57.9471932 L96.8817236,46.6719534 C96.6585241,45.1352536 94.786274,44.7860275 93.4885657,45.2412781 C91.8479179,45.9515108 91.1076832,46.3460264 90.9372638,48.1513214 C90.9020771,50.297727 90.9650981,54.0546568 90.9325372,57.7550403 C91.4550867,58.4663202 92.1238975,58.6307235 92.905621,58.6935528 L92.905621,59.5503873 L85.8506779,59.5503873 L85.8401744,58.9234033 C85.8401744,58.9234033 87.501304,58.4275755 87.501304,57.5788565 C87.501304,56.7290903 87.5320268,45.5645871 87.5320268,45.5645871 C87.207731,44.7860275 85.6986396,45.3695545 86.0229354,44.2705655 C87.7113742,44.0757947 89.2687817,43.5577149 90.8918361,43.0385878 L90.9808534,45.2412781 C93.1235688,43.5577149 97.0697364,41.5500572 99.133413,44.138624" id="Shape" fill="#26326F" fill-rule="nonzero"></path>
                        <path d="M65.3152712,44.9174454 C64.0165125,45.4336928 63.4338305,46.7931615 63.3012237,48.0222595 C63.4338305,49.7058228 63.9508656,51.6472478 65.7692853,52.2292042 C67.0680439,52.4894221 68.4954705,52.2946513 69.3404777,51.129168 C70.118525,49.8351464 69.9202713,48.3455686 69.5347926,46.9222234 C68.9465962,45.3043691 67.0680439,44.204333 65.3152712,44.9174454 M75.7625845,42.909526 C76.0879306,43.6862531 75.3125092,44.3991038 74.789172,45.046769 C74.1397927,45.7570018 73.2984617,45.1095983 72.4566056,45.2404927 C73.0392877,46.6646233 74.0793975,49.0584193 72.7806388,50.6765353 C70.9622192,53.3944257 67.7174232,54.0418292 64.5343354,54.1075382 C63.8849561,54.625618 63.7581262,55.5306216 64.0832098,56.2437341 C67.6478375,58.314221 73.0392877,55.0779889 75.3125092,59.6718572 C75.8311199,61.2897115 75.1142555,62.7156746 74.0137506,63.87854 C71.3505863,66.7912013 67.2626214,67.3092811 63.434093,66.6618776 C62.3945084,66.2749539 61.0957498,65.6914269 60.6391098,64.4620671 C60.0561652,62.8442128 60.9003845,61.2897115 62.0694249,60.3189989 C61.8737971,61.8735003 62.5872478,63.9447726 64.4075056,64.4620671 C66.3501292,65.3042414 69.6645109,65.6914269 71.4162333,64.2026345 C72.1924424,63.4259074 72.8420844,62.3269184 72.3247866,61.2268822 C69.6645109,58.3778356 64.4075056,61.0975586 61.5497639,58.248512 C60.9641933,57.7304321 60.771454,56.7589342 61.2884891,56.1123161 C61.6127849,55.2065272 63.1087469,54.7549416 62.8482599,53.5894583 C61.6127849,52.9420548 60.1777432,51.930765 59.9897305,50.3532262 C59.9183066,48.7759493 60.1777432,47.3039113 60.9641933,46.1457581 C62.5869852,44.3336566 63.8369025,43.4056156 66.8724161,42.909526 C69.8598761,42.909526 72.9744285,44.2700419 75.7625845,42.909526" id="Shape" fill="#26326F" fill-rule="nonzero"></path>
                        <path d="M78.2327468,45.3700781 C77.4549621,46.2750817 76.9647109,47.7719895 77.1629646,48.8712403 C81.0398091,48.8008192 82.072829,49.1241282 82.7776143,48.3455686 C83.167557,47.6353358 82.8083371,46.7785014 82.5793606,46.1457581 C81.8687984,44.4621949 79.4650708,44.3993656 78.2330094,45.3700781 M84.8777906,44.3485786 C86.048669,45.7088327 86.8248782,47.389778 86.4367736,49.2026649 C86.4367736,49.2026649 86.3477564,49.979392 85.6587263,49.979392 C84.9683833,49.979392 80.2060932,50.0071416 76.950006,49.9969318 C76.6916197,52.8609003 77.4113725,55.8041908 80.0747993,57.2291068 C81.3065981,57.8765102 82.8655812,57.487754 83.9689746,56.9696741 C84.877528,56.3222707 85.7800418,55.7026168 86.4367736,54.6413253 C86.5914377,54.9968344 86.4220687,55.7808916 85.8207429,56.8173131 C84.2559829,59.0503708 82.0216244,60.5944007 78.9714059,59.7530117 C77.2842801,59.2341465 75.4640223,57.8765102 74.6221662,56.1926853 C73.0650213,52.9569768 73.3901048,48.2319523 75.5299318,45.4486147 C77.6726473,42.6676332 82.4785269,41.2416701 84.8777906,44.3485786 M45.969124,45.8227108 C45.5153725,46.7277144 45.0343119,47.8701603 45.1910767,48.8785704 L49.280092,48.8492501 C50.8695353,48.8715021 51.1373747,48.1102206 50.6823102,46.7528461 C49.9533668,44.3488403 47.1381644,44.2703037 45.969124,45.8227108 M40.3859848,38.3468105 C40.1832671,38.9127977 41.0177708,42.7307243 40.0619516,44.3836582 C39.2169445,44.1899346 39.2169445,42.8286333 38.8277895,42.0529533 C37.4652221,40.5641609 35.7775711,40.0460811 33.6994522,40.3055137 C31.946942,40.3055137 30.7130425,41.9872444 30.1285224,43.4132075 C29.2207568,47.0363633 28.9605324,51.8904496 30.9084078,55.0628052 C32.1425699,56.7445359 33.7653617,58.2330665 36.0377955,57.8435249 C38.4388972,57.9100192 40.5157031,56.3573504 41.8147244,54.2842455 C41.1650825,50.0144716 42.3341228,45.5465237 46.1647518,43.4132075 C47.5921785,42.6346479 49.7997531,42.3105534 51.2930892,43.0898984 C53.6301195,44.38392 54.7335129,46.7130542 54.4092171,49.301621 C54.4092171,49.301621 54.2369596,49.9961464 53.4662648,49.9961464 C52.6945196,49.9961464 45.1837243,49.9888164 45.1837243,49.9888164 C44.6454195,50.4820263 45.019607,53.2247866 45.3846038,54.2842455 C46.0339832,55.4497289 46.9427991,56.9385213 48.3053666,57.3916776 C49.9951183,57.8435249 51.6830319,57.3916776 52.8502341,56.292165 C53.8903439,55.5531354 54.1980967,55.1847987 54.7335129,54.2842455 C55.1788616,55.5151761 53.6949787,56.9385213 52.8502341,57.8435249 C51.4874041,59.0755025 49.9951183,60.1098297 48.0469803,59.9168915 C45.5802317,59.8514443 43.5031631,57.9100192 42.2692636,55.8395323 C39.7376558,58.8807317 36.3620912,61.0166658 32.2712378,60.0462151 C28.9605324,59.203779 27.0131822,55.6444997 26.3638028,52.603562 C26.0397696,48.9149591 25.9749105,44.9656145 28.2470817,42.182277 C29.5458403,40.2398047 32.45006,38.5010041 33.8294331,38.2986414 C35.2080184,38.0965405 39.1271395,38.4677569 40.3862474,38.3468105" id="Shape" fill="#26326F" fill-rule="nonzero"></path>
                        <path d="M34.2839724,71.7769673 C40.2570543,74.7524578 48.8258154,73.782007 54.2792362,70.4164513 L59.7316068,65.8856741 L54.2792362,82.5184199 L53.4993508,83.1032559 C41.9449679,84.0737067 31.1027226,79.9298531 25.1306911,69.7693096 C21.9494414,64.9806705 21.1065349,59.2197481 20.9109071,53.136302 C21.689217,60.7739877 26.9491108,68.6692735 34.2839724,71.7769673" id="Path" fill="#26326F" fill-rule="nonzero"></path>
                        <path d="M53.1747925,84.978972 C51.4230701,89.8985055 50.3834855,95.1395155 48.3058918,99.9299872 C38.1140762,93.1975669 30.0639258,82.9720998 25.2601468,72.4235854 C31.6221211,81.8084489 42.074161,85.5606665 53.1747925,84.978972 M105.57994,45.3700781 C104.801631,46.2750817 104.317156,47.7719895 104.50727,48.8712403 C108.38674,48.8008192 109.419497,49.1241282 110.124545,48.3455686 C110.515538,47.6353358 110.159732,46.7785014 109.92918,46.1457581 C109.21678,44.4621949 106.812002,44.3993656 105.57994,45.3700781 M112.229186,44.3485786 C113.392712,45.7088327 114.176536,47.389778 113.783705,49.2026649 C113.783705,49.2026649 113.694687,49.979392 113.005395,49.979392 C112.315314,49.979392 107.550136,50.0071416 104.296937,49.9969318 C104.038551,52.8609003 104.762768,55.8041908 107.421468,57.2291068 C108.658256,57.8765102 110.212775,57.487754 111.315643,56.9696741 C112.229448,56.3222707 113.126973,55.7026168 113.783705,54.6413253 C113.938369,54.9968344 113.765061,55.7808916 113.167674,56.8173131 C111.600026,59.0503708 109.368555,60.5944007 106.318074,59.7530117 C104.629636,59.2341465 102.81568,57.8765102 101.968835,56.1926853 C100.409064,52.9569768 100.734147,48.2319523 102.876863,45.4486147 C105.019578,42.6676332 109.82257,41.2416701 112.229186,44.3485786" id="Shape" fill="#26326F" fill-rule="nonzero"></path>
                    </g>
                </g>
            </g>
        </g>
    </g>
</svg>