<?xml version="1.0" encoding="UTF-8"?>
<svg width="1025px" height="547px" viewBox="0 0 1025 547" version="1.1" xmlns="http://www.w3.org/2000/svg" xmlns:xlink="http://www.w3.org/1999/xlink">
    <title>background-hero</title>
    <g id="background-hero" stroke="none" stroke-width="1" fill="none" fill-rule="evenodd" opacity="0.25">
        <g transform="translate(38.000000, 0.000000)" fill="#792877" id="Group">
            <g transform="translate(619.188669, 407.098906)" opacity="0.200000003">
                <g id="icon-bolt" transform="translate(4.482512, 8.521500) rotate(-263.000000) translate(-4.482512, -8.521500) ">
                    <path d="M8.73970082,4.49872542 C8.64214026,4.39671805 8.53139583,4.34571437 8.40770725,4.34546374 C8.38145939,4.34546374 8.34262692,4.35235613 8.2903709,4.36589027 L4.42354468,5.36641463 L6.09322066,0.639237816 C6.12570089,0.571191132 6.14212079,0.510036838 6.14212079,0.455524301 C6.14212079,0.339857471 6.09969273,0.239479213 6.01507632,0.154389529 C5.93045991,0.0691745294 5.82630741,0.0266923456 5.70273869,0.0266923456 L2.49989961,0.0266923456 C2.39574712,0.0266923456 2.30465863,0.0572694926 2.22651429,0.118549103 C2.14836996,0.179828713 2.09623378,0.258151324 2.07022562,0.353391618 L0.107508388,8.77664374 C0.074908297,8.93993071 0.117216503,9.07276586 0.234433006,9.17489854 C0.319049418,9.24996293 0.419846023,9.28718184 0.537062526,9.28718184 C0.589198701,9.28718184 0.628270868,9.28392362 0.654279029,9.27703123 L4.61878566,8.24580441 L2.6951406,16.4954936 C2.66913244,16.6043934 2.68375454,16.7065261 2.73912675,16.801641 C2.79449896,16.897132 2.87755728,16.9616698 2.98818186,16.9957558 C3.05326218,17.0091646 3.09892628,17.016057 3.12493444,17.016057 C3.31370335,17.016057 3.45033609,16.9310927 3.53507235,16.7609133 L8.80801719,4.94798391 C8.87968945,4.78457162 8.85703718,4.63481879 8.73970082,4.49872542 L8.73970082,4.49872542 Z" id="Shape"></path>
                </g>
            </g>
            <g transform="translate(205.011300, 361.970359)" opacity="0.76">
                <g id="icon-bolt" transform="translate(5.827266, 10.315500) rotate(-157.000000) translate(-5.827266, -10.315500) ">
                    <path d="M11.3616111,5.44582551 C11.2347823,5.3223429 11.0908146,5.2606016 10.9300194,5.26029821 C10.8958972,5.26029821 10.845415,5.26864163 10.7774822,5.28502507 L5.75060808,6.49618613 L7.92118685,0.773814199 C7.96341116,0.691441897 7.98475703,0.617413015 7.98475703,0.551424154 C7.98475703,0.411406412 7.92960055,0.28989589 7.81959922,0.186892588 C7.70959788,0.0837375882 7.57419964,0.0323117868 7.41356029,0.0323117868 L3.2498695,0.0323117868 C3.11447125,0.0323117868 2.99605622,0.0693262279 2.89446858,0.143506809 C2.79288094,0.21768739 2.72510392,0.312498971 2.69129331,0.427789853 L0.139760904,10.6243582 C0.0973807861,10.8220214 0.152381454,10.9828218 0.304762908,11.1064561 C0.414764244,11.1973236 0.54579983,11.242378 0.698181284,11.242378 C0.765958311,11.242378 0.816752129,11.2384339 0.850562738,11.2300904 L6.00442136,9.98176324 L3.50368278,19.9682291 C3.46987217,20.1000551 3.4888809,20.2236894 3.56086478,20.3388286 C3.63284865,20.4544229 3.74082447,20.5325477 3.88463641,20.5738097 C3.96924084,20.5900414 4.02860417,20.5983848 4.06241478,20.5983848 C4.30781436,20.5983848 4.48543691,20.4955332 4.59559406,20.2895266 L11.4504223,5.98966474 C11.5435963,5.79184985 11.5141483,5.61057011 11.3616111,5.44582551 L11.3616111,5.44582551 Z" id="Shape"></path>
                </g>
            </g>
            <g transform="translate(510.391739, 481.646884)" opacity="0.77">
                <g id="icon-keyboard" transform="translate(10.758030, 6.279000) rotate(-37.000000) translate(-10.758030, -6.279000) ">
                    <path d="M21.0946632,0.387266923 C20.8270917,0.134992308 20.5042194,0.00879307692 20.1260465,0.00879307692 L2.31802591,0.00879307692 C1.93985292,0.00879307692 1.61711202,0.134992308 1.3495405,0.387266923 C1.08196899,0.639541538 0.948117553,0.943955385 0.948117553,1.30038462 L0.948117553,10.3411538 C0.948117553,10.6977069 1.08196899,11.0019969 1.3495405,11.2542715 C1.61711202,11.5065462 1.93985292,11.6328692 2.31802591,11.6328692 L20.1260465,11.6328692 C20.5042194,11.6328692 20.8270917,11.5065462 21.0946632,11.2542715 C21.3621034,11.0019969 21.4960862,10.6977069 21.4960862,10.3411538 L21.4960862,1.30038462 C21.4960862,0.943955385 21.3621034,0.639541538 21.0946632,0.387266923 L21.0946632,0.387266923 Z M20.1260465,1.30038462 L20.1260465,10.3411538 L2.31802591,10.3411538 L2.31802591,1.30038462 L20.1260465,1.30038462 Z M4.88642347,7.75797077 L3.85909072,7.75797077 C3.74494264,7.75797077 3.68780292,7.81196769 3.68780292,7.91946615 L3.68780292,8.88806692 C3.68780292,8.99568923 3.74494264,9.04956231 3.85909072,9.04956231 L4.88642347,9.04956231 C5.00057156,9.04956231 5.05771128,8.99568923 5.05771128,8.88806692 L5.05771128,7.91946615 C5.05771128,7.81196769 5.00070291,7.75797077 4.88642347,7.75797077 Z M15.8454276,7.75809462 L6.59890744,7.75809462 C6.48475935,7.75809462 6.42761964,7.81209154 6.42761964,7.91959 L6.42761964,8.88819077 C6.42761964,8.99568923 6.48475935,9.04968615 6.59890744,9.04968615 L15.8451649,9.04968615 C15.959313,9.04968615 16.0165841,8.99581308 16.0165841,8.88819077 L16.0165841,7.91959 C16.0165841,7.81196769 15.959313,7.75809462 15.8454276,7.75809462 Z M18.5849816,7.75809462 L17.5577802,7.75809462 C17.4436322,7.75809462 17.3863611,7.81209154 17.3863611,7.91959 L17.3863611,8.88819077 C17.3863611,8.99568923 17.4436322,9.04968615 17.5577802,9.04968615 L18.5849816,9.04968615 C18.6991297,9.04968615 18.7564008,8.99581308 18.7564008,8.88819077 L18.7564008,7.91959 C18.7562694,7.81196769 18.6992611,7.75809462 18.5849816,7.75809462 Z M6.25633183,5.17491154 L3.85909072,5.17491154 C3.74494264,5.17491154 3.68780292,5.22878462 3.68780292,5.33640692 L3.68780292,6.30500769 C3.68780292,6.41263 3.74494264,6.46662692 3.85909072,6.46662692 L6.25633183,6.46662692 C6.37047992,6.46662692 6.42761964,6.41263 6.42761964,6.30500769 L6.42761964,5.33640692 C6.42761964,5.22878462 6.37047992,5.17503538 6.25633183,5.17491154 Z M8.9960172,5.17491154 L7.96855309,5.17491154 C7.85453636,5.17491154 7.79739664,5.22878462 7.79739664,5.33640692 L7.79739664,6.30500769 C7.79739664,6.41263 7.85453636,6.46662692 7.96855309,6.46662692 L8.9960172,6.46662692 C9.11016528,6.46662692 9.16717364,6.41263 9.16717364,6.30500769 L9.16717364,5.33640692 C9.16717364,5.22878462 9.11029663,5.17503538 8.9960172,5.17491154 Z M11.7357026,5.17491154 L10.7083698,5.17491154 C10.5942217,5.17491154 10.537082,5.22878462 10.537082,5.33640692 L10.537082,6.30500769 C10.537082,6.41263 10.5942217,6.46662692 10.7083698,6.46662692 L11.7357026,6.46662692 C11.8498506,6.46662692 11.9071217,6.41263 11.9071217,6.30500769 L11.9071217,5.33640692 C11.9071217,5.22878462 11.8498506,5.17503538 11.7357026,5.17491154 Z M14.4755193,5.17491154 L13.4480552,5.17491154 C13.3340384,5.17491154 13.2768987,5.22878462 13.2768987,5.33640692 L13.2768987,6.30500769 C13.2768987,6.41263 13.3340384,6.46662692 13.4480552,6.46662692 L14.4755193,6.46662692 C14.5896674,6.46662692 14.6466757,6.41263 14.6466757,6.30500769 L14.6466757,5.33640692 C14.6466757,5.22878462 14.5896674,5.17503538 14.4755193,5.17491154 Z M18.5849816,2.59185231 L17.5577802,2.59185231 C17.4436322,2.59185231 17.3863611,2.64572538 17.3863611,2.75334769 L17.3863611,5.17491154 L16.1877405,5.17491154 C16.0735924,5.17491154 16.0164527,5.22878462 16.0164527,5.33640692 L16.0164527,6.30500769 C16.0164527,6.41263 16.0735924,6.46662692 16.1877405,6.46662692 L18.5849816,6.46662692 C18.6991297,6.46662692 18.7564008,6.41263 18.7564008,6.30500769 L18.7564008,2.75334769 C18.7564008,2.64572538 18.6992611,2.59197615 18.5849816,2.59185231 Z M4.88642347,2.59185231 L3.85909072,2.59185231 C3.74494264,2.59185231 3.68780292,2.64572538 3.68780292,2.75334769 L3.68780292,3.72194846 C3.68780292,3.82957077 3.74494264,3.88344385 3.85909072,3.88344385 L4.88642347,3.88344385 C5.00057156,3.88344385 5.05771128,3.82957077 5.05771128,3.72194846 L5.05771128,2.75334769 C5.05771128,2.64572538 5.00070291,2.59197615 4.88642347,2.59185231 Z M7.62624019,2.59185231 L6.59890744,2.59185231 C6.48475935,2.59185231 6.42761964,2.64572538 6.42761964,2.75334769 L6.42761964,3.72194846 C6.42761964,3.82957077 6.48475935,3.88344385 6.59890744,3.88344385 L7.62624019,3.88344385 C7.74038828,3.88344385 7.79752799,3.82957077 7.79752799,3.72194846 L7.79752799,2.75334769 C7.79752799,2.64572538 7.74038828,2.59197615 7.62624019,2.59185231 Z M10.3657942,2.59185231 L9.33846145,2.59185231 C9.22431336,2.59185231 9.16717364,2.64572538 9.16717364,2.75334769 L9.16717364,3.72194846 C9.16717364,3.82957077 9.22431336,3.88344385 9.33846145,3.88344385 L10.3657942,3.88344385 C10.4799423,3.88344385 10.537082,3.82957077 10.537082,3.72194846 L10.537082,2.75334769 C10.537082,2.64572538 10.4800736,2.59197615 10.3657942,2.59185231 Z M13.1057423,2.59185231 L12.0782782,2.59185231 C11.9641301,2.59185231 11.9071217,2.64572538 11.9071217,2.75334769 L11.9071217,3.72194846 C11.9071217,3.82957077 11.9639987,3.88344385 12.0782782,3.88344385 L13.1057423,3.88344385 C13.2198904,3.88344385 13.2768987,3.82957077 13.2768987,3.72194846 L13.2768987,2.75334769 C13.2768987,2.64572538 13.2198904,2.59197615 13.1057423,2.59185231 Z M15.8451649,2.59185231 L14.8179635,2.59185231 C14.7038154,2.59185231 14.6465444,2.64572538 14.6465444,2.75334769 L14.6465444,3.72194846 C14.6465444,3.82957077 14.7038154,3.88344385 14.8179635,3.88344385 L15.8451649,3.88344385 C15.959313,3.88344385 16.0165841,3.82957077 16.0165841,3.72194846 L16.0165841,2.75334769 C16.0165841,2.64572538 15.959313,2.59197615 15.8451649,2.59185231 Z" id="Combined-Shape"></path>
                </g>
            </g>
            <g transform="translate(499.226794, 403.318803)" opacity="0.88">
                <g id="icon-keyboard" transform="translate(9.413276, 5.830500) rotate(-115.000000) translate(-9.413276, -5.830500) ">
                    <path d="M18.4578303,0.359605 C18.2237052,0.12535 17.941192,0.008165 17.6102906,0.008165 L2.02827267,0.008165 C1.6973713,0.008165 1.41497302,0.12535 1.18084794,0.359605 C0.946722864,0.59386 0.829602859,0.87653 0.829602859,1.2075 L0.829602859,9.6025 C0.829602859,9.933585 0.946722864,10.21614 1.18084794,10.450395 C1.41497302,10.68465 1.6973713,10.80195 2.02827267,10.80195 L17.6102906,10.80195 C17.941192,10.80195 18.2237052,10.68465 18.4578303,10.450395 C18.6918405,10.21614 18.8090754,9.933585 18.8090754,9.6025 L18.8090754,1.2075 C18.8090754,0.87653 18.6918405,0.59386 18.4578303,0.359605 L18.4578303,0.359605 Z M17.6102906,1.2075 L17.6102906,9.6025 L2.02827267,9.6025 L2.02827267,1.2075 L17.6102906,1.2075 Z M13.8647492,7.203945 L5.77404401,7.203945 C5.67416444,7.203945 5.62416718,7.254085 5.62416718,7.353905 L5.62416718,8.25332 C5.62416718,8.35314 5.67416444,8.40328 5.77404401,8.40328 L13.8645193,8.40328 C13.9643989,8.40328 14.0145111,8.353255 14.0145111,8.25332 L14.0145111,7.353905 C14.0145111,7.25397 13.9643989,7.203945 13.8647492,7.203945 Z M16.2618589,7.203945 L15.3630577,7.203945 C15.2631781,7.203945 15.213066,7.254085 15.213066,7.353905 L15.213066,8.25332 C15.213066,8.35314 15.2631781,8.40328 15.3630577,8.40328 L16.2618589,8.40328 C16.3617385,8.40328 16.4118507,8.353255 16.4118507,8.25332 L16.4118507,7.353905 C16.4117358,7.25397 16.3618534,7.203945 16.2618589,7.203945 Z M4.27562054,7.20383 L3.37670438,7.20383 C3.27682481,7.20383 3.22682755,7.25397 3.22682755,7.35379 L3.22682755,8.253205 C3.22682755,8.35314 3.27682481,8.403165 3.37670438,8.403165 L4.27562054,8.403165 C4.37550011,8.403165 4.42549737,8.35314 4.42549737,8.253205 L4.42549737,7.35379 C4.42549737,7.25397 4.37561505,7.20383 4.27562054,7.20383 Z M5.47429035,4.805275 L3.37670438,4.805275 C3.27682481,4.805275 3.22682755,4.8553 3.22682755,4.955235 L3.22682755,5.85465 C3.22682755,5.954585 3.27682481,6.004725 3.37670438,6.004725 L5.47429035,6.004725 C5.57416993,6.004725 5.62416718,5.954585 5.62416718,5.85465 L5.62416718,4.955235 C5.62416718,4.8553 5.57416993,4.80539 5.47429035,4.805275 Z M7.87151505,4.805275 L6.97248395,4.805275 C6.87271931,4.805275 6.82272206,4.8553 6.82272206,4.955235 L6.82272206,5.85465 C6.82272206,5.954585 6.87271931,6.004725 6.97248395,6.004725 L7.87151505,6.004725 C7.97139462,6.004725 8.02127694,5.954585 8.02127694,5.85465 L8.02127694,4.955235 C8.02127694,4.8553 7.97150956,4.80539 7.87151505,4.805275 Z M10.2687397,4.805275 L9.36982358,4.805275 C9.26994401,4.805275 9.21994675,4.8553 9.21994675,4.955235 L9.21994675,5.85465 C9.21994675,5.954585 9.26994401,6.004725 9.36982358,6.004725 L10.2687397,6.004725 C10.3686193,6.004725 10.4187315,5.954585 10.4187315,5.85465 L10.4187315,4.955235 C10.4187315,4.8553 10.3686193,4.80539 10.2687397,4.805275 Z M12.6660794,4.805275 L11.7670483,4.805275 C11.6672836,4.805275 11.6172864,4.8553 11.6172864,4.955235 L11.6172864,5.85465 C11.6172864,5.954585 11.6672836,6.004725 11.7670483,6.004725 L12.6660794,6.004725 C12.7659589,6.004725 12.8158413,5.954585 12.8158413,5.85465 L12.8158413,4.955235 C12.8158413,4.8553 12.7659589,4.80539 12.6660794,4.805275 Z M16.2618589,2.40672 L15.3630577,2.40672 C15.2631781,2.40672 15.213066,2.456745 15.213066,2.55668 L15.213066,4.805275 L14.164273,4.805275 C14.0643934,4.805275 14.0143961,4.8553 14.0143961,4.955235 L14.0143961,5.85465 C14.0143961,5.954585 14.0643934,6.004725 14.164273,6.004725 L16.2618589,6.004725 C16.3617385,6.004725 16.4118507,5.954585 16.4118507,5.85465 L16.4118507,2.55668 C16.4118507,2.456745 16.3618534,2.406835 16.2618589,2.40672 Z M4.27562054,2.40672 L3.37670438,2.40672 C3.27682481,2.40672 3.22682755,2.456745 3.22682755,2.55668 L3.22682755,3.456095 C3.22682755,3.55603 3.27682481,3.606055 3.37670438,3.606055 L4.27562054,3.606055 C4.37550011,3.606055 4.42549737,3.55603 4.42549737,3.456095 L4.42549737,2.55668 C4.42549737,2.456745 4.37561505,2.406835 4.27562054,2.40672 Z M6.67296017,2.40672 L5.77404401,2.40672 C5.67416444,2.40672 5.62416718,2.456745 5.62416718,2.55668 L5.62416718,3.456095 C5.62416718,3.55603 5.67416444,3.606055 5.77404401,3.606055 L6.67296017,3.606055 C6.77283974,3.606055 6.822837,3.55603 6.822837,3.456095 L6.822837,2.55668 C6.822837,2.456745 6.77283974,2.406835 6.67296017,2.40672 Z M9.07006992,2.40672 L8.17115377,2.40672 C8.07127419,2.40672 8.02127694,2.456745 8.02127694,2.55668 L8.02127694,3.456095 C8.02127694,3.55603 8.07127419,3.606055 8.17115377,3.606055 L9.07006992,3.606055 C9.1699495,3.606055 9.21994675,3.55603 9.21994675,3.456095 L9.21994675,2.55668 C9.21994675,2.456745 9.17006443,2.406835 9.07006992,2.40672 Z M11.4675245,2.40672 L10.5684934,2.40672 C10.4686138,2.40672 10.4187315,2.456745 10.4187315,2.55668 L10.4187315,3.456095 C10.4187315,3.55603 10.4684989,3.606055 10.5684934,3.606055 L11.4675245,3.606055 C11.5674041,3.606055 11.6172864,3.55603 11.6172864,3.456095 L11.6172864,2.55668 C11.6172864,2.456745 11.5674041,2.406835 11.4675245,2.40672 Z M13.8645193,2.40672 L12.9657181,2.40672 C12.8658385,2.40672 12.8157263,2.456745 12.8157263,2.55668 L12.8157263,3.456095 C12.8157263,3.55603 12.8658385,3.606055 12.9657181,3.606055 L13.8645193,3.606055 C13.9643989,3.606055 14.0145111,3.55603 14.0145111,3.456095 L14.0145111,2.55668 C14.0145111,2.456745 13.9643989,2.406835 13.8645193,2.40672 Z" id="Combined-Shape"></path>
                </g>
            </g>
            <g transform="translate(539.381705, 127.589651)" opacity="0.200000003">
                <g id="icon-circle" transform="translate(10.309779, 10.315500) rotate(-79.000000) translate(-10.309779, -10.315500) ">
                    <rect id="Rectangle-Copy-31" x="0" y="0" width="20.6195575" height="20.631" rx="10.3097787"></rect>
                </g>
            </g>
            <g transform="translate(84.618179, 256.520642)" opacity="0.81">
                <g id="icon-circle" transform="translate(7.620271, 7.624500) rotate(-346.000000) translate(-7.620271, -7.624500) ">
                    <rect id="Rectangle-Copy-31" x="0" y="0" width="15.2405425" height="15.249" rx="7.62027123"></rect>
                </g>
            </g>
            <g transform="translate(961.834746, 409.356955)" opacity="0.89">
                <g id="icon-circle-alt" transform="translate(8.965025, 8.521500) rotate(-326.000000) translate(-8.965025, -8.521500) ">
                    <path d="M16.2776728,4.2731941 C15.5194065,2.97657348 14.4907665,1.94993562 13.1916171,1.19314526 C11.8921967,0.436354905 10.4736492,0.0580273571 8.93502597,0.0580273571 C7.39653824,0.0580273571 5.97758417,0.436354905 4.67843482,1.19314526 C3.37914994,1.94980036 2.35050989,2.97643821 1.5922436,4.2731941 C0.833841793,5.56994998 0.454776413,6.98614212 0.454776413,8.5215 C0.454776413,10.0569931 0.833977318,11.4729148 1.59210808,12.7698059 C2.35037436,14.0662913 3.37901442,15.0930644 4.67829929,15.8498547 C5.97758417,16.6066451 7.39640271,16.9849726 8.93489044,16.9849726 C10.4733782,16.9849726 11.8923322,16.6066451 13.1914816,15.8498547 C14.4906309,15.0931996 15.519271,14.0664265 16.2775373,12.7698059 C17.035668,11.47305 17.4147334,10.0568579 17.4147334,8.5215 C17.4147334,6.98600686 17.035668,5.56981471 16.2776728,4.2731941 L16.2776728,4.2731941 Z M14.1355536,11.5299953 C13.5981942,12.4482884 12.8694725,13.1755916 11.949253,13.7120403 C11.0291691,14.2483538 10.0243815,14.5163076 8.93489044,14.5163076 C7.84553488,14.5163076 6.84074735,14.2483538 5.92052785,13.7120403 C5.00044388,13.1755916 4.2717222,12.4482884 3.7343628,11.5299953 C3.19686788,10.6117022 2.92825594,9.60887045 2.92825594,8.5215 C2.92825594,7.43412955 3.1970034,6.43129779 3.7343628,5.51300471 C4.27158667,4.59471164 5.00044388,3.86727312 5.92052785,3.33095967 C6.84061182,2.79464621 7.84539935,2.52655712 8.93489044,2.52655712 C10.0243815,2.52655712 11.0291691,2.79464621 11.949253,3.33095967 C12.8694725,3.86727312 13.5981942,4.59471164 14.1355536,5.51300471 C14.672913,6.43129779 14.9413894,7.43412955 14.9413894,8.5215 C14.9413894,9.60887045 14.672913,10.6117022 14.1355536,11.5299953 L14.1355536,11.5299953 Z" id="Shape"></path>
                </g>
            </g>
            <g transform="translate(802.526714, 487.895231)" opacity="0.83">
                <g id="icon-circle-alt" transform="translate(8.516774, 8.521500) rotate(-73.000000) translate(-8.516774, -8.521500) ">
                    <path d="M15.4637892,4.2731941 C14.7434362,2.97657348 13.7662281,1.94993562 12.5320363,1.19314526 C11.2975869,0.436354905 9.94996677,0.0580273571 8.48827467,0.0580273571 C7.02671132,0.0580273571 5.67870496,0.436354905 4.44451308,1.19314526 C3.21019245,1.94980036 2.23298439,2.97643821 1.51263142,4.2731941 C0.792149703,5.56994998 0.432037592,6.98614212 0.432037592,8.5215 C0.432037592,10.0569931 0.792278453,11.4729148 1.51250267,12.7698059 C2.23285565,14.0662913 3.2100637,15.0930644 4.44438433,15.8498547 C5.67870496,16.6066451 7.02658257,16.9849726 8.48814592,16.9849726 C9.94970927,16.9849726 11.2977156,16.6066451 12.5319075,15.8498547 C13.7660994,15.0931996 14.7433074,14.0664265 15.4636604,12.7698059 C16.1838846,11.47305 16.5439968,10.0568579 16.5439968,8.5215 C16.5439968,6.98600686 16.1838846,5.56981471 15.4637892,4.2731941 L15.4637892,4.2731941 Z M13.4287759,11.5299953 C12.9182845,12.4482884 12.2259989,13.1755916 11.3517904,13.7120403 C10.4777106,14.2483538 9.52316246,14.5163076 8.48814592,14.5163076 C7.45325813,14.5163076 6.49870998,14.2483538 5.62450146,13.7120403 C4.75042169,13.1755916 4.05813609,12.4482884 3.54764466,11.5299953 C3.03702448,10.6117022 2.78184315,9.60887045 2.78184315,8.5215 C2.78184315,7.43412955 3.03715323,6.43129779 3.54764466,5.51300471 C4.05800734,4.59471164 4.75042169,3.86727312 5.62450146,3.33095967 C6.49858123,2.79464621 7.45312938,2.52655712 8.48814592,2.52655712 C9.52316246,2.52655712 10.4777106,2.79464621 11.3517904,3.33095967 C12.2259989,3.86727312 12.9182845,4.59471164 13.4287759,5.51300471 C13.9392674,6.43129779 14.1943199,7.43412955 14.1943199,8.5215 C14.1943199,9.60887045 13.9392674,10.6117022 13.4287759,11.5299953 L13.4287759,11.5299953 Z" id="Shape"></path>
                </g>
            </g>
            <g transform="translate(704.307709, 120.690189)" opacity="0.200000003">
                <g id="icon-circle-alt" transform="translate(10.758030, 10.315500) rotate(-57.000000) translate(-10.758030, -10.315500) ">
                    <path d="M19.5332074,5.1728139 C18.6232878,3.60322052 17.3889198,2.36044838 15.8299405,1.44433374 C14.2706361,0.528219095 12.5683791,0.0702436429 10.7220312,0.0702436429 C8.87584588,0.0702436429 7.173101,0.528219095 5.61412178,1.44433374 C4.05497993,2.36028464 2.82061187,3.60305679 1.91069232,5.1728139 C1.00061015,6.74257102 0.545731695,8.45690888 0.545731695,10.3155 C0.545731695,12.1742549 1.00077278,13.8882652 1.91052969,15.4581861 C2.82044924,17.0276157 4.0548173,18.2705516 5.61395915,19.1866663 C7.173101,20.1027809 8.87568325,20.5607564 10.7218685,20.5607564 C12.5680538,20.5607564 14.2707987,20.1027809 15.8297779,19.1866663 C17.3887571,18.2707154 18.6231252,17.0277795 19.5330447,15.4581861 C20.4428017,13.888429 20.8976801,12.1740911 20.8976801,10.3155 C20.8976801,8.45674514 20.4428017,6.74240729 19.5332074,5.1728139 L19.5332074,5.1728139 Z M16.9626643,13.9573627 C16.3178331,15.0689806 15.443367,15.9494004 14.3391036,16.5987857 C13.2350029,17.2480072 12.0292578,17.5723724 10.7218685,17.5723724 C9.41464185,17.5723724 8.20889681,17.2480072 7.10463342,16.5987857 C6.00053266,15.9494004 5.12606664,15.0689806 4.48123536,13.9573627 C3.83624145,12.8457448 3.51390713,11.6317905 3.51390713,10.3155 C3.51390713,8.99920945 3.83640409,7.78525521 4.48123536,6.67363729 C5.12590401,5.56201936 6.00053266,4.68143588 7.10463342,4.03221433 C8.20873418,3.38299279 9.41447922,3.05846388 10.7218685,3.05846388 C12.0292578,3.05846388 13.2350029,3.38299279 14.3391036,4.03221433 C15.443367,4.68143588 16.3178331,5.56201936 16.9626643,6.67363729 C17.6074956,7.78525521 17.9296673,8.99920945 17.9296673,10.3155 C17.9296673,11.6317905 17.6074956,12.8457448 16.9626643,13.9573627 L16.9626643,13.9573627 Z" id="Shape"></path>
                </g>
            </g>
            <g transform="translate(36.410004, 27.159994)" opacity="0.200000003">
                <g id="icon-circle-alt" transform="translate(8.965025, 8.521500) rotate(-76.000000) translate(-8.965025, -8.521500) ">
                    <path d="M16.2776728,4.2731941 C15.5194065,2.97657348 14.4907665,1.94993562 13.1916171,1.19314526 C11.8921967,0.436354905 10.4736492,0.0580273571 8.93502597,0.0580273571 C7.39653824,0.0580273571 5.97758417,0.436354905 4.67843482,1.19314526 C3.37914994,1.94980036 2.35050989,2.97643821 1.5922436,4.2731941 C0.833841793,5.56994998 0.454776413,6.98614212 0.454776413,8.5215 C0.454776413,10.0569931 0.833977318,11.4729148 1.59210808,12.7698059 C2.35037436,14.0662913 3.37901442,15.0930644 4.67829929,15.8498547 C5.97758417,16.6066451 7.39640271,16.9849726 8.93489044,16.9849726 C10.4733782,16.9849726 11.8923322,16.6066451 13.1914816,15.8498547 C14.4906309,15.0931996 15.519271,14.0664265 16.2775373,12.7698059 C17.035668,11.47305 17.4147334,10.0568579 17.4147334,8.5215 C17.4147334,6.98600686 17.035668,5.56981471 16.2776728,4.2731941 L16.2776728,4.2731941 Z M14.1355536,11.5299953 C13.5981942,12.4482884 12.8694725,13.1755916 11.949253,13.7120403 C11.0291691,14.2483538 10.0243815,14.5163076 8.93489044,14.5163076 C7.84553488,14.5163076 6.84074735,14.2483538 5.92052785,13.7120403 C5.00044388,13.1755916 4.2717222,12.4482884 3.7343628,11.5299953 C3.19686788,10.6117022 2.92825594,9.60887045 2.92825594,8.5215 C2.92825594,7.43412955 3.1970034,6.43129779 3.7343628,5.51300471 C4.27158667,4.59471164 5.00044388,3.86727312 5.92052785,3.33095967 C6.84061182,2.79464621 7.84539935,2.52655712 8.93489044,2.52655712 C10.0243815,2.52655712 11.0291691,2.79464621 11.949253,3.33095967 C12.8694725,3.86727312 13.5981942,4.59471164 14.1355536,5.51300471 C14.672913,6.43129779 14.9413894,7.43412955 14.9413894,8.5215 C14.9413894,9.60887045 14.672913,10.6117022 14.1355536,11.5299953 L14.1355536,11.5299953 Z" id="Shape"></path>
                </g>
            </g>
            <g transform="translate(837.391731, 233.118857)" opacity="0.97">
                <g id="icon-power" transform="translate(9.413276, 10.315500) rotate(-62.000000) translate(-9.413276, -10.315500) ">
                    <path d="M13.8468942,3.1608895 C14.277066,3.10432543 14.662562,3.20539649 15.0033824,3.46410268 C16.1882599,4.34531134 17.1071749,5.43684903 17.7605758,6.73841803 C18.4139767,8.04013589 18.7401542,9.42669985 18.7401542,10.8981099 C18.7401542,12.1593398 18.4927195,13.3640056 17.9977007,14.5121074 C17.5025325,15.6602091 16.8371783,16.6506758 16.0013391,17.4833584 C15.1654999,18.316041 14.1712787,18.9790315 13.0188247,19.472032 C11.8663707,19.9653302 10.6571383,20.2121282 9.39112735,20.2121282 C8.1251164,20.2121282 6.91588395,19.9653302 5.76342999,19.472032 C4.61097603,18.9791803 3.61675476,18.316041 2.78091559,17.4833584 C1.94492701,16.6505269 1.27957274,15.6602091 0.784404529,14.5121074 C0.289385733,13.3640056 0.0418016263,12.1594887 0.0418016263,10.8981099 C0.0418016263,9.42669985 0.36842737,8.04013589 1.02182827,6.73841803 C1.67522918,5.43684903 2.59414424,4.34531134 3.77917112,3.46410268 C4.12806001,3.20539649 4.51564793,3.10432543 4.94178545,3.1608895 C5.36792297,3.21745357 5.7066515,3.41959569 5.95826986,3.76716701 C6.21795675,4.10670028 6.31731911,4.48880545 6.25650636,4.91318483 C6.19554419,5.33771305 5.99472763,5.67918141 5.65390727,5.93803645 C4.85856013,6.53642476 4.24385825,7.26818519 3.80965221,8.1331689 C3.37544617,8.99830145 3.15834314,9.91999807 3.15834314,10.8981099 C3.15834314,11.7391283 3.32270194,12.541445 3.65141952,13.3055065 C3.9801371,14.069568 4.42450351,14.7304745 4.98436932,15.2883748 C5.54438454,15.8461263 6.20779639,16.2888146 6.97475428,16.6162908 C7.74171217,16.9437669 8.54721966,17.1076539 9.39112735,17.1076539 C10.2351844,17.1076539 11.0406919,16.9437669 11.8076498,16.6162908 C12.5746077,16.2888146 13.2378701,15.8461263 13.7978854,15.2883748 C14.3579006,14.7304745 14.802267,14.069568 15.1309846,13.3055065 C15.4595528,12.541445 15.6239115,11.7391283 15.6239115,10.8981099 C15.6239115,9.91999807 15.4069579,8.9981526 14.9727519,8.1331689 C14.5388447,7.26803634 13.9236946,6.53627591 13.1286463,5.93803645 C12.7878259,5.67933026 12.5867105,5.3378619 12.5260472,4.91318483 C12.4652344,4.4886566 12.5645968,4.10670028 12.8242837,3.76716701 C13.075902,3.41959569 13.4167224,3.21745357 13.8468942,3.1608895 Z M9.39112735,0.0318545022 C9.81323061,0.0318545022 10.1785554,0.185470606 10.4866534,0.492851667 C10.7951997,0.799935022 10.9495475,1.1637313 10.9495475,1.5842405 L10.9495475,1.5842405 L10.9495475,9.34602162 C10.9495475,9.76638197 10.7950503,10.1303271 10.4866534,10.4374105 C10.1785554,10.7447915 9.81308119,10.8982588 9.39112735,10.8982588 C8.9691735,10.8982588 8.60384874,10.7447915 8.29545188,10.4374105 C7.98705502,10.1303271 7.83285659,9.76638197 7.83285659,9.34602162 L7.83285659,9.34602162 L7.83285659,1.5842405 C7.83285659,1.16388015 7.98705502,0.799935022 8.29545188,0.492851667 C8.60384874,0.185619459 8.96902409,0.0318545022 9.39112735,0.0318545022 Z" id="Combined-Shape"></path>
                </g>
            </g>
            <g transform="translate(724.112672, 258.741732)" opacity="0.93">
                <g id="icon-power" transform="translate(8.965025, 9.867000) rotate(-2.000000) translate(-8.965025, -9.867000) ">
                    <path d="M13.1875183,3.02345952 C13.5972057,2.96935476 13.9643448,3.06603143 14.2889356,3.31348952 C15.4173904,4.15638476 16.2925476,5.20046429 16.9148341,6.44544333 C17.5371207,7.69056476 17.8477659,9.01684333 17.8477659,10.424279 C17.8477659,11.6306729 17.6121138,12.7829619 17.1406674,13.8811462 C16.6690786,14.9793305 16.0354079,15.9267333 15.2393706,16.7232124 C14.4433333,17.5196914 13.4964559,18.1538562 12.3988807,18.6254219 C11.3013055,19.0972724 10.1496555,19.33334 8.94393081,19.33334 C7.7382061,19.33334 6.58655614,19.0972724 5.48898094,18.6254219 C4.39140574,18.1539986 3.44452834,17.5196914 2.64849104,16.7232124 C1.85231144,15.926591 1.21864071,14.9793305 0.747051932,13.8811462 C0.27560546,12.7829619 0.0398110727,11.6308152 0.0398110727,10.424279 C0.0398110727,9.01684333 0.350883209,7.69056476 0.973169785,6.44544333 C1.59545636,5.20046429 2.47061356,4.15638476 3.59921059,3.31348952 C3.93148573,3.06603143 4.30061707,2.96935476 4.70646233,3.02345952 C5.11230759,3.07756429 5.43490619,3.27091762 5.67454273,3.60337714 C5.92186357,3.9281481 6.01649439,4.29364 5.95857749,4.6995681 C5.90051828,5.10563857 5.70926441,5.43226048 5.38467359,5.67986095 C4.62720013,6.25223238 4.04176976,6.95217714 3.6282402,7.77955286 C3.21471063,8.60707095 3.00794585,9.48869381 3.00794585,10.424279 C3.00794585,11.2287314 3.16447803,11.9961648 3.4775424,12.7270062 C3.79060676,13.4578476 4.21381286,14.090019 4.7470184,14.6236629 C5.28036623,15.1571643 5.91218704,15.5806052 6.64262312,15.8938433 C7.37305921,16.2070814 8.1402092,16.3638429 8.94393081,16.3638429 C9.74779471,16.3638429 10.5149447,16.2070814 11.2453808,15.8938433 C11.9758169,15.5806052 12.6074954,15.1571643 13.1408432,14.6236629 C13.6741911,14.090019 14.0973972,13.4578476 14.4104615,12.7270062 C14.7233836,11.9961648 14.8799158,11.2287314 14.8799158,10.424279 C14.8799158,9.48869381 14.6732933,8.60692857 14.2597637,7.77955286 C13.8465188,6.95203476 13.2606615,6.25209 12.5034726,5.67986095 C12.1788818,5.43240286 11.9873433,5.10578095 11.9295687,4.6995681 C11.8716518,4.29349762 11.9662826,3.9281481 12.2136035,3.60337714 C12.45324,3.27091762 12.7778309,3.07756429 13.1875183,3.02345952 Z M8.94393081,0.0304695238 C9.34593391,0.0304695238 9.69386226,0.177406667 9.98728895,0.471423333 C10.2811425,0.765155238 10.4281405,1.11313429 10.4281405,1.51536048 L10.4281405,1.51536048 L10.4281405,8.93967286 C10.4281405,9.34175667 10.2810002,9.6898781 9.98728895,9.98361 C9.69386226,10.2776267 9.34579161,10.4244214 8.94393081,10.4244214 C8.54207,10.4244214 8.19414165,10.2776267 7.90043036,9.98361 C7.60671906,9.6898781 7.45986342,9.34175667 7.45986342,8.93967286 L7.45986342,8.93967286 L7.45986342,1.51536048 C7.45986342,1.11327667 7.60671906,0.765155238 7.90043036,0.471423333 C8.19414165,0.177549048 8.5419277,0.0304695238 8.94393081,0.0304695238 Z" id="Combined-Shape"></path>
                </g>
            </g>
            <g transform="translate(31.811059, 267.512897)" opacity="0.200000003">
                <g id="icon-power" transform="translate(9.413276, 10.764000) rotate(-135.000000) translate(-9.413276, -10.764000) ">
                    <path d="M13.8468942,3.29831948 C14.277066,3.2392961 14.662562,3.34476156 15.0033824,3.61471584 C16.1882599,4.53423792 17.1071749,5.67323377 17.7605758,7.03139273 C18.4139767,8.38970701 18.7401542,9.83655636 18.7401542,11.3719408 C18.7401542,12.6880068 18.4927195,13.9450494 17.9977007,15.1430686 C17.5025325,16.3410878 16.8371783,17.3746182 16.0013391,18.2435044 C15.1654999,19.1123906 14.1712787,19.8042068 13.0188247,20.3186421 C11.8663707,20.8333881 10.6571383,21.0909164 9.39112735,21.0909164 C8.1251164,21.0909164 6.91588395,20.8333881 5.76342999,20.3186421 C4.61097603,19.8043621 3.61675476,19.1123906 2.78091559,18.2435044 C1.94492701,17.3744629 1.27957274,16.3410878 0.784404529,15.1430686 C0.289385733,13.9450494 0.0418016263,12.6881621 0.0418016263,11.3719408 C0.0418016263,9.83655636 0.36842737,8.38970701 1.02182827,7.03139273 C1.67522918,5.67323377 2.59414424,4.53423792 3.77917112,3.61471584 C4.12806001,3.34476156 4.51564793,3.2392961 4.94178545,3.29831948 C5.36792297,3.35734286 5.7066515,3.56827377 5.95826986,3.93095688 C6.21795675,4.28525247 6.31731911,4.68397091 6.25650636,5.12680156 C6.19554419,5.56978753 5.99472763,5.92610234 5.65390727,6.19621195 C4.85856013,6.82061714 4.24385825,7.58419325 3.80965221,8.48678494 C3.37544617,9.38953195 3.15834314,10.3513023 3.15834314,11.3719408 C3.15834314,12.2495252 3.32270194,13.0867252 3.65141952,13.8840068 C3.9801371,14.6812883 4.42450351,15.3709299 4.98436932,15.9530868 C5.54438454,16.5350883 6.20779639,16.9970239 6.97475428,17.3387382 C7.74171217,17.6804525 8.54721966,17.8514649 9.39112735,17.8514649 C10.2351844,17.8514649 11.0406919,17.6804525 11.8076498,17.3387382 C12.5746077,16.9970239 13.2378701,16.5350883 13.7978854,15.9530868 C14.3579006,15.3709299 14.802267,14.6812883 15.1309846,13.8840068 C15.4595528,13.0867252 15.6239115,12.2495252 15.6239115,11.3719408 C15.6239115,10.3513023 15.4069579,9.38937662 14.9727519,8.48678494 C14.5388447,7.58403792 13.9236946,6.82046182 13.1286463,6.19621195 C12.7878259,5.92625766 12.5867105,5.56994286 12.5260472,5.12680156 C12.4652344,4.68381558 12.5645968,4.28525247 12.8242837,3.93095688 C13.075902,3.56827377 13.4167224,3.35734286 13.8468942,3.29831948 Z M9.39112735,0.0332394805 C9.81323061,0.0332394805 10.1785554,0.193534545 10.4866534,0.51428 C10.7951997,0.834714805 10.9495475,1.21432831 10.9495475,1.65312052 L10.9495475,1.65312052 L10.9495475,9.75237039 C10.9495475,10.1910073 10.7950503,10.5707761 10.4866534,10.8912109 C10.1785554,11.2119564 9.81308119,11.3720961 9.39112735,11.3720961 C8.9691735,11.3720961 8.60384874,11.2119564 8.29545188,10.8912109 C7.98705502,10.5707761 7.83285659,10.1910073 7.83285659,9.75237039 L7.83285659,9.75237039 L7.83285659,1.65312052 C7.83285659,1.21448364 7.98705502,0.834714805 8.29545188,0.51428 C8.60384874,0.19368987 8.96902409,0.0332394805 9.39112735,0.0332394805 Z" id="Combined-Shape"></path>
                </g>
            </g>
            <g transform="translate(175.496353, 275.373832)" opacity="0.87">
                <g id="icon-ipad" transform="translate(8.068522, 10.315500) rotate(-221.000000) translate(-8.068522, -10.315500) ">
                    <path d="M15.4553407,0.672307226 C15.0168937,0.224043881 14.4903797,0 13.8747686,0 L2.23789913,0 C1.6224597,0 1.09560235,0.224043881 0.657327076,0.672307226 C0.219051802,1.12074615 1.0658141e-14,1.65943473 1.0658141e-14,2.28889971 L1.0658141e-14,17.8532773 C1.0658141e-14,18.4827423 0.219051802,19.0210797 0.657327076,19.4696942 C1.09560235,19.9181331 1.6224597,20.1418258 2.23789913,20.1418258 L13.8747686,20.1418258 C14.4903797,20.1418258 15.0168937,19.9181331 15.4553407,19.4696942 C15.8936159,19.0210797 16.1128394,18.4825667 16.1128394,17.8532773 L16.1128394,2.28889971 C16.1128394,1.65943473 15.8931009,1.12057057 15.4553407,0.672307226 L15.4553407,0.672307226 Z M8.68567862,18.9547093 C8.50868614,19.1357354 8.29890455,19.2263362 8.05633386,19.2263362 C7.81376318,19.2263362 7.60398159,19.1357354 7.42681744,18.9547093 C7.24965329,18.7733321 7.16107121,18.5587697 7.16107121,18.3110221 C7.16107121,18.0630989 7.24965329,17.8481854 7.42681744,17.6673349 C7.60415326,17.4859577 7.81393485,17.3951813 8.05633386,17.3951813 C8.29873288,17.3951813 8.50868614,17.4859577 8.68567862,17.6673349 C8.86284277,17.8481854 8.95159652,18.0630989 8.95159652,18.3110221 C8.95159652,18.5587697 8.86284277,18.7731565 8.68567862,18.9547093 L8.68567862,18.9547093 Z M14.3223141,16.0219468 C14.3223141,16.146084 14.2778514,16.2531896 14.1896126,16.343966 C14.1008589,16.4347424 13.9961398,16.4796916 13.8747686,16.4796916 L2.23789913,16.4796916 C2.11669962,16.4796916 2.01180883,16.4345668 1.92322675,16.343966 C1.83464468,16.2533652 1.79035364,16.146084 1.79035364,16.0219468 L1.79035364,2.28889971 C1.79035364,2.16493813 1.83464468,2.05765693 1.92322675,1.96705611 C2.01180883,1.87645529 2.11669962,1.83115489 2.23789913,1.83115489 L13.8747686,1.83115489 C13.9961398,1.83115489 14.1008589,1.87627971 14.1896126,1.96705611 C14.2781947,2.05765693 14.3223141,2.16493813 14.3223141,2.28889971 L14.3223141,16.0219468 L14.3223141,16.0219468 Z"></path>
                </g>
            </g>
            <g transform="translate(781.486673, 363.217271)" opacity="0.84">
                <g id="icon-asterisk" transform="translate(9.413276, 9.418500) rotate(-336.000000) translate(-9.413276, -9.418500) ">
                    <path d="M17.9420291,12.0847622 C17.8337322,11.671854 17.5954494,11.3611025 17.2267381,11.1526555 L14.0291751,9.30039969 L17.2267381,7.44814389 C17.5954494,7.23969684 17.8338797,6.92909302 17.9420291,6.51603717 C18.0501785,6.10312895 18.0001612,5.71221691 17.7916823,5.34344868 L17.0223904,4.02042992 C16.8140589,3.65151407 16.5036274,3.41295143 16.0908006,3.30474202 C15.6781214,3.19668024 15.2877213,3.24672524 14.9188625,3.45531992 L11.7212994,5.29532281 L11.7212994,1.6029165 C11.7212994,1.18587477 11.568887,0.825078315 11.2643572,0.520379506 C10.9598274,0.215680697 10.599231,0.0633312931 10.1825681,0.0633312931 L8.64398435,0.0633312931 C8.22717392,0.0633312931 7.86657757,0.215828323 7.56204775,0.520379506 C7.25751794,0.825078315 7.10525303,1.18587477 7.10525303,1.6029165 L7.10525303,5.29532281 L3.90768998,3.4551723 C3.53897874,3.24657762 3.14828351,3.19638498 2.7356043,3.3045944 C2.32292509,3.41295143 2.012346,3.65136644 1.80401455,4.0202823 L1.03472267,5.34330106 C0.826243682,5.71206929 0.77622643,6.10298132 0.884375826,6.51588955 C0.992672766,6.92879777 1.23095554,7.23954922 1.59966679,7.44799627 L4.79722983,9.30039969 L1.59966679,11.1526555 C1.23095554,11.3611025 0.992525223,11.6717064 0.884375826,12.0847622 C0.77622643,12.4976704 0.826391225,12.8882872 1.03472267,13.2572031 L1.80401455,14.5802218 C2.012346,14.9492853 2.32277755,15.1877003 2.7356043,15.2960574 C3.14843106,15.4041191 3.53897874,15.3540741 3.90768998,15.1454795 L7.10525303,13.3053289 L7.10525303,16.9978829 C7.10525303,17.4146293 7.25751794,17.7757211 7.56204775,18.0802722 C7.86657757,18.3849711 8.22732146,18.5373205 8.64398435,18.5373205 L10.1825681,18.5373205 C10.599231,18.5373205 10.9599749,18.3849711 11.2643572,18.0802722 C11.5690345,17.7757211 11.7212994,17.4146293 11.7212994,16.9978829 L11.7212994,13.3054766 L14.9188625,15.1456271 C15.2877213,15.3542218 15.6781214,15.4044144 16.0908006,15.296205 C16.5034798,15.1878479 16.8140589,14.9494329 17.0223904,14.5803695 L17.7916823,13.2573507 C18.0001612,12.8884348 18.0501785,12.4976704 17.9420291,12.0847622 L17.9420291,12.0847622 Z" id="Shape"></path>
                </g>
            </g>
            <g transform="translate(677.168388, 471.591848)" opacity="0.74">
                <g id="icon-asterisk" transform="translate(8.516774, 8.521500) rotate(-312.000000) translate(-8.516774, -8.521500) ">
                    <path d="M16.2332644,10.9338325 C16.1352815,10.5602488 15.9196923,10.2790928 15.5860964,10.0904978 L12.6930632,8.41464734 L15.5860964,6.73879686 C15.9196923,6.5502019 16.135415,6.2691794 16.2332644,5.8954622 C16.3311139,5.52187857 16.2858602,5.16819625 16.0972363,4.83454881 L15.4012103,3.63753183 C15.21272,3.30375082 14.9318533,3.08790844 14.5583434,2.99000469 C14.184967,2.8922345 13.8317478,2.93751332 13.4980184,3.12624183 L10.6049852,4.79100635 L10.6049852,1.45025779 C10.6049852,1.07293432 10.4670882,0.746499428 10.1915612,0.470819553 C9.91603427,0.195139679 9.58978043,0.0572997414 9.21279972,0.0572997414 L7.82074774,0.0572997414 C7.44363354,0.0572997414 7.1173797,0.195273245 6.84185273,0.470819553 C6.56632575,0.746499428 6.42856227,1.07293432 6.42856227,1.45025779 L6.42856227,4.79100635 L3.53552903,3.12610827 C3.20193315,2.93737975 2.84844699,2.89196737 2.47507056,2.98987112 C2.10169413,3.08790844 1.820694,3.30361726 1.63220364,3.63739827 L0.936177652,4.83441524 C0.747553807,5.16806269 0.702300104,5.52174501 0.800149557,5.89532864 C0.898132503,6.26891226 1.11372168,6.55006834 1.44731757,6.73866329 L4.3403508,8.41464734 L1.44731757,10.0904978 C1.11372168,10.2790928 0.897999011,10.5601153 0.800149557,10.9338325 C0.702300104,11.3074161 0.747687299,11.6608313 0.936177652,11.9946123 L1.63220364,13.1916293 C1.820694,13.5255438 2.10156064,13.7412527 2.47507056,13.83929 C2.84858048,13.9370602 3.20193315,13.8917814 3.53552903,13.7030528 L6.42856227,12.0381548 L6.42856227,15.3790369 C6.42856227,15.7560932 6.56632575,16.0827952 6.84185273,16.3583416 C7.1173797,16.6340214 7.44376704,16.7718614 7.82074774,16.7718614 L9.21279972,16.7718614 C9.58978043,16.7718614 9.91616776,16.6340214 10.1915612,16.3583416 C10.4672217,16.0827952 10.6049852,15.7560932 10.6049852,15.3790369 L10.6049852,12.0382883 L13.4980184,13.7031864 C13.8317478,13.8919149 14.184967,13.9373273 14.5583434,13.8394236 C14.9317198,13.7413862 15.21272,13.5256774 15.4012103,13.1917628 L16.0972363,11.9947459 C16.2858602,11.6609649 16.3311139,11.3074161 16.2332644,10.9338325 L16.2332644,10.9338325 Z" id="Shape"></path>
                </g>
            </g>
            <g transform="translate(509.778906, 248.757350)" opacity="0.200000003">
                <g id="icon-asterisk" transform="translate(8.965025, 8.970000) rotate(-293.000000) translate(-8.965025, -8.970000) ">
                    <path d="M17.0876468,11.5092973 C16.9845068,11.1160514 16.7575708,10.8200976 16.4064173,10.6215766 L13.3611191,8.85752351 L16.4064173,7.09347038 C16.7575708,6.89494937 16.9846473,6.59913621 17.0876468,6.20574969 C17.1906462,5.81250376 17.1430107,5.44020658 16.9444593,5.08899875 L16.2118003,3.82898088 C16.0133895,3.47763245 15.7177404,3.25042994 15.324572,3.14737335 C14.9315442,3.04445737 14.5597345,3.09211928 14.2084405,3.29078088 L11.1631423,5.04316458 L11.1631423,1.52658715 C11.1631423,1.12940455 11.0179876,0.785788871 10.7279592,0.49559953 C10.4379308,0.205410188 10.0945057,0.0603155172 9.69768392,0.0603155172 L8.23236604,0.0603155172 C7.83540373,0.0603155172 7.49197864,0.205550784 7.20195024,0.49559953 C6.91192185,0.785788871 6.76690765,1.12940455 6.76690765,1.52658715 L6.76690765,5.04316458 L3.72160951,3.29064028 C3.37045594,3.09197868 2.99836525,3.04417618 2.60533743,3.14723276 C2.21230961,3.25042994 1.91652,3.47749185 1.7181091,3.82884028 L0.98545016,5.08885815 C0.786898745,5.44006599 0.739263267,5.81236317 0.842262692,6.20560909 C0.945402634,6.59885502 1.17233861,6.89480878 1.52349218,7.09332978 L4.56879032,8.85752351 L1.52349218,10.6215766 C1.17233861,10.8200976 0.945262117,11.1159108 0.842262692,11.5092973 C0.739263267,11.9025433 0.787039262,12.2745592 0.98545016,12.6259077 L1.7181091,13.8859255 C1.91652,14.2374146 2.2121691,14.4644765 2.60533743,14.5676737 C2.99850577,14.6705897 3.37045594,14.6229277 3.72160951,14.4242661 L6.76690765,12.6717418 L6.76690765,16.1884599 C6.76690765,16.5853613 6.91192185,16.9292582 7.20195024,17.2193069 C7.49197864,17.5094962 7.83554425,17.6545909 8.23236604,17.6545909 L9.69768392,17.6545909 C10.0945057,17.6545909 10.4380713,17.5094962 10.7279592,17.2193069 C11.0181281,16.9292582 11.1631423,16.5853613 11.1631423,16.1884599 L11.1631423,12.6718824 L14.2084405,14.4244067 C14.5597345,14.6230683 14.9315442,14.6708708 15.324572,14.5678143 C15.7175998,14.4646171 16.0133895,14.2375552 16.2118003,13.8860661 L16.9444593,12.6260483 C17.1430107,12.2746998 17.1906462,11.9025433 17.0876468,11.5092973 L17.0876468,11.5092973 Z" id="Shape"></path>
                </g>
            </g>
            <g transform="translate(565.844906, 3.527926)" opacity="0.96">
                <g id="icon-asterisk" transform="translate(9.413276, 9.418500) rotate(-179.000000) translate(-9.413276, -9.418500) ">
                    <path d="M17.9420291,12.0847622 C17.8337322,11.671854 17.5954494,11.3611025 17.2267381,11.1526555 L14.0291751,9.30039969 L17.2267381,7.44814389 C17.5954494,7.23969684 17.8338797,6.92909302 17.9420291,6.51603717 C18.0501785,6.10312895 18.0001612,5.71221691 17.7916823,5.34344868 L17.0223904,4.02042992 C16.8140589,3.65151407 16.5036274,3.41295143 16.0908006,3.30474202 C15.6781214,3.19668024 15.2877213,3.24672524 14.9188625,3.45531992 L11.7212994,5.29532281 L11.7212994,1.6029165 C11.7212994,1.18587477 11.568887,0.825078315 11.2643572,0.520379506 C10.9598274,0.215680697 10.599231,0.0633312931 10.1825681,0.0633312931 L8.64398435,0.0633312931 C8.22717392,0.0633312931 7.86657757,0.215828323 7.56204775,0.520379506 C7.25751794,0.825078315 7.10525303,1.18587477 7.10525303,1.6029165 L7.10525303,5.29532281 L3.90768998,3.4551723 C3.53897874,3.24657762 3.14828351,3.19638498 2.7356043,3.3045944 C2.32292509,3.41295143 2.012346,3.65136644 1.80401455,4.0202823 L1.03472267,5.34330106 C0.826243682,5.71206929 0.77622643,6.10298132 0.884375826,6.51588955 C0.992672766,6.92879777 1.23095554,7.23954922 1.59966679,7.44799627 L4.79722983,9.30039969 L1.59966679,11.1526555 C1.23095554,11.3611025 0.992525223,11.6717064 0.884375826,12.0847622 C0.77622643,12.4976704 0.826391225,12.8882872 1.03472267,13.2572031 L1.80401455,14.5802218 C2.012346,14.9492853 2.32277755,15.1877003 2.7356043,15.2960574 C3.14843106,15.4041191 3.53897874,15.3540741 3.90768998,15.1454795 L7.10525303,13.3053289 L7.10525303,16.9978829 C7.10525303,17.4146293 7.25751794,17.7757211 7.56204775,18.0802722 C7.86657757,18.3849711 8.22732146,18.5373205 8.64398435,18.5373205 L10.1825681,18.5373205 C10.599231,18.5373205 10.9599749,18.3849711 11.2643572,18.0802722 C11.5690345,17.7757211 11.7212994,17.4146293 11.7212994,16.9978829 L11.7212994,13.3054766 L14.9188625,15.1456271 C15.2877213,15.3542218 15.6781214,15.4044144 16.0908006,15.296205 C16.5034798,15.1878479 16.8140589,14.9494329 17.0223904,14.5803695 L17.7916823,13.2573507 C18.0001612,12.8884348 18.0501785,12.4976704 17.9420291,12.0847622 L17.9420291,12.0847622 Z" id="Shape"></path>
                </g>
            </g>
            <g transform="translate(296.130089, 488.107033)" opacity="0.200000003">
                <g id="icon-asterisk" transform="translate(8.068522, 8.073000) rotate(-63.000000) translate(-8.068522, -8.073000) ">
                    <path d="M15.3788821,10.3583676 C15.2860561,10.0044463 15.0818138,9.73808788 14.7657755,9.55941898 L12.0250072,7.97177116 L14.7657755,6.38412334 C15.0818138,6.20545444 15.2861826,5.93922259 15.3788821,5.58517472 C15.4715816,5.23125339 15.4287096,4.89618592 15.2500134,4.58009887 L14.5906203,3.44608279 C14.4120505,3.1298692 14.1459663,2.92538694 13.7921148,2.83263602 C13.4383898,2.74001163 13.1037611,2.78290735 12.7875964,2.96170279 L10.0468281,4.53884812 L10.0468281,1.37392843 C10.0468281,1.01646409 9.91618884,0.707209984 9.65516328,0.446039577 C9.39413773,0.184869169 9.08505514,0.0542839655 8.72791553,0.0542839655 L7.40912944,0.0542839655 C7.05186336,0.0542839655 6.74278077,0.184995705 6.48175522,0.446039577 C6.22072966,0.707209984 6.09021688,1.01646409 6.09021688,1.37392843 L6.09021688,4.53884812 L3.34944856,2.96157625 C3.03341035,2.78278082 2.69852873,2.73975856 2.34480369,2.83250948 C1.99107865,2.92538694 1.724868,3.12974266 1.54629819,3.44595625 L0.886905144,4.57997234 C0.70820887,4.89605939 0.66533694,5.23112685 0.758036423,5.58504818 C0.850862371,5.93896951 1.05510475,6.2053279 1.37114296,6.3839968 L4.11191129,7.97177116 L1.37114296,9.55941898 C1.05510475,9.73808788 0.850735905,10.0043197 0.758036423,10.3583676 C0.66533694,10.7122889 0.708335336,11.0471033 0.886905144,11.3633169 L1.54629819,12.497333 C1.724868,12.8136731 1.99095219,13.0180288 2.34480369,13.1109063 C2.69865519,13.2035307 3.03341035,13.160635 3.34944856,12.9818395 L6.09021688,11.4045677 L6.09021688,14.5696139 C6.09021688,14.9268252 6.22072966,15.2363323 6.48175522,15.4973762 C6.74278077,15.7585466 7.05198982,15.8891318 7.40912944,15.8891318 L8.72791553,15.8891318 C9.08505514,15.8891318 9.3942642,15.7585466 9.65516328,15.4973762 C9.91631531,15.2363323 10.0468281,14.9268252 10.0468281,14.5696139 L10.0468281,11.4046942 L12.7875964,12.9819661 C13.1037611,13.1607615 13.4383898,13.2037838 13.7921148,13.1110328 C14.1458399,13.0181554 14.4120505,12.8137997 14.5906203,12.4974595 L15.2500134,11.3634434 C15.4287096,11.0472299 15.4715816,10.7122889 15.3788821,10.3583676 L15.3788821,10.3583676 Z" id="Shape"></path>
                </g>
            </g>
            <g transform="translate(340.144500, 22.337531)" opacity="0.71">
                <g id="icon-asterisk" transform="translate(7.620271, 7.624500) rotate(-265.000000) translate(-7.620271, -7.624500) ">
                    <path d="M14.5244997,9.78290274 C14.4368308,9.4486437 14.2439352,9.197083 13.9454547,9.02834015 L11.3569513,7.52889498 L13.9454547,6.02944982 C14.2439352,5.86070697 14.4369502,5.60926578 14.5244997,5.27488723 C14.6120493,4.9406282 14.5715591,4.6241756 14.4027904,4.32564893 L13.7800303,3.25463375 C13.611381,2.95598758 13.3600793,2.76286545 13.0258862,2.67526735 C12.6918126,2.58778876 12.3757744,2.62830139 12.0771744,2.79716375 L9.48867097,4.28668989 L9.48867097,1.29759908 C9.48867097,0.959993864 9.36528946,0.667920541 9.11876532,0.4212596 C8.87224119,0.17459866 8.58032986,0.0512681897 8.24303133,0.0512681897 L6.99751114,0.0512681897 C6.66009317,0.0512681897 6.36818184,0.174718166 6.12165771,0.4212596 C5.87513357,0.667920541 5.7518715,0.959993864 5.7518715,1.29759908 L5.7518715,4.28668989 L3.16336808,2.79704424 C2.86488755,2.62818188 2.54861046,2.58754975 2.21453682,2.67514784 C1.88046317,2.76286545 1.629042,2.95586807 1.46039273,3.25451424 L0.837632636,4.32552943 C0.668863933,4.62405609 0.628373777,4.94050869 0.715923288,5.27476773 C0.803592239,5.60902676 0.99648782,5.86058746 1.29496835,6.02933031 L3.88347177,7.52889498 L1.29496835,9.02834015 C0.99648782,9.197083 0.803472799,9.44852419 0.715923288,9.78290274 C0.628373777,10.1171618 0.668983373,10.4333754 0.837632636,10.7320215 L1.46039273,11.8030367 C1.629042,12.1018024 1.88034373,12.294805 2.21453682,12.3825226 C2.5487299,12.4700012 2.86488755,12.4294886 3.16336808,12.2606262 L5.7518715,10.7709806 L5.7518715,13.7601909 C5.7518715,14.0975571 5.87513357,14.3898694 6.12165771,14.6364109 C6.36818184,14.8830718 6.66021261,15.0064023 6.99751114,15.0064023 L8.24303133,15.0064023 C8.58032986,15.0064023 8.87236063,14.8830718 9.11876532,14.6364109 C9.3654089,14.3898694 9.48867097,14.0975571 9.48867097,13.7601909 L9.48867097,10.7711001 L12.0771744,12.2607457 C12.3757744,12.4296081 12.6918126,12.4702402 13.0258862,12.3826421 C13.3599599,12.2949245 13.611381,12.1019219 13.7800303,11.8031562 L14.4027904,10.732141 C14.5715591,10.4334949 14.6120493,10.1171618 14.5244997,9.78290274 L14.5244997,9.78290274 Z" id="Shape"></path>
                </g>
            </g>
            <g transform="translate(35.697405, 544.957937)" opacity="0.84">
                <g id="icon-asterisk" transform="translate(8.516774, 8.521500) rotate(-255.000000) translate(-8.516774, -8.521500) ">
                    <path d="M16.2332644,10.9338325 C16.1352815,10.5602488 15.9196923,10.2790928 15.5860964,10.0904978 L12.6930632,8.41464734 L15.5860964,6.73879686 C15.9196923,6.5502019 16.135415,6.2691794 16.2332644,5.8954622 C16.3311139,5.52187857 16.2858602,5.16819625 16.0972363,4.83454881 L15.4012103,3.63753183 C15.21272,3.30375082 14.9318533,3.08790844 14.5583434,2.99000469 C14.184967,2.8922345 13.8317478,2.93751332 13.4980184,3.12624183 L10.6049852,4.79100635 L10.6049852,1.45025779 C10.6049852,1.07293432 10.4670882,0.746499428 10.1915612,0.470819553 C9.91603427,0.195139679 9.58978043,0.0572997414 9.21279972,0.0572997414 L7.82074774,0.0572997414 C7.44363354,0.0572997414 7.1173797,0.195273245 6.84185273,0.470819553 C6.56632575,0.746499428 6.42856227,1.07293432 6.42856227,1.45025779 L6.42856227,4.79100635 L3.53552903,3.12610827 C3.20193315,2.93737975 2.84844699,2.89196737 2.47507056,2.98987112 C2.10169413,3.08790844 1.820694,3.30361726 1.63220364,3.63739827 L0.936177652,4.83441524 C0.747553807,5.16806269 0.702300104,5.52174501 0.800149557,5.89532864 C0.898132503,6.26891226 1.11372168,6.55006834 1.44731757,6.73866329 L4.3403508,8.41464734 L1.44731757,10.0904978 C1.11372168,10.2790928 0.897999011,10.5601153 0.800149557,10.9338325 C0.702300104,11.3074161 0.747687299,11.6608313 0.936177652,11.9946123 L1.63220364,13.1916293 C1.820694,13.5255438 2.10156064,13.7412527 2.47507056,13.83929 C2.84858048,13.9370602 3.20193315,13.8917814 3.53552903,13.7030528 L6.42856227,12.0381548 L6.42856227,15.3790369 C6.42856227,15.7560932 6.56632575,16.0827952 6.84185273,16.3583416 C7.1173797,16.6340214 7.44376704,16.7718614 7.82074774,16.7718614 L9.21279972,16.7718614 C9.58978043,16.7718614 9.91616776,16.6340214 10.1915612,16.3583416 C10.4672217,16.0827952 10.6049852,15.7560932 10.6049852,15.3790369 L10.6049852,12.0382883 L13.4980184,13.7031864 C13.8317478,13.8919149 14.184967,13.9373273 14.5583434,13.8394236 C14.9317198,13.7413862 15.21272,13.5256774 15.4012103,13.1917628 L16.0972363,11.9947459 C16.2858602,11.6609649 16.3311139,11.3074161 16.2332644,10.9338325 L16.2332644,10.9338325 Z" id="Shape"></path>
                </g>
            </g>
            <g transform="translate(914.029242, 109.565435)" opacity="0.82">
                <g id="icon-cloud" transform="translate(9.861527, 7.176000) rotate(-136.000000) translate(-9.861527, -7.176000) ">
                    <path d="M18.4660732,8.206055 C17.9167657,7.553315 17.220077,7.13322 16.376489,6.945885 C16.6447611,6.552355 16.7786563,6.121335 16.7786563,5.65294 C16.7786563,4.99077 16.5333824,4.425545 16.042955,3.957035 C15.5525277,3.48864 14.9607156,3.254385 14.2673984,3.254385 C13.639584,3.254385 13.0967785,3.448045 12.6389821,3.835365 C12.2533109,2.94837 11.6399456,2.23008 10.799729,1.68038 C9.95927156,1.130795 9.02236624,0.85583 7.98901302,0.85583 C6.60261952,0.85583 5.41875459,1.324455 4.43777944,2.26136 C3.45668389,3.19815 2.96625652,4.32883 2.96625652,5.653055 C2.96625652,5.74678 2.97287904,5.880985 2.98588325,6.0559 C2.22730421,6.393195 1.61574502,6.903795 1.15144648,7.58793 C0.687147948,8.27172 0.454878272,9.02612 0.454878272,9.85067 C0.454878272,11.00619 0.884980545,11.994615 1.74494427,12.815945 C2.604908,13.637505 3.63994695,14.04817 4.84982031,14.04817 L15.523509,14.04817 C16.5632439,14.04817 17.4510222,13.696615 18.1868439,12.99408 C18.9225451,12.29143 19.2905162,11.443535 19.2905162,10.45028 C19.2903958,9.606985 19.0155012,8.85868 18.4660732,8.206055 L18.4660732,8.206055 Z" id="Shape"></path>
                </g>
            </g>
            <g transform="translate(360.773920, 275.326453)" opacity="0.97">
                <g id="icon-cloud" transform="translate(8.068522, 6.279000) rotate(-77.000000) translate(-8.068522, -6.279000) ">
                    <path d="M15.1086054,7.18029812 C14.6591719,6.60915062 14.0891539,6.2415675 13.3989455,6.07764937 C13.6184409,5.73331062 13.7279915,5.35616812 13.7279915,4.9463225 C13.7279915,4.36692375 13.5273129,3.87235187 13.1260541,3.46240562 C12.7247954,3.05256 12.2405855,2.84758687 11.673326,2.84758687 C11.1596596,2.84758687 10.7155461,3.01703937 10.3409854,3.35594437 C10.0254362,2.57982375 9.52359182,1.95132 8.83614188,1.4703325 C8.14849491,0.989445625 7.38193602,0.74885125 6.5364652,0.74885125 C5.40214325,0.74885125 4.43352648,1.15889812 3.63091045,1.97869 C2.82819591,2.79838125 2.42693715,3.78772625 2.42693715,4.94642312 C2.42693715,5.0284325 2.43235558,5.14586187 2.44299539,5.2989125 C1.82233981,5.59404562 1.3219732,6.04082062 0.942092577,6.63943875 C0.562211958,7.237755 0.372173131,7.897855 0.372173131,8.61933625 C0.372173131,9.63041625 0.724074991,10.4952881 1.42768168,11.2139519 C2.13128836,11.9328169 2.97813842,12.2921487 3.9680348,12.2921487 L12.7010528,12.2921487 C13.551745,12.2921487 14.2781091,11.9845381 14.880145,11.36982 C15.4820824,10.7550012 15.7831496,10.0130931 15.7831496,9.143995 C15.7830511,8.40611187 15.5581373,7.751345 15.1086054,7.18029812 L15.1086054,7.18029812 Z" id="Shape"></path>
                </g>
            </g>
            <g transform="translate(392.688981, 149.275135)" opacity="0.76">
                <g id="icon-cloud" transform="translate(11.654532, 8.521500) rotate(-207.000000) translate(-11.654532, -8.521500) ">
                    <path d="M21.8235411,9.74469031 C21.1743594,8.96956156 20.3510001,8.47069875 19.3540324,8.24823844 C19.6710813,7.78092156 19.8293211,7.26908531 19.8293211,6.71286625 C19.8293211,5.92653937 19.5394519,5.25533469 18.9598559,4.69897906 C18.38026,4.14276 17.6808457,3.86458219 16.8614709,3.86458219 C16.1195083,3.86458219 15.478011,4.09455344 14.9369789,4.55449594 C14.4811856,3.50118937 13.7562993,2.64822 12.7633161,1.99545125 C11.7700482,1.34281906 10.6627965,1.01629812 9.44156084,1.01629812 C7.8030958,1.01629812 6.4039827,1.57279031 5.24464843,2.685365 C4.08517187,3.79780312 3.50557589,5.14048562 3.50557589,6.71300281 C3.50557589,6.82430125 3.5134025,6.98366969 3.52877111,7.19138125 C2.63226861,7.59191906 1.90951684,8.19825656 1.36080039,9.01066687 C0.812083939,9.8226675 0.537583412,10.7185175 0.537583412,11.6976706 C0.537583412,13.0698506 1.0458861,14.2436053 2.06220687,15.2189347 C3.07852764,16.1945372 4.30175549,16.6822019 5.73160582,16.6822019 L18.3459652,16.6822019 C19.5747428,16.6822019 20.6239353,16.2647303 21.4935428,15.43047 C22.3630079,14.5960731 22.7978827,13.5891978 22.7978827,12.4097075 C22.7977404,11.4082947 22.472865,10.5196825 21.8235411,9.74469031 L21.8235411,9.74469031 Z" id="Shape"></path>
                </g>
            </g>
            <g transform="translate(34.470362, 429.949004)" opacity="0.73">
                <g id="icon-cloud" transform="translate(9.413276, 7.176000) rotate(-277.000000) translate(-9.413276, -7.176000) ">
                    <path d="M17.6267062,8.206055 C17.1023672,7.553315 16.4373463,7.13322 15.6321031,6.945885 C15.888181,6.552355 16.0159901,6.121335 16.0159901,5.65294 C16.0159901,4.99077 15.781865,4.425545 15.3137298,3.957035 C14.8455946,3.48864 14.2806831,3.254385 13.6188803,3.254385 C13.0196029,3.254385 12.5014704,3.448045 12.0644829,3.835365 C11.6963422,2.94837 11.1108571,2.23008 10.3088322,1.68038 C9.5065774,1.130795 8.61225869,0.85583 7.62587607,0.85583 C6.30250045,0.85583 5.17244756,1.324455 4.2360622,2.26136 C3.29956189,3.19815 2.83142668,4.32883 2.83142668,5.653055 C2.83142668,5.74678 2.83774817,5.880985 2.85016128,6.0559 C2.12606311,6.393195 1.54230206,6.903795 1.09910801,7.58793 C0.655913951,8.27172 0.434201987,9.02612 0.434201987,9.85067 C0.434201987,11.00619 0.844754156,11.994615 1.66562862,12.815945 C2.48650309,13.637505 3.47449482,14.04817 4.62937393,14.04817 L14.817895,14.04817 C15.8103692,14.04817 16.6577939,13.696615 17.3601692,12.99408 C18.0624294,12.29143 18.4136745,11.443535 18.4136745,10.45028 C18.4135596,9.606985 18.1511602,8.85868 17.6267062,8.206055 L17.6267062,8.206055 Z" id="Shape"></path>
                </g>
            </g>
            <g transform="translate(662.148907, 36.651507)">
                <g id="icon-terminal" transform="translate(11.206281, 7.176000) rotate(-220.000000) translate(-11.206281, -7.176000) ">
                    <path d="M21.542259,11.8371869 C21.6633219,11.8371869 21.7628802,11.8745204 21.8406153,11.9493406 C21.9185097,12.0241607 21.9573773,12.1196367 21.957218,12.2360745 L21.957218,12.2360745 L21.957218,13.0340029 C21.957218,13.1502878 21.9183504,13.2459168 21.8406153,13.3205839 C21.7628802,13.395251 21.6633219,13.4327376 21.542259,13.4327376 L21.542259,13.4327376 L9.08313625,13.4327376 C8.96207337,13.4327376 8.86251508,13.395251 8.78462067,13.3205839 C8.70688556,13.2459168 8.668018,13.1502878 8.668018,13.0340029 L8.668018,13.0340029 L8.668018,12.2360745 C8.668018,12.1196367 8.70688556,12.0241607 8.78462067,11.9493406 C8.86251508,11.8745204 8.96207337,11.8371869 9.08313625,11.8371869 L9.08313625,11.8371869 Z M1.6076626,0.0316723241 C1.72012364,0.0316723241 1.81968193,0.073290064 1.90617818,0.156372537 L1.90617818,0.156372537 L7.95406559,5.96541339 C8.04056183,6.04849586 8.08373031,6.14412486 8.08373031,6.25214738 C8.08373031,6.36016989 8.04056183,6.4559519 7.95406559,6.53903437 L7.95406559,6.53903437 L1.90617818,12.3480752 C1.81968193,12.4311577 1.72012364,12.4726224 1.6076626,12.4726224 C1.49520155,12.4726224 1.39580255,12.4313107 1.30930631,12.3480752 L1.30930631,12.3480752 L0.660345547,11.7248802 C0.573849304,11.6417977 0.530680829,11.5463217 0.530680829,11.4381462 C0.530680829,11.3302767 0.573849304,11.2346477 0.660345547,11.1515652 L0.660345547,11.1515652 L5.76091591,6.25230038 L0.660345547,1.35318857 C0.573849304,1.2701061 0.530680829,1.17463011 0.530680829,1.06645458 C0.530680829,0.958279062 0.573849304,0.86280307 0.660345547,0.779720597 L0.660345547,0.779720597 L1.30930631,0.156372537 C1.39580255,0.073290064 1.49520155,0.0316723241 1.6076626,0.0316723241 Z" id="Combined-Shape"></path>
                </g>
            </g>
            <g transform="translate(152.902974, 176.431696)" opacity="0.76">
                <g id="icon-terminal" transform="translate(9.413276, 6.279000) rotate(-344.000000) translate(-9.413276, -6.279000) ">
                    <path d="M18.0954976,10.3575385 C18.1971904,10.3575385 18.2808194,10.3902054 18.3461169,10.455673 C18.4115482,10.5211406 18.4441969,10.6046821 18.4440631,10.7065652 L18.4440631,10.7065652 L18.4440631,11.4047525 C18.4440631,11.5065018 18.4114143,11.5901772 18.3461169,11.6555109 C18.2808194,11.7208446 18.1971904,11.7536454 18.0954976,11.7536454 L18.0954976,11.7536454 L7.62983445,11.7536454 C7.52814163,11.7536454 7.44451267,11.7208446 7.37908137,11.6555109 C7.31378387,11.5901772 7.28113512,11.5065018 7.28113512,11.4047525 L7.28113512,11.4047525 L7.28113512,10.7065652 C7.28113512,10.6046821 7.31378387,10.5211406 7.37908137,10.455673 C7.44451267,10.3902054 7.52814163,10.3575385 7.62983445,10.3575385 L7.62983445,10.3575385 Z M1.35043658,0.0277132836 C1.44490386,0.0277132836 1.52853282,0.064128806 1.60118967,0.13682597 L1.60118967,0.13682597 L6.68141509,5.21973672 C6.75407194,5.29243388 6.79033346,5.37610925 6.79033346,5.47062896 C6.79033346,5.56514866 6.75407194,5.64895791 6.68141509,5.72165507 L6.68141509,5.72165507 L1.60118967,10.8045658 C1.52853282,10.877263 1.44490386,10.9135446 1.35043658,10.9135446 C1.2559693,10.9135446 1.17247415,10.8773969 1.0998173,10.8045658 L1.0998173,10.8045658 L0.554690259,10.2592701 C0.482033415,10.186573 0.445771896,10.1030315 0.445771896,10.0083779 C0.445771896,9.91399209 0.482033415,9.83031672 0.554690259,9.75761955 L0.554690259,9.75761955 L4.83916936,5.47076284 L0.554690259,1.18404 C0.482033415,1.11134284 0.445771896,1.02780134 0.445771896,0.933147761 C0.445771896,0.838494179 0.482033415,0.754952687 0.554690259,0.682255522 L0.554690259,0.682255522 L1.0998173,0.13682597 C1.17247415,0.064128806 1.2559693,0.0277132836 1.35043658,0.0277132836 Z" id="Combined-Shape"></path>
                </g>
            </g>
            <g transform="translate(758.687372, 139.060112)" opacity="0.98">
                <g id="icon-hand" transform="translate(6.723769, 5.830500) rotate(-15.000000) translate(-6.723769, -5.830500) ">
                    <path d="M12.2791688,3.36367491 C11.9169713,2.99733847 11.4881062,2.81417025 10.9926614,2.81417025 L8.31973307,2.81417025 C8.42455895,2.5249526 8.47701575,2.21647744 8.47701575,1.88865603 C8.47701575,1.30063635 8.28280278,0.845200639 7.89446457,0.522171416 C7.50603863,0.199230936 7.01419034,0.0378050685 6.41865654,0.0378050685 C6.23760163,0.0378050685 6.07198552,0.0799586073 5.92189591,0.164354429 C5.7718063,0.248661507 5.64075203,0.36802258 5.52882079,0.522171416 C5.41688956,0.676408995 5.32039712,0.828250479 5.23943119,0.977695868 C5.15837754,1.12714126 5.07021854,1.30063635 4.97495418,1.49826989 C4.87968983,1.69599217 4.80109235,1.84534881 4.73916174,1.94660605 C4.57240526,2.211774 4.33415665,2.52255651 4.02450364,2.87930856 C4.01494211,2.89377388 3.98160836,2.93477374 3.92441466,3.00221941 C3.86722096,3.06975381 3.82195723,3.12158048 3.78862348,3.15769941 C3.75528973,3.19381833 3.70651718,3.245645 3.64213041,3.31317941 C3.57774364,3.38071381 3.52054993,3.43484783 3.47054931,3.47584769 C3.42054868,3.51684756 3.36695151,3.56015477 3.30975781,3.60603557 C3.25256411,3.65182763 3.19659849,3.68555046 3.14177324,3.70729281 C3.08703571,3.72894642 3.035807,3.73977322 2.98817482,3.73977322 L0.929903331,3.73977322 C0.677356296,3.73977322 0.461739551,3.8302924 0.283053094,4.01097578 C0.104454357,4.19165916 0.0150672689,4.40979263 0.0150672689,4.66528744 L0.0150672689,9.29268107 C0.0150672689,9.54817589 0.104366637,9.76630936 0.283053094,9.94708148 C0.461827271,10.1277649 0.677356296,10.218284 0.929903331,10.218284 L2.98817482,10.218284 C3.26923098,10.218284 3.80046573,10.3605411 4.58187907,10.6448779 C5.48232898,10.9774915 6.24944389,11.1437095 6.88313607,11.1437095 C7.5548989,11.1437095 8.09569517,10.9496258 8.50543716,10.5616357 C8.91517915,10.1736457 9.11772556,9.64464094 9.11290094,8.97453279 C9.39895717,8.60331541 9.5418537,8.1743255 9.5418537,7.68756306 C9.5418537,7.58160237 9.53466063,7.47794904 9.52044992,7.3766918 C9.6777326,7.10193947 9.76580388,6.81511792 9.78492693,6.51631589 L10.9927491,6.51631589 C11.4930186,6.51631589 11.9231117,6.33314767 12.2828531,5.96689998 C12.6425067,5.60056354 12.8223335,5.16438534 12.8223335,4.65827664 C12.8222458,4.16175233 12.6411909,3.73027758 12.2791688,3.36367491 L12.2791688,3.36367491 Z M1.70886049,9.15539365 C1.61833304,9.24697776 1.51113871,9.29276982 1.3872775,9.29276982 C1.26332858,9.29276982 1.15613425,9.24697776 1.06560679,9.15539365 C0.975079337,9.06380954 0.929815611,8.95536402 0.929815611,8.83005708 C0.929815611,8.70475014 0.975079337,8.59621587 1.06560679,8.5047205 C1.15622197,8.41313639 1.26332858,8.36725559 1.3872775,8.36725559 C1.51113871,8.36725559 1.61833304,8.41313639 1.70886049,8.5047205 C1.79938795,8.59621587 1.84465167,8.70475014 1.84465167,8.83005708 C1.84465167,8.95536402 1.79938795,9.06380954 1.70886049,9.15539365 L1.70886049,9.15539365 Z M11.6358274,5.31640432 C11.4548602,5.49957253 11.2402084,5.59115664 10.992486,5.59115664 L8.62692992,5.59115664 C8.69833432,5.67306763 8.75789648,5.78763651 8.80552865,5.93459705 C8.85324855,6.0815576 8.87702078,6.215384 8.87702078,6.33581 C8.87702078,6.66842361 8.75079112,6.95515642 8.49824409,7.19609717 C8.58412236,7.35033475 8.62692992,7.5167303 8.62692992,7.69501758 C8.62692992,7.87339361 8.58517501,8.05052721 8.50184062,8.2264184 C8.41841852,8.40230959 8.30525921,8.52885895 8.16227495,8.60597774 C8.18604718,8.7503647 8.19806488,8.88543352 8.19806488,9.0108292 C8.19806488,9.81565119 7.74779606,10.2181066 6.84734614,10.2181066 C6.46137638,10.2181066 6.03373942,10.1409878 5.56443528,9.98683893 C5.09513113,9.83269009 4.63416042,9.67836377 4.18152316,9.52412619 C3.72888589,9.36988861 3.33107387,9.29276982 2.98799938,9.29276982 L2.75931229,9.29276982 L2.75931229,4.66546493 L2.98799938,4.66546493 C3.32624925,4.66546493 3.65976221,4.52808877 3.98853827,4.25324769 C4.13152253,4.1326442 4.37213959,3.87714938 4.71038945,3.48676324 C5.05346394,3.0963771 5.3203094,2.74699082 5.51083811,2.43842692 C5.57276872,2.33716968 5.66092772,2.180536 5.77531512,1.96843715 C6.08979276,1.29841774 6.30418142,0.963496781 6.41856882,0.963496781 C6.75681869,0.963496781 7.03199759,1.03697705 7.24401779,1.1839376 C7.456038,1.33098689 7.56200425,1.56589304 7.56200425,1.88883352 C7.56200425,2.09614018 7.52630205,2.29980833 7.45480992,2.49983797 C7.38331779,2.6998676 7.30472031,2.86377831 7.21901748,2.99148135 C7.13331465,3.11918438 7.05462945,3.25176836 6.98322504,3.38914452 C6.91173292,3.52652068 6.87603071,3.64339692 6.87603071,3.73977322 L10.9926614,3.73977322 C11.2308223,3.73977322 11.4429302,3.83259975 11.6288098,4.01816406 C11.8145138,4.20381712 11.9074098,4.41937701 11.9074098,4.66528744 C11.907322,4.91607881 11.8168823,5.13296986 11.6358274,5.31640432 L11.6358274,5.31640432 Z" id="Shape"></path>
                </g>
            </g>
            <g transform="translate(855.359272, 81.382380)" opacity="0.85">
                <g id="icon-hand" transform="translate(11.206281, 9.418500) rotate(-119.000000) translate(-11.206281, -9.418500) ">
                    <path d="M20.4652814,5.4336287 C19.8616188,4.84185445 19.1468437,4.54596733 18.3211024,4.54596733 L13.8662218,4.54596733 C14.0409316,4.07876959 14.1283596,3.58046356 14.1283596,3.05090589 C14.1283596,2.10102795 13.8046713,1.36532411 13.1574409,0.843507671 C12.5100644,0.321834589 11.6903172,0.061069726 10.6977609,0.061069726 C10.3960027,0.061069726 10.1199759,0.129163904 9.86982652,0.265495616 C9.61967717,0.401683973 9.40125338,0.594498014 9.21470132,0.843507671 C9.02814927,1.09266068 8.86732854,1.33794308 8.73238532,1.57935486 C8.5972959,1.82076664 8.45036423,2.10102795 8.2915903,2.42028212 C8.13281638,2.73967966 8.00182058,2.98094808 7.89860291,3.14451747 C7.62067544,3.57286568 7.22359442,4.07489897 6.70750606,4.65119075 C6.69157019,4.67455781 6.63601394,4.74078836 6.5406911,4.84973904 C6.44536826,4.95883308 6.36992872,5.04255308 6.31437247,5.10089904 C6.25881621,5.159245 6.17752864,5.242965 6.07021735,5.35205904 C5.96290606,5.46115308 5.86758322,5.54860034 5.78424884,5.61483089 C5.70091446,5.68106144 5.61158585,5.75101925 5.51626302,5.82513438 C5.42094018,5.89910616 5.32766415,5.95358151 5.23628874,5.98870377 C5.14505952,6.02368267 5.05967833,6.04117212 4.98029137,6.04117212 L1.54983888,6.04117212 C1.12892716,6.04117212 0.769565918,6.18739541 0.471755157,6.47926856 C0.174090596,6.77114171 0.0251121148,7.12351116 0.0251121148,7.53623356 L0.0251121148,15.011254 C0.0251121148,15.4239764 0.173944395,15.7763459 0.471755157,16.0683624 C0.769712119,16.3602355 1.12892716,16.5064588 1.54983888,16.5064588 L4.98029137,16.5064588 C5.44871831,16.5064588 6.33410956,16.7362588 7.63646511,17.1955719 C9.13721497,17.7328708 10.4157398,18.0013769 11.4718934,18.0013769 C12.5914982,18.0013769 13.4928253,17.687857 14.1757286,17.0611038 C14.8586319,16.4343507 15.1962093,15.5798046 15.1881682,14.4973222 C15.6649286,13.8976634 15.9030895,13.2046797 15.9030895,12.4183711 C15.9030895,12.2472038 15.891101,12.0797638 15.8674165,11.9161945 C16.1295543,11.4723638 16.2763398,11.0090366 16.3082116,10.5263564 L18.3212486,10.5263564 C19.155031,10.5263564 19.8718528,10.2304693 20.4714218,9.63883842 C21.0708445,9.04706418 21.3705559,8.34246863 21.3705559,7.52490842 C21.3704097,6.72283068 21.0686515,6.02583301 20.4652814,5.4336287 L20.4652814,5.4336287 Z M2.84810082,14.7894821 C2.69722173,14.9374256 2.51856451,15.0113974 2.31212917,15.0113974 C2.10554763,15.0113974 1.92689041,14.9374256 1.77601132,14.7894821 C1.62513223,14.6415385 1.54969268,14.4663573 1.54969268,14.2639384 C1.54969268,14.0615195 1.62513223,13.8861949 1.77601132,13.7383947 C1.92703661,13.5904511 2.10554763,13.516336 2.31212917,13.516336 C2.51856451,13.516336 2.69722173,13.5904511 2.84810082,13.7383947 C2.99897991,13.8861949 3.07441945,14.0615195 3.07441945,14.2639384 C3.07441945,14.4663573 2.99897991,14.6415385 2.84810082,14.7894821 L2.84810082,14.7894821 Z M19.3930457,8.58803774 C19.0914337,8.88392486 18.7336806,9.03186842 18.32081,9.03186842 L14.3782165,9.03186842 C14.4972239,9.16418616 14.5964941,9.34925897 14.6758811,9.58665678 C14.7554143,9.82405459 14.7950346,10.0402357 14.7950346,10.23477 C14.7950346,10.7720689 14.5846519,11.2352527 14.1637401,11.6244647 C14.3068706,11.8736177 14.3782165,12.1424105 14.3782165,12.430413 C14.3782165,12.7185589 14.308625,13.0046978 14.1697344,13.2888297 C14.0306975,13.5729616 13.8420987,13.7773875 13.6037916,13.901964 C13.643412,14.1352045 13.6634415,14.3533926 13.6634415,14.5559549 C13.6634415,15.8560519 12.9129934,16.5061721 11.4122436,16.5061721 C10.7689606,16.5061721 10.0562324,16.3815956 9.27405879,16.132586 C8.49188522,15.8835763 7.72360071,15.6342799 6.96920526,15.3851269 C6.21480981,15.1359739 5.55178978,15.0113974 4.97999897,15.0113974 L4.59885382,15.0113974 L4.59885382,7.53652027 L4.97999897,7.53652027 C5.54374874,7.53652027 6.09960368,7.31460493 6.64756379,6.87063089 C6.88587088,6.67580986 7.28689931,6.26308747 7.85064909,5.6324637 C8.4224399,5.00183993 8.86718233,4.43744671 9.18473019,3.93899733 C9.28794786,3.77542795 9.43487953,3.52240432 9.6255252,3.17978308 C10.1496546,2.09744404 10.506969,1.55641788 10.6976147,1.55641788 C11.2613645,1.55641788 11.719996,1.67511678 12.073363,1.91251459 C12.42673,2.15005575 12.6033404,2.52951952 12.6033404,3.0511926 C12.6033404,3.3860726 12.5438367,3.715075 12.4246832,4.03819979 C12.3055297,4.36132459 12.1745339,4.62610342 12.0316958,4.83239295 C11.8888577,5.03868247 11.7577157,5.25285658 11.6387084,5.47477192 C11.5195549,5.69668726 11.4600512,5.88548733 11.4600512,6.04117212 L18.3211024,6.04117212 C18.7180372,6.04117212 19.0715504,6.19112267 19.3813496,6.49088041 C19.6908564,6.79078151 19.8456829,7.13899363 19.8456829,7.53623356 C19.8455367,7.94135808 19.6948038,8.29172055 19.3930457,8.58803774 L19.3930457,8.58803774 Z" id="Shape"></path>
                </g>
            </g>
            <g transform="translate(377.334833, 348.839506)" opacity="0.82">
                <g id="icon-hand" transform="translate(9.413276, 8.073000) rotate(-94.000000) translate(-9.413276, -8.073000) ">
                    <path d="M17.1908363,4.65739603 C16.6837598,4.15016096 16.0833487,3.89654342 15.389726,3.89654342 L11.6476263,3.89654342 C11.7943825,3.49608822 11.8678221,3.06896877 11.8678221,2.61506219 C11.8678221,1.8008811 11.5959239,1.17027781 11.0522504,0.723006575 C10.5084541,0.275858219 9.81986648,0.0523454795 8.98611916,0.0523454795 C8.73264229,0.0523454795 8.50077972,0.110711918 8.29065428,0.227567671 C8.08052883,0.344300548 7.89705284,0.509569726 7.74034911,0.723006575 C7.58364539,0.936566301 7.44855597,1.14680836 7.33520367,1.35373274 C7.22172856,1.56065712 7.09830595,1.8008811 6.96493586,2.07452753 C6.83156576,2.34829685 6.72152929,2.55509836 6.63482644,2.69530068 C6.40136737,3.0624563 6.06781931,3.49277055 5.63430509,3.98673493 C5.62091896,4.00676384 5.57425171,4.06353288 5.49418052,4.15691918 C5.41410934,4.25042836 5.35074012,4.32218836 5.30407287,4.37219918 C5.25740562,4.42221 5.18912406,4.49397 5.09898257,4.58747918 C5.00884109,4.68098836 4.92876991,4.75594315 4.85876903,4.81271219 C4.78876815,4.86948123 4.71373212,4.92944507 4.63366093,4.99297233 C4.55358975,5.05637671 4.47523789,5.10306986 4.39848254,5.13317466 C4.32185,5.16315658 4.2501298,5.17814753 4.18344475,5.17814753 L1.30186466,5.17814753 C0.948298815,5.17814753 0.646435371,5.30348178 0.396274332,5.55365877 C0.1462361,5.80383575 0.0210941764,6.10586671 0.0210941764,6.45962877 L0.0210941764,12.8667892 C0.0210941764,13.2205512 0.146113292,13.5225822 0.396274332,13.7728821 C0.64655818,14.023059 0.948298815,14.1483933 1.30186466,14.1483933 L4.18344475,14.1483933 C4.57692338,14.1483933 5.32065203,14.3453647 6.41463069,14.7390616 C7.67526057,15.1996036 8.74922144,15.4297516 9.63639049,15.4297516 C10.5768585,15.4297516 11.3339732,15.1610203 11.907612,14.6238033 C12.4812508,14.0865863 12.7648158,13.3541182 12.7580613,12.4262762 C13.15854,11.9122829 13.3585952,11.3182968 13.3585952,10.6443181 C13.3585952,10.4976033 13.3485249,10.3540833 13.3286299,10.213881 C13.5488256,9.83345466 13.6721254,9.43631712 13.6988977,9.02259123 L15.3898488,9.02259123 C16.090226,9.02259123 16.6923564,8.7689737 17.1959943,8.26186151 C17.6995094,7.75462644 17.9512669,7.1506874 17.9512669,6.44992151 C17.9511441,5.7624263 17.6976673,5.16499973 17.1908363,4.65739603 L17.1908363,4.65739603 Z M2.39240469,12.6766989 C2.26566625,12.8035077 2.11559419,12.8669121 1.9421885,12.8669121 C1.76866001,12.8669121 1.61858794,12.8035077 1.49184951,12.6766989 C1.36511107,12.5498901 1.30174185,12.3997348 1.30174185,12.2262329 C1.30174185,12.052731 1.36511107,11.9024527 1.49184951,11.7757668 C1.61871075,11.6489581 1.76866001,11.5854308 1.9421885,11.5854308 C2.11559419,11.5854308 2.26566625,11.6489581 2.39240469,11.7757668 C2.51914312,11.9024527 2.58251234,12.052731 2.58251234,12.2262329 C2.58251234,12.3997348 2.51914312,12.5498901 2.39240469,12.6766989 L2.39240469,12.6766989 Z M16.2901583,7.36117521 C16.0368043,7.61479274 15.7362917,7.74160151 15.3894804,7.74160151 L12.0777019,7.74160151 C12.1776681,7.85501671 12.2610551,8.01365055 12.3277401,8.21713438 C12.394548,8.42061822 12.4278291,8.6059163 12.4278291,8.77266 C12.4278291,9.23320192 12.2511076,9.63021658 11.8975417,9.96382685 C12.0177713,10.1773866 12.0777019,10.4077804 12.0777019,10.6546397 C12.0777019,10.9016219 12.019245,11.1468838 11.9025769,11.3904255 C11.7857859,11.6339671 11.6273629,11.8091893 11.4271849,11.9159692 C11.4604661,12.1158896 11.4772908,12.3029079 11.4772908,12.4765327 C11.4772908,13.5909016 10.8469145,14.1481475 9.5862846,14.1481475 C9.04592693,14.1481475 8.44723519,14.0413677 7.79020939,13.8279308 C7.13318358,13.614494 6.48782459,13.4008114 5.85413242,13.1872516 C5.22044024,12.9736919 4.66350341,12.8669121 4.18319913,12.8669121 L3.86303721,12.8669121 L3.86303721,6.45987452 L4.18319913,6.45987452 C4.65674894,6.45987452 5.12366709,6.26966137 5.58395358,5.88911219 C5.78413154,5.72212274 6.12099542,5.36836068 6.59454523,4.82782603 C7.07484952,4.28729137 7.44843316,3.80352575 7.71517336,3.37628342 C7.8018762,3.2360811 7.92529881,3.0192037 8.08544117,2.72552836 C8.52570986,1.79780918 8.82585399,1.33407247 8.98599635,1.33407247 C9.45954616,1.33407247 9.84479662,1.43581438 10.1416249,1.63929822 C10.4384532,1.84290493 10.5868059,2.16815959 10.5868059,2.61530795 C10.5868059,2.90234795 10.5368229,3.18435 10.4367339,3.46131411 C10.3366449,3.73827822 10.2266084,3.96523151 10.1066245,4.1420511 C9.98664051,4.31887068 9.87648123,4.50244849 9.77651506,4.69266164 C9.67642608,4.88287479 9.626443,5.04470342 9.626443,5.17814753 L15.389726,5.17814753 C15.7231512,5.17814753 16.0201023,5.30667658 16.2803337,5.56361178 C16.5403194,5.82066986 16.6703737,6.1191374 16.6703737,6.45962877 C16.6702508,6.80687836 16.5436352,7.10718904 16.2901583,7.36117521 L16.2901583,7.36117521 Z" id="Shape"></path>
                </g>
            </g>
            <g transform="translate(145.585685, 541.786961)" opacity="0.200000003">
                <g id="icon-hand" transform="translate(9.861527, 8.521500) rotate(-296.000000) translate(-9.861527, -8.521500) ">
                    <path d="M18.0094476,4.91614025 C17.4782245,4.38072546 16.8492225,4.11301806 16.1225701,4.11301806 L12.2022752,4.11301806 C12.3560198,3.69031534 12.4329564,3.23946703 12.4329564,2.76034342 C12.4329564,1.90093005 12.1481107,1.23529324 11.578548,0.763173607 C11.0088567,0.291183676 10.2874792,0.0552535616 9.41402959,0.0552535616 C9.1484824,0.0552535616 8.90557876,0.11686258 8.68544734,0.24021032 C8.46531591,0.363428356 8.27310297,0.537879155 8.10893716,0.763173607 C7.94477136,0.988597763 7.80324911,1.21051993 7.68449908,1.42894011 C7.56562039,1.6473603 7.43632052,1.90093005 7.29659947,2.18977906 C7.15687841,2.47875779 7.04160211,2.69704826 6.95077056,2.84503961 C6.70619438,3.23259276 6.35676309,3.68681336 5.90260533,4.20822021 C5.88858177,4.22936183 5.83969226,4.2892847 5.75580817,4.38785913 C5.67192407,4.48656326 5.60553727,4.56230993 5.55664777,4.61509913 C5.50775827,4.66788833 5.4362252,4.743635 5.34179127,4.84233913 C5.24735733,4.94104326 5.16347324,5.02016221 5.09013898,5.08008509 C5.01680473,5.14000797 4.93819555,5.20330313 4.85431145,5.27035968 C4.77042736,5.33728653 4.68834446,5.38657374 4.60793409,5.41835103 C4.52765238,5.44999861 4.45251693,5.4658224 4.3826564,5.4658224 L1.36385822,5.4658224 C0.993455901,5.4658224 0.677218008,5.59811966 0.415144538,5.86219537 C0.153199724,6.12627107 0.022098661,6.44508153 0.022098661,6.81849703 L0.022098661,13.5816108 C0.022098661,13.9550263 0.153071068,14.2738368 0.415144538,14.5380422 C0.677346664,14.8021179 0.993455901,14.9344151 1.36385822,14.9344151 L4.3826564,14.9344151 C4.79487211,14.9344151 5.57401641,15.1423294 6.7200893,15.5578984 C8.04074917,16.044026 9.16585104,16.2869601 10.0952662,16.2869601 C11.0805184,16.2869601 11.8736862,16.0032992 12.4746412,15.4362368 C13.0755961,14.8691744 13.3726642,14.0960137 13.365588,13.1166248 C13.7851372,12.5740764 13.9947188,11.9470911 13.9947188,11.2356691 C13.9947188,11.0808035 13.9841689,10.9293101 13.9633266,10.7813188 C14.1940078,10.3797577 14.323179,9.96055696 14.3512262,9.5238463 L16.1226987,9.5238463 C16.8564272,9.5238463 17.4872305,9.2561389 18.0148512,8.72085381 C18.5423432,8.18543902 18.8060892,7.54794781 18.8060892,6.80825048 C18.8059605,6.0825611 18.5404133,5.45194416 18.0094476,4.91614025 L18.0094476,4.91614025 Z M2.50632872,13.38096 C2.37355512,13.5148137 2.21633677,13.5817405 2.03467367,13.5817405 C1.85288191,13.5817405 1.69566356,13.5148137 1.56288996,13.38096 C1.43011636,13.2471063 1.36372956,13.0886089 1.36372956,12.905468 C1.36372956,12.7223271 1.43011636,12.5637001 1.56288996,12.4299761 C1.69579222,12.2961224 1.85288191,12.2290659 2.03467367,12.2290659 C2.21633677,12.2290659 2.37355512,12.2961224 2.50632872,12.4299761 C2.63910232,12.5637001 2.70548912,12.7223271 2.70548912,12.905468 C2.70548912,13.0886089 2.63910232,13.2471063 2.50632872,13.38096 L2.50632872,13.38096 Z M17.0658802,7.77012938 C16.8004616,8.03783678 16.485639,8.17169048 16.1223128,8.17169048 L12.6528305,8.17169048 C12.757557,8.29140653 12.8449148,8.45885336 12.9147754,8.67364185 C12.9847645,8.88843034 13.0196305,9.08402276 13.0196305,9.26003 C13.0196305,9.74615758 12.8344936,10.1652286 12.4640913,10.5173728 C12.5900461,10.7427969 12.6528305,10.9859904 12.6528305,11.2465642 C12.6528305,11.5072676 12.59159,11.7661552 12.4693662,12.0232269 C12.3470138,12.2802986 12.1810468,12.4652554 11.9713366,12.5779675 C12.0062025,12.7889946 12.0238285,12.9864028 12.0238285,13.1696734 C12.0238285,14.3459517 11.3634342,14.9341557 10.0427743,14.9341557 C9.47668535,14.9341557 8.84948449,14.8214437 8.16117174,14.5961492 C7.47285899,14.3708547 6.79676862,14.1453009 6.13290063,13.9198767 C5.46903263,13.6944526 4.88557501,13.5817405 4.38239909,13.5817405 L4.04699136,13.5817405 L4.04699136,6.81875644 L4.38239909,6.81875644 C4.87849889,6.81875644 5.36765124,6.61797589 5.84985613,6.21628509 C6.05956637,6.04001845 6.41247139,5.66660295 6.9085712,5.09603858 C7.41174711,4.52547422 7.80312045,4.01483274 8.08256256,3.56385473 C8.17339412,3.41586338 8.30269399,3.18693724 8.47046218,2.8769466 C8.93169605,1.89768747 9.24613275,1.4081876 9.41390094,1.4081876 C9.91000074,1.4081876 10.3135965,1.51558185 10.6245594,1.73037034 C10.9355224,1.94528854 11.0909396,2.2886129 11.0909396,2.76060283 C11.0909396,3.0635895 11.0385763,3.36125833 10.9337212,3.65360934 C10.8288661,3.94596034 10.7135898,4.18552215 10.5878923,4.37216505 C10.4621948,4.55880795 10.3467899,4.75258452 10.2420634,4.95336507 C10.1372083,5.15414562 10.084845,5.32496473 10.084845,5.4658224 L16.1225701,5.4658224 C16.4718727,5.4658224 16.7829643,5.60149194 17.0555876,5.87270132 C17.3279536,6.14404041 17.464201,6.45908947 17.464201,6.81849703 C17.4640723,7.18503826 17.3314274,7.50203288 17.0658802,7.77012938 L17.0658802,7.77012938 Z" id="Shape"></path>
                </g>
            </g>
            <g transform="translate(254.937107, 208.128700)" opacity="0.87">
                <g id="icon-hand" transform="translate(10.309779, 8.521500) rotate(-21.000000) translate(-10.309779, -8.521500) ">
                    <path d="M18.8280588,4.91614025 C18.2726893,4.38072546 17.6150962,4.11301806 16.8554142,4.11301806 L12.756924,4.11301806 C12.9176571,3.69031534 12.9980908,3.23946703 12.9980908,2.76034342 C12.9980908,1.90093005 12.7002976,1.23529324 12.1048457,0.763173607 C11.5092592,0.291183676 10.7550919,0.0552535616 9.84194003,0.0552535616 C9.56432251,0.0552535616 9.31037779,0.11686258 9.0802404,0.24021032 C8.850103,0.363428356 8.64915311,0.537879155 8.47752522,0.763173607 C8.30589733,0.988597763 8.15794225,1.21051993 8.03379449,1.42894011 C7.90951223,1.6473603 7.77433509,1.90093005 7.62826308,2.18977906 C7.48219107,2.47875779 7.36167493,2.69704826 7.26671467,2.84503961 C7.0110214,3.23259276 6.64570687,3.68681336 6.17090558,4.20822021 C6.15624457,4.22936183 6.10513282,4.2892847 6.01743581,4.38785913 C5.9297388,4.48656326 5.86033442,4.56230993 5.80922267,4.61509913 C5.75811091,4.66788833 5.68332635,4.743635 5.58459996,4.84233913 C5.48587357,4.94104326 5.39817656,5.02016221 5.32150893,5.08008509 C5.2448413,5.14000797 5.16265898,5.20330313 5.07496198,5.27035968 C4.98726497,5.33728653 4.90145102,5.38657374 4.81738564,5.41835103 C4.73345476,5.44999861 4.65490406,5.4658224 4.58186806,5.4658224 L1.42585177,5.4658224 C1.03861299,5.4658224 0.708000645,5.59811966 0.434014744,5.86219537 C0.160163348,6.12627107 0.0231031456,6.44508153 0.0231031456,6.81849703 L0.0231031456,13.5816108 C0.0231031456,13.9550263 0.160028844,14.2738368 0.434014744,14.5380422 C0.708135149,14.8021179 1.03861299,14.9344151 1.42585177,14.9344151 L4.58186806,14.9344151 C5.01282084,14.9344151 5.82738079,15.1423294 7.0255479,15.5578984 C8.40623777,16.044026 9.58248063,16.2869601 10.554142,16.2869601 C11.5841783,16.2869601 12.4133993,16.0032992 13.0416703,15.4362368 C13.6699414,14.8691744 13.9805125,14.0960137 13.9731148,13.1166248 C14.4117343,12.5740764 14.6308423,11.9470911 14.6308423,11.2356691 C14.6308423,11.0808035 14.619813,10.9293101 14.5980232,10.7813188 C14.83919,10.3797577 14.9742326,9.96055696 15.0035546,9.5238463 L16.8555487,9.5238463 C17.6226285,9.5238463 18.2821046,9.2561389 18.833708,8.72085381 C19.385177,8.18543902 19.6609114,7.54794781 19.6609114,6.80825048 C19.6607769,6.0825611 19.3831594,5.45194416 18.8280588,4.91614025 L18.8280588,4.91614025 Z M2.62025275,13.38096 C2.48144399,13.5148137 2.31707935,13.5817405 2.12715884,13.5817405 C1.93710382,13.5817405 1.77273918,13.5148137 1.63393041,13.38096 C1.49512165,13.2471063 1.42571727,13.0886089 1.42571727,12.905468 C1.42571727,12.7223271 1.49512165,12.5637001 1.63393041,12.4299761 C1.77287368,12.2961224 1.93710382,12.2290659 2.12715884,12.2290659 C2.31707935,12.2290659 2.48144399,12.2961224 2.62025275,12.4299761 C2.75906152,12.5637001 2.8284659,12.7223271 2.8284659,12.905468 C2.8284659,13.0886089 2.75906152,13.2471063 2.62025275,13.38096 L2.62025275,13.38096 Z M17.841602,7.77012938 C17.564119,8.03783678 17.2349862,8.17169048 16.8551452,8.17169048 L13.2279592,8.17169048 C13.337446,8.29140653 13.4287746,8.45885336 13.5018106,8.67364185 C13.5749811,8.88843034 13.6114319,9.08402276 13.6114319,9.26003 C13.6114319,9.74615758 13.4178797,10.1652286 13.0306409,10.5173728 C13.162321,10.7427969 13.2279592,10.9859904 13.2279592,11.2465642 C13.2279592,11.5072676 13.163935,11.7661552 13.0361556,12.0232269 C12.9082417,12.2802986 12.7347308,12.4652554 12.5154883,12.5779675 C12.551939,12.7889946 12.5703661,12.9864028 12.5703661,13.1696734 C12.5703661,14.3459517 11.879954,14.9341557 10.4992641,14.9341557 C9.90744378,14.9341557 9.25173378,14.8214437 8.53213409,14.5961492 C7.8125344,14.3708547 7.10571265,14.1453009 6.41166884,13.9198767 C5.71762503,13.6944526 5.1076466,13.5817405 4.58159905,13.5817405 L4.23094552,13.5817405 L4.23094552,6.81875644 L4.58159905,6.81875644 C5.10024884,6.81875644 5.61163539,6.61797589 6.11575869,6.21628509 C6.33500121,6.04001845 6.70394737,5.66660295 7.22259716,5.09603858 C7.74864471,4.52547422 8.15780775,4.01483274 8.44995177,3.56385473 C8.54491203,3.41586338 8.68008917,3.18693724 8.85548319,2.8769466 C9.33768223,1.89768747 9.66641151,1.4081876 9.84180553,1.4081876 C10.3604553,1.4081876 10.7823963,1.51558185 11.107494,1.73037034 C11.4325916,1.94528854 11.5950732,2.2886129 11.5950732,2.76060283 C11.5950732,3.0635895 11.5403298,3.36125833 11.4307085,3.65360934 C11.3210873,3.94596034 11.2005711,4.18552215 11.0691601,4.37216505 C10.9377491,4.55880795 10.8170985,4.75258452 10.7076117,4.95336507 C10.5979905,5.15414562 10.5432471,5.32496473 10.5432471,5.4658224 L16.8554142,5.4658224 C17.2205942,5.4658224 17.5458264,5.60149194 17.8308416,5.87270132 C18.1155879,6.14404041 18.2580283,6.45908947 18.2580283,6.81849703 C18.2578938,7.18503826 18.1192195,7.50203288 17.841602,7.77012938 L17.841602,7.77012938 Z" id="Shape"></path>
                </g>
            </g>
        </g>
    </g>
</svg>